G04 #@! TF.GenerationSoftware,KiCad,Pcbnew,(5.1.9)-1*
G04 #@! TF.CreationDate,2021-03-29T17:21:37+03:00*
G04 #@! TF.ProjectId,hotshot_keyboard,686f7473-686f-4745-9f6b-6579626f6172,rev?*
G04 #@! TF.SameCoordinates,Original*
G04 #@! TF.FileFunction,Legend,Bot*
G04 #@! TF.FilePolarity,Positive*
%FSLAX46Y46*%
G04 Gerber Fmt 4.6, Leading zero omitted, Abs format (unit mm)*
G04 Created by KiCad (PCBNEW (5.1.9)-1) date 2021-03-29 17:21:37*
%MOMM*%
%LPD*%
G01*
G04 APERTURE LIST*
%ADD10C,0.120000*%
%ADD11C,0.150000*%
%ADD12C,0.250000*%
G04 APERTURE END LIST*
D10*
X234347936Y-32110000D02*
X235552064Y-32110000D01*
X234347936Y-33930000D02*
X235552064Y-33930000D01*
X239918750Y-30031250D02*
X239918750Y-26131250D01*
X237918750Y-30031250D02*
X237918750Y-26131250D01*
X239918750Y-30031250D02*
X237918750Y-30031250D01*
X187425000Y-105148748D02*
X187425000Y-105671252D01*
X185955000Y-105148748D02*
X185955000Y-105671252D01*
D11*
X243220000Y-26850000D02*
X241920000Y-26850000D01*
X243220000Y-23950000D02*
X243220000Y-26850000D01*
X241920000Y-23950000D02*
X243220000Y-23950000D01*
X241920000Y-23950000D02*
X241920000Y-26850000D01*
D10*
X175100000Y-103160000D02*
X180500000Y-103160000D01*
X175100000Y-107660000D02*
X175100000Y-103160000D01*
D11*
X182975000Y-90650000D02*
X184250000Y-90650000D01*
X172625000Y-90075000D02*
X173300000Y-90075000D01*
X172625000Y-100425000D02*
X173300000Y-100425000D01*
X182975000Y-100425000D02*
X182300000Y-100425000D01*
X182975000Y-90075000D02*
X182300000Y-90075000D01*
X182975000Y-100425000D02*
X182975000Y-99750000D01*
X172625000Y-100425000D02*
X172625000Y-99750000D01*
X172625000Y-90075000D02*
X172625000Y-90750000D01*
X182975000Y-90075000D02*
X182975000Y-90650000D01*
D10*
X208100000Y-108130000D02*
X207610000Y-107640000D01*
X211000000Y-108130000D02*
X208100000Y-108130000D01*
X211000000Y-108130000D02*
X211490000Y-107640000D01*
X211000000Y-102690000D02*
X208100000Y-102690000D01*
X211000000Y-102690000D02*
X211490000Y-103180000D01*
X206830000Y-106450000D02*
X206830000Y-104370000D01*
X208100000Y-102690000D02*
X207610000Y-103180000D01*
X212270000Y-106450000D02*
X212270000Y-104370000D01*
X244375000Y-20076936D02*
X244375000Y-20531064D01*
X245845000Y-20076936D02*
X245845000Y-20531064D01*
X240257064Y-22325000D02*
X239802936Y-22325000D01*
X240257064Y-20855000D02*
X239802936Y-20855000D01*
X191035000Y-89127064D02*
X191035000Y-88672936D01*
X192505000Y-89127064D02*
X192505000Y-88672936D01*
X188495000Y-89127064D02*
X188495000Y-88672936D01*
X189965000Y-89127064D02*
X189965000Y-88672936D01*
X168175000Y-90397064D02*
X168175000Y-89942936D01*
X169645000Y-90397064D02*
X169645000Y-89942936D01*
X203935000Y-105182936D02*
X203935000Y-105637064D01*
X202465000Y-105182936D02*
X202465000Y-105637064D01*
X238187500Y-8800000D02*
X247587500Y-8800000D01*
X247587500Y-14600000D02*
X247587500Y-12600000D01*
X247587500Y-10700000D02*
X247587500Y-8800000D01*
X238187500Y-14600000D02*
X238187500Y-12600000D01*
X238187500Y-10700000D02*
X238187500Y-8800000D01*
D12*
X205780000Y-91460000D02*
X210780000Y-91460000D01*
X210780000Y-91460000D02*
X210780000Y-88960000D01*
X210780000Y-88960000D02*
X205780000Y-88960000D01*
X205780000Y-88960000D02*
X205780000Y-91460000D01*
D10*
X294687500Y-106231250D02*
X294687500Y-102331250D01*
X292687500Y-106231250D02*
X292687500Y-102331250D01*
X294687500Y-106231250D02*
X292687500Y-106231250D01*
X270875000Y-106231250D02*
X270875000Y-102331250D01*
X268875000Y-106231250D02*
X268875000Y-102331250D01*
X270875000Y-106231250D02*
X268875000Y-106231250D01*
X247062500Y-106231250D02*
X247062500Y-102331250D01*
X245062500Y-106231250D02*
X245062500Y-102331250D01*
X247062500Y-106231250D02*
X245062500Y-106231250D01*
X223250000Y-106231250D02*
X223250000Y-102331250D01*
X221250000Y-106231250D02*
X221250000Y-102331250D01*
X223250000Y-106231250D02*
X221250000Y-106231250D01*
X151812500Y-106231250D02*
X151812500Y-102331250D01*
X149812500Y-106231250D02*
X149812500Y-102331250D01*
X151812500Y-106231250D02*
X149812500Y-106231250D01*
X80375000Y-106231250D02*
X80375000Y-102331250D01*
X78375000Y-106231250D02*
X78375000Y-102331250D01*
X80375000Y-106231250D02*
X78375000Y-106231250D01*
X56562500Y-106231250D02*
X56562500Y-102331250D01*
X54562500Y-106231250D02*
X54562500Y-102331250D01*
X56562500Y-106231250D02*
X54562500Y-106231250D01*
X32750000Y-106231250D02*
X32750000Y-102331250D01*
X30750000Y-106231250D02*
X30750000Y-102331250D01*
X32750000Y-106231250D02*
X30750000Y-106231250D01*
X280400000Y-87181250D02*
X280400000Y-83281250D01*
X278400000Y-87181250D02*
X278400000Y-83281250D01*
X280400000Y-87181250D02*
X278400000Y-87181250D01*
X244681250Y-87181250D02*
X244681250Y-83281250D01*
X242681250Y-87181250D02*
X242681250Y-83281250D01*
X244681250Y-87181250D02*
X242681250Y-87181250D01*
X225631250Y-87181250D02*
X225631250Y-83281250D01*
X223631250Y-87181250D02*
X223631250Y-83281250D01*
X225631250Y-87181250D02*
X223631250Y-87181250D01*
X206581250Y-87181250D02*
X206581250Y-83281250D01*
X204581250Y-87181250D02*
X204581250Y-83281250D01*
X206581250Y-87181250D02*
X204581250Y-87181250D01*
X187531250Y-87181250D02*
X187531250Y-83281250D01*
X185531250Y-87181250D02*
X185531250Y-83281250D01*
X187531250Y-87181250D02*
X185531250Y-87181250D01*
X168481250Y-87181250D02*
X168481250Y-83281250D01*
X166481250Y-87181250D02*
X166481250Y-83281250D01*
X168481250Y-87181250D02*
X166481250Y-87181250D01*
X149431250Y-87181250D02*
X149431250Y-83281250D01*
X147431250Y-87181250D02*
X147431250Y-83281250D01*
X149431250Y-87181250D02*
X147431250Y-87181250D01*
X130381250Y-87181250D02*
X130381250Y-83281250D01*
X128381250Y-87181250D02*
X128381250Y-83281250D01*
X130381250Y-87181250D02*
X128381250Y-87181250D01*
X111331250Y-87181250D02*
X111331250Y-83281250D01*
X109331250Y-87181250D02*
X109331250Y-83281250D01*
X111331250Y-87181250D02*
X109331250Y-87181250D01*
X92281250Y-87181250D02*
X92281250Y-83281250D01*
X90281250Y-87181250D02*
X90281250Y-83281250D01*
X92281250Y-87181250D02*
X90281250Y-87181250D01*
X73231250Y-87181250D02*
X73231250Y-83281250D01*
X71231250Y-87181250D02*
X71231250Y-83281250D01*
X73231250Y-87181250D02*
X71231250Y-87181250D01*
X42275000Y-87181250D02*
X42275000Y-83281250D01*
X40275000Y-87181250D02*
X40275000Y-83281250D01*
X42275000Y-87181250D02*
X40275000Y-87181250D01*
X285162500Y-68131250D02*
X285162500Y-64231250D01*
X283162500Y-68131250D02*
X283162500Y-64231250D01*
X285162500Y-68131250D02*
X283162500Y-68131250D01*
X254206250Y-68131250D02*
X254206250Y-64231250D01*
X252206250Y-68131250D02*
X252206250Y-64231250D01*
X254206250Y-68131250D02*
X252206250Y-68131250D01*
X235156250Y-68131250D02*
X235156250Y-64231250D01*
X233156250Y-68131250D02*
X233156250Y-64231250D01*
X235156250Y-68131250D02*
X233156250Y-68131250D01*
X216106250Y-68131250D02*
X216106250Y-64231250D01*
X214106250Y-68131250D02*
X214106250Y-64231250D01*
X216106250Y-68131250D02*
X214106250Y-68131250D01*
X197056250Y-68131250D02*
X197056250Y-64231250D01*
X195056250Y-68131250D02*
X195056250Y-64231250D01*
X197056250Y-68131250D02*
X195056250Y-68131250D01*
X178006250Y-68131250D02*
X178006250Y-64231250D01*
X176006250Y-68131250D02*
X176006250Y-64231250D01*
X178006250Y-68131250D02*
X176006250Y-68131250D01*
X158956250Y-68131250D02*
X158956250Y-64231250D01*
X156956250Y-68131250D02*
X156956250Y-64231250D01*
X158956250Y-68131250D02*
X156956250Y-68131250D01*
X139906250Y-68131250D02*
X139906250Y-64231250D01*
X137906250Y-68131250D02*
X137906250Y-64231250D01*
X139906250Y-68131250D02*
X137906250Y-68131250D01*
X120856250Y-68131250D02*
X120856250Y-64231250D01*
X118856250Y-68131250D02*
X118856250Y-64231250D01*
X120856250Y-68131250D02*
X118856250Y-68131250D01*
X101806250Y-68131250D02*
X101806250Y-64231250D01*
X99806250Y-68131250D02*
X99806250Y-64231250D01*
X101806250Y-68131250D02*
X99806250Y-68131250D01*
X82756250Y-68131250D02*
X82756250Y-64231250D01*
X80756250Y-68131250D02*
X80756250Y-64231250D01*
X82756250Y-68131250D02*
X80756250Y-68131250D01*
X63706250Y-68131250D02*
X63706250Y-64231250D01*
X61706250Y-68131250D02*
X61706250Y-64231250D01*
X63706250Y-68131250D02*
X61706250Y-68131250D01*
X37512500Y-68131250D02*
X37512500Y-64231250D01*
X35512500Y-68131250D02*
X35512500Y-64231250D01*
X37512500Y-68131250D02*
X35512500Y-68131250D01*
X292306250Y-49081250D02*
X292306250Y-45181250D01*
X290306250Y-49081250D02*
X290306250Y-45181250D01*
X292306250Y-49081250D02*
X290306250Y-49081250D01*
X268493750Y-49081250D02*
X268493750Y-45181250D01*
X266493750Y-49081250D02*
X266493750Y-45181250D01*
X268493750Y-49081250D02*
X266493750Y-49081250D01*
X249443750Y-49081250D02*
X249443750Y-45181250D01*
X247443750Y-49081250D02*
X247443750Y-45181250D01*
X249443750Y-49081250D02*
X247443750Y-49081250D01*
X230393750Y-49081250D02*
X230393750Y-45181250D01*
X228393750Y-49081250D02*
X228393750Y-45181250D01*
X230393750Y-49081250D02*
X228393750Y-49081250D01*
X211343750Y-49081250D02*
X211343750Y-45181250D01*
X209343750Y-49081250D02*
X209343750Y-45181250D01*
X211343750Y-49081250D02*
X209343750Y-49081250D01*
X192293750Y-49081250D02*
X192293750Y-45181250D01*
X190293750Y-49081250D02*
X190293750Y-45181250D01*
X192293750Y-49081250D02*
X190293750Y-49081250D01*
X173243750Y-49081250D02*
X173243750Y-45181250D01*
X171243750Y-49081250D02*
X171243750Y-45181250D01*
X173243750Y-49081250D02*
X171243750Y-49081250D01*
X154193750Y-49081250D02*
X154193750Y-45181250D01*
X152193750Y-49081250D02*
X152193750Y-45181250D01*
X154193750Y-49081250D02*
X152193750Y-49081250D01*
X135143750Y-49081250D02*
X135143750Y-45181250D01*
X133143750Y-49081250D02*
X133143750Y-45181250D01*
X135143750Y-49081250D02*
X133143750Y-49081250D01*
X116093750Y-49081250D02*
X116093750Y-45181250D01*
X114093750Y-49081250D02*
X114093750Y-45181250D01*
X116093750Y-49081250D02*
X114093750Y-49081250D01*
X97043750Y-49081250D02*
X97043750Y-45181250D01*
X95043750Y-49081250D02*
X95043750Y-45181250D01*
X97043750Y-49081250D02*
X95043750Y-49081250D01*
X77993750Y-49081250D02*
X77993750Y-45181250D01*
X75993750Y-49081250D02*
X75993750Y-45181250D01*
X77993750Y-49081250D02*
X75993750Y-49081250D01*
X58943750Y-49081250D02*
X58943750Y-45181250D01*
X56943750Y-49081250D02*
X56943750Y-45181250D01*
X58943750Y-49081250D02*
X56943750Y-49081250D01*
X35131250Y-49081250D02*
X35131250Y-45181250D01*
X33131250Y-49081250D02*
X33131250Y-45181250D01*
X35131250Y-49081250D02*
X33131250Y-49081250D01*
X287543750Y-30031250D02*
X287543750Y-26131250D01*
X285543750Y-30031250D02*
X285543750Y-26131250D01*
X287543750Y-30031250D02*
X285543750Y-30031250D01*
X258968750Y-30031250D02*
X258968750Y-26131250D01*
X256968750Y-30031250D02*
X256968750Y-26131250D01*
X258968750Y-30031250D02*
X256968750Y-30031250D01*
X220868750Y-30031250D02*
X220868750Y-26131250D01*
X218868750Y-30031250D02*
X218868750Y-26131250D01*
X220868750Y-30031250D02*
X218868750Y-30031250D01*
X201818750Y-30031250D02*
X201818750Y-26131250D01*
X199818750Y-30031250D02*
X199818750Y-26131250D01*
X201818750Y-30031250D02*
X199818750Y-30031250D01*
X182768750Y-30031250D02*
X182768750Y-26131250D01*
X180768750Y-30031250D02*
X180768750Y-26131250D01*
X182768750Y-30031250D02*
X180768750Y-30031250D01*
X163718750Y-30031250D02*
X163718750Y-26131250D01*
X161718750Y-30031250D02*
X161718750Y-26131250D01*
X163718750Y-30031250D02*
X161718750Y-30031250D01*
X144668750Y-30031250D02*
X144668750Y-26131250D01*
X142668750Y-30031250D02*
X142668750Y-26131250D01*
X144668750Y-30031250D02*
X142668750Y-30031250D01*
X125618750Y-30031250D02*
X125618750Y-26131250D01*
X123618750Y-30031250D02*
X123618750Y-26131250D01*
X125618750Y-30031250D02*
X123618750Y-30031250D01*
X106568750Y-30031250D02*
X106568750Y-26131250D01*
X104568750Y-30031250D02*
X104568750Y-26131250D01*
X106568750Y-30031250D02*
X104568750Y-30031250D01*
X87518750Y-30031250D02*
X87518750Y-26131250D01*
X85518750Y-30031250D02*
X85518750Y-26131250D01*
X87518750Y-30031250D02*
X85518750Y-30031250D01*
X68468750Y-30031250D02*
X68468750Y-26131250D01*
X66468750Y-30031250D02*
X66468750Y-26131250D01*
X68468750Y-30031250D02*
X66468750Y-30031250D01*
X49418750Y-30031250D02*
X49418750Y-26131250D01*
X47418750Y-30031250D02*
X47418750Y-26131250D01*
X49418750Y-30031250D02*
X47418750Y-30031250D01*
X30368750Y-30031250D02*
X30368750Y-26131250D01*
X28368750Y-30031250D02*
X28368750Y-26131250D01*
X30368750Y-30031250D02*
X28368750Y-30031250D01*
X187698748Y-98325000D02*
X188221252Y-98325000D01*
X187698748Y-99795000D02*
X188221252Y-99795000D01*
X181871252Y-87095000D02*
X181348748Y-87095000D01*
X181871252Y-85625000D02*
X181348748Y-85625000D01*
X173707248Y-85625000D02*
X174229752Y-85625000D01*
X173707248Y-87095000D02*
X174229752Y-87095000D01*
X169645000Y-98798748D02*
X169645000Y-99321252D01*
X168175000Y-98798748D02*
X168175000Y-99321252D01*
X185955000Y-95511252D02*
X185955000Y-94988748D01*
X187425000Y-95511252D02*
X187425000Y-94988748D01*
X182145000Y-105671252D02*
X182145000Y-105148748D01*
X183615000Y-105671252D02*
X183615000Y-105148748D01*
X173455000Y-105148748D02*
X173455000Y-105671252D01*
X171985000Y-105148748D02*
X171985000Y-105671252D01*
D11*
X235283333Y-34768571D02*
X235616666Y-34768571D01*
X235616666Y-35292380D02*
X235616666Y-34292380D01*
X235140476Y-34292380D01*
X234235714Y-35292380D02*
X234807142Y-35292380D01*
X234521428Y-35292380D02*
X234521428Y-34292380D01*
X234616666Y-34435238D01*
X234711904Y-34530476D01*
X234807142Y-34578095D01*
X241371130Y-26566964D02*
X240371130Y-26566964D01*
X240371130Y-26805059D01*
X240418750Y-26947916D01*
X240513988Y-27043154D01*
X240609226Y-27090773D01*
X240799702Y-27138392D01*
X240942559Y-27138392D01*
X241133035Y-27090773D01*
X241228273Y-27043154D01*
X241323511Y-26947916D01*
X241371130Y-26805059D01*
X241371130Y-26566964D01*
X241371130Y-28090773D02*
X241371130Y-27519345D01*
X241371130Y-27805059D02*
X240371130Y-27805059D01*
X240513988Y-27709821D01*
X240609226Y-27614583D01*
X240656845Y-27519345D01*
X240466369Y-28471726D02*
X240418750Y-28519345D01*
X240371130Y-28614583D01*
X240371130Y-28852678D01*
X240418750Y-28947916D01*
X240466369Y-28995535D01*
X240561607Y-29043154D01*
X240656845Y-29043154D01*
X240799702Y-28995535D01*
X241371130Y-28424107D01*
X241371130Y-29043154D01*
X188825142Y-105243333D02*
X188872761Y-105195714D01*
X188920380Y-105052857D01*
X188920380Y-104957619D01*
X188872761Y-104814761D01*
X188777523Y-104719523D01*
X188682285Y-104671904D01*
X188491809Y-104624285D01*
X188348952Y-104624285D01*
X188158476Y-104671904D01*
X188063238Y-104719523D01*
X187968000Y-104814761D01*
X187920380Y-104957619D01*
X187920380Y-105052857D01*
X187968000Y-105195714D01*
X188015619Y-105243333D01*
X187920380Y-106148095D02*
X187920380Y-105671904D01*
X188396571Y-105624285D01*
X188348952Y-105671904D01*
X188301333Y-105767142D01*
X188301333Y-106005238D01*
X188348952Y-106100476D01*
X188396571Y-106148095D01*
X188491809Y-106195714D01*
X188729904Y-106195714D01*
X188825142Y-106148095D01*
X188872761Y-106100476D01*
X188920380Y-106005238D01*
X188920380Y-105767142D01*
X188872761Y-105671904D01*
X188825142Y-105624285D01*
X243331904Y-27302380D02*
X243331904Y-28111904D01*
X243284285Y-28207142D01*
X243236666Y-28254761D01*
X243141428Y-28302380D01*
X242950952Y-28302380D01*
X242855714Y-28254761D01*
X242808095Y-28207142D01*
X242760476Y-28111904D01*
X242760476Y-27302380D01*
X242331904Y-27397619D02*
X242284285Y-27350000D01*
X242189047Y-27302380D01*
X241950952Y-27302380D01*
X241855714Y-27350000D01*
X241808095Y-27397619D01*
X241760476Y-27492857D01*
X241760476Y-27588095D01*
X241808095Y-27730952D01*
X242379523Y-28302380D01*
X241760476Y-28302380D01*
X178276190Y-108436190D02*
X178276190Y-108912380D01*
X178609523Y-107912380D02*
X178276190Y-108436190D01*
X177942857Y-107912380D01*
X177085714Y-108912380D02*
X177657142Y-108912380D01*
X177371428Y-108912380D02*
X177371428Y-107912380D01*
X177466666Y-108055238D01*
X177561904Y-108150476D01*
X177657142Y-108198095D01*
X178561904Y-87252380D02*
X178561904Y-88061904D01*
X178514285Y-88157142D01*
X178466666Y-88204761D01*
X178371428Y-88252380D01*
X178180952Y-88252380D01*
X178085714Y-88204761D01*
X178038095Y-88157142D01*
X177990476Y-88061904D01*
X177990476Y-87252380D01*
X176990476Y-88252380D02*
X177561904Y-88252380D01*
X177276190Y-88252380D02*
X177276190Y-87252380D01*
X177371428Y-87395238D01*
X177466666Y-87490476D01*
X177561904Y-87538095D01*
X210883333Y-102214761D02*
X210740476Y-102262380D01*
X210502380Y-102262380D01*
X210407142Y-102214761D01*
X210359523Y-102167142D01*
X210311904Y-102071904D01*
X210311904Y-101976666D01*
X210359523Y-101881428D01*
X210407142Y-101833809D01*
X210502380Y-101786190D01*
X210692857Y-101738571D01*
X210788095Y-101690952D01*
X210835714Y-101643333D01*
X210883333Y-101548095D01*
X210883333Y-101452857D01*
X210835714Y-101357619D01*
X210788095Y-101310000D01*
X210692857Y-101262380D01*
X210454761Y-101262380D01*
X210311904Y-101310000D01*
X209978571Y-101262380D02*
X209740476Y-102262380D01*
X209550000Y-101548095D01*
X209359523Y-102262380D01*
X209121428Y-101262380D01*
X208216666Y-102262380D02*
X208788095Y-102262380D01*
X208502380Y-102262380D02*
X208502380Y-101262380D01*
X208597619Y-101405238D01*
X208692857Y-101500476D01*
X208788095Y-101548095D01*
X243912380Y-20137333D02*
X243436190Y-19804000D01*
X243912380Y-19565904D02*
X242912380Y-19565904D01*
X242912380Y-19946857D01*
X242960000Y-20042095D01*
X243007619Y-20089714D01*
X243102857Y-20137333D01*
X243245714Y-20137333D01*
X243340952Y-20089714D01*
X243388571Y-20042095D01*
X243436190Y-19946857D01*
X243436190Y-19565904D01*
X242912380Y-20994476D02*
X242912380Y-20804000D01*
X242960000Y-20708761D01*
X243007619Y-20661142D01*
X243150476Y-20565904D01*
X243340952Y-20518285D01*
X243721904Y-20518285D01*
X243817142Y-20565904D01*
X243864761Y-20613523D01*
X243912380Y-20708761D01*
X243912380Y-20899238D01*
X243864761Y-20994476D01*
X243817142Y-21042095D01*
X243721904Y-21089714D01*
X243483809Y-21089714D01*
X243388571Y-21042095D01*
X243340952Y-20994476D01*
X243293333Y-20899238D01*
X243293333Y-20708761D01*
X243340952Y-20613523D01*
X243388571Y-20565904D01*
X243483809Y-20518285D01*
X240196666Y-20454880D02*
X240530000Y-19978690D01*
X240768095Y-20454880D02*
X240768095Y-19454880D01*
X240387142Y-19454880D01*
X240291904Y-19502500D01*
X240244285Y-19550119D01*
X240196666Y-19645357D01*
X240196666Y-19788214D01*
X240244285Y-19883452D01*
X240291904Y-19931071D01*
X240387142Y-19978690D01*
X240768095Y-19978690D01*
X239291904Y-19454880D02*
X239768095Y-19454880D01*
X239815714Y-19931071D01*
X239768095Y-19883452D01*
X239672857Y-19835833D01*
X239434761Y-19835833D01*
X239339523Y-19883452D01*
X239291904Y-19931071D01*
X239244285Y-20026309D01*
X239244285Y-20264404D01*
X239291904Y-20359642D01*
X239339523Y-20407261D01*
X239434761Y-20454880D01*
X239672857Y-20454880D01*
X239768095Y-20407261D01*
X239815714Y-20359642D01*
X193872380Y-88733333D02*
X193396190Y-88400000D01*
X193872380Y-88161904D02*
X192872380Y-88161904D01*
X192872380Y-88542857D01*
X192920000Y-88638095D01*
X192967619Y-88685714D01*
X193062857Y-88733333D01*
X193205714Y-88733333D01*
X193300952Y-88685714D01*
X193348571Y-88638095D01*
X193396190Y-88542857D01*
X193396190Y-88161904D01*
X193205714Y-89590476D02*
X193872380Y-89590476D01*
X192824761Y-89352380D02*
X193539047Y-89114285D01*
X193539047Y-89733333D01*
X188094880Y-88733333D02*
X187618690Y-88400000D01*
X188094880Y-88161904D02*
X187094880Y-88161904D01*
X187094880Y-88542857D01*
X187142500Y-88638095D01*
X187190119Y-88685714D01*
X187285357Y-88733333D01*
X187428214Y-88733333D01*
X187523452Y-88685714D01*
X187571071Y-88638095D01*
X187618690Y-88542857D01*
X187618690Y-88161904D01*
X187094880Y-89066666D02*
X187094880Y-89685714D01*
X187475833Y-89352380D01*
X187475833Y-89495238D01*
X187523452Y-89590476D01*
X187571071Y-89638095D01*
X187666309Y-89685714D01*
X187904404Y-89685714D01*
X187999642Y-89638095D01*
X188047261Y-89590476D01*
X188094880Y-89495238D01*
X188094880Y-89209523D01*
X188047261Y-89114285D01*
X187999642Y-89066666D01*
X167711380Y-89876333D02*
X167235190Y-89543000D01*
X167711380Y-89304904D02*
X166711380Y-89304904D01*
X166711380Y-89685857D01*
X166759000Y-89781095D01*
X166806619Y-89828714D01*
X166901857Y-89876333D01*
X167044714Y-89876333D01*
X167139952Y-89828714D01*
X167187571Y-89781095D01*
X167235190Y-89685857D01*
X167235190Y-89304904D01*
X166806619Y-90257285D02*
X166759000Y-90304904D01*
X166711380Y-90400142D01*
X166711380Y-90638238D01*
X166759000Y-90733476D01*
X166806619Y-90781095D01*
X166901857Y-90828714D01*
X166997095Y-90828714D01*
X167139952Y-90781095D01*
X167711380Y-90209666D01*
X167711380Y-90828714D01*
X202002380Y-105243333D02*
X201526190Y-104910000D01*
X202002380Y-104671904D02*
X201002380Y-104671904D01*
X201002380Y-105052857D01*
X201050000Y-105148095D01*
X201097619Y-105195714D01*
X201192857Y-105243333D01*
X201335714Y-105243333D01*
X201430952Y-105195714D01*
X201478571Y-105148095D01*
X201526190Y-105052857D01*
X201526190Y-104671904D01*
X202002380Y-106195714D02*
X202002380Y-105624285D01*
X202002380Y-105910000D02*
X201002380Y-105910000D01*
X201145238Y-105814761D01*
X201240476Y-105719523D01*
X201288095Y-105624285D01*
X243220833Y-17797380D02*
X243220833Y-18511666D01*
X243268452Y-18654523D01*
X243363690Y-18749761D01*
X243506547Y-18797380D01*
X243601785Y-18797380D01*
X242792261Y-17892619D02*
X242744642Y-17845000D01*
X242649404Y-17797380D01*
X242411309Y-17797380D01*
X242316071Y-17845000D01*
X242268452Y-17892619D01*
X242220833Y-17987857D01*
X242220833Y-18083095D01*
X242268452Y-18225952D01*
X242839880Y-18797380D01*
X242220833Y-18797380D01*
X205601428Y-95662380D02*
X205601428Y-94662380D01*
X205268095Y-95376666D01*
X204934761Y-94662380D01*
X204934761Y-95662380D01*
X204458571Y-95662380D02*
X204458571Y-94662380D01*
X204030000Y-95614761D02*
X203887142Y-95662380D01*
X203649047Y-95662380D01*
X203553809Y-95614761D01*
X203506190Y-95567142D01*
X203458571Y-95471904D01*
X203458571Y-95376666D01*
X203506190Y-95281428D01*
X203553809Y-95233809D01*
X203649047Y-95186190D01*
X203839523Y-95138571D01*
X203934761Y-95090952D01*
X203982380Y-95043333D01*
X204030000Y-94948095D01*
X204030000Y-94852857D01*
X203982380Y-94757619D01*
X203934761Y-94710000D01*
X203839523Y-94662380D01*
X203601428Y-94662380D01*
X203458571Y-94710000D01*
X202839523Y-94662380D02*
X202649047Y-94662380D01*
X202553809Y-94710000D01*
X202458571Y-94805238D01*
X202410952Y-94995714D01*
X202410952Y-95329047D01*
X202458571Y-95519523D01*
X202553809Y-95614761D01*
X202649047Y-95662380D01*
X202839523Y-95662380D01*
X202934761Y-95614761D01*
X203030000Y-95519523D01*
X203077619Y-95329047D01*
X203077619Y-94995714D01*
X203030000Y-94805238D01*
X202934761Y-94710000D01*
X202839523Y-94662380D01*
X213613333Y-94662380D02*
X213280000Y-95662380D01*
X212946666Y-94662380D01*
X212041904Y-95567142D02*
X212089523Y-95614761D01*
X212232380Y-95662380D01*
X212327619Y-95662380D01*
X212470476Y-95614761D01*
X212565714Y-95519523D01*
X212613333Y-95424285D01*
X212660952Y-95233809D01*
X212660952Y-95090952D01*
X212613333Y-94900476D01*
X212565714Y-94805238D01*
X212470476Y-94710000D01*
X212327619Y-94662380D01*
X212232380Y-94662380D01*
X212089523Y-94710000D01*
X212041904Y-94757619D01*
X211041904Y-95567142D02*
X211089523Y-95614761D01*
X211232380Y-95662380D01*
X211327619Y-95662380D01*
X211470476Y-95614761D01*
X211565714Y-95519523D01*
X211613333Y-95424285D01*
X211660952Y-95233809D01*
X211660952Y-95090952D01*
X211613333Y-94900476D01*
X211565714Y-94805238D01*
X211470476Y-94710000D01*
X211327619Y-94662380D01*
X211232380Y-94662380D01*
X211089523Y-94710000D01*
X211041904Y-94757619D01*
X205565714Y-93114761D02*
X205422857Y-93162380D01*
X205184761Y-93162380D01*
X205089523Y-93114761D01*
X205041904Y-93067142D01*
X204994285Y-92971904D01*
X204994285Y-92876666D01*
X205041904Y-92781428D01*
X205089523Y-92733809D01*
X205184761Y-92686190D01*
X205375238Y-92638571D01*
X205470476Y-92590952D01*
X205518095Y-92543333D01*
X205565714Y-92448095D01*
X205565714Y-92352857D01*
X205518095Y-92257619D01*
X205470476Y-92210000D01*
X205375238Y-92162380D01*
X205137142Y-92162380D01*
X204994285Y-92210000D01*
X203994285Y-93067142D02*
X204041904Y-93114761D01*
X204184761Y-93162380D01*
X204280000Y-93162380D01*
X204422857Y-93114761D01*
X204518095Y-93019523D01*
X204565714Y-92924285D01*
X204613333Y-92733809D01*
X204613333Y-92590952D01*
X204565714Y-92400476D01*
X204518095Y-92305238D01*
X204422857Y-92210000D01*
X204280000Y-92162380D01*
X204184761Y-92162380D01*
X204041904Y-92210000D01*
X203994285Y-92257619D01*
X203565714Y-93162380D02*
X203565714Y-92162380D01*
X202994285Y-93162380D02*
X203422857Y-92590952D01*
X202994285Y-92162380D02*
X203565714Y-92733809D01*
X214101428Y-93162380D02*
X214101428Y-92162380D01*
X213768095Y-92876666D01*
X213434761Y-92162380D01*
X213434761Y-93162380D01*
X212768095Y-92162380D02*
X212577619Y-92162380D01*
X212482380Y-92210000D01*
X212387142Y-92305238D01*
X212339523Y-92495714D01*
X212339523Y-92829047D01*
X212387142Y-93019523D01*
X212482380Y-93114761D01*
X212577619Y-93162380D01*
X212768095Y-93162380D01*
X212863333Y-93114761D01*
X212958571Y-93019523D01*
X213006190Y-92829047D01*
X213006190Y-92495714D01*
X212958571Y-92305238D01*
X212863333Y-92210000D01*
X212768095Y-92162380D01*
X211958571Y-93114761D02*
X211815714Y-93162380D01*
X211577619Y-93162380D01*
X211482380Y-93114761D01*
X211434761Y-93067142D01*
X211387142Y-92971904D01*
X211387142Y-92876666D01*
X211434761Y-92781428D01*
X211482380Y-92733809D01*
X211577619Y-92686190D01*
X211768095Y-92638571D01*
X211863333Y-92590952D01*
X211910952Y-92543333D01*
X211958571Y-92448095D01*
X211958571Y-92352857D01*
X211910952Y-92257619D01*
X211863333Y-92210000D01*
X211768095Y-92162380D01*
X211530000Y-92162380D01*
X211387142Y-92210000D01*
X210958571Y-93162380D02*
X210958571Y-92162380D01*
X204577619Y-90662380D02*
X204910952Y-90186190D01*
X205149047Y-90662380D02*
X205149047Y-89662380D01*
X204768095Y-89662380D01*
X204672857Y-89710000D01*
X204625238Y-89757619D01*
X204577619Y-89852857D01*
X204577619Y-89995714D01*
X204625238Y-90090952D01*
X204672857Y-90138571D01*
X204768095Y-90186190D01*
X205149047Y-90186190D01*
X204196666Y-90614761D02*
X204053809Y-90662380D01*
X203815714Y-90662380D01*
X203720476Y-90614761D01*
X203672857Y-90567142D01*
X203625238Y-90471904D01*
X203625238Y-90376666D01*
X203672857Y-90281428D01*
X203720476Y-90233809D01*
X203815714Y-90186190D01*
X204006190Y-90138571D01*
X204101428Y-90090952D01*
X204149047Y-90043333D01*
X204196666Y-89948095D01*
X204196666Y-89852857D01*
X204149047Y-89757619D01*
X204101428Y-89710000D01*
X204006190Y-89662380D01*
X203768095Y-89662380D01*
X203625238Y-89710000D01*
X203339523Y-89662380D02*
X202768095Y-89662380D01*
X203053809Y-90662380D02*
X203053809Y-89662380D01*
X213291904Y-89710000D02*
X213387142Y-89662380D01*
X213530000Y-89662380D01*
X213672857Y-89710000D01*
X213768095Y-89805238D01*
X213815714Y-89900476D01*
X213863333Y-90090952D01*
X213863333Y-90233809D01*
X213815714Y-90424285D01*
X213768095Y-90519523D01*
X213672857Y-90614761D01*
X213530000Y-90662380D01*
X213434761Y-90662380D01*
X213291904Y-90614761D01*
X213244285Y-90567142D01*
X213244285Y-90233809D01*
X213434761Y-90233809D01*
X212815714Y-90662380D02*
X212815714Y-89662380D01*
X212244285Y-90662380D01*
X212244285Y-89662380D01*
X211768095Y-90662380D02*
X211768095Y-89662380D01*
X211530000Y-89662380D01*
X211387142Y-89710000D01*
X211291904Y-89805238D01*
X211244285Y-89900476D01*
X211196666Y-90090952D01*
X211196666Y-90233809D01*
X211244285Y-90424285D01*
X211291904Y-90519523D01*
X211387142Y-90614761D01*
X211530000Y-90662380D01*
X211768095Y-90662380D01*
X296139880Y-102766964D02*
X295139880Y-102766964D01*
X295139880Y-103005059D01*
X295187500Y-103147916D01*
X295282738Y-103243154D01*
X295377976Y-103290773D01*
X295568452Y-103338392D01*
X295711309Y-103338392D01*
X295901785Y-103290773D01*
X295997023Y-103243154D01*
X296092261Y-103147916D01*
X296139880Y-103005059D01*
X296139880Y-102766964D01*
X295139880Y-104195535D02*
X295139880Y-104005059D01*
X295187500Y-103909821D01*
X295235119Y-103862202D01*
X295377976Y-103766964D01*
X295568452Y-103719345D01*
X295949404Y-103719345D01*
X296044642Y-103766964D01*
X296092261Y-103814583D01*
X296139880Y-103909821D01*
X296139880Y-104100297D01*
X296092261Y-104195535D01*
X296044642Y-104243154D01*
X295949404Y-104290773D01*
X295711309Y-104290773D01*
X295616071Y-104243154D01*
X295568452Y-104195535D01*
X295520833Y-104100297D01*
X295520833Y-103909821D01*
X295568452Y-103814583D01*
X295616071Y-103766964D01*
X295711309Y-103719345D01*
X296139880Y-105243154D02*
X296139880Y-104671726D01*
X296139880Y-104957440D02*
X295139880Y-104957440D01*
X295282738Y-104862202D01*
X295377976Y-104766964D01*
X295425595Y-104671726D01*
X272327380Y-102766964D02*
X271327380Y-102766964D01*
X271327380Y-103005059D01*
X271375000Y-103147916D01*
X271470238Y-103243154D01*
X271565476Y-103290773D01*
X271755952Y-103338392D01*
X271898809Y-103338392D01*
X272089285Y-103290773D01*
X272184523Y-103243154D01*
X272279761Y-103147916D01*
X272327380Y-103005059D01*
X272327380Y-102766964D01*
X271327380Y-104195535D02*
X271327380Y-104005059D01*
X271375000Y-103909821D01*
X271422619Y-103862202D01*
X271565476Y-103766964D01*
X271755952Y-103719345D01*
X272136904Y-103719345D01*
X272232142Y-103766964D01*
X272279761Y-103814583D01*
X272327380Y-103909821D01*
X272327380Y-104100297D01*
X272279761Y-104195535D01*
X272232142Y-104243154D01*
X272136904Y-104290773D01*
X271898809Y-104290773D01*
X271803571Y-104243154D01*
X271755952Y-104195535D01*
X271708333Y-104100297D01*
X271708333Y-103909821D01*
X271755952Y-103814583D01*
X271803571Y-103766964D01*
X271898809Y-103719345D01*
X271327380Y-104909821D02*
X271327380Y-105005059D01*
X271375000Y-105100297D01*
X271422619Y-105147916D01*
X271517857Y-105195535D01*
X271708333Y-105243154D01*
X271946428Y-105243154D01*
X272136904Y-105195535D01*
X272232142Y-105147916D01*
X272279761Y-105100297D01*
X272327380Y-105005059D01*
X272327380Y-104909821D01*
X272279761Y-104814583D01*
X272232142Y-104766964D01*
X272136904Y-104719345D01*
X271946428Y-104671726D01*
X271708333Y-104671726D01*
X271517857Y-104719345D01*
X271422619Y-104766964D01*
X271375000Y-104814583D01*
X271327380Y-104909821D01*
X248514880Y-102766964D02*
X247514880Y-102766964D01*
X247514880Y-103005059D01*
X247562500Y-103147916D01*
X247657738Y-103243154D01*
X247752976Y-103290773D01*
X247943452Y-103338392D01*
X248086309Y-103338392D01*
X248276785Y-103290773D01*
X248372023Y-103243154D01*
X248467261Y-103147916D01*
X248514880Y-103005059D01*
X248514880Y-102766964D01*
X247514880Y-104243154D02*
X247514880Y-103766964D01*
X247991071Y-103719345D01*
X247943452Y-103766964D01*
X247895833Y-103862202D01*
X247895833Y-104100297D01*
X247943452Y-104195535D01*
X247991071Y-104243154D01*
X248086309Y-104290773D01*
X248324404Y-104290773D01*
X248419642Y-104243154D01*
X248467261Y-104195535D01*
X248514880Y-104100297D01*
X248514880Y-103862202D01*
X248467261Y-103766964D01*
X248419642Y-103719345D01*
X248514880Y-104766964D02*
X248514880Y-104957440D01*
X248467261Y-105052678D01*
X248419642Y-105100297D01*
X248276785Y-105195535D01*
X248086309Y-105243154D01*
X247705357Y-105243154D01*
X247610119Y-105195535D01*
X247562500Y-105147916D01*
X247514880Y-105052678D01*
X247514880Y-104862202D01*
X247562500Y-104766964D01*
X247610119Y-104719345D01*
X247705357Y-104671726D01*
X247943452Y-104671726D01*
X248038690Y-104719345D01*
X248086309Y-104766964D01*
X248133928Y-104862202D01*
X248133928Y-105052678D01*
X248086309Y-105147916D01*
X248038690Y-105195535D01*
X247943452Y-105243154D01*
X224702380Y-102766964D02*
X223702380Y-102766964D01*
X223702380Y-103005059D01*
X223750000Y-103147916D01*
X223845238Y-103243154D01*
X223940476Y-103290773D01*
X224130952Y-103338392D01*
X224273809Y-103338392D01*
X224464285Y-103290773D01*
X224559523Y-103243154D01*
X224654761Y-103147916D01*
X224702380Y-103005059D01*
X224702380Y-102766964D01*
X223702380Y-104243154D02*
X223702380Y-103766964D01*
X224178571Y-103719345D01*
X224130952Y-103766964D01*
X224083333Y-103862202D01*
X224083333Y-104100297D01*
X224130952Y-104195535D01*
X224178571Y-104243154D01*
X224273809Y-104290773D01*
X224511904Y-104290773D01*
X224607142Y-104243154D01*
X224654761Y-104195535D01*
X224702380Y-104100297D01*
X224702380Y-103862202D01*
X224654761Y-103766964D01*
X224607142Y-103719345D01*
X224130952Y-104862202D02*
X224083333Y-104766964D01*
X224035714Y-104719345D01*
X223940476Y-104671726D01*
X223892857Y-104671726D01*
X223797619Y-104719345D01*
X223750000Y-104766964D01*
X223702380Y-104862202D01*
X223702380Y-105052678D01*
X223750000Y-105147916D01*
X223797619Y-105195535D01*
X223892857Y-105243154D01*
X223940476Y-105243154D01*
X224035714Y-105195535D01*
X224083333Y-105147916D01*
X224130952Y-105052678D01*
X224130952Y-104862202D01*
X224178571Y-104766964D01*
X224226190Y-104719345D01*
X224321428Y-104671726D01*
X224511904Y-104671726D01*
X224607142Y-104719345D01*
X224654761Y-104766964D01*
X224702380Y-104862202D01*
X224702380Y-105052678D01*
X224654761Y-105147916D01*
X224607142Y-105195535D01*
X224511904Y-105243154D01*
X224321428Y-105243154D01*
X224226190Y-105195535D01*
X224178571Y-105147916D01*
X224130952Y-105052678D01*
X153264880Y-102766964D02*
X152264880Y-102766964D01*
X152264880Y-103005059D01*
X152312500Y-103147916D01*
X152407738Y-103243154D01*
X152502976Y-103290773D01*
X152693452Y-103338392D01*
X152836309Y-103338392D01*
X153026785Y-103290773D01*
X153122023Y-103243154D01*
X153217261Y-103147916D01*
X153264880Y-103005059D01*
X153264880Y-102766964D01*
X152264880Y-104243154D02*
X152264880Y-103766964D01*
X152741071Y-103719345D01*
X152693452Y-103766964D01*
X152645833Y-103862202D01*
X152645833Y-104100297D01*
X152693452Y-104195535D01*
X152741071Y-104243154D01*
X152836309Y-104290773D01*
X153074404Y-104290773D01*
X153169642Y-104243154D01*
X153217261Y-104195535D01*
X153264880Y-104100297D01*
X153264880Y-103862202D01*
X153217261Y-103766964D01*
X153169642Y-103719345D01*
X152264880Y-104624107D02*
X152264880Y-105290773D01*
X153264880Y-104862202D01*
X81827380Y-102766964D02*
X80827380Y-102766964D01*
X80827380Y-103005059D01*
X80875000Y-103147916D01*
X80970238Y-103243154D01*
X81065476Y-103290773D01*
X81255952Y-103338392D01*
X81398809Y-103338392D01*
X81589285Y-103290773D01*
X81684523Y-103243154D01*
X81779761Y-103147916D01*
X81827380Y-103005059D01*
X81827380Y-102766964D01*
X80827380Y-104243154D02*
X80827380Y-103766964D01*
X81303571Y-103719345D01*
X81255952Y-103766964D01*
X81208333Y-103862202D01*
X81208333Y-104100297D01*
X81255952Y-104195535D01*
X81303571Y-104243154D01*
X81398809Y-104290773D01*
X81636904Y-104290773D01*
X81732142Y-104243154D01*
X81779761Y-104195535D01*
X81827380Y-104100297D01*
X81827380Y-103862202D01*
X81779761Y-103766964D01*
X81732142Y-103719345D01*
X80827380Y-105147916D02*
X80827380Y-104957440D01*
X80875000Y-104862202D01*
X80922619Y-104814583D01*
X81065476Y-104719345D01*
X81255952Y-104671726D01*
X81636904Y-104671726D01*
X81732142Y-104719345D01*
X81779761Y-104766964D01*
X81827380Y-104862202D01*
X81827380Y-105052678D01*
X81779761Y-105147916D01*
X81732142Y-105195535D01*
X81636904Y-105243154D01*
X81398809Y-105243154D01*
X81303571Y-105195535D01*
X81255952Y-105147916D01*
X81208333Y-105052678D01*
X81208333Y-104862202D01*
X81255952Y-104766964D01*
X81303571Y-104719345D01*
X81398809Y-104671726D01*
X58014880Y-102766964D02*
X57014880Y-102766964D01*
X57014880Y-103005059D01*
X57062500Y-103147916D01*
X57157738Y-103243154D01*
X57252976Y-103290773D01*
X57443452Y-103338392D01*
X57586309Y-103338392D01*
X57776785Y-103290773D01*
X57872023Y-103243154D01*
X57967261Y-103147916D01*
X58014880Y-103005059D01*
X58014880Y-102766964D01*
X57014880Y-104243154D02*
X57014880Y-103766964D01*
X57491071Y-103719345D01*
X57443452Y-103766964D01*
X57395833Y-103862202D01*
X57395833Y-104100297D01*
X57443452Y-104195535D01*
X57491071Y-104243154D01*
X57586309Y-104290773D01*
X57824404Y-104290773D01*
X57919642Y-104243154D01*
X57967261Y-104195535D01*
X58014880Y-104100297D01*
X58014880Y-103862202D01*
X57967261Y-103766964D01*
X57919642Y-103719345D01*
X57014880Y-105195535D02*
X57014880Y-104719345D01*
X57491071Y-104671726D01*
X57443452Y-104719345D01*
X57395833Y-104814583D01*
X57395833Y-105052678D01*
X57443452Y-105147916D01*
X57491071Y-105195535D01*
X57586309Y-105243154D01*
X57824404Y-105243154D01*
X57919642Y-105195535D01*
X57967261Y-105147916D01*
X58014880Y-105052678D01*
X58014880Y-104814583D01*
X57967261Y-104719345D01*
X57919642Y-104671726D01*
X34202380Y-102766964D02*
X33202380Y-102766964D01*
X33202380Y-103005059D01*
X33250000Y-103147916D01*
X33345238Y-103243154D01*
X33440476Y-103290773D01*
X33630952Y-103338392D01*
X33773809Y-103338392D01*
X33964285Y-103290773D01*
X34059523Y-103243154D01*
X34154761Y-103147916D01*
X34202380Y-103005059D01*
X34202380Y-102766964D01*
X33202380Y-104243154D02*
X33202380Y-103766964D01*
X33678571Y-103719345D01*
X33630952Y-103766964D01*
X33583333Y-103862202D01*
X33583333Y-104100297D01*
X33630952Y-104195535D01*
X33678571Y-104243154D01*
X33773809Y-104290773D01*
X34011904Y-104290773D01*
X34107142Y-104243154D01*
X34154761Y-104195535D01*
X34202380Y-104100297D01*
X34202380Y-103862202D01*
X34154761Y-103766964D01*
X34107142Y-103719345D01*
X33535714Y-105147916D02*
X34202380Y-105147916D01*
X33154761Y-104909821D02*
X33869047Y-104671726D01*
X33869047Y-105290773D01*
X281852380Y-83716964D02*
X280852380Y-83716964D01*
X280852380Y-83955059D01*
X280900000Y-84097916D01*
X280995238Y-84193154D01*
X281090476Y-84240773D01*
X281280952Y-84288392D01*
X281423809Y-84288392D01*
X281614285Y-84240773D01*
X281709523Y-84193154D01*
X281804761Y-84097916D01*
X281852380Y-83955059D01*
X281852380Y-83716964D01*
X280852380Y-85193154D02*
X280852380Y-84716964D01*
X281328571Y-84669345D01*
X281280952Y-84716964D01*
X281233333Y-84812202D01*
X281233333Y-85050297D01*
X281280952Y-85145535D01*
X281328571Y-85193154D01*
X281423809Y-85240773D01*
X281661904Y-85240773D01*
X281757142Y-85193154D01*
X281804761Y-85145535D01*
X281852380Y-85050297D01*
X281852380Y-84812202D01*
X281804761Y-84716964D01*
X281757142Y-84669345D01*
X280852380Y-85574107D02*
X280852380Y-86193154D01*
X281233333Y-85859821D01*
X281233333Y-86002678D01*
X281280952Y-86097916D01*
X281328571Y-86145535D01*
X281423809Y-86193154D01*
X281661904Y-86193154D01*
X281757142Y-86145535D01*
X281804761Y-86097916D01*
X281852380Y-86002678D01*
X281852380Y-85716964D01*
X281804761Y-85621726D01*
X281757142Y-85574107D01*
X246133630Y-83716964D02*
X245133630Y-83716964D01*
X245133630Y-83955059D01*
X245181250Y-84097916D01*
X245276488Y-84193154D01*
X245371726Y-84240773D01*
X245562202Y-84288392D01*
X245705059Y-84288392D01*
X245895535Y-84240773D01*
X245990773Y-84193154D01*
X246086011Y-84097916D01*
X246133630Y-83955059D01*
X246133630Y-83716964D01*
X245133630Y-85193154D02*
X245133630Y-84716964D01*
X245609821Y-84669345D01*
X245562202Y-84716964D01*
X245514583Y-84812202D01*
X245514583Y-85050297D01*
X245562202Y-85145535D01*
X245609821Y-85193154D01*
X245705059Y-85240773D01*
X245943154Y-85240773D01*
X246038392Y-85193154D01*
X246086011Y-85145535D01*
X246133630Y-85050297D01*
X246133630Y-84812202D01*
X246086011Y-84716964D01*
X246038392Y-84669345D01*
X245228869Y-85621726D02*
X245181250Y-85669345D01*
X245133630Y-85764583D01*
X245133630Y-86002678D01*
X245181250Y-86097916D01*
X245228869Y-86145535D01*
X245324107Y-86193154D01*
X245419345Y-86193154D01*
X245562202Y-86145535D01*
X246133630Y-85574107D01*
X246133630Y-86193154D01*
X227083630Y-83716964D02*
X226083630Y-83716964D01*
X226083630Y-83955059D01*
X226131250Y-84097916D01*
X226226488Y-84193154D01*
X226321726Y-84240773D01*
X226512202Y-84288392D01*
X226655059Y-84288392D01*
X226845535Y-84240773D01*
X226940773Y-84193154D01*
X227036011Y-84097916D01*
X227083630Y-83955059D01*
X227083630Y-83716964D01*
X226083630Y-85193154D02*
X226083630Y-84716964D01*
X226559821Y-84669345D01*
X226512202Y-84716964D01*
X226464583Y-84812202D01*
X226464583Y-85050297D01*
X226512202Y-85145535D01*
X226559821Y-85193154D01*
X226655059Y-85240773D01*
X226893154Y-85240773D01*
X226988392Y-85193154D01*
X227036011Y-85145535D01*
X227083630Y-85050297D01*
X227083630Y-84812202D01*
X227036011Y-84716964D01*
X226988392Y-84669345D01*
X227083630Y-86193154D02*
X227083630Y-85621726D01*
X227083630Y-85907440D02*
X226083630Y-85907440D01*
X226226488Y-85812202D01*
X226321726Y-85716964D01*
X226369345Y-85621726D01*
X208033630Y-83716964D02*
X207033630Y-83716964D01*
X207033630Y-83955059D01*
X207081250Y-84097916D01*
X207176488Y-84193154D01*
X207271726Y-84240773D01*
X207462202Y-84288392D01*
X207605059Y-84288392D01*
X207795535Y-84240773D01*
X207890773Y-84193154D01*
X207986011Y-84097916D01*
X208033630Y-83955059D01*
X208033630Y-83716964D01*
X207033630Y-85193154D02*
X207033630Y-84716964D01*
X207509821Y-84669345D01*
X207462202Y-84716964D01*
X207414583Y-84812202D01*
X207414583Y-85050297D01*
X207462202Y-85145535D01*
X207509821Y-85193154D01*
X207605059Y-85240773D01*
X207843154Y-85240773D01*
X207938392Y-85193154D01*
X207986011Y-85145535D01*
X208033630Y-85050297D01*
X208033630Y-84812202D01*
X207986011Y-84716964D01*
X207938392Y-84669345D01*
X207033630Y-85859821D02*
X207033630Y-85955059D01*
X207081250Y-86050297D01*
X207128869Y-86097916D01*
X207224107Y-86145535D01*
X207414583Y-86193154D01*
X207652678Y-86193154D01*
X207843154Y-86145535D01*
X207938392Y-86097916D01*
X207986011Y-86050297D01*
X208033630Y-85955059D01*
X208033630Y-85859821D01*
X207986011Y-85764583D01*
X207938392Y-85716964D01*
X207843154Y-85669345D01*
X207652678Y-85621726D01*
X207414583Y-85621726D01*
X207224107Y-85669345D01*
X207128869Y-85716964D01*
X207081250Y-85764583D01*
X207033630Y-85859821D01*
X188983630Y-83716964D02*
X187983630Y-83716964D01*
X187983630Y-83955059D01*
X188031250Y-84097916D01*
X188126488Y-84193154D01*
X188221726Y-84240773D01*
X188412202Y-84288392D01*
X188555059Y-84288392D01*
X188745535Y-84240773D01*
X188840773Y-84193154D01*
X188936011Y-84097916D01*
X188983630Y-83955059D01*
X188983630Y-83716964D01*
X188316964Y-85145535D02*
X188983630Y-85145535D01*
X187936011Y-84907440D02*
X188650297Y-84669345D01*
X188650297Y-85288392D01*
X188983630Y-85716964D02*
X188983630Y-85907440D01*
X188936011Y-86002678D01*
X188888392Y-86050297D01*
X188745535Y-86145535D01*
X188555059Y-86193154D01*
X188174107Y-86193154D01*
X188078869Y-86145535D01*
X188031250Y-86097916D01*
X187983630Y-86002678D01*
X187983630Y-85812202D01*
X188031250Y-85716964D01*
X188078869Y-85669345D01*
X188174107Y-85621726D01*
X188412202Y-85621726D01*
X188507440Y-85669345D01*
X188555059Y-85716964D01*
X188602678Y-85812202D01*
X188602678Y-86002678D01*
X188555059Y-86097916D01*
X188507440Y-86145535D01*
X188412202Y-86193154D01*
X169933630Y-83716964D02*
X168933630Y-83716964D01*
X168933630Y-83955059D01*
X168981250Y-84097916D01*
X169076488Y-84193154D01*
X169171726Y-84240773D01*
X169362202Y-84288392D01*
X169505059Y-84288392D01*
X169695535Y-84240773D01*
X169790773Y-84193154D01*
X169886011Y-84097916D01*
X169933630Y-83955059D01*
X169933630Y-83716964D01*
X169266964Y-85145535D02*
X169933630Y-85145535D01*
X168886011Y-84907440D02*
X169600297Y-84669345D01*
X169600297Y-85288392D01*
X169362202Y-85812202D02*
X169314583Y-85716964D01*
X169266964Y-85669345D01*
X169171726Y-85621726D01*
X169124107Y-85621726D01*
X169028869Y-85669345D01*
X168981250Y-85716964D01*
X168933630Y-85812202D01*
X168933630Y-86002678D01*
X168981250Y-86097916D01*
X169028869Y-86145535D01*
X169124107Y-86193154D01*
X169171726Y-86193154D01*
X169266964Y-86145535D01*
X169314583Y-86097916D01*
X169362202Y-86002678D01*
X169362202Y-85812202D01*
X169409821Y-85716964D01*
X169457440Y-85669345D01*
X169552678Y-85621726D01*
X169743154Y-85621726D01*
X169838392Y-85669345D01*
X169886011Y-85716964D01*
X169933630Y-85812202D01*
X169933630Y-86002678D01*
X169886011Y-86097916D01*
X169838392Y-86145535D01*
X169743154Y-86193154D01*
X169552678Y-86193154D01*
X169457440Y-86145535D01*
X169409821Y-86097916D01*
X169362202Y-86002678D01*
X150883630Y-83716964D02*
X149883630Y-83716964D01*
X149883630Y-83955059D01*
X149931250Y-84097916D01*
X150026488Y-84193154D01*
X150121726Y-84240773D01*
X150312202Y-84288392D01*
X150455059Y-84288392D01*
X150645535Y-84240773D01*
X150740773Y-84193154D01*
X150836011Y-84097916D01*
X150883630Y-83955059D01*
X150883630Y-83716964D01*
X150216964Y-85145535D02*
X150883630Y-85145535D01*
X149836011Y-84907440D02*
X150550297Y-84669345D01*
X150550297Y-85288392D01*
X149883630Y-85574107D02*
X149883630Y-86240773D01*
X150883630Y-85812202D01*
X131833630Y-83716964D02*
X130833630Y-83716964D01*
X130833630Y-83955059D01*
X130881250Y-84097916D01*
X130976488Y-84193154D01*
X131071726Y-84240773D01*
X131262202Y-84288392D01*
X131405059Y-84288392D01*
X131595535Y-84240773D01*
X131690773Y-84193154D01*
X131786011Y-84097916D01*
X131833630Y-83955059D01*
X131833630Y-83716964D01*
X131166964Y-85145535D02*
X131833630Y-85145535D01*
X130786011Y-84907440D02*
X131500297Y-84669345D01*
X131500297Y-85288392D01*
X130833630Y-86097916D02*
X130833630Y-85907440D01*
X130881250Y-85812202D01*
X130928869Y-85764583D01*
X131071726Y-85669345D01*
X131262202Y-85621726D01*
X131643154Y-85621726D01*
X131738392Y-85669345D01*
X131786011Y-85716964D01*
X131833630Y-85812202D01*
X131833630Y-86002678D01*
X131786011Y-86097916D01*
X131738392Y-86145535D01*
X131643154Y-86193154D01*
X131405059Y-86193154D01*
X131309821Y-86145535D01*
X131262202Y-86097916D01*
X131214583Y-86002678D01*
X131214583Y-85812202D01*
X131262202Y-85716964D01*
X131309821Y-85669345D01*
X131405059Y-85621726D01*
X112783630Y-83716964D02*
X111783630Y-83716964D01*
X111783630Y-83955059D01*
X111831250Y-84097916D01*
X111926488Y-84193154D01*
X112021726Y-84240773D01*
X112212202Y-84288392D01*
X112355059Y-84288392D01*
X112545535Y-84240773D01*
X112640773Y-84193154D01*
X112736011Y-84097916D01*
X112783630Y-83955059D01*
X112783630Y-83716964D01*
X112116964Y-85145535D02*
X112783630Y-85145535D01*
X111736011Y-84907440D02*
X112450297Y-84669345D01*
X112450297Y-85288392D01*
X111783630Y-86145535D02*
X111783630Y-85669345D01*
X112259821Y-85621726D01*
X112212202Y-85669345D01*
X112164583Y-85764583D01*
X112164583Y-86002678D01*
X112212202Y-86097916D01*
X112259821Y-86145535D01*
X112355059Y-86193154D01*
X112593154Y-86193154D01*
X112688392Y-86145535D01*
X112736011Y-86097916D01*
X112783630Y-86002678D01*
X112783630Y-85764583D01*
X112736011Y-85669345D01*
X112688392Y-85621726D01*
X93733630Y-83716964D02*
X92733630Y-83716964D01*
X92733630Y-83955059D01*
X92781250Y-84097916D01*
X92876488Y-84193154D01*
X92971726Y-84240773D01*
X93162202Y-84288392D01*
X93305059Y-84288392D01*
X93495535Y-84240773D01*
X93590773Y-84193154D01*
X93686011Y-84097916D01*
X93733630Y-83955059D01*
X93733630Y-83716964D01*
X93066964Y-85145535D02*
X93733630Y-85145535D01*
X92686011Y-84907440D02*
X93400297Y-84669345D01*
X93400297Y-85288392D01*
X93066964Y-86097916D02*
X93733630Y-86097916D01*
X92686011Y-85859821D02*
X93400297Y-85621726D01*
X93400297Y-86240773D01*
X74683630Y-83716964D02*
X73683630Y-83716964D01*
X73683630Y-83955059D01*
X73731250Y-84097916D01*
X73826488Y-84193154D01*
X73921726Y-84240773D01*
X74112202Y-84288392D01*
X74255059Y-84288392D01*
X74445535Y-84240773D01*
X74540773Y-84193154D01*
X74636011Y-84097916D01*
X74683630Y-83955059D01*
X74683630Y-83716964D01*
X74016964Y-85145535D02*
X74683630Y-85145535D01*
X73636011Y-84907440D02*
X74350297Y-84669345D01*
X74350297Y-85288392D01*
X73683630Y-85574107D02*
X73683630Y-86193154D01*
X74064583Y-85859821D01*
X74064583Y-86002678D01*
X74112202Y-86097916D01*
X74159821Y-86145535D01*
X74255059Y-86193154D01*
X74493154Y-86193154D01*
X74588392Y-86145535D01*
X74636011Y-86097916D01*
X74683630Y-86002678D01*
X74683630Y-85716964D01*
X74636011Y-85621726D01*
X74588392Y-85574107D01*
X43727380Y-83716964D02*
X42727380Y-83716964D01*
X42727380Y-83955059D01*
X42775000Y-84097916D01*
X42870238Y-84193154D01*
X42965476Y-84240773D01*
X43155952Y-84288392D01*
X43298809Y-84288392D01*
X43489285Y-84240773D01*
X43584523Y-84193154D01*
X43679761Y-84097916D01*
X43727380Y-83955059D01*
X43727380Y-83716964D01*
X43060714Y-85145535D02*
X43727380Y-85145535D01*
X42679761Y-84907440D02*
X43394047Y-84669345D01*
X43394047Y-85288392D01*
X42822619Y-85621726D02*
X42775000Y-85669345D01*
X42727380Y-85764583D01*
X42727380Y-86002678D01*
X42775000Y-86097916D01*
X42822619Y-86145535D01*
X42917857Y-86193154D01*
X43013095Y-86193154D01*
X43155952Y-86145535D01*
X43727380Y-85574107D01*
X43727380Y-86193154D01*
X286614880Y-64666964D02*
X285614880Y-64666964D01*
X285614880Y-64905059D01*
X285662500Y-65047916D01*
X285757738Y-65143154D01*
X285852976Y-65190773D01*
X286043452Y-65238392D01*
X286186309Y-65238392D01*
X286376785Y-65190773D01*
X286472023Y-65143154D01*
X286567261Y-65047916D01*
X286614880Y-64905059D01*
X286614880Y-64666964D01*
X285948214Y-66095535D02*
X286614880Y-66095535D01*
X285567261Y-65857440D02*
X286281547Y-65619345D01*
X286281547Y-66238392D01*
X286614880Y-67143154D02*
X286614880Y-66571726D01*
X286614880Y-66857440D02*
X285614880Y-66857440D01*
X285757738Y-66762202D01*
X285852976Y-66666964D01*
X285900595Y-66571726D01*
X255658630Y-64666964D02*
X254658630Y-64666964D01*
X254658630Y-64905059D01*
X254706250Y-65047916D01*
X254801488Y-65143154D01*
X254896726Y-65190773D01*
X255087202Y-65238392D01*
X255230059Y-65238392D01*
X255420535Y-65190773D01*
X255515773Y-65143154D01*
X255611011Y-65047916D01*
X255658630Y-64905059D01*
X255658630Y-64666964D01*
X254991964Y-66095535D02*
X255658630Y-66095535D01*
X254611011Y-65857440D02*
X255325297Y-65619345D01*
X255325297Y-66238392D01*
X254658630Y-66809821D02*
X254658630Y-66905059D01*
X254706250Y-67000297D01*
X254753869Y-67047916D01*
X254849107Y-67095535D01*
X255039583Y-67143154D01*
X255277678Y-67143154D01*
X255468154Y-67095535D01*
X255563392Y-67047916D01*
X255611011Y-67000297D01*
X255658630Y-66905059D01*
X255658630Y-66809821D01*
X255611011Y-66714583D01*
X255563392Y-66666964D01*
X255468154Y-66619345D01*
X255277678Y-66571726D01*
X255039583Y-66571726D01*
X254849107Y-66619345D01*
X254753869Y-66666964D01*
X254706250Y-66714583D01*
X254658630Y-66809821D01*
X236608630Y-64666964D02*
X235608630Y-64666964D01*
X235608630Y-64905059D01*
X235656250Y-65047916D01*
X235751488Y-65143154D01*
X235846726Y-65190773D01*
X236037202Y-65238392D01*
X236180059Y-65238392D01*
X236370535Y-65190773D01*
X236465773Y-65143154D01*
X236561011Y-65047916D01*
X236608630Y-64905059D01*
X236608630Y-64666964D01*
X235608630Y-65571726D02*
X235608630Y-66190773D01*
X235989583Y-65857440D01*
X235989583Y-66000297D01*
X236037202Y-66095535D01*
X236084821Y-66143154D01*
X236180059Y-66190773D01*
X236418154Y-66190773D01*
X236513392Y-66143154D01*
X236561011Y-66095535D01*
X236608630Y-66000297D01*
X236608630Y-65714583D01*
X236561011Y-65619345D01*
X236513392Y-65571726D01*
X236608630Y-66666964D02*
X236608630Y-66857440D01*
X236561011Y-66952678D01*
X236513392Y-67000297D01*
X236370535Y-67095535D01*
X236180059Y-67143154D01*
X235799107Y-67143154D01*
X235703869Y-67095535D01*
X235656250Y-67047916D01*
X235608630Y-66952678D01*
X235608630Y-66762202D01*
X235656250Y-66666964D01*
X235703869Y-66619345D01*
X235799107Y-66571726D01*
X236037202Y-66571726D01*
X236132440Y-66619345D01*
X236180059Y-66666964D01*
X236227678Y-66762202D01*
X236227678Y-66952678D01*
X236180059Y-67047916D01*
X236132440Y-67095535D01*
X236037202Y-67143154D01*
X217558630Y-64666964D02*
X216558630Y-64666964D01*
X216558630Y-64905059D01*
X216606250Y-65047916D01*
X216701488Y-65143154D01*
X216796726Y-65190773D01*
X216987202Y-65238392D01*
X217130059Y-65238392D01*
X217320535Y-65190773D01*
X217415773Y-65143154D01*
X217511011Y-65047916D01*
X217558630Y-64905059D01*
X217558630Y-64666964D01*
X216558630Y-65571726D02*
X216558630Y-66190773D01*
X216939583Y-65857440D01*
X216939583Y-66000297D01*
X216987202Y-66095535D01*
X217034821Y-66143154D01*
X217130059Y-66190773D01*
X217368154Y-66190773D01*
X217463392Y-66143154D01*
X217511011Y-66095535D01*
X217558630Y-66000297D01*
X217558630Y-65714583D01*
X217511011Y-65619345D01*
X217463392Y-65571726D01*
X216987202Y-66762202D02*
X216939583Y-66666964D01*
X216891964Y-66619345D01*
X216796726Y-66571726D01*
X216749107Y-66571726D01*
X216653869Y-66619345D01*
X216606250Y-66666964D01*
X216558630Y-66762202D01*
X216558630Y-66952678D01*
X216606250Y-67047916D01*
X216653869Y-67095535D01*
X216749107Y-67143154D01*
X216796726Y-67143154D01*
X216891964Y-67095535D01*
X216939583Y-67047916D01*
X216987202Y-66952678D01*
X216987202Y-66762202D01*
X217034821Y-66666964D01*
X217082440Y-66619345D01*
X217177678Y-66571726D01*
X217368154Y-66571726D01*
X217463392Y-66619345D01*
X217511011Y-66666964D01*
X217558630Y-66762202D01*
X217558630Y-66952678D01*
X217511011Y-67047916D01*
X217463392Y-67095535D01*
X217368154Y-67143154D01*
X217177678Y-67143154D01*
X217082440Y-67095535D01*
X217034821Y-67047916D01*
X216987202Y-66952678D01*
X198508630Y-64666964D02*
X197508630Y-64666964D01*
X197508630Y-64905059D01*
X197556250Y-65047916D01*
X197651488Y-65143154D01*
X197746726Y-65190773D01*
X197937202Y-65238392D01*
X198080059Y-65238392D01*
X198270535Y-65190773D01*
X198365773Y-65143154D01*
X198461011Y-65047916D01*
X198508630Y-64905059D01*
X198508630Y-64666964D01*
X197508630Y-65571726D02*
X197508630Y-66190773D01*
X197889583Y-65857440D01*
X197889583Y-66000297D01*
X197937202Y-66095535D01*
X197984821Y-66143154D01*
X198080059Y-66190773D01*
X198318154Y-66190773D01*
X198413392Y-66143154D01*
X198461011Y-66095535D01*
X198508630Y-66000297D01*
X198508630Y-65714583D01*
X198461011Y-65619345D01*
X198413392Y-65571726D01*
X197508630Y-66524107D02*
X197508630Y-67190773D01*
X198508630Y-66762202D01*
X179458630Y-64666964D02*
X178458630Y-64666964D01*
X178458630Y-64905059D01*
X178506250Y-65047916D01*
X178601488Y-65143154D01*
X178696726Y-65190773D01*
X178887202Y-65238392D01*
X179030059Y-65238392D01*
X179220535Y-65190773D01*
X179315773Y-65143154D01*
X179411011Y-65047916D01*
X179458630Y-64905059D01*
X179458630Y-64666964D01*
X178458630Y-65571726D02*
X178458630Y-66190773D01*
X178839583Y-65857440D01*
X178839583Y-66000297D01*
X178887202Y-66095535D01*
X178934821Y-66143154D01*
X179030059Y-66190773D01*
X179268154Y-66190773D01*
X179363392Y-66143154D01*
X179411011Y-66095535D01*
X179458630Y-66000297D01*
X179458630Y-65714583D01*
X179411011Y-65619345D01*
X179363392Y-65571726D01*
X178458630Y-67047916D02*
X178458630Y-66857440D01*
X178506250Y-66762202D01*
X178553869Y-66714583D01*
X178696726Y-66619345D01*
X178887202Y-66571726D01*
X179268154Y-66571726D01*
X179363392Y-66619345D01*
X179411011Y-66666964D01*
X179458630Y-66762202D01*
X179458630Y-66952678D01*
X179411011Y-67047916D01*
X179363392Y-67095535D01*
X179268154Y-67143154D01*
X179030059Y-67143154D01*
X178934821Y-67095535D01*
X178887202Y-67047916D01*
X178839583Y-66952678D01*
X178839583Y-66762202D01*
X178887202Y-66666964D01*
X178934821Y-66619345D01*
X179030059Y-66571726D01*
X160408630Y-64666964D02*
X159408630Y-64666964D01*
X159408630Y-64905059D01*
X159456250Y-65047916D01*
X159551488Y-65143154D01*
X159646726Y-65190773D01*
X159837202Y-65238392D01*
X159980059Y-65238392D01*
X160170535Y-65190773D01*
X160265773Y-65143154D01*
X160361011Y-65047916D01*
X160408630Y-64905059D01*
X160408630Y-64666964D01*
X159408630Y-65571726D02*
X159408630Y-66190773D01*
X159789583Y-65857440D01*
X159789583Y-66000297D01*
X159837202Y-66095535D01*
X159884821Y-66143154D01*
X159980059Y-66190773D01*
X160218154Y-66190773D01*
X160313392Y-66143154D01*
X160361011Y-66095535D01*
X160408630Y-66000297D01*
X160408630Y-65714583D01*
X160361011Y-65619345D01*
X160313392Y-65571726D01*
X159408630Y-67095535D02*
X159408630Y-66619345D01*
X159884821Y-66571726D01*
X159837202Y-66619345D01*
X159789583Y-66714583D01*
X159789583Y-66952678D01*
X159837202Y-67047916D01*
X159884821Y-67095535D01*
X159980059Y-67143154D01*
X160218154Y-67143154D01*
X160313392Y-67095535D01*
X160361011Y-67047916D01*
X160408630Y-66952678D01*
X160408630Y-66714583D01*
X160361011Y-66619345D01*
X160313392Y-66571726D01*
X141358630Y-64666964D02*
X140358630Y-64666964D01*
X140358630Y-64905059D01*
X140406250Y-65047916D01*
X140501488Y-65143154D01*
X140596726Y-65190773D01*
X140787202Y-65238392D01*
X140930059Y-65238392D01*
X141120535Y-65190773D01*
X141215773Y-65143154D01*
X141311011Y-65047916D01*
X141358630Y-64905059D01*
X141358630Y-64666964D01*
X140358630Y-65571726D02*
X140358630Y-66190773D01*
X140739583Y-65857440D01*
X140739583Y-66000297D01*
X140787202Y-66095535D01*
X140834821Y-66143154D01*
X140930059Y-66190773D01*
X141168154Y-66190773D01*
X141263392Y-66143154D01*
X141311011Y-66095535D01*
X141358630Y-66000297D01*
X141358630Y-65714583D01*
X141311011Y-65619345D01*
X141263392Y-65571726D01*
X140691964Y-67047916D02*
X141358630Y-67047916D01*
X140311011Y-66809821D02*
X141025297Y-66571726D01*
X141025297Y-67190773D01*
X122308630Y-64666964D02*
X121308630Y-64666964D01*
X121308630Y-64905059D01*
X121356250Y-65047916D01*
X121451488Y-65143154D01*
X121546726Y-65190773D01*
X121737202Y-65238392D01*
X121880059Y-65238392D01*
X122070535Y-65190773D01*
X122165773Y-65143154D01*
X122261011Y-65047916D01*
X122308630Y-64905059D01*
X122308630Y-64666964D01*
X121308630Y-65571726D02*
X121308630Y-66190773D01*
X121689583Y-65857440D01*
X121689583Y-66000297D01*
X121737202Y-66095535D01*
X121784821Y-66143154D01*
X121880059Y-66190773D01*
X122118154Y-66190773D01*
X122213392Y-66143154D01*
X122261011Y-66095535D01*
X122308630Y-66000297D01*
X122308630Y-65714583D01*
X122261011Y-65619345D01*
X122213392Y-65571726D01*
X121308630Y-66524107D02*
X121308630Y-67143154D01*
X121689583Y-66809821D01*
X121689583Y-66952678D01*
X121737202Y-67047916D01*
X121784821Y-67095535D01*
X121880059Y-67143154D01*
X122118154Y-67143154D01*
X122213392Y-67095535D01*
X122261011Y-67047916D01*
X122308630Y-66952678D01*
X122308630Y-66666964D01*
X122261011Y-66571726D01*
X122213392Y-66524107D01*
X103258630Y-64666964D02*
X102258630Y-64666964D01*
X102258630Y-64905059D01*
X102306250Y-65047916D01*
X102401488Y-65143154D01*
X102496726Y-65190773D01*
X102687202Y-65238392D01*
X102830059Y-65238392D01*
X103020535Y-65190773D01*
X103115773Y-65143154D01*
X103211011Y-65047916D01*
X103258630Y-64905059D01*
X103258630Y-64666964D01*
X102258630Y-65571726D02*
X102258630Y-66190773D01*
X102639583Y-65857440D01*
X102639583Y-66000297D01*
X102687202Y-66095535D01*
X102734821Y-66143154D01*
X102830059Y-66190773D01*
X103068154Y-66190773D01*
X103163392Y-66143154D01*
X103211011Y-66095535D01*
X103258630Y-66000297D01*
X103258630Y-65714583D01*
X103211011Y-65619345D01*
X103163392Y-65571726D01*
X102353869Y-66571726D02*
X102306250Y-66619345D01*
X102258630Y-66714583D01*
X102258630Y-66952678D01*
X102306250Y-67047916D01*
X102353869Y-67095535D01*
X102449107Y-67143154D01*
X102544345Y-67143154D01*
X102687202Y-67095535D01*
X103258630Y-66524107D01*
X103258630Y-67143154D01*
X84208630Y-64666964D02*
X83208630Y-64666964D01*
X83208630Y-64905059D01*
X83256250Y-65047916D01*
X83351488Y-65143154D01*
X83446726Y-65190773D01*
X83637202Y-65238392D01*
X83780059Y-65238392D01*
X83970535Y-65190773D01*
X84065773Y-65143154D01*
X84161011Y-65047916D01*
X84208630Y-64905059D01*
X84208630Y-64666964D01*
X83208630Y-65571726D02*
X83208630Y-66190773D01*
X83589583Y-65857440D01*
X83589583Y-66000297D01*
X83637202Y-66095535D01*
X83684821Y-66143154D01*
X83780059Y-66190773D01*
X84018154Y-66190773D01*
X84113392Y-66143154D01*
X84161011Y-66095535D01*
X84208630Y-66000297D01*
X84208630Y-65714583D01*
X84161011Y-65619345D01*
X84113392Y-65571726D01*
X84208630Y-67143154D02*
X84208630Y-66571726D01*
X84208630Y-66857440D02*
X83208630Y-66857440D01*
X83351488Y-66762202D01*
X83446726Y-66666964D01*
X83494345Y-66571726D01*
X65158630Y-64666964D02*
X64158630Y-64666964D01*
X64158630Y-64905059D01*
X64206250Y-65047916D01*
X64301488Y-65143154D01*
X64396726Y-65190773D01*
X64587202Y-65238392D01*
X64730059Y-65238392D01*
X64920535Y-65190773D01*
X65015773Y-65143154D01*
X65111011Y-65047916D01*
X65158630Y-64905059D01*
X65158630Y-64666964D01*
X64158630Y-65571726D02*
X64158630Y-66190773D01*
X64539583Y-65857440D01*
X64539583Y-66000297D01*
X64587202Y-66095535D01*
X64634821Y-66143154D01*
X64730059Y-66190773D01*
X64968154Y-66190773D01*
X65063392Y-66143154D01*
X65111011Y-66095535D01*
X65158630Y-66000297D01*
X65158630Y-65714583D01*
X65111011Y-65619345D01*
X65063392Y-65571726D01*
X64158630Y-66809821D02*
X64158630Y-66905059D01*
X64206250Y-67000297D01*
X64253869Y-67047916D01*
X64349107Y-67095535D01*
X64539583Y-67143154D01*
X64777678Y-67143154D01*
X64968154Y-67095535D01*
X65063392Y-67047916D01*
X65111011Y-67000297D01*
X65158630Y-66905059D01*
X65158630Y-66809821D01*
X65111011Y-66714583D01*
X65063392Y-66666964D01*
X64968154Y-66619345D01*
X64777678Y-66571726D01*
X64539583Y-66571726D01*
X64349107Y-66619345D01*
X64253869Y-66666964D01*
X64206250Y-66714583D01*
X64158630Y-66809821D01*
X38964880Y-64666964D02*
X37964880Y-64666964D01*
X37964880Y-64905059D01*
X38012500Y-65047916D01*
X38107738Y-65143154D01*
X38202976Y-65190773D01*
X38393452Y-65238392D01*
X38536309Y-65238392D01*
X38726785Y-65190773D01*
X38822023Y-65143154D01*
X38917261Y-65047916D01*
X38964880Y-64905059D01*
X38964880Y-64666964D01*
X38060119Y-65619345D02*
X38012500Y-65666964D01*
X37964880Y-65762202D01*
X37964880Y-66000297D01*
X38012500Y-66095535D01*
X38060119Y-66143154D01*
X38155357Y-66190773D01*
X38250595Y-66190773D01*
X38393452Y-66143154D01*
X38964880Y-65571726D01*
X38964880Y-66190773D01*
X38964880Y-66666964D02*
X38964880Y-66857440D01*
X38917261Y-66952678D01*
X38869642Y-67000297D01*
X38726785Y-67095535D01*
X38536309Y-67143154D01*
X38155357Y-67143154D01*
X38060119Y-67095535D01*
X38012500Y-67047916D01*
X37964880Y-66952678D01*
X37964880Y-66762202D01*
X38012500Y-66666964D01*
X38060119Y-66619345D01*
X38155357Y-66571726D01*
X38393452Y-66571726D01*
X38488690Y-66619345D01*
X38536309Y-66666964D01*
X38583928Y-66762202D01*
X38583928Y-66952678D01*
X38536309Y-67047916D01*
X38488690Y-67095535D01*
X38393452Y-67143154D01*
X293758630Y-45616964D02*
X292758630Y-45616964D01*
X292758630Y-45855059D01*
X292806250Y-45997916D01*
X292901488Y-46093154D01*
X292996726Y-46140773D01*
X293187202Y-46188392D01*
X293330059Y-46188392D01*
X293520535Y-46140773D01*
X293615773Y-46093154D01*
X293711011Y-45997916D01*
X293758630Y-45855059D01*
X293758630Y-45616964D01*
X292853869Y-46569345D02*
X292806250Y-46616964D01*
X292758630Y-46712202D01*
X292758630Y-46950297D01*
X292806250Y-47045535D01*
X292853869Y-47093154D01*
X292949107Y-47140773D01*
X293044345Y-47140773D01*
X293187202Y-47093154D01*
X293758630Y-46521726D01*
X293758630Y-47140773D01*
X293187202Y-47712202D02*
X293139583Y-47616964D01*
X293091964Y-47569345D01*
X292996726Y-47521726D01*
X292949107Y-47521726D01*
X292853869Y-47569345D01*
X292806250Y-47616964D01*
X292758630Y-47712202D01*
X292758630Y-47902678D01*
X292806250Y-47997916D01*
X292853869Y-48045535D01*
X292949107Y-48093154D01*
X292996726Y-48093154D01*
X293091964Y-48045535D01*
X293139583Y-47997916D01*
X293187202Y-47902678D01*
X293187202Y-47712202D01*
X293234821Y-47616964D01*
X293282440Y-47569345D01*
X293377678Y-47521726D01*
X293568154Y-47521726D01*
X293663392Y-47569345D01*
X293711011Y-47616964D01*
X293758630Y-47712202D01*
X293758630Y-47902678D01*
X293711011Y-47997916D01*
X293663392Y-48045535D01*
X293568154Y-48093154D01*
X293377678Y-48093154D01*
X293282440Y-48045535D01*
X293234821Y-47997916D01*
X293187202Y-47902678D01*
X269946130Y-45616964D02*
X268946130Y-45616964D01*
X268946130Y-45855059D01*
X268993750Y-45997916D01*
X269088988Y-46093154D01*
X269184226Y-46140773D01*
X269374702Y-46188392D01*
X269517559Y-46188392D01*
X269708035Y-46140773D01*
X269803273Y-46093154D01*
X269898511Y-45997916D01*
X269946130Y-45855059D01*
X269946130Y-45616964D01*
X269041369Y-46569345D02*
X268993750Y-46616964D01*
X268946130Y-46712202D01*
X268946130Y-46950297D01*
X268993750Y-47045535D01*
X269041369Y-47093154D01*
X269136607Y-47140773D01*
X269231845Y-47140773D01*
X269374702Y-47093154D01*
X269946130Y-46521726D01*
X269946130Y-47140773D01*
X268946130Y-47474107D02*
X268946130Y-48140773D01*
X269946130Y-47712202D01*
X250896130Y-45616964D02*
X249896130Y-45616964D01*
X249896130Y-45855059D01*
X249943750Y-45997916D01*
X250038988Y-46093154D01*
X250134226Y-46140773D01*
X250324702Y-46188392D01*
X250467559Y-46188392D01*
X250658035Y-46140773D01*
X250753273Y-46093154D01*
X250848511Y-45997916D01*
X250896130Y-45855059D01*
X250896130Y-45616964D01*
X249991369Y-46569345D02*
X249943750Y-46616964D01*
X249896130Y-46712202D01*
X249896130Y-46950297D01*
X249943750Y-47045535D01*
X249991369Y-47093154D01*
X250086607Y-47140773D01*
X250181845Y-47140773D01*
X250324702Y-47093154D01*
X250896130Y-46521726D01*
X250896130Y-47140773D01*
X249896130Y-47997916D02*
X249896130Y-47807440D01*
X249943750Y-47712202D01*
X249991369Y-47664583D01*
X250134226Y-47569345D01*
X250324702Y-47521726D01*
X250705654Y-47521726D01*
X250800892Y-47569345D01*
X250848511Y-47616964D01*
X250896130Y-47712202D01*
X250896130Y-47902678D01*
X250848511Y-47997916D01*
X250800892Y-48045535D01*
X250705654Y-48093154D01*
X250467559Y-48093154D01*
X250372321Y-48045535D01*
X250324702Y-47997916D01*
X250277083Y-47902678D01*
X250277083Y-47712202D01*
X250324702Y-47616964D01*
X250372321Y-47569345D01*
X250467559Y-47521726D01*
X231846130Y-45616964D02*
X230846130Y-45616964D01*
X230846130Y-45855059D01*
X230893750Y-45997916D01*
X230988988Y-46093154D01*
X231084226Y-46140773D01*
X231274702Y-46188392D01*
X231417559Y-46188392D01*
X231608035Y-46140773D01*
X231703273Y-46093154D01*
X231798511Y-45997916D01*
X231846130Y-45855059D01*
X231846130Y-45616964D01*
X230941369Y-46569345D02*
X230893750Y-46616964D01*
X230846130Y-46712202D01*
X230846130Y-46950297D01*
X230893750Y-47045535D01*
X230941369Y-47093154D01*
X231036607Y-47140773D01*
X231131845Y-47140773D01*
X231274702Y-47093154D01*
X231846130Y-46521726D01*
X231846130Y-47140773D01*
X230846130Y-48045535D02*
X230846130Y-47569345D01*
X231322321Y-47521726D01*
X231274702Y-47569345D01*
X231227083Y-47664583D01*
X231227083Y-47902678D01*
X231274702Y-47997916D01*
X231322321Y-48045535D01*
X231417559Y-48093154D01*
X231655654Y-48093154D01*
X231750892Y-48045535D01*
X231798511Y-47997916D01*
X231846130Y-47902678D01*
X231846130Y-47664583D01*
X231798511Y-47569345D01*
X231750892Y-47521726D01*
X208732380Y-45521714D02*
X207732380Y-45521714D01*
X207732380Y-45759809D01*
X207780000Y-45902666D01*
X207875238Y-45997904D01*
X207970476Y-46045523D01*
X208160952Y-46093142D01*
X208303809Y-46093142D01*
X208494285Y-46045523D01*
X208589523Y-45997904D01*
X208684761Y-45902666D01*
X208732380Y-45759809D01*
X208732380Y-45521714D01*
X207827619Y-46474095D02*
X207780000Y-46521714D01*
X207732380Y-46616952D01*
X207732380Y-46855047D01*
X207780000Y-46950285D01*
X207827619Y-46997904D01*
X207922857Y-47045523D01*
X208018095Y-47045523D01*
X208160952Y-46997904D01*
X208732380Y-46426476D01*
X208732380Y-47045523D01*
X208065714Y-47902666D02*
X208732380Y-47902666D01*
X207684761Y-47664571D02*
X208399047Y-47426476D01*
X208399047Y-48045523D01*
X193746130Y-45616964D02*
X192746130Y-45616964D01*
X192746130Y-45855059D01*
X192793750Y-45997916D01*
X192888988Y-46093154D01*
X192984226Y-46140773D01*
X193174702Y-46188392D01*
X193317559Y-46188392D01*
X193508035Y-46140773D01*
X193603273Y-46093154D01*
X193698511Y-45997916D01*
X193746130Y-45855059D01*
X193746130Y-45616964D01*
X192841369Y-46569345D02*
X192793750Y-46616964D01*
X192746130Y-46712202D01*
X192746130Y-46950297D01*
X192793750Y-47045535D01*
X192841369Y-47093154D01*
X192936607Y-47140773D01*
X193031845Y-47140773D01*
X193174702Y-47093154D01*
X193746130Y-46521726D01*
X193746130Y-47140773D01*
X192746130Y-47474107D02*
X192746130Y-48093154D01*
X193127083Y-47759821D01*
X193127083Y-47902678D01*
X193174702Y-47997916D01*
X193222321Y-48045535D01*
X193317559Y-48093154D01*
X193555654Y-48093154D01*
X193650892Y-48045535D01*
X193698511Y-47997916D01*
X193746130Y-47902678D01*
X193746130Y-47616964D01*
X193698511Y-47521726D01*
X193650892Y-47474107D01*
X174696130Y-45616964D02*
X173696130Y-45616964D01*
X173696130Y-45855059D01*
X173743750Y-45997916D01*
X173838988Y-46093154D01*
X173934226Y-46140773D01*
X174124702Y-46188392D01*
X174267559Y-46188392D01*
X174458035Y-46140773D01*
X174553273Y-46093154D01*
X174648511Y-45997916D01*
X174696130Y-45855059D01*
X174696130Y-45616964D01*
X173791369Y-46569345D02*
X173743750Y-46616964D01*
X173696130Y-46712202D01*
X173696130Y-46950297D01*
X173743750Y-47045535D01*
X173791369Y-47093154D01*
X173886607Y-47140773D01*
X173981845Y-47140773D01*
X174124702Y-47093154D01*
X174696130Y-46521726D01*
X174696130Y-47140773D01*
X173791369Y-47521726D02*
X173743750Y-47569345D01*
X173696130Y-47664583D01*
X173696130Y-47902678D01*
X173743750Y-47997916D01*
X173791369Y-48045535D01*
X173886607Y-48093154D01*
X173981845Y-48093154D01*
X174124702Y-48045535D01*
X174696130Y-47474107D01*
X174696130Y-48093154D01*
X155646130Y-45616964D02*
X154646130Y-45616964D01*
X154646130Y-45855059D01*
X154693750Y-45997916D01*
X154788988Y-46093154D01*
X154884226Y-46140773D01*
X155074702Y-46188392D01*
X155217559Y-46188392D01*
X155408035Y-46140773D01*
X155503273Y-46093154D01*
X155598511Y-45997916D01*
X155646130Y-45855059D01*
X155646130Y-45616964D01*
X154741369Y-46569345D02*
X154693750Y-46616964D01*
X154646130Y-46712202D01*
X154646130Y-46950297D01*
X154693750Y-47045535D01*
X154741369Y-47093154D01*
X154836607Y-47140773D01*
X154931845Y-47140773D01*
X155074702Y-47093154D01*
X155646130Y-46521726D01*
X155646130Y-47140773D01*
X155646130Y-48093154D02*
X155646130Y-47521726D01*
X155646130Y-47807440D02*
X154646130Y-47807440D01*
X154788988Y-47712202D01*
X154884226Y-47616964D01*
X154931845Y-47521726D01*
X136596130Y-45616964D02*
X135596130Y-45616964D01*
X135596130Y-45855059D01*
X135643750Y-45997916D01*
X135738988Y-46093154D01*
X135834226Y-46140773D01*
X136024702Y-46188392D01*
X136167559Y-46188392D01*
X136358035Y-46140773D01*
X136453273Y-46093154D01*
X136548511Y-45997916D01*
X136596130Y-45855059D01*
X136596130Y-45616964D01*
X135691369Y-46569345D02*
X135643750Y-46616964D01*
X135596130Y-46712202D01*
X135596130Y-46950297D01*
X135643750Y-47045535D01*
X135691369Y-47093154D01*
X135786607Y-47140773D01*
X135881845Y-47140773D01*
X136024702Y-47093154D01*
X136596130Y-46521726D01*
X136596130Y-47140773D01*
X135596130Y-47759821D02*
X135596130Y-47855059D01*
X135643750Y-47950297D01*
X135691369Y-47997916D01*
X135786607Y-48045535D01*
X135977083Y-48093154D01*
X136215178Y-48093154D01*
X136405654Y-48045535D01*
X136500892Y-47997916D01*
X136548511Y-47950297D01*
X136596130Y-47855059D01*
X136596130Y-47759821D01*
X136548511Y-47664583D01*
X136500892Y-47616964D01*
X136405654Y-47569345D01*
X136215178Y-47521726D01*
X135977083Y-47521726D01*
X135786607Y-47569345D01*
X135691369Y-47616964D01*
X135643750Y-47664583D01*
X135596130Y-47759821D01*
X117546130Y-45616964D02*
X116546130Y-45616964D01*
X116546130Y-45855059D01*
X116593750Y-45997916D01*
X116688988Y-46093154D01*
X116784226Y-46140773D01*
X116974702Y-46188392D01*
X117117559Y-46188392D01*
X117308035Y-46140773D01*
X117403273Y-46093154D01*
X117498511Y-45997916D01*
X117546130Y-45855059D01*
X117546130Y-45616964D01*
X117546130Y-47140773D02*
X117546130Y-46569345D01*
X117546130Y-46855059D02*
X116546130Y-46855059D01*
X116688988Y-46759821D01*
X116784226Y-46664583D01*
X116831845Y-46569345D01*
X117546130Y-47616964D02*
X117546130Y-47807440D01*
X117498511Y-47902678D01*
X117450892Y-47950297D01*
X117308035Y-48045535D01*
X117117559Y-48093154D01*
X116736607Y-48093154D01*
X116641369Y-48045535D01*
X116593750Y-47997916D01*
X116546130Y-47902678D01*
X116546130Y-47712202D01*
X116593750Y-47616964D01*
X116641369Y-47569345D01*
X116736607Y-47521726D01*
X116974702Y-47521726D01*
X117069940Y-47569345D01*
X117117559Y-47616964D01*
X117165178Y-47712202D01*
X117165178Y-47902678D01*
X117117559Y-47997916D01*
X117069940Y-48045535D01*
X116974702Y-48093154D01*
X98496130Y-45616964D02*
X97496130Y-45616964D01*
X97496130Y-45855059D01*
X97543750Y-45997916D01*
X97638988Y-46093154D01*
X97734226Y-46140773D01*
X97924702Y-46188392D01*
X98067559Y-46188392D01*
X98258035Y-46140773D01*
X98353273Y-46093154D01*
X98448511Y-45997916D01*
X98496130Y-45855059D01*
X98496130Y-45616964D01*
X98496130Y-47140773D02*
X98496130Y-46569345D01*
X98496130Y-46855059D02*
X97496130Y-46855059D01*
X97638988Y-46759821D01*
X97734226Y-46664583D01*
X97781845Y-46569345D01*
X97924702Y-47712202D02*
X97877083Y-47616964D01*
X97829464Y-47569345D01*
X97734226Y-47521726D01*
X97686607Y-47521726D01*
X97591369Y-47569345D01*
X97543750Y-47616964D01*
X97496130Y-47712202D01*
X97496130Y-47902678D01*
X97543750Y-47997916D01*
X97591369Y-48045535D01*
X97686607Y-48093154D01*
X97734226Y-48093154D01*
X97829464Y-48045535D01*
X97877083Y-47997916D01*
X97924702Y-47902678D01*
X97924702Y-47712202D01*
X97972321Y-47616964D01*
X98019940Y-47569345D01*
X98115178Y-47521726D01*
X98305654Y-47521726D01*
X98400892Y-47569345D01*
X98448511Y-47616964D01*
X98496130Y-47712202D01*
X98496130Y-47902678D01*
X98448511Y-47997916D01*
X98400892Y-48045535D01*
X98305654Y-48093154D01*
X98115178Y-48093154D01*
X98019940Y-48045535D01*
X97972321Y-47997916D01*
X97924702Y-47902678D01*
X79446130Y-45616964D02*
X78446130Y-45616964D01*
X78446130Y-45855059D01*
X78493750Y-45997916D01*
X78588988Y-46093154D01*
X78684226Y-46140773D01*
X78874702Y-46188392D01*
X79017559Y-46188392D01*
X79208035Y-46140773D01*
X79303273Y-46093154D01*
X79398511Y-45997916D01*
X79446130Y-45855059D01*
X79446130Y-45616964D01*
X79446130Y-47140773D02*
X79446130Y-46569345D01*
X79446130Y-46855059D02*
X78446130Y-46855059D01*
X78588988Y-46759821D01*
X78684226Y-46664583D01*
X78731845Y-46569345D01*
X78446130Y-47474107D02*
X78446130Y-48140773D01*
X79446130Y-47712202D01*
X60396130Y-45616964D02*
X59396130Y-45616964D01*
X59396130Y-45855059D01*
X59443750Y-45997916D01*
X59538988Y-46093154D01*
X59634226Y-46140773D01*
X59824702Y-46188392D01*
X59967559Y-46188392D01*
X60158035Y-46140773D01*
X60253273Y-46093154D01*
X60348511Y-45997916D01*
X60396130Y-45855059D01*
X60396130Y-45616964D01*
X60396130Y-47140773D02*
X60396130Y-46569345D01*
X60396130Y-46855059D02*
X59396130Y-46855059D01*
X59538988Y-46759821D01*
X59634226Y-46664583D01*
X59681845Y-46569345D01*
X59396130Y-47997916D02*
X59396130Y-47807440D01*
X59443750Y-47712202D01*
X59491369Y-47664583D01*
X59634226Y-47569345D01*
X59824702Y-47521726D01*
X60205654Y-47521726D01*
X60300892Y-47569345D01*
X60348511Y-47616964D01*
X60396130Y-47712202D01*
X60396130Y-47902678D01*
X60348511Y-47997916D01*
X60300892Y-48045535D01*
X60205654Y-48093154D01*
X59967559Y-48093154D01*
X59872321Y-48045535D01*
X59824702Y-47997916D01*
X59777083Y-47902678D01*
X59777083Y-47712202D01*
X59824702Y-47616964D01*
X59872321Y-47569345D01*
X59967559Y-47521726D01*
X36583630Y-45616964D02*
X35583630Y-45616964D01*
X35583630Y-45855059D01*
X35631250Y-45997916D01*
X35726488Y-46093154D01*
X35821726Y-46140773D01*
X36012202Y-46188392D01*
X36155059Y-46188392D01*
X36345535Y-46140773D01*
X36440773Y-46093154D01*
X36536011Y-45997916D01*
X36583630Y-45855059D01*
X36583630Y-45616964D01*
X36583630Y-47140773D02*
X36583630Y-46569345D01*
X36583630Y-46855059D02*
X35583630Y-46855059D01*
X35726488Y-46759821D01*
X35821726Y-46664583D01*
X35869345Y-46569345D01*
X35583630Y-48045535D02*
X35583630Y-47569345D01*
X36059821Y-47521726D01*
X36012202Y-47569345D01*
X35964583Y-47664583D01*
X35964583Y-47902678D01*
X36012202Y-47997916D01*
X36059821Y-48045535D01*
X36155059Y-48093154D01*
X36393154Y-48093154D01*
X36488392Y-48045535D01*
X36536011Y-47997916D01*
X36583630Y-47902678D01*
X36583630Y-47664583D01*
X36536011Y-47569345D01*
X36488392Y-47521726D01*
X288996130Y-26566964D02*
X287996130Y-26566964D01*
X287996130Y-26805059D01*
X288043750Y-26947916D01*
X288138988Y-27043154D01*
X288234226Y-27090773D01*
X288424702Y-27138392D01*
X288567559Y-27138392D01*
X288758035Y-27090773D01*
X288853273Y-27043154D01*
X288948511Y-26947916D01*
X288996130Y-26805059D01*
X288996130Y-26566964D01*
X288996130Y-28090773D02*
X288996130Y-27519345D01*
X288996130Y-27805059D02*
X287996130Y-27805059D01*
X288138988Y-27709821D01*
X288234226Y-27614583D01*
X288281845Y-27519345D01*
X288329464Y-28947916D02*
X288996130Y-28947916D01*
X287948511Y-28709821D02*
X288662797Y-28471726D01*
X288662797Y-29090773D01*
X260421130Y-26566964D02*
X259421130Y-26566964D01*
X259421130Y-26805059D01*
X259468750Y-26947916D01*
X259563988Y-27043154D01*
X259659226Y-27090773D01*
X259849702Y-27138392D01*
X259992559Y-27138392D01*
X260183035Y-27090773D01*
X260278273Y-27043154D01*
X260373511Y-26947916D01*
X260421130Y-26805059D01*
X260421130Y-26566964D01*
X260421130Y-28090773D02*
X260421130Y-27519345D01*
X260421130Y-27805059D02*
X259421130Y-27805059D01*
X259563988Y-27709821D01*
X259659226Y-27614583D01*
X259706845Y-27519345D01*
X259421130Y-28424107D02*
X259421130Y-29043154D01*
X259802083Y-28709821D01*
X259802083Y-28852678D01*
X259849702Y-28947916D01*
X259897321Y-28995535D01*
X259992559Y-29043154D01*
X260230654Y-29043154D01*
X260325892Y-28995535D01*
X260373511Y-28947916D01*
X260421130Y-28852678D01*
X260421130Y-28566964D01*
X260373511Y-28471726D01*
X260325892Y-28424107D01*
X222321130Y-26566964D02*
X221321130Y-26566964D01*
X221321130Y-26805059D01*
X221368750Y-26947916D01*
X221463988Y-27043154D01*
X221559226Y-27090773D01*
X221749702Y-27138392D01*
X221892559Y-27138392D01*
X222083035Y-27090773D01*
X222178273Y-27043154D01*
X222273511Y-26947916D01*
X222321130Y-26805059D01*
X222321130Y-26566964D01*
X222321130Y-28090773D02*
X222321130Y-27519345D01*
X222321130Y-27805059D02*
X221321130Y-27805059D01*
X221463988Y-27709821D01*
X221559226Y-27614583D01*
X221606845Y-27519345D01*
X222321130Y-29043154D02*
X222321130Y-28471726D01*
X222321130Y-28757440D02*
X221321130Y-28757440D01*
X221463988Y-28662202D01*
X221559226Y-28566964D01*
X221606845Y-28471726D01*
X203271130Y-26566964D02*
X202271130Y-26566964D01*
X202271130Y-26805059D01*
X202318750Y-26947916D01*
X202413988Y-27043154D01*
X202509226Y-27090773D01*
X202699702Y-27138392D01*
X202842559Y-27138392D01*
X203033035Y-27090773D01*
X203128273Y-27043154D01*
X203223511Y-26947916D01*
X203271130Y-26805059D01*
X203271130Y-26566964D01*
X203271130Y-28090773D02*
X203271130Y-27519345D01*
X203271130Y-27805059D02*
X202271130Y-27805059D01*
X202413988Y-27709821D01*
X202509226Y-27614583D01*
X202556845Y-27519345D01*
X202271130Y-28709821D02*
X202271130Y-28805059D01*
X202318750Y-28900297D01*
X202366369Y-28947916D01*
X202461607Y-28995535D01*
X202652083Y-29043154D01*
X202890178Y-29043154D01*
X203080654Y-28995535D01*
X203175892Y-28947916D01*
X203223511Y-28900297D01*
X203271130Y-28805059D01*
X203271130Y-28709821D01*
X203223511Y-28614583D01*
X203175892Y-28566964D01*
X203080654Y-28519345D01*
X202890178Y-28471726D01*
X202652083Y-28471726D01*
X202461607Y-28519345D01*
X202366369Y-28566964D01*
X202318750Y-28614583D01*
X202271130Y-28709821D01*
X184221130Y-27043154D02*
X183221130Y-27043154D01*
X183221130Y-27281250D01*
X183268750Y-27424107D01*
X183363988Y-27519345D01*
X183459226Y-27566964D01*
X183649702Y-27614583D01*
X183792559Y-27614583D01*
X183983035Y-27566964D01*
X184078273Y-27519345D01*
X184173511Y-27424107D01*
X184221130Y-27281250D01*
X184221130Y-27043154D01*
X184221130Y-28090773D02*
X184221130Y-28281250D01*
X184173511Y-28376488D01*
X184125892Y-28424107D01*
X183983035Y-28519345D01*
X183792559Y-28566964D01*
X183411607Y-28566964D01*
X183316369Y-28519345D01*
X183268750Y-28471726D01*
X183221130Y-28376488D01*
X183221130Y-28186011D01*
X183268750Y-28090773D01*
X183316369Y-28043154D01*
X183411607Y-27995535D01*
X183649702Y-27995535D01*
X183744940Y-28043154D01*
X183792559Y-28090773D01*
X183840178Y-28186011D01*
X183840178Y-28376488D01*
X183792559Y-28471726D01*
X183744940Y-28519345D01*
X183649702Y-28566964D01*
X165171130Y-27043154D02*
X164171130Y-27043154D01*
X164171130Y-27281250D01*
X164218750Y-27424107D01*
X164313988Y-27519345D01*
X164409226Y-27566964D01*
X164599702Y-27614583D01*
X164742559Y-27614583D01*
X164933035Y-27566964D01*
X165028273Y-27519345D01*
X165123511Y-27424107D01*
X165171130Y-27281250D01*
X165171130Y-27043154D01*
X164599702Y-28186011D02*
X164552083Y-28090773D01*
X164504464Y-28043154D01*
X164409226Y-27995535D01*
X164361607Y-27995535D01*
X164266369Y-28043154D01*
X164218750Y-28090773D01*
X164171130Y-28186011D01*
X164171130Y-28376488D01*
X164218750Y-28471726D01*
X164266369Y-28519345D01*
X164361607Y-28566964D01*
X164409226Y-28566964D01*
X164504464Y-28519345D01*
X164552083Y-28471726D01*
X164599702Y-28376488D01*
X164599702Y-28186011D01*
X164647321Y-28090773D01*
X164694940Y-28043154D01*
X164790178Y-27995535D01*
X164980654Y-27995535D01*
X165075892Y-28043154D01*
X165123511Y-28090773D01*
X165171130Y-28186011D01*
X165171130Y-28376488D01*
X165123511Y-28471726D01*
X165075892Y-28519345D01*
X164980654Y-28566964D01*
X164790178Y-28566964D01*
X164694940Y-28519345D01*
X164647321Y-28471726D01*
X164599702Y-28376488D01*
X146121130Y-27043154D02*
X145121130Y-27043154D01*
X145121130Y-27281250D01*
X145168750Y-27424107D01*
X145263988Y-27519345D01*
X145359226Y-27566964D01*
X145549702Y-27614583D01*
X145692559Y-27614583D01*
X145883035Y-27566964D01*
X145978273Y-27519345D01*
X146073511Y-27424107D01*
X146121130Y-27281250D01*
X146121130Y-27043154D01*
X145121130Y-27947916D02*
X145121130Y-28614583D01*
X146121130Y-28186011D01*
X127071130Y-27043154D02*
X126071130Y-27043154D01*
X126071130Y-27281250D01*
X126118750Y-27424107D01*
X126213988Y-27519345D01*
X126309226Y-27566964D01*
X126499702Y-27614583D01*
X126642559Y-27614583D01*
X126833035Y-27566964D01*
X126928273Y-27519345D01*
X127023511Y-27424107D01*
X127071130Y-27281250D01*
X127071130Y-27043154D01*
X126071130Y-28471726D02*
X126071130Y-28281250D01*
X126118750Y-28186011D01*
X126166369Y-28138392D01*
X126309226Y-28043154D01*
X126499702Y-27995535D01*
X126880654Y-27995535D01*
X126975892Y-28043154D01*
X127023511Y-28090773D01*
X127071130Y-28186011D01*
X127071130Y-28376488D01*
X127023511Y-28471726D01*
X126975892Y-28519345D01*
X126880654Y-28566964D01*
X126642559Y-28566964D01*
X126547321Y-28519345D01*
X126499702Y-28471726D01*
X126452083Y-28376488D01*
X126452083Y-28186011D01*
X126499702Y-28090773D01*
X126547321Y-28043154D01*
X126642559Y-27995535D01*
X108021130Y-27043154D02*
X107021130Y-27043154D01*
X107021130Y-27281250D01*
X107068750Y-27424107D01*
X107163988Y-27519345D01*
X107259226Y-27566964D01*
X107449702Y-27614583D01*
X107592559Y-27614583D01*
X107783035Y-27566964D01*
X107878273Y-27519345D01*
X107973511Y-27424107D01*
X108021130Y-27281250D01*
X108021130Y-27043154D01*
X107021130Y-28519345D02*
X107021130Y-28043154D01*
X107497321Y-27995535D01*
X107449702Y-28043154D01*
X107402083Y-28138392D01*
X107402083Y-28376488D01*
X107449702Y-28471726D01*
X107497321Y-28519345D01*
X107592559Y-28566964D01*
X107830654Y-28566964D01*
X107925892Y-28519345D01*
X107973511Y-28471726D01*
X108021130Y-28376488D01*
X108021130Y-28138392D01*
X107973511Y-28043154D01*
X107925892Y-27995535D01*
X88971130Y-27043154D02*
X87971130Y-27043154D01*
X87971130Y-27281250D01*
X88018750Y-27424107D01*
X88113988Y-27519345D01*
X88209226Y-27566964D01*
X88399702Y-27614583D01*
X88542559Y-27614583D01*
X88733035Y-27566964D01*
X88828273Y-27519345D01*
X88923511Y-27424107D01*
X88971130Y-27281250D01*
X88971130Y-27043154D01*
X88304464Y-28471726D02*
X88971130Y-28471726D01*
X87923511Y-28233630D02*
X88637797Y-27995535D01*
X88637797Y-28614583D01*
X69921130Y-27043154D02*
X68921130Y-27043154D01*
X68921130Y-27281250D01*
X68968750Y-27424107D01*
X69063988Y-27519345D01*
X69159226Y-27566964D01*
X69349702Y-27614583D01*
X69492559Y-27614583D01*
X69683035Y-27566964D01*
X69778273Y-27519345D01*
X69873511Y-27424107D01*
X69921130Y-27281250D01*
X69921130Y-27043154D01*
X68921130Y-27947916D02*
X68921130Y-28566964D01*
X69302083Y-28233630D01*
X69302083Y-28376488D01*
X69349702Y-28471726D01*
X69397321Y-28519345D01*
X69492559Y-28566964D01*
X69730654Y-28566964D01*
X69825892Y-28519345D01*
X69873511Y-28471726D01*
X69921130Y-28376488D01*
X69921130Y-28090773D01*
X69873511Y-27995535D01*
X69825892Y-27947916D01*
X50871130Y-27043154D02*
X49871130Y-27043154D01*
X49871130Y-27281250D01*
X49918750Y-27424107D01*
X50013988Y-27519345D01*
X50109226Y-27566964D01*
X50299702Y-27614583D01*
X50442559Y-27614583D01*
X50633035Y-27566964D01*
X50728273Y-27519345D01*
X50823511Y-27424107D01*
X50871130Y-27281250D01*
X50871130Y-27043154D01*
X49966369Y-27995535D02*
X49918750Y-28043154D01*
X49871130Y-28138392D01*
X49871130Y-28376488D01*
X49918750Y-28471726D01*
X49966369Y-28519345D01*
X50061607Y-28566964D01*
X50156845Y-28566964D01*
X50299702Y-28519345D01*
X50871130Y-27947916D01*
X50871130Y-28566964D01*
X31821130Y-27043154D02*
X30821130Y-27043154D01*
X30821130Y-27281250D01*
X30868750Y-27424107D01*
X30963988Y-27519345D01*
X31059226Y-27566964D01*
X31249702Y-27614583D01*
X31392559Y-27614583D01*
X31583035Y-27566964D01*
X31678273Y-27519345D01*
X31773511Y-27424107D01*
X31821130Y-27281250D01*
X31821130Y-27043154D01*
X31821130Y-28566964D02*
X31821130Y-27995535D01*
X31821130Y-28281250D02*
X30821130Y-28281250D01*
X30963988Y-28186011D01*
X31059226Y-28090773D01*
X31106845Y-27995535D01*
X188126666Y-97639142D02*
X188174285Y-97686761D01*
X188317142Y-97734380D01*
X188412380Y-97734380D01*
X188555238Y-97686761D01*
X188650476Y-97591523D01*
X188698095Y-97496285D01*
X188745714Y-97305809D01*
X188745714Y-97162952D01*
X188698095Y-96972476D01*
X188650476Y-96877238D01*
X188555238Y-96782000D01*
X188412380Y-96734380D01*
X188317142Y-96734380D01*
X188174285Y-96782000D01*
X188126666Y-96829619D01*
X187555238Y-97162952D02*
X187650476Y-97115333D01*
X187698095Y-97067714D01*
X187745714Y-96972476D01*
X187745714Y-96924857D01*
X187698095Y-96829619D01*
X187650476Y-96782000D01*
X187555238Y-96734380D01*
X187364761Y-96734380D01*
X187269523Y-96782000D01*
X187221904Y-96829619D01*
X187174285Y-96924857D01*
X187174285Y-96972476D01*
X187221904Y-97067714D01*
X187269523Y-97115333D01*
X187364761Y-97162952D01*
X187555238Y-97162952D01*
X187650476Y-97210571D01*
X187698095Y-97258190D01*
X187745714Y-97353428D01*
X187745714Y-97543904D01*
X187698095Y-97639142D01*
X187650476Y-97686761D01*
X187555238Y-97734380D01*
X187364761Y-97734380D01*
X187269523Y-97686761D01*
X187221904Y-97639142D01*
X187174285Y-97543904D01*
X187174285Y-97353428D01*
X187221904Y-97258190D01*
X187269523Y-97210571D01*
X187364761Y-97162952D01*
X181776666Y-85037142D02*
X181824285Y-85084761D01*
X181967142Y-85132380D01*
X182062380Y-85132380D01*
X182205238Y-85084761D01*
X182300476Y-84989523D01*
X182348095Y-84894285D01*
X182395714Y-84703809D01*
X182395714Y-84560952D01*
X182348095Y-84370476D01*
X182300476Y-84275238D01*
X182205238Y-84180000D01*
X182062380Y-84132380D01*
X181967142Y-84132380D01*
X181824285Y-84180000D01*
X181776666Y-84227619D01*
X181443333Y-84132380D02*
X180776666Y-84132380D01*
X181205238Y-85132380D01*
X174220166Y-85066142D02*
X174267785Y-85113761D01*
X174410642Y-85161380D01*
X174505880Y-85161380D01*
X174648738Y-85113761D01*
X174743976Y-85018523D01*
X174791595Y-84923285D01*
X174839214Y-84732809D01*
X174839214Y-84589952D01*
X174791595Y-84399476D01*
X174743976Y-84304238D01*
X174648738Y-84209000D01*
X174505880Y-84161380D01*
X174410642Y-84161380D01*
X174267785Y-84209000D01*
X174220166Y-84256619D01*
X173363023Y-84161380D02*
X173553500Y-84161380D01*
X173648738Y-84209000D01*
X173696357Y-84256619D01*
X173791595Y-84399476D01*
X173839214Y-84589952D01*
X173839214Y-84970904D01*
X173791595Y-85066142D01*
X173743976Y-85113761D01*
X173648738Y-85161380D01*
X173458261Y-85161380D01*
X173363023Y-85113761D01*
X173315404Y-85066142D01*
X173267785Y-84970904D01*
X173267785Y-84732809D01*
X173315404Y-84637571D01*
X173363023Y-84589952D01*
X173458261Y-84542333D01*
X173648738Y-84542333D01*
X173743976Y-84589952D01*
X173791595Y-84637571D01*
X173839214Y-84732809D01*
X167587142Y-98893333D02*
X167634761Y-98845714D01*
X167682380Y-98702857D01*
X167682380Y-98607619D01*
X167634761Y-98464761D01*
X167539523Y-98369523D01*
X167444285Y-98321904D01*
X167253809Y-98274285D01*
X167110952Y-98274285D01*
X166920476Y-98321904D01*
X166825238Y-98369523D01*
X166730000Y-98464761D01*
X166682380Y-98607619D01*
X166682380Y-98702857D01*
X166730000Y-98845714D01*
X166777619Y-98893333D01*
X167015714Y-99750476D02*
X167682380Y-99750476D01*
X166634761Y-99512380D02*
X167349047Y-99274285D01*
X167349047Y-99893333D01*
X188825142Y-95083333D02*
X188872761Y-95035714D01*
X188920380Y-94892857D01*
X188920380Y-94797619D01*
X188872761Y-94654761D01*
X188777523Y-94559523D01*
X188682285Y-94511904D01*
X188491809Y-94464285D01*
X188348952Y-94464285D01*
X188158476Y-94511904D01*
X188063238Y-94559523D01*
X187968000Y-94654761D01*
X187920380Y-94797619D01*
X187920380Y-94892857D01*
X187968000Y-95035714D01*
X188015619Y-95083333D01*
X187920380Y-95416666D02*
X187920380Y-96035714D01*
X188301333Y-95702380D01*
X188301333Y-95845238D01*
X188348952Y-95940476D01*
X188396571Y-95988095D01*
X188491809Y-96035714D01*
X188729904Y-96035714D01*
X188825142Y-95988095D01*
X188872761Y-95940476D01*
X188920380Y-95845238D01*
X188920380Y-95559523D01*
X188872761Y-95464285D01*
X188825142Y-95416666D01*
X184917142Y-105243333D02*
X184964761Y-105195714D01*
X185012380Y-105052857D01*
X185012380Y-104957619D01*
X184964761Y-104814761D01*
X184869523Y-104719523D01*
X184774285Y-104671904D01*
X184583809Y-104624285D01*
X184440952Y-104624285D01*
X184250476Y-104671904D01*
X184155238Y-104719523D01*
X184060000Y-104814761D01*
X184012380Y-104957619D01*
X184012380Y-105052857D01*
X184060000Y-105195714D01*
X184107619Y-105243333D01*
X184107619Y-105624285D02*
X184060000Y-105671904D01*
X184012380Y-105767142D01*
X184012380Y-106005238D01*
X184060000Y-106100476D01*
X184107619Y-106148095D01*
X184202857Y-106195714D01*
X184298095Y-106195714D01*
X184440952Y-106148095D01*
X185012380Y-105576666D01*
X185012380Y-106195714D01*
X171397142Y-105243333D02*
X171444761Y-105195714D01*
X171492380Y-105052857D01*
X171492380Y-104957619D01*
X171444761Y-104814761D01*
X171349523Y-104719523D01*
X171254285Y-104671904D01*
X171063809Y-104624285D01*
X170920952Y-104624285D01*
X170730476Y-104671904D01*
X170635238Y-104719523D01*
X170540000Y-104814761D01*
X170492380Y-104957619D01*
X170492380Y-105052857D01*
X170540000Y-105195714D01*
X170587619Y-105243333D01*
X171492380Y-106195714D02*
X171492380Y-105624285D01*
X171492380Y-105910000D02*
X170492380Y-105910000D01*
X170635238Y-105814761D01*
X170730476Y-105719523D01*
X170778095Y-105624285D01*
M02*
