M48
; DRILL file {KiCad (5.1.9)-1} date 03/29/21 17:24:28
; FORMAT={-:-/ absolute / inch / decimal}
; #@! TF.CreationDate,2021-03-29T17:24:28+03:00
; #@! TF.GenerationSoftware,Kicad,Pcbnew,(5.1.9)-1
; #@! TF.FileFunction,NonPlated,1,2,NPTH
FMAT,2
INCH
T1C0.0256
T2C0.0689
T3C0.1200
T4C0.1570
%
G90
G05
T1
X9.4487Y-0.6024
X9.6763Y-0.6024
T2
X0.7375Y-0.9375
X0.8312Y-3.9375
X0.925Y-1.6875
X1.0188Y-2.4375
X1.1375Y-0.9375
X1.2063Y-3.1875
X1.2312Y-3.9375
X1.325Y-1.6875
X1.4187Y-2.4375
X1.4875Y-0.9375
X1.6062Y-3.1875
X1.7688Y-3.9375
X1.8625Y-1.6875
X1.8875Y-0.9375
X2.05Y-2.4375
X2.1687Y-3.9375
X2.2375Y-0.9375
X2.2625Y-1.6875
X2.425Y-3.1875
X2.45Y-2.4375
X2.6125Y-1.6875
X2.6375Y-0.9375
X2.7062Y-3.9375
X2.8Y-2.4375
X2.825Y-3.1875
X2.9875Y-0.9375
X3.0125Y-1.6875
X3.1062Y-3.9375
X3.175Y-3.1875
X3.2Y-2.4375
X3.3625Y-1.6875
X3.3875Y-0.9375
X3.55Y-2.4375
X3.575Y-3.1875
X3.7375Y-0.9375
X3.7625Y-1.6875
X3.925Y-3.1875
X3.95Y-2.4375
X4.1125Y-1.6875
X4.1375Y-0.9375
X4.3Y-2.4375
X4.325Y-3.1875
X4.4875Y-0.9375
X4.5125Y-1.6875
X4.675Y-3.1875
X4.7Y-2.4375
X4.8625Y-1.6875
X4.8875Y-0.9375
X5.05Y-2.4375
X5.075Y-3.1875
X5.2375Y-0.9375
X5.2625Y-1.6875
X5.425Y-3.1875
X5.45Y-2.4375
X5.5187Y-3.9375
X5.6125Y-1.6875
X5.6375Y-0.9375
X5.8Y-2.4375
X5.825Y-3.1875
X5.9188Y-3.9375
X5.9875Y-0.9375
X6.0125Y-1.6875
X6.175Y-3.1875
X6.2Y-2.4375
X6.3625Y-1.6875
X6.3875Y-0.9375
X6.55Y-2.4375
X6.575Y-3.1875
X6.7375Y-0.9375
X6.7625Y-1.6875
X6.925Y-3.1875
X6.95Y-2.4375
X7.1125Y-1.6875
X7.1375Y-0.9375
X7.3Y-2.4375
X7.325Y-3.1875
X7.4875Y-0.9375
X7.5125Y-1.6875
X7.675Y-3.1875
X7.7Y-2.4375
X7.8625Y-1.6875
X7.8875Y-0.9375
X8.05Y-2.4375
X8.075Y-3.1875
X8.2375Y-0.9375
X8.2625Y-1.6875
X8.3312Y-3.9375
X8.425Y-3.1875
X8.45Y-2.4375
X8.6125Y-1.6875
X8.6375Y-0.9375
X8.7312Y-3.9375
X8.8Y-2.4375
X8.825Y-3.1875
X8.9875Y-0.9375
X9.0125Y-1.6875
X9.175Y-3.1875
X9.2Y-2.4375
X9.2687Y-3.9375
X9.3625Y-1.6875
X9.3875Y-0.9375
X9.55Y-2.4375
X9.575Y-3.1875
X9.6687Y-3.9375
X9.7375Y-0.9375
X9.7625Y-1.6875
X9.95Y-2.4375
X10.1125Y-1.6875
X10.1375Y-0.9375
X10.2062Y-3.9375
X10.5125Y-1.6875
X10.5812Y-3.1875
X10.6062Y-3.9375
X10.7687Y-2.4375
X10.8625Y-0.9375
X10.9812Y-3.1875
X11.05Y-1.6875
X11.1437Y-3.9375
X11.1687Y-2.4375
X11.2625Y-0.9375
X11.45Y-1.6875
X11.5437Y-3.9375
T3
X0.9363Y-2.9125
X1.8762Y-2.9125
X3.7502Y-4.2125
X7.6872Y-4.2125
X10.3112Y-2.9125
X10.4987Y-2.1625
X10.5925Y-0.6625
X11.2512Y-2.9125
X11.4387Y-2.1625
X11.5325Y-0.6625
T4
X0.9363Y-3.5125
X0.9375Y-0.9375
X1.0312Y-3.9375
X1.125Y-1.6875
X1.2188Y-2.4375
X1.4062Y-3.1875
X1.6875Y-0.9375
X1.8762Y-3.5125
X1.9688Y-3.9375
X2.0625Y-1.6875
X2.25Y-2.4375
X2.4375Y-0.9375
X2.625Y-3.1875
X2.8125Y-1.6875
X2.9062Y-3.9375
X3.0Y-2.4375
X3.1875Y-0.9375
X3.375Y-3.1875
X3.5625Y-1.6875
X3.75Y-2.4375
X3.7502Y-3.6125
X3.9375Y-0.9375
X4.125Y-3.1875
X4.3125Y-1.6875
X4.5Y-2.4375
X4.6875Y-0.9375
X4.875Y-3.1875
X5.0625Y-1.6875
X5.25Y-2.4375
X5.4375Y-0.9375
X5.625Y-3.1875
X5.7188Y-3.9375
X5.8125Y-1.6875
X6.0Y-2.4375
X6.1875Y-0.9375
X6.375Y-3.1875
X6.5625Y-1.6875
X6.75Y-2.4375
X6.9375Y-0.9375
X7.125Y-3.1875
X7.3125Y-1.6875
X7.5Y-2.4375
X7.6872Y-3.6125
X7.6875Y-0.9375
X7.875Y-3.1875
X8.0625Y-1.6875
X8.25Y-2.4375
X8.4375Y-0.9375
X8.5312Y-3.9375
X8.625Y-3.1875
X8.8125Y-1.6875
X9.0Y-2.4375
X9.1875Y-0.9375
X9.375Y-3.1875
X9.4688Y-3.9375
X9.5625Y-1.6875
X9.75Y-2.4375
X9.9375Y-0.9375
X10.3112Y-3.5125
X10.3125Y-1.6875
X10.4062Y-3.9375
X10.4987Y-2.7625
X10.5925Y-1.2625
X10.7812Y-3.1875
X10.9688Y-2.4375
X11.0625Y-0.9375
X11.25Y-1.6875
X11.2512Y-3.5125
X11.3438Y-3.9375
X11.4387Y-2.7625
X11.5325Y-1.2625
T0
M30
