M48
; DRILL file {KiCad (5.1.9)-1} date 03/29/21 17:24:28
; FORMAT={-:-/ absolute / inch / decimal}
; #@! TF.CreationDate,2021-03-29T17:24:28+03:00
; #@! TF.GenerationSoftware,Kicad,Pcbnew,(5.1.9)-1
; #@! TF.FileFunction,Plated,1,2,PTH
FMAT,2
INCH
T1C0.0157
T2C0.0236
T3C0.0394
T4C0.0579
%
G90
G05
T1
X6.0Y-1.2
X6.15Y-1.95
X6.5Y-3.5
X6.5Y-3.55
X6.5Y-3.6
X6.5Y-3.65
X6.5Y-3.7
X6.5Y-3.75
X6.55Y-3.85
X6.75Y-3.35
X6.75Y-4.05
X6.8Y-3.3
X6.8Y-3.485
X6.9Y-3.25
X6.9Y-3.65
X6.9Y-3.85
X6.95Y-3.9
X7.0Y-3.85
X7.1Y-3.65
X7.1Y-3.85
X7.2Y-3.3
X7.25Y-3.35
X7.25Y-3.45
X7.25Y-4.24
X7.3Y-3.55
X7.45Y-3.35
X7.45Y-3.8
X7.45Y-4.1
X7.5Y-3.85
X7.5Y-4.15
X7.55Y-3.9
X7.7Y-2.9
X7.8Y-2.7
X7.85Y-3.9
X7.9Y-2.7
X8.0Y-4.0
X8.05Y-3.95
X8.1Y-2.9
X8.2Y-1.95
X8.2Y-2.65
X8.4Y-2.7
X8.6Y-1.2
X8.6Y-1.95
X8.7Y-1.95
X8.9Y-1.2
X9.1Y-1.95
X9.35Y-1.2
X9.6Y-1.2
X9.7Y-2.9
T3
X8.15Y-3.55
X8.15Y-3.65
X8.15Y-3.75
X8.25Y-3.55
X8.25Y-3.65
X8.25Y-3.75
T4
X0.7875Y-0.8375
X0.8391Y-0.78
X0.8812Y-3.8375
X0.9328Y-3.78
X0.975Y-1.5875
X1.0266Y-1.53
X1.0359Y-0.7603
X1.0375Y-0.7375
X1.0687Y-2.3375
X1.1203Y-2.28
X1.1297Y-3.7603
X1.1312Y-3.7375
X1.2234Y-1.5103
X1.225Y-1.4875
X1.2562Y-3.0875
X1.3078Y-3.03
X1.3172Y-2.2603
X1.3187Y-2.2375
X1.5047Y-3.0103
X1.5062Y-2.9875
X1.5375Y-0.8375
X1.5891Y-0.78
X1.7859Y-0.7603
X1.7875Y-0.7375
X1.8187Y-3.8375
X1.8703Y-3.78
X1.9125Y-1.5875
X1.9641Y-1.53
X2.0672Y-3.7603
X2.0688Y-3.7375
X2.1Y-2.3375
X2.1516Y-2.28
X2.1609Y-1.5103
X2.1625Y-1.4875
X2.2875Y-0.8375
X2.3391Y-0.78
X2.3484Y-2.2603
X2.35Y-2.2375
X2.475Y-3.0875
X2.5266Y-3.03
X2.5359Y-0.7603
X2.5375Y-0.7375
X2.6625Y-1.5875
X2.7141Y-1.53
X2.7234Y-3.0103
X2.725Y-2.9875
X2.7563Y-3.8375
X2.8078Y-3.78
X2.85Y-2.3375
X2.9016Y-2.28
X2.9109Y-1.5103
X2.9125Y-1.4875
X3.0047Y-3.7603
X3.0063Y-3.7375
X3.0375Y-0.8375
X3.0891Y-0.78
X3.0984Y-2.2603
X3.1Y-2.2375
X3.225Y-3.0875
X3.2766Y-3.03
X3.2859Y-0.7603
X3.2875Y-0.7375
X3.4125Y-1.5875
X3.4641Y-1.53
X3.4734Y-3.0103
X3.475Y-2.9875
X3.6Y-2.3375
X3.6516Y-2.28
X3.6609Y-1.5103
X3.6625Y-1.4875
X3.7875Y-0.8375
X3.8391Y-0.78
X3.8484Y-2.2603
X3.85Y-2.2375
X3.975Y-3.0875
X4.0266Y-3.03
X4.0359Y-0.7603
X4.0375Y-0.7375
X4.1625Y-1.5875
X4.2141Y-1.53
X4.2234Y-3.0103
X4.225Y-2.9875
X4.35Y-2.3375
X4.4016Y-2.28
X4.4109Y-1.5103
X4.4125Y-1.4875
X4.5375Y-0.8375
X4.5891Y-0.78
X4.5984Y-2.2603
X4.6Y-2.2375
X4.725Y-3.0875
X4.7766Y-3.03
X4.7859Y-0.7603
X4.7875Y-0.7375
X4.9125Y-1.5875
X4.9641Y-1.53
X4.9734Y-3.0103
X4.975Y-2.9875
X5.1Y-2.3375
X5.1516Y-2.28
X5.1609Y-1.5103
X5.1625Y-1.4875
X5.2875Y-0.8375
X5.3391Y-0.78
X5.3484Y-2.2603
X5.35Y-2.2375
X5.475Y-3.0875
X5.5266Y-3.03
X5.5359Y-0.7603
X5.5375Y-0.7375
X5.5687Y-3.8375
X5.6203Y-3.78
X5.6625Y-1.5875
X5.7141Y-1.53
X5.7234Y-3.0103
X5.725Y-2.9875
X5.8172Y-3.7603
X5.8187Y-3.7375
X5.85Y-2.3375
X5.9016Y-2.28
X5.9109Y-1.5103
X5.9125Y-1.4875
X6.0375Y-0.8375
X6.0891Y-0.78
X6.0984Y-2.2603
X6.1Y-2.2375
X6.225Y-3.0875
X6.2766Y-3.03
X6.2859Y-0.7603
X6.2875Y-0.7375
X6.4125Y-1.5875
X6.4641Y-1.53
X6.4734Y-3.0103
X6.475Y-2.9875
X6.6Y-2.3375
X6.6516Y-2.28
X6.6609Y-1.5103
X6.6625Y-1.4875
X6.7875Y-0.8375
X6.8391Y-0.78
X6.8484Y-2.2603
X6.85Y-2.2375
X6.975Y-3.0875
X7.0266Y-3.03
X7.0359Y-0.7603
X7.0375Y-0.7375
X7.1625Y-1.5875
X7.2141Y-1.53
X7.2234Y-3.0103
X7.225Y-2.9875
X7.35Y-2.3375
X7.4016Y-2.28
X7.4109Y-1.5103
X7.4125Y-1.4875
X7.5375Y-0.8375
X7.5891Y-0.78
X7.5984Y-2.2603
X7.6Y-2.2375
X7.725Y-3.0875
X7.7766Y-3.03
X7.7859Y-0.7603
X7.7875Y-0.7375
X7.9125Y-1.5875
X7.9641Y-1.53
X7.9734Y-3.0103
X7.975Y-2.9875
X8.1Y-2.3375
X8.1516Y-2.28
X8.1609Y-1.5103
X8.1625Y-1.4875
X8.2875Y-0.8375
X8.3391Y-0.78
X8.3484Y-2.2603
X8.35Y-2.2375
X8.3812Y-3.8375
X8.4328Y-3.78
X8.475Y-3.0875
X8.5266Y-3.03
X8.5359Y-0.7603
X8.5375Y-0.7375
X8.6297Y-3.7603
X8.6312Y-3.7375
X8.6625Y-1.5875
X8.7141Y-1.53
X8.7234Y-3.0103
X8.725Y-2.9875
X8.85Y-2.3375
X8.9016Y-2.28
X8.9109Y-1.5103
X8.9125Y-1.4875
X9.0375Y-0.8375
X9.0891Y-0.78
X9.0984Y-2.2603
X9.1Y-2.2375
X9.225Y-3.0875
X9.2766Y-3.03
X9.2859Y-0.7603
X9.2875Y-0.7375
X9.3187Y-3.8375
X9.3703Y-3.78
X9.4125Y-1.5875
X9.4641Y-1.53
X9.4734Y-3.0103
X9.475Y-2.9875
X9.5672Y-3.7603
X9.5687Y-3.7375
X9.6Y-2.3375
X9.6516Y-2.28
X9.6609Y-1.5103
X9.6625Y-1.4875
X9.7875Y-0.8375
X9.8391Y-0.78
X9.8484Y-2.2603
X9.85Y-2.2375
X10.0359Y-0.7603
X10.0375Y-0.7375
X10.1625Y-1.5875
X10.2141Y-1.53
X10.2562Y-3.8375
X10.3078Y-3.78
X10.4109Y-1.5103
X10.4125Y-1.4875
X10.5047Y-3.7603
X10.5062Y-3.7375
X10.6312Y-3.0875
X10.6828Y-3.03
X10.8187Y-2.3375
X10.8703Y-2.28
X10.8797Y-3.0103
X10.8812Y-2.9875
X10.9125Y-0.8375
X10.9641Y-0.78
X11.0672Y-2.2603
X11.0687Y-2.2375
X11.1Y-1.5875
X11.1516Y-1.53
X11.1609Y-0.7603
X11.1625Y-0.7375
X11.1937Y-3.8375
X11.2453Y-3.78
X11.3484Y-1.5103
X11.35Y-1.4875
X11.4422Y-3.7603
X11.4437Y-3.7375
T2
G00X9.3924Y-0.4469
M15
G01X9.3924Y-0.4705
M16
G05
G00X9.3924Y-0.6016
M15
G01X9.3924Y-0.6449
M16
G05
G00X9.7326Y-0.4469
M15
G01X9.7326Y-0.4705
M16
G05
G00X9.7326Y-0.6016
M15
G01X9.7326Y-0.6449
M16
G05
T0
M30
