G04 #@! TF.GenerationSoftware,KiCad,Pcbnew,(5.1.9)-1*
G04 #@! TF.CreationDate,2021-03-29T17:21:37+03:00*
G04 #@! TF.ProjectId,hotshot_keyboard,686f7473-686f-4745-9f6b-6579626f6172,rev?*
G04 #@! TF.SameCoordinates,Original*
G04 #@! TF.FileFunction,Copper,L2,Bot*
G04 #@! TF.FilePolarity,Positive*
%FSLAX46Y46*%
G04 Gerber Fmt 4.6, Leading zero omitted, Abs format (unit mm)*
G04 Created by KiCad (PCBNEW (5.1.9)-1) date 2021-03-29 17:21:37*
%MOMM*%
%LPD*%
G01*
G04 APERTURE LIST*
G04 #@! TA.AperFunction,ComponentPad*
%ADD10C,2.250000*%
G04 #@! TD*
G04 #@! TA.AperFunction,SMDPad,CuDef*
%ADD11R,1.200000X0.900000*%
G04 #@! TD*
G04 #@! TA.AperFunction,SMDPad,CuDef*
%ADD12R,0.700000X0.600000*%
G04 #@! TD*
G04 #@! TA.AperFunction,SMDPad,CuDef*
%ADD13R,0.700000X1.000000*%
G04 #@! TD*
G04 #@! TA.AperFunction,SMDPad,CuDef*
%ADD14R,2.100000X1.800000*%
G04 #@! TD*
G04 #@! TA.AperFunction,SMDPad,CuDef*
%ADD15R,0.550000X1.500000*%
G04 #@! TD*
G04 #@! TA.AperFunction,SMDPad,CuDef*
%ADD16R,1.500000X0.550000*%
G04 #@! TD*
G04 #@! TA.AperFunction,SMDPad,CuDef*
%ADD17R,1.800000X1.100000*%
G04 #@! TD*
G04 #@! TA.AperFunction,SMDPad,CuDef*
%ADD18R,0.600000X1.450000*%
G04 #@! TD*
G04 #@! TA.AperFunction,SMDPad,CuDef*
%ADD19R,0.300000X1.450000*%
G04 #@! TD*
G04 #@! TA.AperFunction,ComponentPad*
%ADD20O,1.000000X2.100000*%
G04 #@! TD*
G04 #@! TA.AperFunction,ComponentPad*
%ADD21O,1.000000X1.600000*%
G04 #@! TD*
G04 #@! TA.AperFunction,ComponentPad*
%ADD22R,1.700000X1.700000*%
G04 #@! TD*
G04 #@! TA.AperFunction,ComponentPad*
%ADD23C,1.700000*%
G04 #@! TD*
G04 #@! TA.AperFunction,ViaPad*
%ADD24C,0.800000*%
G04 #@! TD*
G04 #@! TA.AperFunction,Conductor*
%ADD25C,0.381000*%
G04 #@! TD*
G04 #@! TA.AperFunction,Conductor*
%ADD26C,0.254000*%
G04 #@! TD*
G04 #@! TA.AperFunction,Conductor*
%ADD27C,0.200000*%
G04 #@! TD*
G04 #@! TA.AperFunction,Conductor*
%ADD28C,0.100000*%
G04 #@! TD*
G04 APERTURE END LIST*
D10*
X168950000Y-57912500D03*
G04 #@! TA.AperFunction,ComponentPad*
G36*
G01*
X166888688Y-60209850D02*
X166888683Y-60209845D01*
G75*
G02*
X166802655Y-58621183I751317J837345D01*
G01*
X168112657Y-57161183D01*
G75*
G02*
X169701319Y-57075155I837345J-751317D01*
G01*
X169701319Y-57075155D01*
G75*
G02*
X169787347Y-58663817I-751317J-837345D01*
G01*
X168477345Y-60123817D01*
G75*
G02*
X166888683Y-60209845I-837345J751317D01*
G01*
G37*
G04 #@! TD.AperFunction*
X173990000Y-56832500D03*
G04 #@! TA.AperFunction,ComponentPad*
G36*
G01*
X173873483Y-58534895D02*
X173872597Y-58534834D01*
G75*
G02*
X172827666Y-57335097I77403J1122334D01*
G01*
X172867666Y-56755097D01*
G75*
G02*
X174067403Y-55710166I1122334J-77403D01*
G01*
X174067403Y-55710166D01*
G75*
G02*
X175112334Y-56909903I-77403J-1122334D01*
G01*
X175072334Y-57489903D01*
G75*
G02*
X173872597Y-58534834I-1122334J77403D01*
G01*
G37*
G04 #@! TD.AperFunction*
X207050000Y-57912500D03*
G04 #@! TA.AperFunction,ComponentPad*
G36*
G01*
X204988688Y-60209850D02*
X204988683Y-60209845D01*
G75*
G02*
X204902655Y-58621183I751317J837345D01*
G01*
X206212657Y-57161183D01*
G75*
G02*
X207801319Y-57075155I837345J-751317D01*
G01*
X207801319Y-57075155D01*
G75*
G02*
X207887347Y-58663817I-751317J-837345D01*
G01*
X206577345Y-60123817D01*
G75*
G02*
X204988683Y-60209845I-837345J751317D01*
G01*
G37*
G04 #@! TD.AperFunction*
X212090000Y-56832500D03*
G04 #@! TA.AperFunction,ComponentPad*
G36*
G01*
X211973483Y-58534895D02*
X211972597Y-58534834D01*
G75*
G02*
X210927666Y-57335097I77403J1122334D01*
G01*
X210967666Y-56755097D01*
G75*
G02*
X212167403Y-55710166I1122334J-77403D01*
G01*
X212167403Y-55710166D01*
G75*
G02*
X213212334Y-56909903I-77403J-1122334D01*
G01*
X213172334Y-57489903D01*
G75*
G02*
X211972597Y-58534834I-1122334J77403D01*
G01*
G37*
G04 #@! TD.AperFunction*
X142756250Y-96012500D03*
G04 #@! TA.AperFunction,ComponentPad*
G36*
G01*
X140694938Y-98309850D02*
X140694933Y-98309845D01*
G75*
G02*
X140608905Y-96721183I751317J837345D01*
G01*
X141918907Y-95261183D01*
G75*
G02*
X143507569Y-95175155I837345J-751317D01*
G01*
X143507569Y-95175155D01*
G75*
G02*
X143593597Y-96763817I-751317J-837345D01*
G01*
X142283595Y-98223817D01*
G75*
G02*
X140694933Y-98309845I-837345J751317D01*
G01*
G37*
G04 #@! TD.AperFunction*
X147796250Y-94932500D03*
G04 #@! TA.AperFunction,ComponentPad*
G36*
G01*
X147679733Y-96634895D02*
X147678847Y-96634834D01*
G75*
G02*
X146633916Y-95435097I77403J1122334D01*
G01*
X146673916Y-94855097D01*
G75*
G02*
X147873653Y-93810166I1122334J-77403D01*
G01*
X147873653Y-93810166D01*
G75*
G02*
X148918584Y-95009903I-77403J-1122334D01*
G01*
X148878584Y-95589903D01*
G75*
G02*
X147678847Y-96634834I-1122334J77403D01*
G01*
G37*
G04 #@! TD.AperFunction*
G04 #@! TA.AperFunction,SMDPad,CuDef*
G36*
G01*
X235725000Y-33645000D02*
X235725000Y-32395000D01*
G75*
G02*
X235975000Y-32145000I250000J0D01*
G01*
X236900000Y-32145000D01*
G75*
G02*
X237150000Y-32395000I0J-250000D01*
G01*
X237150000Y-33645000D01*
G75*
G02*
X236900000Y-33895000I-250000J0D01*
G01*
X235975000Y-33895000D01*
G75*
G02*
X235725000Y-33645000I0J250000D01*
G01*
G37*
G04 #@! TD.AperFunction*
G04 #@! TA.AperFunction,SMDPad,CuDef*
G36*
G01*
X232750000Y-33645000D02*
X232750000Y-32395000D01*
G75*
G02*
X233000000Y-32145000I250000J0D01*
G01*
X233925000Y-32145000D01*
G75*
G02*
X234175000Y-32395000I0J-250000D01*
G01*
X234175000Y-33645000D01*
G75*
G02*
X233925000Y-33895000I-250000J0D01*
G01*
X233000000Y-33895000D01*
G75*
G02*
X232750000Y-33645000I0J250000D01*
G01*
G37*
G04 #@! TD.AperFunction*
X259437500Y-38862500D03*
G04 #@! TA.AperFunction,ComponentPad*
G36*
G01*
X257376188Y-41159850D02*
X257376183Y-41159845D01*
G75*
G02*
X257290155Y-39571183I751317J837345D01*
G01*
X258600157Y-38111183D01*
G75*
G02*
X260188819Y-38025155I837345J-751317D01*
G01*
X260188819Y-38025155D01*
G75*
G02*
X260274847Y-39613817I-751317J-837345D01*
G01*
X258964845Y-41073817D01*
G75*
G02*
X257376183Y-41159845I-837345J751317D01*
G01*
G37*
G04 #@! TD.AperFunction*
X264477500Y-37782500D03*
G04 #@! TA.AperFunction,ComponentPad*
G36*
G01*
X264360983Y-39484895D02*
X264360097Y-39484834D01*
G75*
G02*
X263315166Y-38285097I77403J1122334D01*
G01*
X263355166Y-37705097D01*
G75*
G02*
X264554903Y-36660166I1122334J-77403D01*
G01*
X264554903Y-36660166D01*
G75*
G02*
X265599834Y-37859903I-77403J-1122334D01*
G01*
X265559834Y-38439903D01*
G75*
G02*
X264360097Y-39484834I-1122334J77403D01*
G01*
G37*
G04 #@! TD.AperFunction*
X216575000Y-76962500D03*
G04 #@! TA.AperFunction,ComponentPad*
G36*
G01*
X214513688Y-79259850D02*
X214513683Y-79259845D01*
G75*
G02*
X214427655Y-77671183I751317J837345D01*
G01*
X215737657Y-76211183D01*
G75*
G02*
X217326319Y-76125155I837345J-751317D01*
G01*
X217326319Y-76125155D01*
G75*
G02*
X217412347Y-77713817I-751317J-837345D01*
G01*
X216102345Y-79173817D01*
G75*
G02*
X214513683Y-79259845I-837345J751317D01*
G01*
G37*
G04 #@! TD.AperFunction*
X221615000Y-75882500D03*
G04 #@! TA.AperFunction,ComponentPad*
G36*
G01*
X221498483Y-77584895D02*
X221497597Y-77584834D01*
G75*
G02*
X220452666Y-76385097I77403J1122334D01*
G01*
X220492666Y-75805097D01*
G75*
G02*
X221692403Y-74760166I1122334J-77403D01*
G01*
X221692403Y-74760166D01*
G75*
G02*
X222737334Y-75959903I-77403J-1122334D01*
G01*
X222697334Y-76539903D01*
G75*
G02*
X221497597Y-77584834I-1122334J77403D01*
G01*
G37*
G04 #@! TD.AperFunction*
X54650000Y-57912500D03*
G04 #@! TA.AperFunction,ComponentPad*
G36*
G01*
X52588688Y-60209850D02*
X52588683Y-60209845D01*
G75*
G02*
X52502655Y-58621183I751317J837345D01*
G01*
X53812657Y-57161183D01*
G75*
G02*
X55401319Y-57075155I837345J-751317D01*
G01*
X55401319Y-57075155D01*
G75*
G02*
X55487347Y-58663817I-751317J-837345D01*
G01*
X54177345Y-60123817D01*
G75*
G02*
X52588683Y-60209845I-837345J751317D01*
G01*
G37*
G04 #@! TD.AperFunction*
X59690000Y-56832500D03*
G04 #@! TA.AperFunction,ComponentPad*
G36*
G01*
X59573483Y-58534895D02*
X59572597Y-58534834D01*
G75*
G02*
X58527666Y-57335097I77403J1122334D01*
G01*
X58567666Y-56755097D01*
G75*
G02*
X59767403Y-55710166I1122334J-77403D01*
G01*
X59767403Y-55710166D01*
G75*
G02*
X60812334Y-56909903I-77403J-1122334D01*
G01*
X60772334Y-57489903D01*
G75*
G02*
X59572597Y-58534834I-1122334J77403D01*
G01*
G37*
G04 #@! TD.AperFunction*
X240387500Y-38862500D03*
G04 #@! TA.AperFunction,ComponentPad*
G36*
G01*
X238326188Y-41159850D02*
X238326183Y-41159845D01*
G75*
G02*
X238240155Y-39571183I751317J837345D01*
G01*
X239550157Y-38111183D01*
G75*
G02*
X241138819Y-38025155I837345J-751317D01*
G01*
X241138819Y-38025155D01*
G75*
G02*
X241224847Y-39613817I-751317J-837345D01*
G01*
X239914845Y-41073817D01*
G75*
G02*
X238326183Y-41159845I-837345J751317D01*
G01*
G37*
G04 #@! TD.AperFunction*
X245427500Y-37782500D03*
G04 #@! TA.AperFunction,ComponentPad*
G36*
G01*
X245310983Y-39484895D02*
X245310097Y-39484834D01*
G75*
G02*
X244265166Y-38285097I77403J1122334D01*
G01*
X244305166Y-37705097D01*
G75*
G02*
X245504903Y-36660166I1122334J-77403D01*
G01*
X245504903Y-36660166D01*
G75*
G02*
X246549834Y-37859903I-77403J-1122334D01*
G01*
X246509834Y-38439903D01*
G75*
G02*
X245310097Y-39484834I-1122334J77403D01*
G01*
G37*
G04 #@! TD.AperFunction*
X49887500Y-38862500D03*
G04 #@! TA.AperFunction,ComponentPad*
G36*
G01*
X47826188Y-41159850D02*
X47826183Y-41159845D01*
G75*
G02*
X47740155Y-39571183I751317J837345D01*
G01*
X49050157Y-38111183D01*
G75*
G02*
X50638819Y-38025155I837345J-751317D01*
G01*
X50638819Y-38025155D01*
G75*
G02*
X50724847Y-39613817I-751317J-837345D01*
G01*
X49414845Y-41073817D01*
G75*
G02*
X47826183Y-41159845I-837345J751317D01*
G01*
G37*
G04 #@! TD.AperFunction*
X54927500Y-37782500D03*
G04 #@! TA.AperFunction,ComponentPad*
G36*
G01*
X54810983Y-39484895D02*
X54810097Y-39484834D01*
G75*
G02*
X53765166Y-38285097I77403J1122334D01*
G01*
X53805166Y-37705097D01*
G75*
G02*
X55004903Y-36660166I1122334J-77403D01*
G01*
X55004903Y-36660166D01*
G75*
G02*
X56049834Y-37859903I-77403J-1122334D01*
G01*
X56009834Y-38439903D01*
G75*
G02*
X54810097Y-39484834I-1122334J77403D01*
G01*
G37*
G04 #@! TD.AperFunction*
X154662500Y-19812500D03*
G04 #@! TA.AperFunction,ComponentPad*
G36*
G01*
X152601188Y-22109850D02*
X152601183Y-22109845D01*
G75*
G02*
X152515155Y-20521183I751317J837345D01*
G01*
X153825157Y-19061183D01*
G75*
G02*
X155413819Y-18975155I837345J-751317D01*
G01*
X155413819Y-18975155D01*
G75*
G02*
X155499847Y-20563817I-751317J-837345D01*
G01*
X154189845Y-22023817D01*
G75*
G02*
X152601183Y-22109845I-837345J751317D01*
G01*
G37*
G04 #@! TD.AperFunction*
X159702500Y-18732500D03*
G04 #@! TA.AperFunction,ComponentPad*
G36*
G01*
X159585983Y-20434895D02*
X159585097Y-20434834D01*
G75*
G02*
X158540166Y-19235097I77403J1122334D01*
G01*
X158580166Y-18655097D01*
G75*
G02*
X159779903Y-17610166I1122334J-77403D01*
G01*
X159779903Y-17610166D01*
G75*
G02*
X160824834Y-18809903I-77403J-1122334D01*
G01*
X160784834Y-19389903D01*
G75*
G02*
X159585097Y-20434834I-1122334J77403D01*
G01*
G37*
G04 #@! TD.AperFunction*
X135612500Y-19812500D03*
G04 #@! TA.AperFunction,ComponentPad*
G36*
G01*
X133551188Y-22109850D02*
X133551183Y-22109845D01*
G75*
G02*
X133465155Y-20521183I751317J837345D01*
G01*
X134775157Y-19061183D01*
G75*
G02*
X136363819Y-18975155I837345J-751317D01*
G01*
X136363819Y-18975155D01*
G75*
G02*
X136449847Y-20563817I-751317J-837345D01*
G01*
X135139845Y-22023817D01*
G75*
G02*
X133551183Y-22109845I-837345J751317D01*
G01*
G37*
G04 #@! TD.AperFunction*
X140652500Y-18732500D03*
G04 #@! TA.AperFunction,ComponentPad*
G36*
G01*
X140535983Y-20434895D02*
X140535097Y-20434834D01*
G75*
G02*
X139490166Y-19235097I77403J1122334D01*
G01*
X139530166Y-18655097D01*
G75*
G02*
X140729903Y-17610166I1122334J-77403D01*
G01*
X140729903Y-17610166D01*
G75*
G02*
X141774834Y-18809903I-77403J-1122334D01*
G01*
X141734834Y-19389903D01*
G75*
G02*
X140535097Y-20434834I-1122334J77403D01*
G01*
G37*
G04 #@! TD.AperFunction*
X78462500Y-19812500D03*
G04 #@! TA.AperFunction,ComponentPad*
G36*
G01*
X76401188Y-22109850D02*
X76401183Y-22109845D01*
G75*
G02*
X76315155Y-20521183I751317J837345D01*
G01*
X77625157Y-19061183D01*
G75*
G02*
X79213819Y-18975155I837345J-751317D01*
G01*
X79213819Y-18975155D01*
G75*
G02*
X79299847Y-20563817I-751317J-837345D01*
G01*
X77989845Y-22023817D01*
G75*
G02*
X76401183Y-22109845I-837345J751317D01*
G01*
G37*
G04 #@! TD.AperFunction*
X83502500Y-18732500D03*
G04 #@! TA.AperFunction,ComponentPad*
G36*
G01*
X83385983Y-20434895D02*
X83385097Y-20434834D01*
G75*
G02*
X82340166Y-19235097I77403J1122334D01*
G01*
X82380166Y-18655097D01*
G75*
G02*
X83579903Y-17610166I1122334J-77403D01*
G01*
X83579903Y-17610166D01*
G75*
G02*
X84624834Y-18809903I-77403J-1122334D01*
G01*
X84584834Y-19389903D01*
G75*
G02*
X83385097Y-20434834I-1122334J77403D01*
G01*
G37*
G04 #@! TD.AperFunction*
D11*
X238918750Y-26131250D03*
X238918750Y-29431250D03*
D10*
X116562500Y-19812500D03*
G04 #@! TA.AperFunction,ComponentPad*
G36*
G01*
X114501188Y-22109850D02*
X114501183Y-22109845D01*
G75*
G02*
X114415155Y-20521183I751317J837345D01*
G01*
X115725157Y-19061183D01*
G75*
G02*
X117313819Y-18975155I837345J-751317D01*
G01*
X117313819Y-18975155D01*
G75*
G02*
X117399847Y-20563817I-751317J-837345D01*
G01*
X116089845Y-22023817D01*
G75*
G02*
X114501183Y-22109845I-837345J751317D01*
G01*
G37*
G04 #@! TD.AperFunction*
X121602500Y-18732500D03*
G04 #@! TA.AperFunction,ComponentPad*
G36*
G01*
X121485983Y-20434895D02*
X121485097Y-20434834D01*
G75*
G02*
X120440166Y-19235097I77403J1122334D01*
G01*
X120480166Y-18655097D01*
G75*
G02*
X121679903Y-17610166I1122334J-77403D01*
G01*
X121679903Y-17610166D01*
G75*
G02*
X122724834Y-18809903I-77403J-1122334D01*
G01*
X122684834Y-19389903D01*
G75*
G02*
X121485097Y-20434834I-1122334J77403D01*
G01*
G37*
G04 #@! TD.AperFunction*
X21312500Y-19812500D03*
G04 #@! TA.AperFunction,ComponentPad*
G36*
G01*
X19251188Y-22109850D02*
X19251183Y-22109845D01*
G75*
G02*
X19165155Y-20521183I751317J837345D01*
G01*
X20475157Y-19061183D01*
G75*
G02*
X22063819Y-18975155I837345J-751317D01*
G01*
X22063819Y-18975155D01*
G75*
G02*
X22149847Y-20563817I-751317J-837345D01*
G01*
X20839845Y-22023817D01*
G75*
G02*
X19251183Y-22109845I-837345J751317D01*
G01*
G37*
G04 #@! TD.AperFunction*
X26352500Y-18732500D03*
G04 #@! TA.AperFunction,ComponentPad*
G36*
G01*
X26235983Y-20434895D02*
X26235097Y-20434834D01*
G75*
G02*
X25190166Y-19235097I77403J1122334D01*
G01*
X25230166Y-18655097D01*
G75*
G02*
X26429903Y-17610166I1122334J-77403D01*
G01*
X26429903Y-17610166D01*
G75*
G02*
X27474834Y-18809903I-77403J-1122334D01*
G01*
X27434834Y-19389903D01*
G75*
G02*
X26235097Y-20434834I-1122334J77403D01*
G01*
G37*
G04 #@! TD.AperFunction*
X226100000Y-57912500D03*
G04 #@! TA.AperFunction,ComponentPad*
G36*
G01*
X224038688Y-60209850D02*
X224038683Y-60209845D01*
G75*
G02*
X223952655Y-58621183I751317J837345D01*
G01*
X225262657Y-57161183D01*
G75*
G02*
X226851319Y-57075155I837345J-751317D01*
G01*
X226851319Y-57075155D01*
G75*
G02*
X226937347Y-58663817I-751317J-837345D01*
G01*
X225627345Y-60123817D01*
G75*
G02*
X224038683Y-60209845I-837345J751317D01*
G01*
G37*
G04 #@! TD.AperFunction*
X231140000Y-56832500D03*
G04 #@! TA.AperFunction,ComponentPad*
G36*
G01*
X231023483Y-58534895D02*
X231022597Y-58534834D01*
G75*
G02*
X229977666Y-57335097I77403J1122334D01*
G01*
X230017666Y-56755097D01*
G75*
G02*
X231217403Y-55710166I1122334J-77403D01*
G01*
X231217403Y-55710166D01*
G75*
G02*
X232262334Y-56909903I-77403J-1122334D01*
G01*
X232222334Y-57489903D01*
G75*
G02*
X231022597Y-58534834I-1122334J77403D01*
G01*
G37*
G04 #@! TD.AperFunction*
X197525000Y-76962500D03*
G04 #@! TA.AperFunction,ComponentPad*
G36*
G01*
X195463688Y-79259850D02*
X195463683Y-79259845D01*
G75*
G02*
X195377655Y-77671183I751317J837345D01*
G01*
X196687657Y-76211183D01*
G75*
G02*
X198276319Y-76125155I837345J-751317D01*
G01*
X198276319Y-76125155D01*
G75*
G02*
X198362347Y-77713817I-751317J-837345D01*
G01*
X197052345Y-79173817D01*
G75*
G02*
X195463683Y-79259845I-837345J751317D01*
G01*
G37*
G04 #@! TD.AperFunction*
X202565000Y-75882500D03*
G04 #@! TA.AperFunction,ComponentPad*
G36*
G01*
X202448483Y-77584895D02*
X202447597Y-77584834D01*
G75*
G02*
X201402666Y-76385097I77403J1122334D01*
G01*
X201442666Y-75805097D01*
G75*
G02*
X202642403Y-74760166I1122334J-77403D01*
G01*
X202642403Y-74760166D01*
G75*
G02*
X203687334Y-75959903I-77403J-1122334D01*
G01*
X203647334Y-76539903D01*
G75*
G02*
X202447597Y-77584834I-1122334J77403D01*
G01*
G37*
G04 #@! TD.AperFunction*
G04 #@! TA.AperFunction,SMDPad,CuDef*
G36*
G01*
X186215000Y-105860000D02*
X187165000Y-105860000D01*
G75*
G02*
X187415000Y-106110000I0J-250000D01*
G01*
X187415000Y-106785000D01*
G75*
G02*
X187165000Y-107035000I-250000J0D01*
G01*
X186215000Y-107035000D01*
G75*
G02*
X185965000Y-106785000I0J250000D01*
G01*
X185965000Y-106110000D01*
G75*
G02*
X186215000Y-105860000I250000J0D01*
G01*
G37*
G04 #@! TD.AperFunction*
G04 #@! TA.AperFunction,SMDPad,CuDef*
G36*
G01*
X186215000Y-103785000D02*
X187165000Y-103785000D01*
G75*
G02*
X187415000Y-104035000I0J-250000D01*
G01*
X187415000Y-104710000D01*
G75*
G02*
X187165000Y-104960000I-250000J0D01*
G01*
X186215000Y-104960000D01*
G75*
G02*
X185965000Y-104710000I0J250000D01*
G01*
X185965000Y-104035000D01*
G75*
G02*
X186215000Y-103785000I250000J0D01*
G01*
G37*
G04 #@! TD.AperFunction*
X249912500Y-19812500D03*
G04 #@! TA.AperFunction,ComponentPad*
G36*
G01*
X247851188Y-22109850D02*
X247851183Y-22109845D01*
G75*
G02*
X247765155Y-20521183I751317J837345D01*
G01*
X249075157Y-19061183D01*
G75*
G02*
X250663819Y-18975155I837345J-751317D01*
G01*
X250663819Y-18975155D01*
G75*
G02*
X250749847Y-20563817I-751317J-837345D01*
G01*
X249439845Y-22023817D01*
G75*
G02*
X247851183Y-22109845I-837345J751317D01*
G01*
G37*
G04 #@! TD.AperFunction*
X254952500Y-18732500D03*
G04 #@! TA.AperFunction,ComponentPad*
G36*
G01*
X254835983Y-20434895D02*
X254835097Y-20434834D01*
G75*
G02*
X253790166Y-19235097I77403J1122334D01*
G01*
X253830166Y-18655097D01*
G75*
G02*
X255029903Y-17610166I1122334J-77403D01*
G01*
X255029903Y-17610166D01*
G75*
G02*
X256074834Y-18809903I-77403J-1122334D01*
G01*
X256034834Y-19389903D01*
G75*
G02*
X254835097Y-20434834I-1122334J77403D01*
G01*
G37*
G04 #@! TD.AperFunction*
X285631250Y-96012500D03*
G04 #@! TA.AperFunction,ComponentPad*
G36*
G01*
X283569938Y-98309850D02*
X283569933Y-98309845D01*
G75*
G02*
X283483905Y-96721183I751317J837345D01*
G01*
X284793907Y-95261183D01*
G75*
G02*
X286382569Y-95175155I837345J-751317D01*
G01*
X286382569Y-95175155D01*
G75*
G02*
X286468597Y-96763817I-751317J-837345D01*
G01*
X285158595Y-98223817D01*
G75*
G02*
X283569933Y-98309845I-837345J751317D01*
G01*
G37*
G04 #@! TD.AperFunction*
X290671250Y-94932500D03*
G04 #@! TA.AperFunction,ComponentPad*
G36*
G01*
X290554733Y-96634895D02*
X290553847Y-96634834D01*
G75*
G02*
X289508916Y-95435097I77403J1122334D01*
G01*
X289548916Y-94855097D01*
G75*
G02*
X290748653Y-93810166I1122334J-77403D01*
G01*
X290748653Y-93810166D01*
G75*
G02*
X291793584Y-95009903I-77403J-1122334D01*
G01*
X291753584Y-95589903D01*
G75*
G02*
X290553847Y-96634834I-1122334J77403D01*
G01*
G37*
G04 #@! TD.AperFunction*
D12*
X241570000Y-26350000D03*
X243570000Y-26350000D03*
X241570000Y-24450000D03*
D13*
X243570000Y-24650000D03*
D10*
X271343750Y-76962500D03*
G04 #@! TA.AperFunction,ComponentPad*
G36*
G01*
X269282438Y-79259850D02*
X269282433Y-79259845D01*
G75*
G02*
X269196405Y-77671183I751317J837345D01*
G01*
X270506407Y-76211183D01*
G75*
G02*
X272095069Y-76125155I837345J-751317D01*
G01*
X272095069Y-76125155D01*
G75*
G02*
X272181097Y-77713817I-751317J-837345D01*
G01*
X270871095Y-79173817D01*
G75*
G02*
X269282433Y-79259845I-837345J751317D01*
G01*
G37*
G04 #@! TD.AperFunction*
X276383750Y-75882500D03*
G04 #@! TA.AperFunction,ComponentPad*
G36*
G01*
X276267233Y-77584895D02*
X276266347Y-77584834D01*
G75*
G02*
X275221416Y-76385097I77403J1122334D01*
G01*
X275261416Y-75805097D01*
G75*
G02*
X276461153Y-74760166I1122334J-77403D01*
G01*
X276461153Y-74760166D01*
G75*
G02*
X277506084Y-75959903I-77403J-1122334D01*
G01*
X277466084Y-76539903D01*
G75*
G02*
X276266347Y-77584834I-1122334J77403D01*
G01*
G37*
G04 #@! TD.AperFunction*
D14*
X176350000Y-106560000D03*
X179250000Y-106560000D03*
X179250000Y-104260000D03*
X176350000Y-104260000D03*
D15*
X181800000Y-89550000D03*
X181000000Y-89550000D03*
X180200000Y-89550000D03*
X179400000Y-89550000D03*
X178600000Y-89550000D03*
X177800000Y-89550000D03*
X177000000Y-89550000D03*
X176200000Y-89550000D03*
X175400000Y-89550000D03*
X174600000Y-89550000D03*
X173800000Y-89550000D03*
D16*
X172100000Y-91250000D03*
X172100000Y-92050000D03*
X172100000Y-92850000D03*
X172100000Y-93650000D03*
X172100000Y-94450000D03*
X172100000Y-95250000D03*
X172100000Y-96050000D03*
X172100000Y-96850000D03*
X172100000Y-97650000D03*
X172100000Y-98450000D03*
X172100000Y-99250000D03*
D15*
X173800000Y-100950000D03*
X174600000Y-100950000D03*
X175400000Y-100950000D03*
X176200000Y-100950000D03*
X177000000Y-100950000D03*
X177800000Y-100950000D03*
X178600000Y-100950000D03*
X179400000Y-100950000D03*
X180200000Y-100950000D03*
X181000000Y-100950000D03*
X181800000Y-100950000D03*
D16*
X183500000Y-99250000D03*
X183500000Y-98450000D03*
X183500000Y-97650000D03*
X183500000Y-96850000D03*
X183500000Y-96050000D03*
X183500000Y-95250000D03*
X183500000Y-94450000D03*
X183500000Y-93650000D03*
X183500000Y-92850000D03*
X183500000Y-92050000D03*
X183500000Y-91250000D03*
D17*
X206450000Y-107260000D03*
X212650000Y-107260000D03*
X206450000Y-103560000D03*
X212650000Y-103560000D03*
G04 #@! TA.AperFunction,SMDPad,CuDef*
G36*
G01*
X244659999Y-18704000D02*
X245560001Y-18704000D01*
G75*
G02*
X245810000Y-18953999I0J-249999D01*
G01*
X245810000Y-19654001D01*
G75*
G02*
X245560001Y-19904000I-249999J0D01*
G01*
X244659999Y-19904000D01*
G75*
G02*
X244410000Y-19654001I0J249999D01*
G01*
X244410000Y-18953999D01*
G75*
G02*
X244659999Y-18704000I249999J0D01*
G01*
G37*
G04 #@! TD.AperFunction*
G04 #@! TA.AperFunction,SMDPad,CuDef*
G36*
G01*
X244659999Y-20704000D02*
X245560001Y-20704000D01*
G75*
G02*
X245810000Y-20953999I0J-249999D01*
G01*
X245810000Y-21654001D01*
G75*
G02*
X245560001Y-21904000I-249999J0D01*
G01*
X244659999Y-21904000D01*
G75*
G02*
X244410000Y-21654001I0J249999D01*
G01*
X244410000Y-20953999D01*
G75*
G02*
X244659999Y-20704000I249999J0D01*
G01*
G37*
G04 #@! TD.AperFunction*
G04 #@! TA.AperFunction,SMDPad,CuDef*
G36*
G01*
X239630000Y-21139999D02*
X239630000Y-22040001D01*
G75*
G02*
X239380001Y-22290000I-249999J0D01*
G01*
X238679999Y-22290000D01*
G75*
G02*
X238430000Y-22040001I0J249999D01*
G01*
X238430000Y-21139999D01*
G75*
G02*
X238679999Y-20890000I249999J0D01*
G01*
X239380001Y-20890000D01*
G75*
G02*
X239630000Y-21139999I0J-249999D01*
G01*
G37*
G04 #@! TD.AperFunction*
G04 #@! TA.AperFunction,SMDPad,CuDef*
G36*
G01*
X241630000Y-21139999D02*
X241630000Y-22040001D01*
G75*
G02*
X241380001Y-22290000I-249999J0D01*
G01*
X240679999Y-22290000D01*
G75*
G02*
X240430000Y-22040001I0J249999D01*
G01*
X240430000Y-21139999D01*
G75*
G02*
X240679999Y-20890000I249999J0D01*
G01*
X241380001Y-20890000D01*
G75*
G02*
X241630000Y-21139999I0J-249999D01*
G01*
G37*
G04 #@! TD.AperFunction*
G04 #@! TA.AperFunction,SMDPad,CuDef*
G36*
G01*
X192220001Y-88500000D02*
X191319999Y-88500000D01*
G75*
G02*
X191070000Y-88250001I0J249999D01*
G01*
X191070000Y-87549999D01*
G75*
G02*
X191319999Y-87300000I249999J0D01*
G01*
X192220001Y-87300000D01*
G75*
G02*
X192470000Y-87549999I0J-249999D01*
G01*
X192470000Y-88250001D01*
G75*
G02*
X192220001Y-88500000I-249999J0D01*
G01*
G37*
G04 #@! TD.AperFunction*
G04 #@! TA.AperFunction,SMDPad,CuDef*
G36*
G01*
X192220001Y-90500000D02*
X191319999Y-90500000D01*
G75*
G02*
X191070000Y-90250001I0J249999D01*
G01*
X191070000Y-89549999D01*
G75*
G02*
X191319999Y-89300000I249999J0D01*
G01*
X192220001Y-89300000D01*
G75*
G02*
X192470000Y-89549999I0J-249999D01*
G01*
X192470000Y-90250001D01*
G75*
G02*
X192220001Y-90500000I-249999J0D01*
G01*
G37*
G04 #@! TD.AperFunction*
G04 #@! TA.AperFunction,SMDPad,CuDef*
G36*
G01*
X189680001Y-88500000D02*
X188779999Y-88500000D01*
G75*
G02*
X188530000Y-88250001I0J249999D01*
G01*
X188530000Y-87549999D01*
G75*
G02*
X188779999Y-87300000I249999J0D01*
G01*
X189680001Y-87300000D01*
G75*
G02*
X189930000Y-87549999I0J-249999D01*
G01*
X189930000Y-88250001D01*
G75*
G02*
X189680001Y-88500000I-249999J0D01*
G01*
G37*
G04 #@! TD.AperFunction*
G04 #@! TA.AperFunction,SMDPad,CuDef*
G36*
G01*
X189680001Y-90500000D02*
X188779999Y-90500000D01*
G75*
G02*
X188530000Y-90250001I0J249999D01*
G01*
X188530000Y-89549999D01*
G75*
G02*
X188779999Y-89300000I249999J0D01*
G01*
X189680001Y-89300000D01*
G75*
G02*
X189930000Y-89549999I0J-249999D01*
G01*
X189930000Y-90250001D01*
G75*
G02*
X189680001Y-90500000I-249999J0D01*
G01*
G37*
G04 #@! TD.AperFunction*
G04 #@! TA.AperFunction,SMDPad,CuDef*
G36*
G01*
X169360001Y-89770000D02*
X168459999Y-89770000D01*
G75*
G02*
X168210000Y-89520001I0J249999D01*
G01*
X168210000Y-88819999D01*
G75*
G02*
X168459999Y-88570000I249999J0D01*
G01*
X169360001Y-88570000D01*
G75*
G02*
X169610000Y-88819999I0J-249999D01*
G01*
X169610000Y-89520001D01*
G75*
G02*
X169360001Y-89770000I-249999J0D01*
G01*
G37*
G04 #@! TD.AperFunction*
G04 #@! TA.AperFunction,SMDPad,CuDef*
G36*
G01*
X169360001Y-91770000D02*
X168459999Y-91770000D01*
G75*
G02*
X168210000Y-91520001I0J249999D01*
G01*
X168210000Y-90819999D01*
G75*
G02*
X168459999Y-90570000I249999J0D01*
G01*
X169360001Y-90570000D01*
G75*
G02*
X169610000Y-90819999I0J-249999D01*
G01*
X169610000Y-91520001D01*
G75*
G02*
X169360001Y-91770000I-249999J0D01*
G01*
G37*
G04 #@! TD.AperFunction*
G04 #@! TA.AperFunction,SMDPad,CuDef*
G36*
G01*
X202749999Y-105810000D02*
X203650001Y-105810000D01*
G75*
G02*
X203900000Y-106059999I0J-249999D01*
G01*
X203900000Y-106760001D01*
G75*
G02*
X203650001Y-107010000I-249999J0D01*
G01*
X202749999Y-107010000D01*
G75*
G02*
X202500000Y-106760001I0J249999D01*
G01*
X202500000Y-106059999D01*
G75*
G02*
X202749999Y-105810000I249999J0D01*
G01*
G37*
G04 #@! TD.AperFunction*
G04 #@! TA.AperFunction,SMDPad,CuDef*
G36*
G01*
X202749999Y-103810000D02*
X203650001Y-103810000D01*
G75*
G02*
X203900000Y-104059999I0J-249999D01*
G01*
X203900000Y-104760001D01*
G75*
G02*
X203650001Y-105010000I-249999J0D01*
G01*
X202749999Y-105010000D01*
G75*
G02*
X202500000Y-104760001I0J249999D01*
G01*
X202500000Y-104059999D01*
G75*
G02*
X202749999Y-103810000I249999J0D01*
G01*
G37*
G04 #@! TD.AperFunction*
D10*
X261818750Y-96012500D03*
G04 #@! TA.AperFunction,ComponentPad*
G36*
G01*
X259757438Y-98309850D02*
X259757433Y-98309845D01*
G75*
G02*
X259671405Y-96721183I751317J837345D01*
G01*
X260981407Y-95261183D01*
G75*
G02*
X262570069Y-95175155I837345J-751317D01*
G01*
X262570069Y-95175155D01*
G75*
G02*
X262656097Y-96763817I-751317J-837345D01*
G01*
X261346095Y-98223817D01*
G75*
G02*
X259757433Y-98309845I-837345J751317D01*
G01*
G37*
G04 #@! TD.AperFunction*
X266858750Y-94932500D03*
G04 #@! TA.AperFunction,ComponentPad*
G36*
G01*
X266742233Y-96634895D02*
X266741347Y-96634834D01*
G75*
G02*
X265696416Y-95435097I77403J1122334D01*
G01*
X265736416Y-94855097D01*
G75*
G02*
X266936153Y-93810166I1122334J-77403D01*
G01*
X266936153Y-93810166D01*
G75*
G02*
X267981084Y-95009903I-77403J-1122334D01*
G01*
X267941084Y-95589903D01*
G75*
G02*
X266741347Y-96634834I-1122334J77403D01*
G01*
G37*
G04 #@! TD.AperFunction*
X238006250Y-96012500D03*
G04 #@! TA.AperFunction,ComponentPad*
G36*
G01*
X235944938Y-98309850D02*
X235944933Y-98309845D01*
G75*
G02*
X235858905Y-96721183I751317J837345D01*
G01*
X237168907Y-95261183D01*
G75*
G02*
X238757569Y-95175155I837345J-751317D01*
G01*
X238757569Y-95175155D01*
G75*
G02*
X238843597Y-96763817I-751317J-837345D01*
G01*
X237533595Y-98223817D01*
G75*
G02*
X235944933Y-98309845I-837345J751317D01*
G01*
G37*
G04 #@! TD.AperFunction*
X243046250Y-94932500D03*
G04 #@! TA.AperFunction,ComponentPad*
G36*
G01*
X242929733Y-96634895D02*
X242928847Y-96634834D01*
G75*
G02*
X241883916Y-95435097I77403J1122334D01*
G01*
X241923916Y-94855097D01*
G75*
G02*
X243123653Y-93810166I1122334J-77403D01*
G01*
X243123653Y-93810166D01*
G75*
G02*
X244168584Y-95009903I-77403J-1122334D01*
G01*
X244128584Y-95589903D01*
G75*
G02*
X242928847Y-96634834I-1122334J77403D01*
G01*
G37*
G04 #@! TD.AperFunction*
X214193750Y-96012500D03*
G04 #@! TA.AperFunction,ComponentPad*
G36*
G01*
X212132438Y-98309850D02*
X212132433Y-98309845D01*
G75*
G02*
X212046405Y-96721183I751317J837345D01*
G01*
X213356407Y-95261183D01*
G75*
G02*
X214945069Y-95175155I837345J-751317D01*
G01*
X214945069Y-95175155D01*
G75*
G02*
X215031097Y-96763817I-751317J-837345D01*
G01*
X213721095Y-98223817D01*
G75*
G02*
X212132433Y-98309845I-837345J751317D01*
G01*
G37*
G04 #@! TD.AperFunction*
X219233750Y-94932500D03*
G04 #@! TA.AperFunction,ComponentPad*
G36*
G01*
X219117233Y-96634895D02*
X219116347Y-96634834D01*
G75*
G02*
X218071416Y-95435097I77403J1122334D01*
G01*
X218111416Y-94855097D01*
G75*
G02*
X219311153Y-93810166I1122334J-77403D01*
G01*
X219311153Y-93810166D01*
G75*
G02*
X220356084Y-95009903I-77403J-1122334D01*
G01*
X220316084Y-95589903D01*
G75*
G02*
X219116347Y-96634834I-1122334J77403D01*
G01*
G37*
G04 #@! TD.AperFunction*
X71318750Y-96012500D03*
G04 #@! TA.AperFunction,ComponentPad*
G36*
G01*
X69257438Y-98309850D02*
X69257433Y-98309845D01*
G75*
G02*
X69171405Y-96721183I751317J837345D01*
G01*
X70481407Y-95261183D01*
G75*
G02*
X72070069Y-95175155I837345J-751317D01*
G01*
X72070069Y-95175155D01*
G75*
G02*
X72156097Y-96763817I-751317J-837345D01*
G01*
X70846095Y-98223817D01*
G75*
G02*
X69257433Y-98309845I-837345J751317D01*
G01*
G37*
G04 #@! TD.AperFunction*
X76358750Y-94932500D03*
G04 #@! TA.AperFunction,ComponentPad*
G36*
G01*
X76242233Y-96634895D02*
X76241347Y-96634834D01*
G75*
G02*
X75196416Y-95435097I77403J1122334D01*
G01*
X75236416Y-94855097D01*
G75*
G02*
X76436153Y-93810166I1122334J-77403D01*
G01*
X76436153Y-93810166D01*
G75*
G02*
X77481084Y-95009903I-77403J-1122334D01*
G01*
X77441084Y-95589903D01*
G75*
G02*
X76241347Y-96634834I-1122334J77403D01*
G01*
G37*
G04 #@! TD.AperFunction*
X47506250Y-96012500D03*
G04 #@! TA.AperFunction,ComponentPad*
G36*
G01*
X45444938Y-98309850D02*
X45444933Y-98309845D01*
G75*
G02*
X45358905Y-96721183I751317J837345D01*
G01*
X46668907Y-95261183D01*
G75*
G02*
X48257569Y-95175155I837345J-751317D01*
G01*
X48257569Y-95175155D01*
G75*
G02*
X48343597Y-96763817I-751317J-837345D01*
G01*
X47033595Y-98223817D01*
G75*
G02*
X45444933Y-98309845I-837345J751317D01*
G01*
G37*
G04 #@! TD.AperFunction*
X52546250Y-94932500D03*
G04 #@! TA.AperFunction,ComponentPad*
G36*
G01*
X52429733Y-96634895D02*
X52428847Y-96634834D01*
G75*
G02*
X51383916Y-95435097I77403J1122334D01*
G01*
X51423916Y-94855097D01*
G75*
G02*
X52623653Y-93810166I1122334J-77403D01*
G01*
X52623653Y-93810166D01*
G75*
G02*
X53668584Y-95009903I-77403J-1122334D01*
G01*
X53628584Y-95589903D01*
G75*
G02*
X52428847Y-96634834I-1122334J77403D01*
G01*
G37*
G04 #@! TD.AperFunction*
X23693750Y-96012500D03*
G04 #@! TA.AperFunction,ComponentPad*
G36*
G01*
X21632438Y-98309850D02*
X21632433Y-98309845D01*
G75*
G02*
X21546405Y-96721183I751317J837345D01*
G01*
X22856407Y-95261183D01*
G75*
G02*
X24445069Y-95175155I837345J-751317D01*
G01*
X24445069Y-95175155D01*
G75*
G02*
X24531097Y-96763817I-751317J-837345D01*
G01*
X23221095Y-98223817D01*
G75*
G02*
X21632433Y-98309845I-837345J751317D01*
G01*
G37*
G04 #@! TD.AperFunction*
X28733750Y-94932500D03*
G04 #@! TA.AperFunction,ComponentPad*
G36*
G01*
X28617233Y-96634895D02*
X28616347Y-96634834D01*
G75*
G02*
X27571416Y-95435097I77403J1122334D01*
G01*
X27611416Y-94855097D01*
G75*
G02*
X28811153Y-93810166I1122334J-77403D01*
G01*
X28811153Y-93810166D01*
G75*
G02*
X29856084Y-95009903I-77403J-1122334D01*
G01*
X29816084Y-95589903D01*
G75*
G02*
X28616347Y-96634834I-1122334J77403D01*
G01*
G37*
G04 #@! TD.AperFunction*
X235625000Y-76962500D03*
G04 #@! TA.AperFunction,ComponentPad*
G36*
G01*
X233563688Y-79259850D02*
X233563683Y-79259845D01*
G75*
G02*
X233477655Y-77671183I751317J837345D01*
G01*
X234787657Y-76211183D01*
G75*
G02*
X236376319Y-76125155I837345J-751317D01*
G01*
X236376319Y-76125155D01*
G75*
G02*
X236462347Y-77713817I-751317J-837345D01*
G01*
X235152345Y-79173817D01*
G75*
G02*
X233563683Y-79259845I-837345J751317D01*
G01*
G37*
G04 #@! TD.AperFunction*
X240665000Y-75882500D03*
G04 #@! TA.AperFunction,ComponentPad*
G36*
G01*
X240548483Y-77584895D02*
X240547597Y-77584834D01*
G75*
G02*
X239502666Y-76385097I77403J1122334D01*
G01*
X239542666Y-75805097D01*
G75*
G02*
X240742403Y-74760166I1122334J-77403D01*
G01*
X240742403Y-74760166D01*
G75*
G02*
X241787334Y-75959903I-77403J-1122334D01*
G01*
X241747334Y-76539903D01*
G75*
G02*
X240547597Y-77584834I-1122334J77403D01*
G01*
G37*
G04 #@! TD.AperFunction*
X178475000Y-76962500D03*
G04 #@! TA.AperFunction,ComponentPad*
G36*
G01*
X176413688Y-79259850D02*
X176413683Y-79259845D01*
G75*
G02*
X176327655Y-77671183I751317J837345D01*
G01*
X177637657Y-76211183D01*
G75*
G02*
X179226319Y-76125155I837345J-751317D01*
G01*
X179226319Y-76125155D01*
G75*
G02*
X179312347Y-77713817I-751317J-837345D01*
G01*
X178002345Y-79173817D01*
G75*
G02*
X176413683Y-79259845I-837345J751317D01*
G01*
G37*
G04 #@! TD.AperFunction*
X183515000Y-75882500D03*
G04 #@! TA.AperFunction,ComponentPad*
G36*
G01*
X183398483Y-77584895D02*
X183397597Y-77584834D01*
G75*
G02*
X182352666Y-76385097I77403J1122334D01*
G01*
X182392666Y-75805097D01*
G75*
G02*
X183592403Y-74760166I1122334J-77403D01*
G01*
X183592403Y-74760166D01*
G75*
G02*
X184637334Y-75959903I-77403J-1122334D01*
G01*
X184597334Y-76539903D01*
G75*
G02*
X183397597Y-77584834I-1122334J77403D01*
G01*
G37*
G04 #@! TD.AperFunction*
X159425000Y-76962500D03*
G04 #@! TA.AperFunction,ComponentPad*
G36*
G01*
X157363688Y-79259850D02*
X157363683Y-79259845D01*
G75*
G02*
X157277655Y-77671183I751317J837345D01*
G01*
X158587657Y-76211183D01*
G75*
G02*
X160176319Y-76125155I837345J-751317D01*
G01*
X160176319Y-76125155D01*
G75*
G02*
X160262347Y-77713817I-751317J-837345D01*
G01*
X158952345Y-79173817D01*
G75*
G02*
X157363683Y-79259845I-837345J751317D01*
G01*
G37*
G04 #@! TD.AperFunction*
X164465000Y-75882500D03*
G04 #@! TA.AperFunction,ComponentPad*
G36*
G01*
X164348483Y-77584895D02*
X164347597Y-77584834D01*
G75*
G02*
X163302666Y-76385097I77403J1122334D01*
G01*
X163342666Y-75805097D01*
G75*
G02*
X164542403Y-74760166I1122334J-77403D01*
G01*
X164542403Y-74760166D01*
G75*
G02*
X165587334Y-75959903I-77403J-1122334D01*
G01*
X165547334Y-76539903D01*
G75*
G02*
X164347597Y-77584834I-1122334J77403D01*
G01*
G37*
G04 #@! TD.AperFunction*
X140375000Y-76962500D03*
G04 #@! TA.AperFunction,ComponentPad*
G36*
G01*
X138313688Y-79259850D02*
X138313683Y-79259845D01*
G75*
G02*
X138227655Y-77671183I751317J837345D01*
G01*
X139537657Y-76211183D01*
G75*
G02*
X141126319Y-76125155I837345J-751317D01*
G01*
X141126319Y-76125155D01*
G75*
G02*
X141212347Y-77713817I-751317J-837345D01*
G01*
X139902345Y-79173817D01*
G75*
G02*
X138313683Y-79259845I-837345J751317D01*
G01*
G37*
G04 #@! TD.AperFunction*
X145415000Y-75882500D03*
G04 #@! TA.AperFunction,ComponentPad*
G36*
G01*
X145298483Y-77584895D02*
X145297597Y-77584834D01*
G75*
G02*
X144252666Y-76385097I77403J1122334D01*
G01*
X144292666Y-75805097D01*
G75*
G02*
X145492403Y-74760166I1122334J-77403D01*
G01*
X145492403Y-74760166D01*
G75*
G02*
X146537334Y-75959903I-77403J-1122334D01*
G01*
X146497334Y-76539903D01*
G75*
G02*
X145297597Y-77584834I-1122334J77403D01*
G01*
G37*
G04 #@! TD.AperFunction*
X121325000Y-76962500D03*
G04 #@! TA.AperFunction,ComponentPad*
G36*
G01*
X119263688Y-79259850D02*
X119263683Y-79259845D01*
G75*
G02*
X119177655Y-77671183I751317J837345D01*
G01*
X120487657Y-76211183D01*
G75*
G02*
X122076319Y-76125155I837345J-751317D01*
G01*
X122076319Y-76125155D01*
G75*
G02*
X122162347Y-77713817I-751317J-837345D01*
G01*
X120852345Y-79173817D01*
G75*
G02*
X119263683Y-79259845I-837345J751317D01*
G01*
G37*
G04 #@! TD.AperFunction*
X126365000Y-75882500D03*
G04 #@! TA.AperFunction,ComponentPad*
G36*
G01*
X126248483Y-77584895D02*
X126247597Y-77584834D01*
G75*
G02*
X125202666Y-76385097I77403J1122334D01*
G01*
X125242666Y-75805097D01*
G75*
G02*
X126442403Y-74760166I1122334J-77403D01*
G01*
X126442403Y-74760166D01*
G75*
G02*
X127487334Y-75959903I-77403J-1122334D01*
G01*
X127447334Y-76539903D01*
G75*
G02*
X126247597Y-77584834I-1122334J77403D01*
G01*
G37*
G04 #@! TD.AperFunction*
X102275000Y-76962500D03*
G04 #@! TA.AperFunction,ComponentPad*
G36*
G01*
X100213688Y-79259850D02*
X100213683Y-79259845D01*
G75*
G02*
X100127655Y-77671183I751317J837345D01*
G01*
X101437657Y-76211183D01*
G75*
G02*
X103026319Y-76125155I837345J-751317D01*
G01*
X103026319Y-76125155D01*
G75*
G02*
X103112347Y-77713817I-751317J-837345D01*
G01*
X101802345Y-79173817D01*
G75*
G02*
X100213683Y-79259845I-837345J751317D01*
G01*
G37*
G04 #@! TD.AperFunction*
X107315000Y-75882500D03*
G04 #@! TA.AperFunction,ComponentPad*
G36*
G01*
X107198483Y-77584895D02*
X107197597Y-77584834D01*
G75*
G02*
X106152666Y-76385097I77403J1122334D01*
G01*
X106192666Y-75805097D01*
G75*
G02*
X107392403Y-74760166I1122334J-77403D01*
G01*
X107392403Y-74760166D01*
G75*
G02*
X108437334Y-75959903I-77403J-1122334D01*
G01*
X108397334Y-76539903D01*
G75*
G02*
X107197597Y-77584834I-1122334J77403D01*
G01*
G37*
G04 #@! TD.AperFunction*
X83225000Y-76962500D03*
G04 #@! TA.AperFunction,ComponentPad*
G36*
G01*
X81163688Y-79259850D02*
X81163683Y-79259845D01*
G75*
G02*
X81077655Y-77671183I751317J837345D01*
G01*
X82387657Y-76211183D01*
G75*
G02*
X83976319Y-76125155I837345J-751317D01*
G01*
X83976319Y-76125155D01*
G75*
G02*
X84062347Y-77713817I-751317J-837345D01*
G01*
X82752345Y-79173817D01*
G75*
G02*
X81163683Y-79259845I-837345J751317D01*
G01*
G37*
G04 #@! TD.AperFunction*
X88265000Y-75882500D03*
G04 #@! TA.AperFunction,ComponentPad*
G36*
G01*
X88148483Y-77584895D02*
X88147597Y-77584834D01*
G75*
G02*
X87102666Y-76385097I77403J1122334D01*
G01*
X87142666Y-75805097D01*
G75*
G02*
X88342403Y-74760166I1122334J-77403D01*
G01*
X88342403Y-74760166D01*
G75*
G02*
X89387334Y-75959903I-77403J-1122334D01*
G01*
X89347334Y-76539903D01*
G75*
G02*
X88147597Y-77584834I-1122334J77403D01*
G01*
G37*
G04 #@! TD.AperFunction*
X64175000Y-76962500D03*
G04 #@! TA.AperFunction,ComponentPad*
G36*
G01*
X62113688Y-79259850D02*
X62113683Y-79259845D01*
G75*
G02*
X62027655Y-77671183I751317J837345D01*
G01*
X63337657Y-76211183D01*
G75*
G02*
X64926319Y-76125155I837345J-751317D01*
G01*
X64926319Y-76125155D01*
G75*
G02*
X65012347Y-77713817I-751317J-837345D01*
G01*
X63702345Y-79173817D01*
G75*
G02*
X62113683Y-79259845I-837345J751317D01*
G01*
G37*
G04 #@! TD.AperFunction*
X69215000Y-75882500D03*
G04 #@! TA.AperFunction,ComponentPad*
G36*
G01*
X69098483Y-77584895D02*
X69097597Y-77584834D01*
G75*
G02*
X68052666Y-76385097I77403J1122334D01*
G01*
X68092666Y-75805097D01*
G75*
G02*
X69292403Y-74760166I1122334J-77403D01*
G01*
X69292403Y-74760166D01*
G75*
G02*
X70337334Y-75959903I-77403J-1122334D01*
G01*
X70297334Y-76539903D01*
G75*
G02*
X69097597Y-77584834I-1122334J77403D01*
G01*
G37*
G04 #@! TD.AperFunction*
X33218750Y-76962500D03*
G04 #@! TA.AperFunction,ComponentPad*
G36*
G01*
X31157438Y-79259850D02*
X31157433Y-79259845D01*
G75*
G02*
X31071405Y-77671183I751317J837345D01*
G01*
X32381407Y-76211183D01*
G75*
G02*
X33970069Y-76125155I837345J-751317D01*
G01*
X33970069Y-76125155D01*
G75*
G02*
X34056097Y-77713817I-751317J-837345D01*
G01*
X32746095Y-79173817D01*
G75*
G02*
X31157433Y-79259845I-837345J751317D01*
G01*
G37*
G04 #@! TD.AperFunction*
X38258750Y-75882500D03*
G04 #@! TA.AperFunction,ComponentPad*
G36*
G01*
X38142233Y-77584895D02*
X38141347Y-77584834D01*
G75*
G02*
X37096416Y-76385097I77403J1122334D01*
G01*
X37136416Y-75805097D01*
G75*
G02*
X38336153Y-74760166I1122334J-77403D01*
G01*
X38336153Y-74760166D01*
G75*
G02*
X39381084Y-75959903I-77403J-1122334D01*
G01*
X39341084Y-76539903D01*
G75*
G02*
X38141347Y-77584834I-1122334J77403D01*
G01*
G37*
G04 #@! TD.AperFunction*
X276106250Y-57912500D03*
G04 #@! TA.AperFunction,ComponentPad*
G36*
G01*
X274044938Y-60209850D02*
X274044933Y-60209845D01*
G75*
G02*
X273958905Y-58621183I751317J837345D01*
G01*
X275268907Y-57161183D01*
G75*
G02*
X276857569Y-57075155I837345J-751317D01*
G01*
X276857569Y-57075155D01*
G75*
G02*
X276943597Y-58663817I-751317J-837345D01*
G01*
X275633595Y-60123817D01*
G75*
G02*
X274044933Y-60209845I-837345J751317D01*
G01*
G37*
G04 #@! TD.AperFunction*
X281146250Y-56832500D03*
G04 #@! TA.AperFunction,ComponentPad*
G36*
G01*
X281029733Y-58534895D02*
X281028847Y-58534834D01*
G75*
G02*
X279983916Y-57335097I77403J1122334D01*
G01*
X280023916Y-56755097D01*
G75*
G02*
X281223653Y-55710166I1122334J-77403D01*
G01*
X281223653Y-55710166D01*
G75*
G02*
X282268584Y-56909903I-77403J-1122334D01*
G01*
X282228584Y-57489903D01*
G75*
G02*
X281028847Y-58534834I-1122334J77403D01*
G01*
G37*
G04 #@! TD.AperFunction*
X245150000Y-57912500D03*
G04 #@! TA.AperFunction,ComponentPad*
G36*
G01*
X243088688Y-60209850D02*
X243088683Y-60209845D01*
G75*
G02*
X243002655Y-58621183I751317J837345D01*
G01*
X244312657Y-57161183D01*
G75*
G02*
X245901319Y-57075155I837345J-751317D01*
G01*
X245901319Y-57075155D01*
G75*
G02*
X245987347Y-58663817I-751317J-837345D01*
G01*
X244677345Y-60123817D01*
G75*
G02*
X243088683Y-60209845I-837345J751317D01*
G01*
G37*
G04 #@! TD.AperFunction*
X250190000Y-56832500D03*
G04 #@! TA.AperFunction,ComponentPad*
G36*
G01*
X250073483Y-58534895D02*
X250072597Y-58534834D01*
G75*
G02*
X249027666Y-57335097I77403J1122334D01*
G01*
X249067666Y-56755097D01*
G75*
G02*
X250267403Y-55710166I1122334J-77403D01*
G01*
X250267403Y-55710166D01*
G75*
G02*
X251312334Y-56909903I-77403J-1122334D01*
G01*
X251272334Y-57489903D01*
G75*
G02*
X250072597Y-58534834I-1122334J77403D01*
G01*
G37*
G04 #@! TD.AperFunction*
X188000000Y-57912500D03*
G04 #@! TA.AperFunction,ComponentPad*
G36*
G01*
X185938688Y-60209850D02*
X185938683Y-60209845D01*
G75*
G02*
X185852655Y-58621183I751317J837345D01*
G01*
X187162657Y-57161183D01*
G75*
G02*
X188751319Y-57075155I837345J-751317D01*
G01*
X188751319Y-57075155D01*
G75*
G02*
X188837347Y-58663817I-751317J-837345D01*
G01*
X187527345Y-60123817D01*
G75*
G02*
X185938683Y-60209845I-837345J751317D01*
G01*
G37*
G04 #@! TD.AperFunction*
X193040000Y-56832500D03*
G04 #@! TA.AperFunction,ComponentPad*
G36*
G01*
X192923483Y-58534895D02*
X192922597Y-58534834D01*
G75*
G02*
X191877666Y-57335097I77403J1122334D01*
G01*
X191917666Y-56755097D01*
G75*
G02*
X193117403Y-55710166I1122334J-77403D01*
G01*
X193117403Y-55710166D01*
G75*
G02*
X194162334Y-56909903I-77403J-1122334D01*
G01*
X194122334Y-57489903D01*
G75*
G02*
X192922597Y-58534834I-1122334J77403D01*
G01*
G37*
G04 #@! TD.AperFunction*
X149900000Y-57912500D03*
G04 #@! TA.AperFunction,ComponentPad*
G36*
G01*
X147838688Y-60209850D02*
X147838683Y-60209845D01*
G75*
G02*
X147752655Y-58621183I751317J837345D01*
G01*
X149062657Y-57161183D01*
G75*
G02*
X150651319Y-57075155I837345J-751317D01*
G01*
X150651319Y-57075155D01*
G75*
G02*
X150737347Y-58663817I-751317J-837345D01*
G01*
X149427345Y-60123817D01*
G75*
G02*
X147838683Y-60209845I-837345J751317D01*
G01*
G37*
G04 #@! TD.AperFunction*
X154940000Y-56832500D03*
G04 #@! TA.AperFunction,ComponentPad*
G36*
G01*
X154823483Y-58534895D02*
X154822597Y-58534834D01*
G75*
G02*
X153777666Y-57335097I77403J1122334D01*
G01*
X153817666Y-56755097D01*
G75*
G02*
X155017403Y-55710166I1122334J-77403D01*
G01*
X155017403Y-55710166D01*
G75*
G02*
X156062334Y-56909903I-77403J-1122334D01*
G01*
X156022334Y-57489903D01*
G75*
G02*
X154822597Y-58534834I-1122334J77403D01*
G01*
G37*
G04 #@! TD.AperFunction*
X130850000Y-57912500D03*
G04 #@! TA.AperFunction,ComponentPad*
G36*
G01*
X128788688Y-60209850D02*
X128788683Y-60209845D01*
G75*
G02*
X128702655Y-58621183I751317J837345D01*
G01*
X130012657Y-57161183D01*
G75*
G02*
X131601319Y-57075155I837345J-751317D01*
G01*
X131601319Y-57075155D01*
G75*
G02*
X131687347Y-58663817I-751317J-837345D01*
G01*
X130377345Y-60123817D01*
G75*
G02*
X128788683Y-60209845I-837345J751317D01*
G01*
G37*
G04 #@! TD.AperFunction*
X135890000Y-56832500D03*
G04 #@! TA.AperFunction,ComponentPad*
G36*
G01*
X135773483Y-58534895D02*
X135772597Y-58534834D01*
G75*
G02*
X134727666Y-57335097I77403J1122334D01*
G01*
X134767666Y-56755097D01*
G75*
G02*
X135967403Y-55710166I1122334J-77403D01*
G01*
X135967403Y-55710166D01*
G75*
G02*
X137012334Y-56909903I-77403J-1122334D01*
G01*
X136972334Y-57489903D01*
G75*
G02*
X135772597Y-58534834I-1122334J77403D01*
G01*
G37*
G04 #@! TD.AperFunction*
X111800000Y-57912500D03*
G04 #@! TA.AperFunction,ComponentPad*
G36*
G01*
X109738688Y-60209850D02*
X109738683Y-60209845D01*
G75*
G02*
X109652655Y-58621183I751317J837345D01*
G01*
X110962657Y-57161183D01*
G75*
G02*
X112551319Y-57075155I837345J-751317D01*
G01*
X112551319Y-57075155D01*
G75*
G02*
X112637347Y-58663817I-751317J-837345D01*
G01*
X111327345Y-60123817D01*
G75*
G02*
X109738683Y-60209845I-837345J751317D01*
G01*
G37*
G04 #@! TD.AperFunction*
X116840000Y-56832500D03*
G04 #@! TA.AperFunction,ComponentPad*
G36*
G01*
X116723483Y-58534895D02*
X116722597Y-58534834D01*
G75*
G02*
X115677666Y-57335097I77403J1122334D01*
G01*
X115717666Y-56755097D01*
G75*
G02*
X116917403Y-55710166I1122334J-77403D01*
G01*
X116917403Y-55710166D01*
G75*
G02*
X117962334Y-56909903I-77403J-1122334D01*
G01*
X117922334Y-57489903D01*
G75*
G02*
X116722597Y-58534834I-1122334J77403D01*
G01*
G37*
G04 #@! TD.AperFunction*
X92750000Y-57912500D03*
G04 #@! TA.AperFunction,ComponentPad*
G36*
G01*
X90688688Y-60209850D02*
X90688683Y-60209845D01*
G75*
G02*
X90602655Y-58621183I751317J837345D01*
G01*
X91912657Y-57161183D01*
G75*
G02*
X93501319Y-57075155I837345J-751317D01*
G01*
X93501319Y-57075155D01*
G75*
G02*
X93587347Y-58663817I-751317J-837345D01*
G01*
X92277345Y-60123817D01*
G75*
G02*
X90688683Y-60209845I-837345J751317D01*
G01*
G37*
G04 #@! TD.AperFunction*
X97790000Y-56832500D03*
G04 #@! TA.AperFunction,ComponentPad*
G36*
G01*
X97673483Y-58534895D02*
X97672597Y-58534834D01*
G75*
G02*
X96627666Y-57335097I77403J1122334D01*
G01*
X96667666Y-56755097D01*
G75*
G02*
X97867403Y-55710166I1122334J-77403D01*
G01*
X97867403Y-55710166D01*
G75*
G02*
X98912334Y-56909903I-77403J-1122334D01*
G01*
X98872334Y-57489903D01*
G75*
G02*
X97672597Y-58534834I-1122334J77403D01*
G01*
G37*
G04 #@! TD.AperFunction*
X73700000Y-57912500D03*
G04 #@! TA.AperFunction,ComponentPad*
G36*
G01*
X71638688Y-60209850D02*
X71638683Y-60209845D01*
G75*
G02*
X71552655Y-58621183I751317J837345D01*
G01*
X72862657Y-57161183D01*
G75*
G02*
X74451319Y-57075155I837345J-751317D01*
G01*
X74451319Y-57075155D01*
G75*
G02*
X74537347Y-58663817I-751317J-837345D01*
G01*
X73227345Y-60123817D01*
G75*
G02*
X71638683Y-60209845I-837345J751317D01*
G01*
G37*
G04 #@! TD.AperFunction*
X78740000Y-56832500D03*
G04 #@! TA.AperFunction,ComponentPad*
G36*
G01*
X78623483Y-58534895D02*
X78622597Y-58534834D01*
G75*
G02*
X77577666Y-57335097I77403J1122334D01*
G01*
X77617666Y-56755097D01*
G75*
G02*
X78817403Y-55710166I1122334J-77403D01*
G01*
X78817403Y-55710166D01*
G75*
G02*
X79862334Y-56909903I-77403J-1122334D01*
G01*
X79822334Y-57489903D01*
G75*
G02*
X78622597Y-58534834I-1122334J77403D01*
G01*
G37*
G04 #@! TD.AperFunction*
X28456250Y-57912500D03*
G04 #@! TA.AperFunction,ComponentPad*
G36*
G01*
X26394938Y-60209850D02*
X26394933Y-60209845D01*
G75*
G02*
X26308905Y-58621183I751317J837345D01*
G01*
X27618907Y-57161183D01*
G75*
G02*
X29207569Y-57075155I837345J-751317D01*
G01*
X29207569Y-57075155D01*
G75*
G02*
X29293597Y-58663817I-751317J-837345D01*
G01*
X27983595Y-60123817D01*
G75*
G02*
X26394933Y-60209845I-837345J751317D01*
G01*
G37*
G04 #@! TD.AperFunction*
X33496250Y-56832500D03*
G04 #@! TA.AperFunction,ComponentPad*
G36*
G01*
X33379733Y-58534895D02*
X33378847Y-58534834D01*
G75*
G02*
X32333916Y-57335097I77403J1122334D01*
G01*
X32373916Y-56755097D01*
G75*
G02*
X33573653Y-55710166I1122334J-77403D01*
G01*
X33573653Y-55710166D01*
G75*
G02*
X34618584Y-56909903I-77403J-1122334D01*
G01*
X34578584Y-57489903D01*
G75*
G02*
X33378847Y-58534834I-1122334J77403D01*
G01*
G37*
G04 #@! TD.AperFunction*
X283250000Y-38862500D03*
G04 #@! TA.AperFunction,ComponentPad*
G36*
G01*
X281188688Y-41159850D02*
X281188683Y-41159845D01*
G75*
G02*
X281102655Y-39571183I751317J837345D01*
G01*
X282412657Y-38111183D01*
G75*
G02*
X284001319Y-38025155I837345J-751317D01*
G01*
X284001319Y-38025155D01*
G75*
G02*
X284087347Y-39613817I-751317J-837345D01*
G01*
X282777345Y-41073817D01*
G75*
G02*
X281188683Y-41159845I-837345J751317D01*
G01*
G37*
G04 #@! TD.AperFunction*
X288290000Y-37782500D03*
G04 #@! TA.AperFunction,ComponentPad*
G36*
G01*
X288173483Y-39484895D02*
X288172597Y-39484834D01*
G75*
G02*
X287127666Y-38285097I77403J1122334D01*
G01*
X287167666Y-37705097D01*
G75*
G02*
X288367403Y-36660166I1122334J-77403D01*
G01*
X288367403Y-36660166D01*
G75*
G02*
X289412334Y-37859903I-77403J-1122334D01*
G01*
X289372334Y-38439903D01*
G75*
G02*
X288172597Y-39484834I-1122334J77403D01*
G01*
G37*
G04 #@! TD.AperFunction*
X221337500Y-38862500D03*
G04 #@! TA.AperFunction,ComponentPad*
G36*
G01*
X219276188Y-41159850D02*
X219276183Y-41159845D01*
G75*
G02*
X219190155Y-39571183I751317J837345D01*
G01*
X220500157Y-38111183D01*
G75*
G02*
X222088819Y-38025155I837345J-751317D01*
G01*
X222088819Y-38025155D01*
G75*
G02*
X222174847Y-39613817I-751317J-837345D01*
G01*
X220864845Y-41073817D01*
G75*
G02*
X219276183Y-41159845I-837345J751317D01*
G01*
G37*
G04 #@! TD.AperFunction*
X226377500Y-37782500D03*
G04 #@! TA.AperFunction,ComponentPad*
G36*
G01*
X226260983Y-39484895D02*
X226260097Y-39484834D01*
G75*
G02*
X225215166Y-38285097I77403J1122334D01*
G01*
X225255166Y-37705097D01*
G75*
G02*
X226454903Y-36660166I1122334J-77403D01*
G01*
X226454903Y-36660166D01*
G75*
G02*
X227499834Y-37859903I-77403J-1122334D01*
G01*
X227459834Y-38439903D01*
G75*
G02*
X226260097Y-39484834I-1122334J77403D01*
G01*
G37*
G04 #@! TD.AperFunction*
X202287500Y-38862500D03*
G04 #@! TA.AperFunction,ComponentPad*
G36*
G01*
X200226188Y-41159850D02*
X200226183Y-41159845D01*
G75*
G02*
X200140155Y-39571183I751317J837345D01*
G01*
X201450157Y-38111183D01*
G75*
G02*
X203038819Y-38025155I837345J-751317D01*
G01*
X203038819Y-38025155D01*
G75*
G02*
X203124847Y-39613817I-751317J-837345D01*
G01*
X201814845Y-41073817D01*
G75*
G02*
X200226183Y-41159845I-837345J751317D01*
G01*
G37*
G04 #@! TD.AperFunction*
X207327500Y-37782500D03*
G04 #@! TA.AperFunction,ComponentPad*
G36*
G01*
X207210983Y-39484895D02*
X207210097Y-39484834D01*
G75*
G02*
X206165166Y-38285097I77403J1122334D01*
G01*
X206205166Y-37705097D01*
G75*
G02*
X207404903Y-36660166I1122334J-77403D01*
G01*
X207404903Y-36660166D01*
G75*
G02*
X208449834Y-37859903I-77403J-1122334D01*
G01*
X208409834Y-38439903D01*
G75*
G02*
X207210097Y-39484834I-1122334J77403D01*
G01*
G37*
G04 #@! TD.AperFunction*
X183237500Y-38862500D03*
G04 #@! TA.AperFunction,ComponentPad*
G36*
G01*
X181176188Y-41159850D02*
X181176183Y-41159845D01*
G75*
G02*
X181090155Y-39571183I751317J837345D01*
G01*
X182400157Y-38111183D01*
G75*
G02*
X183988819Y-38025155I837345J-751317D01*
G01*
X183988819Y-38025155D01*
G75*
G02*
X184074847Y-39613817I-751317J-837345D01*
G01*
X182764845Y-41073817D01*
G75*
G02*
X181176183Y-41159845I-837345J751317D01*
G01*
G37*
G04 #@! TD.AperFunction*
X188277500Y-37782500D03*
G04 #@! TA.AperFunction,ComponentPad*
G36*
G01*
X188160983Y-39484895D02*
X188160097Y-39484834D01*
G75*
G02*
X187115166Y-38285097I77403J1122334D01*
G01*
X187155166Y-37705097D01*
G75*
G02*
X188354903Y-36660166I1122334J-77403D01*
G01*
X188354903Y-36660166D01*
G75*
G02*
X189399834Y-37859903I-77403J-1122334D01*
G01*
X189359834Y-38439903D01*
G75*
G02*
X188160097Y-39484834I-1122334J77403D01*
G01*
G37*
G04 #@! TD.AperFunction*
X164187500Y-38862500D03*
G04 #@! TA.AperFunction,ComponentPad*
G36*
G01*
X162126188Y-41159850D02*
X162126183Y-41159845D01*
G75*
G02*
X162040155Y-39571183I751317J837345D01*
G01*
X163350157Y-38111183D01*
G75*
G02*
X164938819Y-38025155I837345J-751317D01*
G01*
X164938819Y-38025155D01*
G75*
G02*
X165024847Y-39613817I-751317J-837345D01*
G01*
X163714845Y-41073817D01*
G75*
G02*
X162126183Y-41159845I-837345J751317D01*
G01*
G37*
G04 #@! TD.AperFunction*
X169227500Y-37782500D03*
G04 #@! TA.AperFunction,ComponentPad*
G36*
G01*
X169110983Y-39484895D02*
X169110097Y-39484834D01*
G75*
G02*
X168065166Y-38285097I77403J1122334D01*
G01*
X168105166Y-37705097D01*
G75*
G02*
X169304903Y-36660166I1122334J-77403D01*
G01*
X169304903Y-36660166D01*
G75*
G02*
X170349834Y-37859903I-77403J-1122334D01*
G01*
X170309834Y-38439903D01*
G75*
G02*
X169110097Y-39484834I-1122334J77403D01*
G01*
G37*
G04 #@! TD.AperFunction*
X145137500Y-38862500D03*
G04 #@! TA.AperFunction,ComponentPad*
G36*
G01*
X143076188Y-41159850D02*
X143076183Y-41159845D01*
G75*
G02*
X142990155Y-39571183I751317J837345D01*
G01*
X144300157Y-38111183D01*
G75*
G02*
X145888819Y-38025155I837345J-751317D01*
G01*
X145888819Y-38025155D01*
G75*
G02*
X145974847Y-39613817I-751317J-837345D01*
G01*
X144664845Y-41073817D01*
G75*
G02*
X143076183Y-41159845I-837345J751317D01*
G01*
G37*
G04 #@! TD.AperFunction*
X150177500Y-37782500D03*
G04 #@! TA.AperFunction,ComponentPad*
G36*
G01*
X150060983Y-39484895D02*
X150060097Y-39484834D01*
G75*
G02*
X149015166Y-38285097I77403J1122334D01*
G01*
X149055166Y-37705097D01*
G75*
G02*
X150254903Y-36660166I1122334J-77403D01*
G01*
X150254903Y-36660166D01*
G75*
G02*
X151299834Y-37859903I-77403J-1122334D01*
G01*
X151259834Y-38439903D01*
G75*
G02*
X150060097Y-39484834I-1122334J77403D01*
G01*
G37*
G04 #@! TD.AperFunction*
X126087500Y-38862500D03*
G04 #@! TA.AperFunction,ComponentPad*
G36*
G01*
X124026188Y-41159850D02*
X124026183Y-41159845D01*
G75*
G02*
X123940155Y-39571183I751317J837345D01*
G01*
X125250157Y-38111183D01*
G75*
G02*
X126838819Y-38025155I837345J-751317D01*
G01*
X126838819Y-38025155D01*
G75*
G02*
X126924847Y-39613817I-751317J-837345D01*
G01*
X125614845Y-41073817D01*
G75*
G02*
X124026183Y-41159845I-837345J751317D01*
G01*
G37*
G04 #@! TD.AperFunction*
X131127500Y-37782500D03*
G04 #@! TA.AperFunction,ComponentPad*
G36*
G01*
X131010983Y-39484895D02*
X131010097Y-39484834D01*
G75*
G02*
X129965166Y-38285097I77403J1122334D01*
G01*
X130005166Y-37705097D01*
G75*
G02*
X131204903Y-36660166I1122334J-77403D01*
G01*
X131204903Y-36660166D01*
G75*
G02*
X132249834Y-37859903I-77403J-1122334D01*
G01*
X132209834Y-38439903D01*
G75*
G02*
X131010097Y-39484834I-1122334J77403D01*
G01*
G37*
G04 #@! TD.AperFunction*
X107037500Y-38862500D03*
G04 #@! TA.AperFunction,ComponentPad*
G36*
G01*
X104976188Y-41159850D02*
X104976183Y-41159845D01*
G75*
G02*
X104890155Y-39571183I751317J837345D01*
G01*
X106200157Y-38111183D01*
G75*
G02*
X107788819Y-38025155I837345J-751317D01*
G01*
X107788819Y-38025155D01*
G75*
G02*
X107874847Y-39613817I-751317J-837345D01*
G01*
X106564845Y-41073817D01*
G75*
G02*
X104976183Y-41159845I-837345J751317D01*
G01*
G37*
G04 #@! TD.AperFunction*
X112077500Y-37782500D03*
G04 #@! TA.AperFunction,ComponentPad*
G36*
G01*
X111960983Y-39484895D02*
X111960097Y-39484834D01*
G75*
G02*
X110915166Y-38285097I77403J1122334D01*
G01*
X110955166Y-37705097D01*
G75*
G02*
X112154903Y-36660166I1122334J-77403D01*
G01*
X112154903Y-36660166D01*
G75*
G02*
X113199834Y-37859903I-77403J-1122334D01*
G01*
X113159834Y-38439903D01*
G75*
G02*
X111960097Y-39484834I-1122334J77403D01*
G01*
G37*
G04 #@! TD.AperFunction*
X87987500Y-38862500D03*
G04 #@! TA.AperFunction,ComponentPad*
G36*
G01*
X85926188Y-41159850D02*
X85926183Y-41159845D01*
G75*
G02*
X85840155Y-39571183I751317J837345D01*
G01*
X87150157Y-38111183D01*
G75*
G02*
X88738819Y-38025155I837345J-751317D01*
G01*
X88738819Y-38025155D01*
G75*
G02*
X88824847Y-39613817I-751317J-837345D01*
G01*
X87514845Y-41073817D01*
G75*
G02*
X85926183Y-41159845I-837345J751317D01*
G01*
G37*
G04 #@! TD.AperFunction*
X93027500Y-37782500D03*
G04 #@! TA.AperFunction,ComponentPad*
G36*
G01*
X92910983Y-39484895D02*
X92910097Y-39484834D01*
G75*
G02*
X91865166Y-38285097I77403J1122334D01*
G01*
X91905166Y-37705097D01*
G75*
G02*
X93104903Y-36660166I1122334J-77403D01*
G01*
X93104903Y-36660166D01*
G75*
G02*
X94149834Y-37859903I-77403J-1122334D01*
G01*
X94109834Y-38439903D01*
G75*
G02*
X92910097Y-39484834I-1122334J77403D01*
G01*
G37*
G04 #@! TD.AperFunction*
X68937500Y-38862500D03*
G04 #@! TA.AperFunction,ComponentPad*
G36*
G01*
X66876188Y-41159850D02*
X66876183Y-41159845D01*
G75*
G02*
X66790155Y-39571183I751317J837345D01*
G01*
X68100157Y-38111183D01*
G75*
G02*
X69688819Y-38025155I837345J-751317D01*
G01*
X69688819Y-38025155D01*
G75*
G02*
X69774847Y-39613817I-751317J-837345D01*
G01*
X68464845Y-41073817D01*
G75*
G02*
X66876183Y-41159845I-837345J751317D01*
G01*
G37*
G04 #@! TD.AperFunction*
X73977500Y-37782500D03*
G04 #@! TA.AperFunction,ComponentPad*
G36*
G01*
X73860983Y-39484895D02*
X73860097Y-39484834D01*
G75*
G02*
X72815166Y-38285097I77403J1122334D01*
G01*
X72855166Y-37705097D01*
G75*
G02*
X74054903Y-36660166I1122334J-77403D01*
G01*
X74054903Y-36660166D01*
G75*
G02*
X75099834Y-37859903I-77403J-1122334D01*
G01*
X75059834Y-38439903D01*
G75*
G02*
X73860097Y-39484834I-1122334J77403D01*
G01*
G37*
G04 #@! TD.AperFunction*
X26075000Y-38862500D03*
G04 #@! TA.AperFunction,ComponentPad*
G36*
G01*
X24013688Y-41159850D02*
X24013683Y-41159845D01*
G75*
G02*
X23927655Y-39571183I751317J837345D01*
G01*
X25237657Y-38111183D01*
G75*
G02*
X26826319Y-38025155I837345J-751317D01*
G01*
X26826319Y-38025155D01*
G75*
G02*
X26912347Y-39613817I-751317J-837345D01*
G01*
X25602345Y-41073817D01*
G75*
G02*
X24013683Y-41159845I-837345J751317D01*
G01*
G37*
G04 #@! TD.AperFunction*
X31115000Y-37782500D03*
G04 #@! TA.AperFunction,ComponentPad*
G36*
G01*
X30998483Y-39484895D02*
X30997597Y-39484834D01*
G75*
G02*
X29952666Y-38285097I77403J1122334D01*
G01*
X29992666Y-37705097D01*
G75*
G02*
X31192403Y-36660166I1122334J-77403D01*
G01*
X31192403Y-36660166D01*
G75*
G02*
X32237334Y-37859903I-77403J-1122334D01*
G01*
X32197334Y-38439903D01*
G75*
G02*
X30997597Y-39484834I-1122334J77403D01*
G01*
G37*
G04 #@! TD.AperFunction*
X278487500Y-19812500D03*
G04 #@! TA.AperFunction,ComponentPad*
G36*
G01*
X276426188Y-22109850D02*
X276426183Y-22109845D01*
G75*
G02*
X276340155Y-20521183I751317J837345D01*
G01*
X277650157Y-19061183D01*
G75*
G02*
X279238819Y-18975155I837345J-751317D01*
G01*
X279238819Y-18975155D01*
G75*
G02*
X279324847Y-20563817I-751317J-837345D01*
G01*
X278014845Y-22023817D01*
G75*
G02*
X276426183Y-22109845I-837345J751317D01*
G01*
G37*
G04 #@! TD.AperFunction*
X283527500Y-18732500D03*
G04 #@! TA.AperFunction,ComponentPad*
G36*
G01*
X283410983Y-20434895D02*
X283410097Y-20434834D01*
G75*
G02*
X282365166Y-19235097I77403J1122334D01*
G01*
X282405166Y-18655097D01*
G75*
G02*
X283604903Y-17610166I1122334J-77403D01*
G01*
X283604903Y-17610166D01*
G75*
G02*
X284649834Y-18809903I-77403J-1122334D01*
G01*
X284609834Y-19389903D01*
G75*
G02*
X283410097Y-20434834I-1122334J77403D01*
G01*
G37*
G04 #@! TD.AperFunction*
X230862500Y-19812500D03*
G04 #@! TA.AperFunction,ComponentPad*
G36*
G01*
X228801188Y-22109850D02*
X228801183Y-22109845D01*
G75*
G02*
X228715155Y-20521183I751317J837345D01*
G01*
X230025157Y-19061183D01*
G75*
G02*
X231613819Y-18975155I837345J-751317D01*
G01*
X231613819Y-18975155D01*
G75*
G02*
X231699847Y-20563817I-751317J-837345D01*
G01*
X230389845Y-22023817D01*
G75*
G02*
X228801183Y-22109845I-837345J751317D01*
G01*
G37*
G04 #@! TD.AperFunction*
X235902500Y-18732500D03*
G04 #@! TA.AperFunction,ComponentPad*
G36*
G01*
X235785983Y-20434895D02*
X235785097Y-20434834D01*
G75*
G02*
X234740166Y-19235097I77403J1122334D01*
G01*
X234780166Y-18655097D01*
G75*
G02*
X235979903Y-17610166I1122334J-77403D01*
G01*
X235979903Y-17610166D01*
G75*
G02*
X237024834Y-18809903I-77403J-1122334D01*
G01*
X236984834Y-19389903D01*
G75*
G02*
X235785097Y-20434834I-1122334J77403D01*
G01*
G37*
G04 #@! TD.AperFunction*
X211812500Y-19812500D03*
G04 #@! TA.AperFunction,ComponentPad*
G36*
G01*
X209751188Y-22109850D02*
X209751183Y-22109845D01*
G75*
G02*
X209665155Y-20521183I751317J837345D01*
G01*
X210975157Y-19061183D01*
G75*
G02*
X212563819Y-18975155I837345J-751317D01*
G01*
X212563819Y-18975155D01*
G75*
G02*
X212649847Y-20563817I-751317J-837345D01*
G01*
X211339845Y-22023817D01*
G75*
G02*
X209751183Y-22109845I-837345J751317D01*
G01*
G37*
G04 #@! TD.AperFunction*
X216852500Y-18732500D03*
G04 #@! TA.AperFunction,ComponentPad*
G36*
G01*
X216735983Y-20434895D02*
X216735097Y-20434834D01*
G75*
G02*
X215690166Y-19235097I77403J1122334D01*
G01*
X215730166Y-18655097D01*
G75*
G02*
X216929903Y-17610166I1122334J-77403D01*
G01*
X216929903Y-17610166D01*
G75*
G02*
X217974834Y-18809903I-77403J-1122334D01*
G01*
X217934834Y-19389903D01*
G75*
G02*
X216735097Y-20434834I-1122334J77403D01*
G01*
G37*
G04 #@! TD.AperFunction*
X192762500Y-19812500D03*
G04 #@! TA.AperFunction,ComponentPad*
G36*
G01*
X190701188Y-22109850D02*
X190701183Y-22109845D01*
G75*
G02*
X190615155Y-20521183I751317J837345D01*
G01*
X191925157Y-19061183D01*
G75*
G02*
X193513819Y-18975155I837345J-751317D01*
G01*
X193513819Y-18975155D01*
G75*
G02*
X193599847Y-20563817I-751317J-837345D01*
G01*
X192289845Y-22023817D01*
G75*
G02*
X190701183Y-22109845I-837345J751317D01*
G01*
G37*
G04 #@! TD.AperFunction*
X197802500Y-18732500D03*
G04 #@! TA.AperFunction,ComponentPad*
G36*
G01*
X197685983Y-20434895D02*
X197685097Y-20434834D01*
G75*
G02*
X196640166Y-19235097I77403J1122334D01*
G01*
X196680166Y-18655097D01*
G75*
G02*
X197879903Y-17610166I1122334J-77403D01*
G01*
X197879903Y-17610166D01*
G75*
G02*
X198924834Y-18809903I-77403J-1122334D01*
G01*
X198884834Y-19389903D01*
G75*
G02*
X197685097Y-20434834I-1122334J77403D01*
G01*
G37*
G04 #@! TD.AperFunction*
X173712500Y-19812500D03*
G04 #@! TA.AperFunction,ComponentPad*
G36*
G01*
X171651188Y-22109850D02*
X171651183Y-22109845D01*
G75*
G02*
X171565155Y-20521183I751317J837345D01*
G01*
X172875157Y-19061183D01*
G75*
G02*
X174463819Y-18975155I837345J-751317D01*
G01*
X174463819Y-18975155D01*
G75*
G02*
X174549847Y-20563817I-751317J-837345D01*
G01*
X173239845Y-22023817D01*
G75*
G02*
X171651183Y-22109845I-837345J751317D01*
G01*
G37*
G04 #@! TD.AperFunction*
X178752500Y-18732500D03*
G04 #@! TA.AperFunction,ComponentPad*
G36*
G01*
X178635983Y-20434895D02*
X178635097Y-20434834D01*
G75*
G02*
X177590166Y-19235097I77403J1122334D01*
G01*
X177630166Y-18655097D01*
G75*
G02*
X178829903Y-17610166I1122334J-77403D01*
G01*
X178829903Y-17610166D01*
G75*
G02*
X179874834Y-18809903I-77403J-1122334D01*
G01*
X179834834Y-19389903D01*
G75*
G02*
X178635097Y-20434834I-1122334J77403D01*
G01*
G37*
G04 #@! TD.AperFunction*
X97512500Y-19812500D03*
G04 #@! TA.AperFunction,ComponentPad*
G36*
G01*
X95451188Y-22109850D02*
X95451183Y-22109845D01*
G75*
G02*
X95365155Y-20521183I751317J837345D01*
G01*
X96675157Y-19061183D01*
G75*
G02*
X98263819Y-18975155I837345J-751317D01*
G01*
X98263819Y-18975155D01*
G75*
G02*
X98349847Y-20563817I-751317J-837345D01*
G01*
X97039845Y-22023817D01*
G75*
G02*
X95451183Y-22109845I-837345J751317D01*
G01*
G37*
G04 #@! TD.AperFunction*
X102552500Y-18732500D03*
G04 #@! TA.AperFunction,ComponentPad*
G36*
G01*
X102435983Y-20434895D02*
X102435097Y-20434834D01*
G75*
G02*
X101390166Y-19235097I77403J1122334D01*
G01*
X101430166Y-18655097D01*
G75*
G02*
X102629903Y-17610166I1122334J-77403D01*
G01*
X102629903Y-17610166D01*
G75*
G02*
X103674834Y-18809903I-77403J-1122334D01*
G01*
X103634834Y-19389903D01*
G75*
G02*
X102435097Y-20434834I-1122334J77403D01*
G01*
G37*
G04 #@! TD.AperFunction*
X59412500Y-19812500D03*
G04 #@! TA.AperFunction,ComponentPad*
G36*
G01*
X57351188Y-22109850D02*
X57351183Y-22109845D01*
G75*
G02*
X57265155Y-20521183I751317J837345D01*
G01*
X58575157Y-19061183D01*
G75*
G02*
X60163819Y-18975155I837345J-751317D01*
G01*
X60163819Y-18975155D01*
G75*
G02*
X60249847Y-20563817I-751317J-837345D01*
G01*
X58939845Y-22023817D01*
G75*
G02*
X57351183Y-22109845I-837345J751317D01*
G01*
G37*
G04 #@! TD.AperFunction*
X64452500Y-18732500D03*
G04 #@! TA.AperFunction,ComponentPad*
G36*
G01*
X64335983Y-20434895D02*
X64335097Y-20434834D01*
G75*
G02*
X63290166Y-19235097I77403J1122334D01*
G01*
X63330166Y-18655097D01*
G75*
G02*
X64529903Y-17610166I1122334J-77403D01*
G01*
X64529903Y-17610166D01*
G75*
G02*
X65574834Y-18809903I-77403J-1122334D01*
G01*
X65534834Y-19389903D01*
G75*
G02*
X64335097Y-20434834I-1122334J77403D01*
G01*
G37*
G04 #@! TD.AperFunction*
X40362500Y-19812500D03*
G04 #@! TA.AperFunction,ComponentPad*
G36*
G01*
X38301188Y-22109850D02*
X38301183Y-22109845D01*
G75*
G02*
X38215155Y-20521183I751317J837345D01*
G01*
X39525157Y-19061183D01*
G75*
G02*
X41113819Y-18975155I837345J-751317D01*
G01*
X41113819Y-18975155D01*
G75*
G02*
X41199847Y-20563817I-751317J-837345D01*
G01*
X39889845Y-22023817D01*
G75*
G02*
X38301183Y-22109845I-837345J751317D01*
G01*
G37*
G04 #@! TD.AperFunction*
X45402500Y-18732500D03*
G04 #@! TA.AperFunction,ComponentPad*
G36*
G01*
X45285983Y-20434895D02*
X45285097Y-20434834D01*
G75*
G02*
X44240166Y-19235097I77403J1122334D01*
G01*
X44280166Y-18655097D01*
G75*
G02*
X45479903Y-17610166I1122334J-77403D01*
G01*
X45479903Y-17610166D01*
G75*
G02*
X46524834Y-18809903I-77403J-1122334D01*
G01*
X46484834Y-19389903D01*
G75*
G02*
X45285097Y-20434834I-1122334J77403D01*
G01*
G37*
G04 #@! TD.AperFunction*
D18*
X246137500Y-16745000D03*
X245337500Y-16745000D03*
X240437500Y-16745000D03*
X239637500Y-16745000D03*
X239637500Y-16745000D03*
X240437500Y-16745000D03*
X245337500Y-16745000D03*
X246137500Y-16745000D03*
D19*
X241137500Y-16745000D03*
X241637500Y-16745000D03*
X242137500Y-16745000D03*
X243137500Y-16745000D03*
X243637500Y-16745000D03*
X244137500Y-16745000D03*
X244637500Y-16745000D03*
X242637500Y-16745000D03*
D20*
X247207500Y-15830000D03*
X238567500Y-15830000D03*
D21*
X238567500Y-11650000D03*
X247207500Y-11650000D03*
D22*
X209550000Y-90170000D03*
D23*
X207010000Y-90170000D03*
X209550000Y-92710000D03*
X207010000Y-92710000D03*
X209550000Y-95250000D03*
X207010000Y-95250000D03*
D11*
X293687500Y-102331250D03*
X293687500Y-105631250D03*
X269875000Y-102331250D03*
X269875000Y-105631250D03*
X246062500Y-102331250D03*
X246062500Y-105631250D03*
X222250000Y-102331250D03*
X222250000Y-105631250D03*
X150812500Y-102331250D03*
X150812500Y-105631250D03*
X79375000Y-102331250D03*
X79375000Y-105631250D03*
X55562500Y-102331250D03*
X55562500Y-105631250D03*
X31750000Y-102331250D03*
X31750000Y-105631250D03*
X279400000Y-83281250D03*
X279400000Y-86581250D03*
X243681250Y-83281250D03*
X243681250Y-86581250D03*
X224631250Y-83281250D03*
X224631250Y-86581250D03*
X205581250Y-83281250D03*
X205581250Y-86581250D03*
X186531250Y-83281250D03*
X186531250Y-86581250D03*
X167481250Y-83281250D03*
X167481250Y-86581250D03*
X148431250Y-83281250D03*
X148431250Y-86581250D03*
X129381250Y-83281250D03*
X129381250Y-86581250D03*
X110331250Y-83281250D03*
X110331250Y-86581250D03*
X91281250Y-83281250D03*
X91281250Y-86581250D03*
X72231250Y-83281250D03*
X72231250Y-86581250D03*
X41275000Y-83281250D03*
X41275000Y-86581250D03*
X284162500Y-64231250D03*
X284162500Y-67531250D03*
X253206250Y-64231250D03*
X253206250Y-67531250D03*
X234156250Y-64231250D03*
X234156250Y-67531250D03*
X215106250Y-64231250D03*
X215106250Y-67531250D03*
X196056250Y-64231250D03*
X196056250Y-67531250D03*
X177006250Y-64231250D03*
X177006250Y-67531250D03*
X157956250Y-64231250D03*
X157956250Y-67531250D03*
X138906250Y-64231250D03*
X138906250Y-67531250D03*
X119856250Y-64231250D03*
X119856250Y-67531250D03*
X100806250Y-64231250D03*
X100806250Y-67531250D03*
X81756250Y-64231250D03*
X81756250Y-67531250D03*
X62706250Y-64231250D03*
X62706250Y-67531250D03*
X36512500Y-64231250D03*
X36512500Y-67531250D03*
X291306250Y-45181250D03*
X291306250Y-48481250D03*
X267493750Y-45181250D03*
X267493750Y-48481250D03*
X248443750Y-45181250D03*
X248443750Y-48481250D03*
X229393750Y-45181250D03*
X229393750Y-48481250D03*
X210343750Y-45181250D03*
X210343750Y-48481250D03*
X191293750Y-45181250D03*
X191293750Y-48481250D03*
X172243750Y-45181250D03*
X172243750Y-48481250D03*
X153193750Y-45181250D03*
X153193750Y-48481250D03*
X134143750Y-45181250D03*
X134143750Y-48481250D03*
X115093750Y-45181250D03*
X115093750Y-48481250D03*
X96043750Y-45181250D03*
X96043750Y-48481250D03*
X76993750Y-45181250D03*
X76993750Y-48481250D03*
X57943750Y-45181250D03*
X57943750Y-48481250D03*
X34131250Y-45181250D03*
X34131250Y-48481250D03*
X286543750Y-26131250D03*
X286543750Y-29431250D03*
X257968750Y-26131250D03*
X257968750Y-29431250D03*
X219868750Y-26131250D03*
X219868750Y-29431250D03*
X200818750Y-26131250D03*
X200818750Y-29431250D03*
X181768750Y-26131250D03*
X181768750Y-29431250D03*
X162718750Y-26131250D03*
X162718750Y-29431250D03*
X143668750Y-26131250D03*
X143668750Y-29431250D03*
X124618750Y-26131250D03*
X124618750Y-29431250D03*
X105568750Y-26131250D03*
X105568750Y-29431250D03*
X86518750Y-26131250D03*
X86518750Y-29431250D03*
X67468750Y-26131250D03*
X67468750Y-29431250D03*
X48418750Y-26131250D03*
X48418750Y-29431250D03*
X29368750Y-26131250D03*
X29368750Y-29431250D03*
G04 #@! TA.AperFunction,SMDPad,CuDef*
G36*
G01*
X188410000Y-99535000D02*
X188410000Y-98585000D01*
G75*
G02*
X188660000Y-98335000I250000J0D01*
G01*
X189335000Y-98335000D01*
G75*
G02*
X189585000Y-98585000I0J-250000D01*
G01*
X189585000Y-99535000D01*
G75*
G02*
X189335000Y-99785000I-250000J0D01*
G01*
X188660000Y-99785000D01*
G75*
G02*
X188410000Y-99535000I0J250000D01*
G01*
G37*
G04 #@! TD.AperFunction*
G04 #@! TA.AperFunction,SMDPad,CuDef*
G36*
G01*
X186335000Y-99535000D02*
X186335000Y-98585000D01*
G75*
G02*
X186585000Y-98335000I250000J0D01*
G01*
X187260000Y-98335000D01*
G75*
G02*
X187510000Y-98585000I0J-250000D01*
G01*
X187510000Y-99535000D01*
G75*
G02*
X187260000Y-99785000I-250000J0D01*
G01*
X186585000Y-99785000D01*
G75*
G02*
X186335000Y-99535000I0J250000D01*
G01*
G37*
G04 #@! TD.AperFunction*
G04 #@! TA.AperFunction,SMDPad,CuDef*
G36*
G01*
X181160000Y-85885000D02*
X181160000Y-86835000D01*
G75*
G02*
X180910000Y-87085000I-250000J0D01*
G01*
X180235000Y-87085000D01*
G75*
G02*
X179985000Y-86835000I0J250000D01*
G01*
X179985000Y-85885000D01*
G75*
G02*
X180235000Y-85635000I250000J0D01*
G01*
X180910000Y-85635000D01*
G75*
G02*
X181160000Y-85885000I0J-250000D01*
G01*
G37*
G04 #@! TD.AperFunction*
G04 #@! TA.AperFunction,SMDPad,CuDef*
G36*
G01*
X183235000Y-85885000D02*
X183235000Y-86835000D01*
G75*
G02*
X182985000Y-87085000I-250000J0D01*
G01*
X182310000Y-87085000D01*
G75*
G02*
X182060000Y-86835000I0J250000D01*
G01*
X182060000Y-85885000D01*
G75*
G02*
X182310000Y-85635000I250000J0D01*
G01*
X182985000Y-85635000D01*
G75*
G02*
X183235000Y-85885000I0J-250000D01*
G01*
G37*
G04 #@! TD.AperFunction*
G04 #@! TA.AperFunction,SMDPad,CuDef*
G36*
G01*
X174418500Y-86835000D02*
X174418500Y-85885000D01*
G75*
G02*
X174668500Y-85635000I250000J0D01*
G01*
X175343500Y-85635000D01*
G75*
G02*
X175593500Y-85885000I0J-250000D01*
G01*
X175593500Y-86835000D01*
G75*
G02*
X175343500Y-87085000I-250000J0D01*
G01*
X174668500Y-87085000D01*
G75*
G02*
X174418500Y-86835000I0J250000D01*
G01*
G37*
G04 #@! TD.AperFunction*
G04 #@! TA.AperFunction,SMDPad,CuDef*
G36*
G01*
X172343500Y-86835000D02*
X172343500Y-85885000D01*
G75*
G02*
X172593500Y-85635000I250000J0D01*
G01*
X173268500Y-85635000D01*
G75*
G02*
X173518500Y-85885000I0J-250000D01*
G01*
X173518500Y-86835000D01*
G75*
G02*
X173268500Y-87085000I-250000J0D01*
G01*
X172593500Y-87085000D01*
G75*
G02*
X172343500Y-86835000I0J250000D01*
G01*
G37*
G04 #@! TD.AperFunction*
G04 #@! TA.AperFunction,SMDPad,CuDef*
G36*
G01*
X168435000Y-99510000D02*
X169385000Y-99510000D01*
G75*
G02*
X169635000Y-99760000I0J-250000D01*
G01*
X169635000Y-100435000D01*
G75*
G02*
X169385000Y-100685000I-250000J0D01*
G01*
X168435000Y-100685000D01*
G75*
G02*
X168185000Y-100435000I0J250000D01*
G01*
X168185000Y-99760000D01*
G75*
G02*
X168435000Y-99510000I250000J0D01*
G01*
G37*
G04 #@! TD.AperFunction*
G04 #@! TA.AperFunction,SMDPad,CuDef*
G36*
G01*
X168435000Y-97435000D02*
X169385000Y-97435000D01*
G75*
G02*
X169635000Y-97685000I0J-250000D01*
G01*
X169635000Y-98360000D01*
G75*
G02*
X169385000Y-98610000I-250000J0D01*
G01*
X168435000Y-98610000D01*
G75*
G02*
X168185000Y-98360000I0J250000D01*
G01*
X168185000Y-97685000D01*
G75*
G02*
X168435000Y-97435000I250000J0D01*
G01*
G37*
G04 #@! TD.AperFunction*
G04 #@! TA.AperFunction,SMDPad,CuDef*
G36*
G01*
X187165000Y-94800000D02*
X186215000Y-94800000D01*
G75*
G02*
X185965000Y-94550000I0J250000D01*
G01*
X185965000Y-93875000D01*
G75*
G02*
X186215000Y-93625000I250000J0D01*
G01*
X187165000Y-93625000D01*
G75*
G02*
X187415000Y-93875000I0J-250000D01*
G01*
X187415000Y-94550000D01*
G75*
G02*
X187165000Y-94800000I-250000J0D01*
G01*
G37*
G04 #@! TD.AperFunction*
G04 #@! TA.AperFunction,SMDPad,CuDef*
G36*
G01*
X187165000Y-96875000D02*
X186215000Y-96875000D01*
G75*
G02*
X185965000Y-96625000I0J250000D01*
G01*
X185965000Y-95950000D01*
G75*
G02*
X186215000Y-95700000I250000J0D01*
G01*
X187165000Y-95700000D01*
G75*
G02*
X187415000Y-95950000I0J-250000D01*
G01*
X187415000Y-96625000D01*
G75*
G02*
X187165000Y-96875000I-250000J0D01*
G01*
G37*
G04 #@! TD.AperFunction*
G04 #@! TA.AperFunction,SMDPad,CuDef*
G36*
G01*
X183355000Y-104960000D02*
X182405000Y-104960000D01*
G75*
G02*
X182155000Y-104710000I0J250000D01*
G01*
X182155000Y-104035000D01*
G75*
G02*
X182405000Y-103785000I250000J0D01*
G01*
X183355000Y-103785000D01*
G75*
G02*
X183605000Y-104035000I0J-250000D01*
G01*
X183605000Y-104710000D01*
G75*
G02*
X183355000Y-104960000I-250000J0D01*
G01*
G37*
G04 #@! TD.AperFunction*
G04 #@! TA.AperFunction,SMDPad,CuDef*
G36*
G01*
X183355000Y-107035000D02*
X182405000Y-107035000D01*
G75*
G02*
X182155000Y-106785000I0J250000D01*
G01*
X182155000Y-106110000D01*
G75*
G02*
X182405000Y-105860000I250000J0D01*
G01*
X183355000Y-105860000D01*
G75*
G02*
X183605000Y-106110000I0J-250000D01*
G01*
X183605000Y-106785000D01*
G75*
G02*
X183355000Y-107035000I-250000J0D01*
G01*
G37*
G04 #@! TD.AperFunction*
G04 #@! TA.AperFunction,SMDPad,CuDef*
G36*
G01*
X172245000Y-105860000D02*
X173195000Y-105860000D01*
G75*
G02*
X173445000Y-106110000I0J-250000D01*
G01*
X173445000Y-106785000D01*
G75*
G02*
X173195000Y-107035000I-250000J0D01*
G01*
X172245000Y-107035000D01*
G75*
G02*
X171995000Y-106785000I0J250000D01*
G01*
X171995000Y-106110000D01*
G75*
G02*
X172245000Y-105860000I250000J0D01*
G01*
G37*
G04 #@! TD.AperFunction*
G04 #@! TA.AperFunction,SMDPad,CuDef*
G36*
G01*
X172245000Y-103785000D02*
X173195000Y-103785000D01*
G75*
G02*
X173445000Y-104035000I0J-250000D01*
G01*
X173445000Y-104710000D01*
G75*
G02*
X173195000Y-104960000I-250000J0D01*
G01*
X172245000Y-104960000D01*
G75*
G02*
X171995000Y-104710000I0J250000D01*
G01*
X171995000Y-104035000D01*
G75*
G02*
X172245000Y-103785000I250000J0D01*
G01*
G37*
G04 #@! TD.AperFunction*
D24*
X175260000Y-97790000D03*
X175260000Y-92710000D03*
X180340000Y-97790000D03*
X180340000Y-92710000D03*
X190500000Y-105410000D03*
X190500000Y-97790000D03*
X185420000Y-90170000D03*
X204470000Y-100330000D03*
X171450000Y-102870000D03*
X184150000Y-107696000D03*
X189230000Y-104140000D03*
X189230000Y-96520000D03*
X184150000Y-85090000D03*
X171450000Y-85090000D03*
X166370000Y-97790000D03*
X189230000Y-85090000D03*
X175260000Y-82550000D03*
X152400000Y-30480000D03*
X243840000Y-30480000D03*
X237490000Y-30480000D03*
X226060000Y-30480000D03*
X218440000Y-30480000D03*
X156210000Y-49530000D03*
X172720000Y-83820000D03*
X231140000Y-49530000D03*
X220980000Y-49530000D03*
X218440000Y-49530000D03*
X208280000Y-49530000D03*
X213360000Y-68580000D03*
X208280000Y-67310000D03*
X198120000Y-68580000D03*
X200660000Y-68580000D03*
X172720000Y-88519000D03*
X184150000Y-87630000D03*
X199390000Y-99060000D03*
X203200000Y-101600000D03*
X165100000Y-95250000D03*
X165100000Y-93980000D03*
X165100000Y-92710000D03*
X165100000Y-91440000D03*
X165100000Y-90170000D03*
X165100000Y-88900000D03*
X182880000Y-83820000D03*
X191770000Y-99060000D03*
X177800000Y-97789994D03*
X246380000Y-73660000D03*
X205740000Y-73660000D03*
X195580000Y-73660000D03*
X176530000Y-99060000D03*
D25*
X239482500Y-16745000D02*
X238567500Y-15830000D01*
X239637500Y-16745000D02*
X239482500Y-16745000D01*
X238567500Y-15671058D02*
X238567500Y-11650000D01*
X247207500Y-11650000D02*
X247207500Y-15830000D01*
X247052500Y-15830000D02*
X246137500Y-16745000D01*
X247207500Y-15830000D02*
X247052500Y-15830000D01*
X238567500Y-15830000D02*
X238567500Y-15671058D01*
X238567500Y-11650000D02*
X247207500Y-11650000D01*
X246200510Y-20213490D02*
X245110000Y-21304000D01*
X246200510Y-16808010D02*
X246200510Y-20213490D01*
X246137500Y-16745000D02*
X246200510Y-16808010D01*
X245110000Y-23110000D02*
X243570000Y-24650000D01*
X245110000Y-21304000D02*
X245110000Y-23110000D01*
X239030000Y-17352500D02*
X239637500Y-16745000D01*
X239030000Y-21590000D02*
X239030000Y-17352500D01*
X179362500Y-104372500D02*
X179250000Y-104260000D01*
X182880000Y-104372500D02*
X179362500Y-104372500D01*
X179400000Y-104110000D02*
X179250000Y-104260000D01*
X179400000Y-100950000D02*
X179400000Y-104110000D01*
X172832500Y-106560000D02*
X172720000Y-106447500D01*
X176350000Y-106560000D02*
X172832500Y-106560000D01*
X186452500Y-94450000D02*
X183500000Y-94450000D01*
X186690000Y-94212500D02*
X186452500Y-94450000D01*
X174600000Y-86766000D02*
X174600000Y-89550000D01*
X175006000Y-86360000D02*
X174600000Y-86766000D01*
X181000000Y-86787500D02*
X181000000Y-89550000D01*
X180572500Y-86360000D02*
X181000000Y-86787500D01*
X171252500Y-100097500D02*
X172100000Y-99250000D01*
X168910000Y-100097500D02*
X171252500Y-100097500D01*
X174600000Y-90477902D02*
X174600000Y-89550000D01*
X174387401Y-90690501D02*
X174600000Y-90477902D01*
X173212599Y-90690501D02*
X174387401Y-90690501D01*
X171692098Y-89170000D02*
X173212599Y-90690501D01*
X168910000Y-89170000D02*
X171692098Y-89170000D01*
X173800000Y-99250000D02*
X175260000Y-97790000D01*
X172100000Y-99250000D02*
X173800000Y-99250000D01*
X174600000Y-92050000D02*
X174600000Y-89550000D01*
X175260000Y-92710000D02*
X174600000Y-92050000D01*
X179400000Y-98730000D02*
X180340000Y-97790000D01*
X179400000Y-100950000D02*
X179400000Y-98730000D01*
X181000000Y-92050000D02*
X181000000Y-89550000D01*
X180340000Y-92710000D02*
X181000000Y-92050000D01*
X180629000Y-92710000D02*
X180340000Y-92710000D01*
X182369000Y-94450000D02*
X180629000Y-92710000D01*
X183500000Y-94450000D02*
X182369000Y-94450000D01*
X189462500Y-106447500D02*
X190500000Y-105410000D01*
X186690000Y-106447500D02*
X189462500Y-106447500D01*
X212650000Y-103560000D02*
X206450000Y-103560000D01*
X190267500Y-97790000D02*
X188997500Y-99060000D01*
X190500000Y-97790000D02*
X190267500Y-97790000D01*
X212879251Y-103330749D02*
X212650000Y-103560000D01*
X212879251Y-100298085D02*
X212879251Y-103330749D01*
X215773000Y-97404336D02*
X212879251Y-100298085D01*
X215773000Y-95162000D02*
X215773000Y-97404336D01*
X210781000Y-90170000D02*
X215773000Y-95162000D01*
X209550000Y-90170000D02*
X210781000Y-90170000D01*
X206450000Y-102310000D02*
X206450000Y-103560000D01*
X204470000Y-100330000D02*
X206450000Y-102310000D01*
X185420000Y-89408000D02*
X185420000Y-90170000D01*
X187579000Y-87249000D02*
X185420000Y-89408000D01*
X187579000Y-83843886D02*
X187579000Y-87249000D01*
X224536000Y-23896058D02*
X224536000Y-32599386D01*
X199263000Y-72159886D02*
X187579000Y-83843886D01*
X199263000Y-61314902D02*
X199263000Y-72159886D01*
X211334251Y-45801135D02*
X211334251Y-49243651D01*
X224536000Y-32599386D02*
X211334251Y-45801135D01*
X211334251Y-49243651D02*
X199263000Y-61314902D01*
X232602058Y-15830000D02*
X224536000Y-23896058D01*
X238567500Y-15830000D02*
X232602058Y-15830000D01*
X183995510Y-105488010D02*
X182880000Y-104372500D01*
X183995510Y-107050310D02*
X183995510Y-105488010D01*
X183195319Y-107850501D02*
X183995510Y-107050310D01*
X177640501Y-107850501D02*
X183195319Y-107850501D01*
X176350000Y-106560000D02*
X177640501Y-107850501D01*
D26*
X185652500Y-95250000D02*
X183500000Y-95250000D01*
X186690000Y-96287500D02*
X185652500Y-95250000D01*
D25*
X173800000Y-87229000D02*
X172931000Y-86360000D01*
X173800000Y-89550000D02*
X173800000Y-87229000D01*
X182647500Y-88702500D02*
X181800000Y-89550000D01*
X182647500Y-86360000D02*
X182647500Y-88702500D01*
X169337500Y-98450000D02*
X172100000Y-98450000D01*
X168910000Y-98022500D02*
X169337500Y-98450000D01*
X186690000Y-98312098D02*
X186690000Y-99292500D01*
X184427902Y-96050000D02*
X186690000Y-98312098D01*
X183500000Y-96050000D02*
X184427902Y-96050000D01*
X181800000Y-91277902D02*
X181800000Y-89550000D01*
X182572098Y-92050000D02*
X181800000Y-91277902D01*
X183500000Y-92050000D02*
X182572098Y-92050000D01*
X183917500Y-85090000D02*
X182647500Y-86360000D01*
X184150000Y-85090000D02*
X183917500Y-85090000D01*
X188997500Y-104372500D02*
X189230000Y-104140000D01*
X186690000Y-104372500D02*
X188997500Y-104372500D01*
X186922500Y-98827500D02*
X189230000Y-96520000D01*
X186922500Y-99060000D02*
X186922500Y-98827500D01*
X172931000Y-86360000D02*
X172720000Y-86360000D01*
X180200000Y-101877902D02*
X180200000Y-100950000D01*
X185568500Y-103251000D02*
X181573098Y-103251000D01*
X181573098Y-103251000D02*
X180200000Y-101877902D01*
X186690000Y-104372500D02*
X185568500Y-103251000D01*
X171661000Y-85090000D02*
X172931000Y-86360000D01*
X171450000Y-85090000D02*
X171661000Y-85090000D01*
X168677500Y-97790000D02*
X168910000Y-98022500D01*
X166370000Y-97790000D02*
X168677500Y-97790000D01*
X200930000Y-104140000D02*
X203200000Y-106410000D01*
X189230000Y-104140000D02*
X200930000Y-104140000D01*
X233462500Y-33020000D02*
X224937059Y-33020000D01*
X224937059Y-33020000D02*
X211963000Y-45994058D01*
X199844011Y-72400548D02*
X189230000Y-83014558D01*
X211963000Y-45994058D02*
X211963000Y-49530000D01*
X211963000Y-49530000D02*
X199844011Y-61648989D01*
X199844011Y-61648989D02*
X199844011Y-72400548D01*
X189230000Y-83014558D02*
X189230000Y-85090000D01*
D26*
X26312500Y-23075000D02*
X29368750Y-26131250D01*
X26312500Y-19312500D02*
X26312500Y-23075000D01*
X45362500Y-23075000D02*
X48418750Y-26131250D01*
X45362500Y-19312500D02*
X45362500Y-23075000D01*
X64412500Y-23075000D02*
X67468750Y-26131250D01*
X64412500Y-19312500D02*
X64412500Y-23075000D01*
X83462500Y-23075000D02*
X86518750Y-26131250D01*
X83462500Y-19312500D02*
X83462500Y-23075000D01*
D25*
X240596999Y-15707599D02*
X240596999Y-16585501D01*
X241129109Y-15175489D02*
X240596999Y-15707599D01*
X244645891Y-15175489D02*
X241129109Y-15175489D01*
X245178001Y-15707599D02*
X244645891Y-15175489D01*
X240596999Y-16585501D02*
X240437500Y-16745000D01*
X245178001Y-16451001D02*
X245178001Y-15707599D01*
X245337500Y-16610500D02*
X245178001Y-16451001D01*
X245337500Y-16745000D02*
X245337500Y-16610500D01*
X240437500Y-17851000D02*
X240437500Y-16745000D01*
X240039490Y-18249010D02*
X240437500Y-17851000D01*
X240039490Y-22361490D02*
X240039490Y-18249010D01*
X241570000Y-23892000D02*
X240039490Y-22361490D01*
X241570000Y-24450000D02*
X241570000Y-23892000D01*
X240829499Y-25190501D02*
X241570000Y-24450000D01*
X240829499Y-31077501D02*
X240829499Y-25190501D01*
X238887000Y-33020000D02*
X240829499Y-31077501D01*
X236437500Y-33020000D02*
X238887000Y-33020000D01*
D26*
X172020000Y-91170000D02*
X172100000Y-91250000D01*
X168910000Y-91170000D02*
X172020000Y-91170000D01*
X176237500Y-104372500D02*
X176350000Y-104260000D01*
X172720000Y-104372500D02*
X176237500Y-104372500D01*
X177800000Y-101656000D02*
X177800000Y-100950000D01*
X176350000Y-103106000D02*
X177800000Y-101656000D01*
X176350000Y-104260000D02*
X176350000Y-103106000D01*
X179362500Y-106447500D02*
X179250000Y-106560000D01*
X182880000Y-106447500D02*
X179362500Y-106447500D01*
X178600000Y-101943000D02*
X178600000Y-100950000D01*
X177872999Y-102670001D02*
X178600000Y-101943000D01*
X177872999Y-106486999D02*
X177872999Y-102670001D01*
X177946000Y-106560000D02*
X177872999Y-106486999D01*
X179250000Y-106560000D02*
X177946000Y-106560000D01*
X47370000Y-30480000D02*
X48418750Y-29431250D01*
X30417500Y-30480000D02*
X47370000Y-30480000D01*
X29368750Y-29431250D02*
X30417500Y-30480000D01*
X66420000Y-30480000D02*
X67468750Y-29431250D01*
X49467500Y-30480000D02*
X66420000Y-30480000D01*
X48418750Y-29431250D02*
X49467500Y-30480000D01*
X85470000Y-30480000D02*
X86518750Y-29431250D01*
X68517500Y-30480000D02*
X85470000Y-30480000D01*
X67468750Y-29431250D02*
X68517500Y-30480000D01*
X104520000Y-30480000D02*
X105568750Y-29431250D01*
X87567500Y-30480000D02*
X104520000Y-30480000D01*
X86518750Y-29431250D02*
X87567500Y-30480000D01*
X123570000Y-30480000D02*
X124618750Y-29431250D01*
X106617500Y-30480000D02*
X123570000Y-30480000D01*
X105568750Y-29431250D02*
X106617500Y-30480000D01*
X142620000Y-30480000D02*
X143668750Y-29431250D01*
X125667500Y-30480000D02*
X142620000Y-30480000D01*
X124618750Y-29431250D02*
X125667500Y-30480000D01*
X161670000Y-30480000D02*
X162718750Y-29431250D01*
X144717500Y-30480000D02*
X152400000Y-30480000D01*
X143668750Y-29431250D02*
X144717500Y-30480000D01*
X180720000Y-30480000D02*
X181768750Y-29431250D01*
X163767500Y-30480000D02*
X180720000Y-30480000D01*
X162718750Y-29431250D02*
X163767500Y-30480000D01*
X199770000Y-30480000D02*
X200818750Y-29431250D01*
X182817500Y-30480000D02*
X199770000Y-30480000D01*
X181768750Y-29431250D02*
X182817500Y-30480000D01*
X218820000Y-30480000D02*
X219868750Y-29431250D01*
X200818750Y-29431250D02*
X201867500Y-30480000D01*
X285052500Y-27940000D02*
X286543750Y-29431250D01*
X259460000Y-27940000D02*
X285052500Y-27940000D01*
X257968750Y-29431250D02*
X259460000Y-27940000D01*
X152400000Y-30480000D02*
X161670000Y-30480000D01*
X177292000Y-84582000D02*
X175260000Y-82550000D01*
X177292000Y-88472999D02*
X177292000Y-84582000D01*
X177263399Y-88472999D02*
X177292000Y-88472999D01*
X177197999Y-88538399D02*
X177263399Y-88472999D01*
X177197999Y-89352001D02*
X177197999Y-88538399D01*
X177000000Y-89550000D02*
X177197999Y-89352001D01*
X238918750Y-29431250D02*
X237870000Y-30480000D01*
X257968750Y-29431250D02*
X256920000Y-30480000D01*
X256920000Y-30480000D02*
X243840000Y-30480000D01*
X237490000Y-30480000D02*
X228632750Y-30480000D01*
X237870000Y-30480000D02*
X237490000Y-30480000D01*
X228632750Y-30480000D02*
X226060000Y-30480000D01*
X218440000Y-30480000D02*
X218820000Y-30480000D01*
X201867500Y-30480000D02*
X218440000Y-30480000D01*
X102512500Y-23075000D02*
X105568750Y-26131250D01*
X102512500Y-19312500D02*
X102512500Y-23075000D01*
X121562500Y-23075000D02*
X124618750Y-26131250D01*
X121562500Y-19312500D02*
X121562500Y-23075000D01*
X140612500Y-23075000D02*
X143668750Y-26131250D01*
X140612500Y-19312500D02*
X140612500Y-23075000D01*
X159662500Y-23075000D02*
X162718750Y-26131250D01*
X159662500Y-19312500D02*
X159662500Y-23075000D01*
X178712500Y-23075000D02*
X181768750Y-26131250D01*
X178712500Y-19312500D02*
X178712500Y-23075000D01*
X197762500Y-23075000D02*
X200818750Y-26131250D01*
X197762500Y-19312500D02*
X197762500Y-23075000D01*
X216812500Y-23075000D02*
X219868750Y-26131250D01*
X216812500Y-19312500D02*
X216812500Y-23075000D01*
X235862500Y-23075000D02*
X238918750Y-26131250D01*
X235862500Y-19312500D02*
X235862500Y-23075000D01*
X254912500Y-23075000D02*
X257968750Y-26131250D01*
X254912500Y-19312500D02*
X254912500Y-23075000D01*
X283487500Y-23075000D02*
X286543750Y-26131250D01*
X283487500Y-19312500D02*
X283487500Y-23075000D01*
X31075000Y-42125000D02*
X34131250Y-45181250D01*
X31075000Y-38362500D02*
X31075000Y-42125000D01*
X56895000Y-49530000D02*
X57943750Y-48481250D01*
X35180000Y-49530000D02*
X56895000Y-49530000D01*
X34131250Y-48481250D02*
X35180000Y-49530000D01*
X58992500Y-49530000D02*
X75945000Y-49530000D01*
X75945000Y-49530000D02*
X76993750Y-48481250D01*
X57943750Y-48481250D02*
X58992500Y-49530000D01*
X94995000Y-49530000D02*
X96043750Y-48481250D01*
X78042500Y-49530000D02*
X94995000Y-49530000D01*
X76993750Y-48481250D02*
X78042500Y-49530000D01*
X114045000Y-49530000D02*
X115093750Y-48481250D01*
X97092500Y-49530000D02*
X114045000Y-49530000D01*
X96043750Y-48481250D02*
X97092500Y-49530000D01*
X133095000Y-49530000D02*
X134143750Y-48481250D01*
X116142500Y-49530000D02*
X133095000Y-49530000D01*
X115093750Y-48481250D02*
X116142500Y-49530000D01*
X152145000Y-49530000D02*
X153193750Y-48481250D01*
X135192500Y-49530000D02*
X152145000Y-49530000D01*
X134143750Y-48481250D02*
X135192500Y-49530000D01*
X171195000Y-49530000D02*
X172243750Y-48481250D01*
X154242500Y-49530000D02*
X156210000Y-49530000D01*
X153193750Y-48481250D02*
X154242500Y-49530000D01*
X173292500Y-49530000D02*
X190245000Y-49530000D01*
X190245000Y-49530000D02*
X191293750Y-48481250D01*
X172243750Y-48481250D02*
X173292500Y-49530000D01*
X266445000Y-49530000D02*
X267493750Y-48481250D01*
X249492500Y-49530000D02*
X266445000Y-49530000D01*
X248443750Y-48481250D02*
X249492500Y-49530000D01*
X290257500Y-49530000D02*
X291306250Y-48481250D01*
X268542500Y-49530000D02*
X290257500Y-49530000D01*
X267493750Y-48481250D02*
X268542500Y-49530000D01*
X175400000Y-89550000D02*
X175400000Y-88760000D01*
X247395000Y-49530000D02*
X248443750Y-48481250D01*
X230442500Y-49530000D02*
X231140000Y-49530000D01*
X229393750Y-48481250D02*
X230442500Y-49530000D01*
X156210000Y-49530000D02*
X171195000Y-49530000D01*
X175400000Y-88736398D02*
X175400000Y-89550000D01*
X176276000Y-87860398D02*
X175400000Y-88736398D01*
X176276000Y-85344000D02*
X176276000Y-87860398D01*
X174752000Y-83820000D02*
X176276000Y-85344000D01*
X172720000Y-83820000D02*
X174752000Y-83820000D01*
X209295000Y-49530000D02*
X210343750Y-48481250D01*
X191293750Y-48481250D02*
X192342500Y-49530000D01*
X231140000Y-49530000D02*
X247395000Y-49530000D01*
X220980000Y-49530000D02*
X218440000Y-49530000D01*
X208280000Y-49530000D02*
X209295000Y-49530000D01*
X192342500Y-49530000D02*
X208280000Y-49530000D01*
X54887500Y-42125000D02*
X57943750Y-45181250D01*
X54887500Y-38362500D02*
X54887500Y-42125000D01*
X73937500Y-42125000D02*
X76993750Y-45181250D01*
X73937500Y-38362500D02*
X73937500Y-42125000D01*
X92987500Y-42125000D02*
X96043750Y-45181250D01*
X92987500Y-38362500D02*
X92987500Y-42125000D01*
X112037500Y-42125000D02*
X115093750Y-45181250D01*
X112037500Y-38362500D02*
X112037500Y-42125000D01*
X131087500Y-42125000D02*
X134143750Y-45181250D01*
X131087500Y-38362500D02*
X131087500Y-42125000D01*
X150137500Y-42125000D02*
X153193750Y-45181250D01*
X150137500Y-38362500D02*
X150137500Y-42125000D01*
X172228250Y-45181250D02*
X172243750Y-45181250D01*
X169187500Y-42140500D02*
X172228250Y-45181250D01*
X169187500Y-38362500D02*
X169187500Y-42140500D01*
X188237500Y-42125000D02*
X191293750Y-45181250D01*
X188237500Y-38362500D02*
X188237500Y-42125000D01*
X207287500Y-42125000D02*
X210343750Y-45181250D01*
X207287500Y-38362500D02*
X207287500Y-42125000D01*
X226337500Y-42125000D02*
X229393750Y-45181250D01*
X226337500Y-38362500D02*
X226337500Y-42125000D01*
X245387500Y-42125000D02*
X248443750Y-45181250D01*
X245387500Y-38362500D02*
X245387500Y-42125000D01*
X264437500Y-42125000D02*
X267493750Y-45181250D01*
X264437500Y-38362500D02*
X264437500Y-42125000D01*
X288250000Y-42125000D02*
X291306250Y-45181250D01*
X288250000Y-38362500D02*
X288250000Y-42125000D01*
X33456250Y-61175000D02*
X36512500Y-64231250D01*
X33456250Y-57412500D02*
X33456250Y-61175000D01*
X254697500Y-66040000D02*
X253206250Y-67531250D01*
X282671250Y-66040000D02*
X254697500Y-66040000D01*
X284162500Y-67531250D02*
X282671250Y-66040000D01*
X252157500Y-68580000D02*
X253206250Y-67531250D01*
X235205000Y-68580000D02*
X252157500Y-68580000D01*
X234156250Y-67531250D02*
X235205000Y-68580000D01*
X61657500Y-68580000D02*
X62706250Y-67531250D01*
X37561250Y-68580000D02*
X61657500Y-68580000D01*
X36512500Y-67531250D02*
X37561250Y-68580000D01*
X63755000Y-68580000D02*
X80707500Y-68580000D01*
X80707500Y-68580000D02*
X81756250Y-67531250D01*
X62706250Y-67531250D02*
X63755000Y-68580000D01*
X99757500Y-68580000D02*
X100806250Y-67531250D01*
X82805000Y-68580000D02*
X99757500Y-68580000D01*
X81756250Y-67531250D02*
X82805000Y-68580000D01*
X118807500Y-68580000D02*
X119856250Y-67531250D01*
X101855000Y-68580000D02*
X118807500Y-68580000D01*
X100806250Y-67531250D02*
X101855000Y-68580000D01*
X120905000Y-68580000D02*
X137857500Y-68580000D01*
X137857500Y-68580000D02*
X138906250Y-67531250D01*
X119856250Y-67531250D02*
X120905000Y-68580000D01*
X178055000Y-68580000D02*
X177006250Y-67531250D01*
X195007500Y-68580000D02*
X178055000Y-68580000D01*
X196056250Y-67531250D02*
X195007500Y-68580000D01*
X175957500Y-68580000D02*
X177006250Y-67531250D01*
X157956250Y-67531250D02*
X159005000Y-68580000D01*
X139955000Y-68580000D02*
X138906250Y-67531250D01*
X156907500Y-68580000D02*
X139955000Y-68580000D01*
X157956250Y-67531250D02*
X156907500Y-68580000D01*
X233107500Y-68580000D02*
X234156250Y-67531250D01*
X216155000Y-68580000D02*
X233107500Y-68580000D01*
X215106250Y-67531250D02*
X216155000Y-68580000D01*
X173990000Y-68580000D02*
X175957500Y-68580000D01*
X159005000Y-68580000D02*
X173990000Y-68580000D01*
X173990000Y-82355962D02*
X173990000Y-68580000D01*
X176784000Y-85149962D02*
X173990000Y-82355962D01*
X176784000Y-87994464D02*
X176784000Y-85149962D01*
X176200000Y-88578464D02*
X176784000Y-87994464D01*
X176200000Y-89550000D02*
X176200000Y-88578464D01*
X215106250Y-67531250D02*
X214057500Y-68580000D01*
X214057500Y-68580000D02*
X213360000Y-68580000D01*
X208280000Y-67310000D02*
X207010000Y-68580000D01*
X207010000Y-68580000D02*
X200660000Y-68580000D01*
X196056250Y-67531250D02*
X197105000Y-68580000D01*
X197105000Y-68580000D02*
X198120000Y-68580000D01*
X200660000Y-68580000D02*
X200660000Y-68580000D01*
X59650000Y-61175000D02*
X62706250Y-64231250D01*
X59650000Y-57412500D02*
X59650000Y-61175000D01*
X78700000Y-61175000D02*
X81756250Y-64231250D01*
X78700000Y-57412500D02*
X78700000Y-61175000D01*
X97750000Y-61175000D02*
X100806250Y-64231250D01*
X97750000Y-57412500D02*
X97750000Y-61175000D01*
X116800000Y-61175000D02*
X119856250Y-64231250D01*
X116800000Y-57412500D02*
X116800000Y-61175000D01*
X135850000Y-61175000D02*
X138906250Y-64231250D01*
X135850000Y-57412500D02*
X135850000Y-61175000D01*
X154900000Y-61175000D02*
X157956250Y-64231250D01*
X154900000Y-57412500D02*
X154900000Y-61175000D01*
X173950000Y-61175000D02*
X177006250Y-64231250D01*
X173950000Y-57412500D02*
X173950000Y-61175000D01*
X193000000Y-61175000D02*
X196056250Y-64231250D01*
X193000000Y-57412500D02*
X193000000Y-61175000D01*
X212050000Y-61175000D02*
X215106250Y-64231250D01*
X212050000Y-57412500D02*
X212050000Y-61175000D01*
X231100000Y-61175000D02*
X234156250Y-64231250D01*
X231100000Y-57412500D02*
X231100000Y-61175000D01*
X250150000Y-61175000D02*
X253206250Y-64231250D01*
X250150000Y-57412500D02*
X250150000Y-61175000D01*
X281106250Y-61175000D02*
X284162500Y-64231250D01*
X281106250Y-57412500D02*
X281106250Y-61175000D01*
X38218750Y-80225000D02*
X41275000Y-83281250D01*
X38218750Y-76462500D02*
X38218750Y-80225000D01*
X279204240Y-86777010D02*
X279400000Y-86581250D01*
X41275000Y-86581250D02*
X41470760Y-86777010D01*
X245172500Y-85090000D02*
X243681250Y-86581250D01*
X277908750Y-85090000D02*
X245172500Y-85090000D01*
X279400000Y-86581250D02*
X277908750Y-85090000D01*
X225680000Y-87630000D02*
X224631250Y-86581250D01*
X242632500Y-87630000D02*
X225680000Y-87630000D01*
X243681250Y-86581250D02*
X242632500Y-87630000D01*
X70740000Y-85090000D02*
X72231250Y-86581250D01*
X42766250Y-85090000D02*
X70740000Y-85090000D01*
X41275000Y-86581250D02*
X42766250Y-85090000D01*
X90232500Y-87630000D02*
X91281250Y-86581250D01*
X73280000Y-87630000D02*
X90232500Y-87630000D01*
X72231250Y-86581250D02*
X73280000Y-87630000D01*
X109282500Y-87630000D02*
X110331250Y-86581250D01*
X92330000Y-87630000D02*
X109282500Y-87630000D01*
X91281250Y-86581250D02*
X92330000Y-87630000D01*
X128332500Y-87630000D02*
X129381250Y-86581250D01*
X111380000Y-87630000D02*
X128332500Y-87630000D01*
X110331250Y-86581250D02*
X111380000Y-87630000D01*
X147382500Y-87630000D02*
X148431250Y-86581250D01*
X130430000Y-87630000D02*
X147382500Y-87630000D01*
X129381250Y-86581250D02*
X130430000Y-87630000D01*
X149480000Y-87630000D02*
X148431250Y-86581250D01*
X166432500Y-87630000D02*
X149480000Y-87630000D01*
X167481250Y-86581250D02*
X166432500Y-87630000D01*
X186531250Y-87534750D02*
X186531250Y-86581250D01*
X183500000Y-91250000D02*
X183500000Y-90566000D01*
X206630000Y-87630000D02*
X205581250Y-86581250D01*
X223582500Y-87630000D02*
X206630000Y-87630000D01*
X224631250Y-86581250D02*
X223582500Y-87630000D01*
X185415962Y-91250000D02*
X183500000Y-91250000D01*
X187765962Y-88900000D02*
X185415962Y-91250000D01*
X192386018Y-88900000D02*
X187765962Y-88900000D01*
X194704768Y-86581250D02*
X192386018Y-88900000D01*
X205581250Y-86581250D02*
X194704768Y-86581250D01*
X170782250Y-86581250D02*
X172720000Y-88519000D01*
X167481250Y-86581250D02*
X170782250Y-86581250D01*
X183500000Y-90566000D02*
X186531250Y-87534750D01*
X185482500Y-87630000D02*
X186531250Y-86581250D01*
X184150000Y-87630000D02*
X185482500Y-87630000D01*
X69175000Y-80225000D02*
X72231250Y-83281250D01*
X69175000Y-76462500D02*
X69175000Y-80225000D01*
X88225000Y-80225000D02*
X91281250Y-83281250D01*
X88225000Y-76462500D02*
X88225000Y-80225000D01*
X107275000Y-80225000D02*
X110331250Y-83281250D01*
X107275000Y-76462500D02*
X107275000Y-80225000D01*
X126325000Y-80225000D02*
X129381250Y-83281250D01*
X126325000Y-76462500D02*
X126325000Y-80225000D01*
X145375000Y-80225000D02*
X148431250Y-83281250D01*
X145375000Y-76462500D02*
X145375000Y-80225000D01*
X164425000Y-80225000D02*
X167481250Y-83281250D01*
X164425000Y-76462500D02*
X164425000Y-80225000D01*
X183475000Y-80225000D02*
X186531250Y-83281250D01*
X183475000Y-76462500D02*
X183475000Y-80225000D01*
X202525000Y-80225000D02*
X205581250Y-83281250D01*
X202525000Y-76462500D02*
X202525000Y-80225000D01*
X221575000Y-80225000D02*
X224631250Y-83281250D01*
X221575000Y-76462500D02*
X221575000Y-80225000D01*
X240625000Y-80225000D02*
X243681250Y-83281250D01*
X240625000Y-76462500D02*
X240625000Y-80225000D01*
X276343750Y-80225000D02*
X279400000Y-83281250D01*
X276343750Y-76462500D02*
X276343750Y-80225000D01*
X28693750Y-99275000D02*
X31750000Y-102331250D01*
X28693750Y-95512500D02*
X28693750Y-99275000D01*
X292638750Y-106680000D02*
X293687500Y-105631250D01*
X270923750Y-106680000D02*
X292638750Y-106680000D01*
X269875000Y-105631250D02*
X270923750Y-106680000D01*
X247111250Y-106680000D02*
X246062500Y-105631250D01*
X268826250Y-106680000D02*
X247111250Y-106680000D01*
X269875000Y-105631250D02*
X268826250Y-106680000D01*
X245013750Y-106680000D02*
X246062500Y-105631250D01*
X223298750Y-106680000D02*
X245013750Y-106680000D01*
X222250000Y-105631250D02*
X223298750Y-106680000D01*
X54513750Y-106680000D02*
X55562500Y-105631250D01*
X32798750Y-106680000D02*
X54513750Y-106680000D01*
X31750000Y-105631250D02*
X32798750Y-106680000D01*
X78326250Y-106680000D02*
X79375000Y-105631250D01*
X56611250Y-106680000D02*
X78326250Y-106680000D01*
X55562500Y-105631250D02*
X56611250Y-106680000D01*
X80866250Y-104140000D02*
X79375000Y-105631250D01*
X149321250Y-104140000D02*
X80866250Y-104140000D01*
X150812500Y-105631250D02*
X149321250Y-104140000D01*
X159380751Y-97062999D02*
X150812500Y-105631250D01*
X170166018Y-97650000D02*
X169579017Y-97062999D01*
X172100000Y-97650000D02*
X170166018Y-97650000D01*
X165573001Y-101878963D02*
X165573001Y-97062999D01*
X172542539Y-108848501D02*
X165573001Y-101878963D01*
X219032749Y-108848501D02*
X172542539Y-108848501D01*
X222250000Y-105631250D02*
X219032749Y-108848501D01*
X165573001Y-97062999D02*
X159380751Y-97062999D01*
X169579017Y-97062999D02*
X165573001Y-97062999D01*
X52506250Y-99275000D02*
X55562500Y-102331250D01*
X52506250Y-95512500D02*
X52506250Y-99275000D01*
X76318750Y-99275000D02*
X79375000Y-102331250D01*
X76318750Y-95512500D02*
X76318750Y-99275000D01*
X147756250Y-99275000D02*
X150812500Y-102331250D01*
X147756250Y-95512500D02*
X147756250Y-99275000D01*
X219193750Y-99275000D02*
X222250000Y-102331250D01*
X219193750Y-95512500D02*
X219193750Y-99275000D01*
X243006250Y-99275000D02*
X246062500Y-102331250D01*
X243006250Y-95512500D02*
X243006250Y-99275000D01*
X266818750Y-99275000D02*
X269875000Y-102331250D01*
X266818750Y-95512500D02*
X266818750Y-99275000D01*
X290631250Y-99275000D02*
X293687500Y-102331250D01*
X290631250Y-95512500D02*
X290631250Y-99275000D01*
X206450000Y-107260000D02*
X212650000Y-107260000D01*
X201523490Y-102733490D02*
X203200000Y-104410000D01*
X181969888Y-102733490D02*
X201523490Y-102733490D01*
X181000000Y-101763602D02*
X181969888Y-102733490D01*
X181000000Y-100950000D02*
X181000000Y-101763602D01*
X203600000Y-104410000D02*
X206450000Y-107260000D01*
X203200000Y-104410000D02*
X203600000Y-104410000D01*
X199390000Y-97790000D02*
X199390000Y-99060000D01*
X207010000Y-90170000D02*
X199390000Y-97790000D01*
X203200000Y-101600000D02*
X203200000Y-104410000D01*
X184313602Y-98450000D02*
X183500000Y-98450000D01*
X185099970Y-99236368D02*
X184313602Y-98450000D01*
X185099970Y-100150122D02*
X185099970Y-99236368D01*
X186187868Y-101238020D02*
X185099970Y-100150122D01*
X199243980Y-101238020D02*
X186187868Y-101238020D01*
X206409001Y-94072999D02*
X199243980Y-101238020D01*
X208187001Y-94072999D02*
X206409001Y-94072999D01*
X209550000Y-92710000D02*
X208187001Y-94072999D01*
X184313602Y-97650000D02*
X183500000Y-97650000D01*
X185553980Y-99962065D02*
X185553980Y-98890378D01*
X185553980Y-98890378D02*
X184313602Y-97650000D01*
X186375925Y-100784010D02*
X185553980Y-99962065D01*
X207010000Y-92710000D02*
X198935990Y-100784010D01*
X198935990Y-100784010D02*
X186375925Y-100784010D01*
X185942030Y-101692030D02*
X183500000Y-99250000D01*
X199551970Y-101692030D02*
X185942030Y-101692030D01*
X205994000Y-95250000D02*
X199551970Y-101692030D01*
X207010000Y-95250000D02*
X205994000Y-95250000D01*
X241637500Y-20982500D02*
X241637500Y-16745000D01*
X241030000Y-21590000D02*
X241637500Y-20982500D01*
X244637500Y-18831500D02*
X244637500Y-16745000D01*
X245110000Y-19304000D02*
X244637500Y-18831500D01*
X165900000Y-96050000D02*
X165100000Y-95250000D01*
X172100000Y-96050000D02*
X165900000Y-96050000D01*
X166370000Y-95250000D02*
X165100000Y-93980000D01*
X172100000Y-95250000D02*
X166370000Y-95250000D01*
X166840000Y-94450000D02*
X165100000Y-92710000D01*
X172100000Y-94450000D02*
X166840000Y-94450000D01*
X167310000Y-93650000D02*
X165100000Y-91440000D01*
X172100000Y-93650000D02*
X167310000Y-93650000D01*
X172100000Y-92850000D02*
X172087000Y-92837000D01*
X165100000Y-90364038D02*
X165100000Y-90170000D01*
X172100000Y-92850000D02*
X167585962Y-92850000D01*
X167585962Y-92850000D02*
X165100000Y-90364038D01*
X141446250Y-99637434D02*
X141446250Y-97472500D01*
X144917067Y-103108251D02*
X141446250Y-99637434D01*
X152669749Y-103108251D02*
X144917067Y-103108251D01*
X159169011Y-96608989D02*
X152669749Y-103108251D01*
X169767074Y-96608989D02*
X159169011Y-96608989D01*
X170008085Y-96850000D02*
X169767074Y-96608989D01*
X172100000Y-96850000D02*
X170008085Y-96850000D01*
X168220992Y-92097010D02*
X165100000Y-88976018D01*
X165100000Y-88976018D02*
X165100000Y-88900000D01*
X172052990Y-92097010D02*
X168220992Y-92097010D01*
X172100000Y-92050000D02*
X172052990Y-92097010D01*
X177165000Y-83681047D02*
X177800000Y-84316047D01*
X177165000Y-78422500D02*
X177165000Y-83681047D01*
X177800000Y-84316047D02*
X177800000Y-89550000D01*
X178816000Y-88119933D02*
X178816000Y-85090000D01*
X179400000Y-88703933D02*
X178816000Y-88119933D01*
X179400000Y-89550000D02*
X179400000Y-88703933D01*
X180086000Y-83820000D02*
X178816000Y-85090000D01*
X182880000Y-83820000D02*
X180086000Y-83820000D01*
X184516000Y-100950000D02*
X181800000Y-100950000D01*
X185801000Y-102235000D02*
X184516000Y-100950000D01*
X199771000Y-102235000D02*
X185801000Y-102235000D01*
X204533500Y-97472500D02*
X199771000Y-102235000D01*
X212883750Y-97472500D02*
X204533500Y-97472500D01*
X186007990Y-99774008D02*
X186563982Y-100330000D01*
X186007990Y-98544388D02*
X186007990Y-99774008D01*
X184313602Y-96850000D02*
X186007990Y-98544388D01*
X183500000Y-96850000D02*
X184313602Y-96850000D01*
X186563982Y-100330000D02*
X190500000Y-100330000D01*
X191770000Y-99060000D02*
X190500000Y-100330000D01*
X177800000Y-99060000D02*
X177800000Y-97789994D01*
X177000000Y-99860000D02*
X177800000Y-99060000D01*
X177000000Y-100950000D02*
X177000000Y-99860000D01*
X178600000Y-88546000D02*
X178600000Y-89550000D01*
X178308000Y-88254000D02*
X178600000Y-88546000D01*
X178308000Y-80283220D02*
X178308000Y-88254000D01*
X179949621Y-78641599D02*
X178308000Y-80283220D01*
X179949621Y-77340772D02*
X179949621Y-78641599D01*
X183630394Y-73660000D02*
X179949621Y-77340772D01*
X195580000Y-73660000D02*
X183630394Y-73660000D01*
X205740000Y-73660000D02*
X246380000Y-73660000D01*
X176200000Y-99390000D02*
X176530000Y-99060000D01*
X176200000Y-100950000D02*
X176200000Y-99390000D01*
D27*
X184650000Y-92874999D02*
X184625001Y-92850000D01*
X187193153Y-92762045D02*
X187145650Y-92809548D01*
X185945650Y-92809548D02*
X185888769Y-92845289D01*
X187266125Y-92414844D02*
X187258604Y-92481601D01*
X187324054Y-92294554D02*
X187288313Y-92351435D01*
X187288313Y-92351435D02*
X187266125Y-92414844D01*
X184308917Y-92850000D02*
X183500000Y-92850000D01*
X187371557Y-92247051D02*
X187324054Y-92294554D01*
X187228894Y-92705164D02*
X187193153Y-92762045D01*
X187428438Y-92211310D02*
X187371557Y-92247051D01*
X187491847Y-92189122D02*
X187428438Y-92211310D01*
X187558604Y-92181601D02*
X187491847Y-92189122D01*
X187625360Y-92189122D02*
X187558604Y-92181601D01*
X187688769Y-92211310D02*
X187625360Y-92189122D01*
X187745650Y-92247051D02*
X187688769Y-92211310D01*
X187793153Y-92294554D02*
X187745650Y-92247051D01*
X189230000Y-91803603D02*
X188158604Y-92874999D01*
X188158604Y-92874999D02*
X188091847Y-92867477D01*
X188091847Y-92867477D02*
X188028438Y-92845289D01*
X186058604Y-92574999D02*
X186051082Y-92641755D01*
X188028438Y-92845289D02*
X187971557Y-92809548D01*
X187828894Y-92351435D02*
X187793153Y-92294554D01*
X186358604Y-92181601D02*
X186291847Y-92189122D01*
X187858604Y-92481601D02*
X187851082Y-92414844D01*
X186124054Y-92294554D02*
X186088313Y-92351435D01*
X187924054Y-92762045D02*
X187888313Y-92705164D01*
X187251082Y-92641755D02*
X187228894Y-92705164D01*
X185888769Y-92845289D02*
X185825360Y-92867477D01*
X187888313Y-92705164D02*
X187866125Y-92641755D01*
X185993153Y-92762045D02*
X185945650Y-92809548D01*
X187258604Y-92481601D02*
X187258604Y-92574999D01*
X186088313Y-92351435D02*
X186066125Y-92414844D01*
X187866125Y-92641755D02*
X187858604Y-92574999D01*
X187258604Y-92574999D02*
X187251082Y-92641755D01*
X187858604Y-92574999D02*
X187858604Y-92481601D01*
X187851082Y-92414844D02*
X187828894Y-92351435D01*
X186228438Y-92211310D02*
X186171557Y-92247051D01*
X187145650Y-92809548D02*
X187088769Y-92845289D01*
X186291847Y-92189122D02*
X186228438Y-92211310D01*
X187088769Y-92845289D02*
X187025360Y-92867477D01*
X187025360Y-92867477D02*
X186958604Y-92874999D01*
X186051082Y-92641755D02*
X186028894Y-92705164D01*
X186958604Y-92874999D02*
X186891847Y-92867477D01*
X186028894Y-92705164D02*
X185993153Y-92762045D01*
X186891847Y-92867477D02*
X186828438Y-92845289D01*
X185758604Y-92874999D02*
X184650000Y-92874999D01*
X186828438Y-92845289D02*
X186771557Y-92809548D01*
X186771557Y-92809548D02*
X186724054Y-92762045D01*
X186058604Y-92481601D02*
X186058604Y-92574999D01*
X186724054Y-92762045D02*
X186688313Y-92705164D01*
X186488769Y-92211310D02*
X186425360Y-92189122D01*
X185825360Y-92867477D02*
X185758604Y-92874999D01*
X186688313Y-92705164D02*
X186666125Y-92641755D01*
X184625001Y-92850000D02*
X184308917Y-92850000D01*
X186666125Y-92641755D02*
X186658604Y-92574999D01*
X186658604Y-92574999D02*
X186658604Y-92481601D01*
X186658604Y-92481601D02*
X186651082Y-92414844D01*
X186628894Y-92351435D02*
X186593153Y-92294554D01*
X186593153Y-92294554D02*
X186545650Y-92247051D01*
X186545650Y-92247051D02*
X186488769Y-92211310D01*
X186651082Y-92414844D02*
X186628894Y-92351435D01*
X186425360Y-92189122D02*
X186358604Y-92181601D01*
X187971557Y-92809548D02*
X187924054Y-92762045D01*
X186171557Y-92247051D02*
X186124054Y-92294554D01*
X189230000Y-89900000D02*
X189230000Y-91803603D01*
X186066125Y-92414844D02*
X186058604Y-92481601D01*
X184625001Y-93650000D02*
X183500000Y-93650000D01*
X184950011Y-93324990D02*
X184625001Y-93650000D01*
X188345010Y-93324990D02*
X184950011Y-93324990D01*
X191770000Y-89900000D02*
X188345010Y-93324990D01*
X241570000Y-26300000D02*
X242345000Y-25525000D01*
X241570000Y-26350000D02*
X241570000Y-26300000D01*
X242345000Y-25525000D02*
X242345000Y-19270200D01*
X242137500Y-17832501D02*
X242137500Y-16745000D01*
X242162500Y-17857501D02*
X242137500Y-17832501D01*
X242162500Y-19087700D02*
X242162500Y-17857501D01*
X242345000Y-19270200D02*
X242162500Y-19087700D01*
D26*
X243137500Y-15781398D02*
X243137500Y-16745000D01*
X243049101Y-15692999D02*
X243137500Y-15781398D01*
X242225899Y-15692999D02*
X243049101Y-15692999D01*
X242137500Y-15781398D02*
X242225899Y-15692999D01*
X242137500Y-16745000D02*
X242137500Y-15781398D01*
D27*
X200515171Y-76598217D02*
X200643920Y-76486080D01*
X200357926Y-76598217D02*
X200515171Y-76598217D01*
X197281108Y-79675035D02*
X200357926Y-76598217D01*
X195509001Y-82137501D02*
X197281108Y-80365394D01*
X194992499Y-82137501D02*
X195509001Y-82137501D01*
X200643920Y-76486080D02*
X200747879Y-74978685D01*
X189230000Y-87900000D02*
X194992499Y-82137501D01*
X197281108Y-80365394D02*
X197281108Y-79675035D01*
X228043758Y-52883744D02*
X228043758Y-47604857D01*
X200747879Y-74978685D02*
X201919193Y-73958509D01*
X201919193Y-73958509D02*
X203171489Y-73958509D01*
X203171489Y-73958509D02*
X212148747Y-64981251D01*
X212148747Y-64981251D02*
X215946251Y-64981251D01*
X215946251Y-64981251D02*
X228043758Y-52883744D01*
X228043758Y-47604857D02*
X228367357Y-47281258D01*
X228367357Y-47281258D02*
X229261584Y-47281258D01*
X229261584Y-47281258D02*
X242345000Y-34197842D01*
X242345000Y-34197842D02*
X242345000Y-27650001D01*
X242345000Y-27650001D02*
X241570000Y-26875001D01*
X241570000Y-26875001D02*
X241570000Y-26350000D01*
X243570000Y-26300000D02*
X242795000Y-25525000D01*
X243570000Y-26350000D02*
X243570000Y-26300000D01*
X242795000Y-25525000D02*
X242795000Y-19083800D01*
X242637500Y-17832501D02*
X242637500Y-16745000D01*
X242612500Y-18901300D02*
X242612500Y-17857501D01*
X242612500Y-17857501D02*
X242637500Y-17832501D01*
X242795000Y-19083800D02*
X242612500Y-18901300D01*
D26*
X243637500Y-17708602D02*
X243637500Y-16745000D01*
X243549101Y-17797001D02*
X243637500Y-17708602D01*
X242725899Y-17797001D02*
X243549101Y-17797001D01*
X242637500Y-17708602D02*
X242725899Y-17797001D01*
X242637500Y-16745000D02*
X242637500Y-17708602D01*
D27*
X228493749Y-47791249D02*
X228493749Y-53070136D01*
X200938987Y-77765598D02*
X200873494Y-77780546D01*
X191770000Y-85996397D02*
X191770000Y-87900000D01*
X195178905Y-82587492D02*
X191770000Y-85996397D01*
X195695393Y-82587492D02*
X195178905Y-82587492D01*
X242795000Y-27650001D02*
X242795000Y-34397546D01*
X197731099Y-80551786D02*
X195695393Y-82587492D01*
X197731099Y-79861427D02*
X197731099Y-80551786D01*
X198923927Y-78668599D02*
X197731099Y-79861427D01*
X199114410Y-78668599D02*
X198923927Y-78668599D01*
X200198500Y-77595148D02*
X200145977Y-77637033D01*
X201080021Y-76702988D02*
X200994504Y-76788505D01*
X200324520Y-77551052D02*
X200259025Y-77566002D01*
X200457193Y-77566001D02*
X200391698Y-77551053D01*
X200517718Y-77595149D02*
X200457193Y-77566001D01*
X201093922Y-77642042D02*
X201052036Y-77694564D01*
X200740821Y-77765597D02*
X200680294Y-77736451D01*
X203346138Y-74420258D02*
X202074184Y-74420258D01*
X200570242Y-77637034D02*
X200517718Y-77595149D01*
X212335154Y-65431242D02*
X203346138Y-74420258D01*
X200873494Y-77780546D02*
X200806314Y-77780547D01*
X201138018Y-77516022D02*
X201123068Y-77581517D01*
X200259025Y-77566002D02*
X200198500Y-77595148D01*
X216132643Y-65431242D02*
X212335154Y-65431242D01*
X228553749Y-47731249D02*
X228493749Y-47791249D01*
X200994505Y-77212769D02*
X201052036Y-77270300D01*
X202074184Y-74420258D02*
X201183978Y-75195597D01*
X200627772Y-77694564D02*
X200570242Y-77637034D01*
X201052036Y-77270300D02*
X201093921Y-77322824D01*
X242795000Y-34397546D02*
X229461297Y-47731249D01*
X201138017Y-77448844D02*
X201138018Y-77516022D01*
X200680294Y-77736451D02*
X200627772Y-77694564D01*
X243570000Y-26875001D02*
X242795000Y-27650001D01*
X200806314Y-77780547D02*
X200740821Y-77765597D01*
X229461297Y-47731249D02*
X228553749Y-47731249D01*
X200145977Y-77637033D02*
X199114410Y-78668599D01*
X200908523Y-76967048D02*
X200908524Y-77034226D01*
X201093921Y-77322824D02*
X201123069Y-77383349D01*
X243570000Y-26350000D02*
X243570000Y-26875001D01*
X201183978Y-75195597D02*
X201080021Y-76702988D01*
X200391698Y-77551053D02*
X200324520Y-77551052D01*
X200994504Y-76788505D02*
X200952619Y-76841028D01*
X200999514Y-77736450D02*
X200938987Y-77765598D01*
X200952619Y-76841028D02*
X200923473Y-76901553D01*
X200923473Y-76901553D02*
X200908523Y-76967048D01*
X201052036Y-77694564D02*
X200999514Y-77736450D01*
X200908524Y-77034226D02*
X200923472Y-77099721D01*
X200923472Y-77099721D02*
X200952620Y-77160246D01*
X201123068Y-77581517D02*
X201093922Y-77642042D01*
X200952620Y-77160246D02*
X200994505Y-77212769D01*
X201123069Y-77383349D02*
X201138017Y-77448844D01*
X228493749Y-53070136D02*
X216132643Y-65431242D01*
D26*
X173073815Y-102151185D02*
X173170506Y-102230537D01*
X173280820Y-102289502D01*
X173400518Y-102325812D01*
X173525000Y-102338072D01*
X174075000Y-102338072D01*
X174199482Y-102325812D01*
X174200000Y-102325655D01*
X174200518Y-102325812D01*
X174325000Y-102338072D01*
X174875000Y-102338072D01*
X174999482Y-102325812D01*
X175000000Y-102325655D01*
X175000518Y-102325812D01*
X175125000Y-102338072D01*
X175675000Y-102338072D01*
X175799482Y-102325812D01*
X175800000Y-102325655D01*
X175800518Y-102325812D01*
X175925000Y-102338072D01*
X176040298Y-102338072D01*
X175837649Y-102540721D01*
X175808579Y-102564578D01*
X175784722Y-102593648D01*
X175784721Y-102593649D01*
X175713355Y-102680608D01*
X175691269Y-102721928D01*
X175300000Y-102721928D01*
X175175518Y-102734188D01*
X175055820Y-102770498D01*
X174945506Y-102829463D01*
X174848815Y-102908815D01*
X174769463Y-103005506D01*
X174710498Y-103115820D01*
X174674188Y-103235518D01*
X174661928Y-103360000D01*
X174661928Y-103610500D01*
X173970225Y-103610500D01*
X173933405Y-103541614D01*
X173822962Y-103407038D01*
X173688386Y-103296595D01*
X173534850Y-103214528D01*
X173368254Y-103163992D01*
X173195000Y-103146928D01*
X172245000Y-103146928D01*
X172071746Y-103163992D01*
X171905150Y-103214528D01*
X171751614Y-103296595D01*
X171617038Y-103407038D01*
X171506595Y-103541614D01*
X171424528Y-103695150D01*
X171373992Y-103861746D01*
X171356928Y-104035000D01*
X171356928Y-104710000D01*
X171373992Y-104883254D01*
X171424528Y-105049850D01*
X171506595Y-105203386D01*
X171617038Y-105337962D01*
X171623594Y-105343342D01*
X171543815Y-105408815D01*
X171464463Y-105505506D01*
X171405498Y-105615820D01*
X171369188Y-105735518D01*
X171356928Y-105860000D01*
X171360000Y-106161750D01*
X171518750Y-106320500D01*
X172593000Y-106320500D01*
X172593000Y-106300500D01*
X172847000Y-106300500D01*
X172847000Y-106320500D01*
X173921250Y-106320500D01*
X174080000Y-106161750D01*
X174083072Y-105860000D01*
X174070812Y-105735518D01*
X174034502Y-105615820D01*
X173975537Y-105505506D01*
X173896185Y-105408815D01*
X173816406Y-105343342D01*
X173822962Y-105337962D01*
X173933405Y-105203386D01*
X173970225Y-105134500D01*
X174661928Y-105134500D01*
X174661928Y-105160000D01*
X174674188Y-105284482D01*
X174710498Y-105404180D01*
X174713609Y-105410000D01*
X174710498Y-105415820D01*
X174674188Y-105535518D01*
X174661928Y-105660000D01*
X174665000Y-106274250D01*
X174823750Y-106433000D01*
X176223000Y-106433000D01*
X176223000Y-106413000D01*
X176477000Y-106413000D01*
X176477000Y-106433000D01*
X176497000Y-106433000D01*
X176497000Y-106687000D01*
X176477000Y-106687000D01*
X176477000Y-106707000D01*
X176223000Y-106707000D01*
X176223000Y-106687000D01*
X174823750Y-106687000D01*
X174665000Y-106845750D01*
X174661928Y-107460000D01*
X174674188Y-107584482D01*
X174710498Y-107704180D01*
X174769463Y-107814494D01*
X174848815Y-107911185D01*
X174945506Y-107990537D01*
X175055820Y-108049502D01*
X175175518Y-108085812D01*
X175182514Y-108086501D01*
X172858170Y-108086501D01*
X172437959Y-107666291D01*
X172593000Y-107511250D01*
X172593000Y-106574500D01*
X172847000Y-106574500D01*
X172847000Y-107511250D01*
X173005750Y-107670000D01*
X173445000Y-107673072D01*
X173569482Y-107660812D01*
X173689180Y-107624502D01*
X173799494Y-107565537D01*
X173896185Y-107486185D01*
X173975537Y-107389494D01*
X174034502Y-107279180D01*
X174070812Y-107159482D01*
X174083072Y-107035000D01*
X174080000Y-106733250D01*
X173921250Y-106574500D01*
X172847000Y-106574500D01*
X172593000Y-106574500D01*
X171518750Y-106574500D01*
X171432459Y-106660791D01*
X170307000Y-105535332D01*
X170307000Y-102108000D01*
X173038374Y-102108000D01*
X173073815Y-102151185D01*
G04 #@! TA.AperFunction,Conductor*
D28*
G36*
X173073815Y-102151185D02*
G01*
X173170506Y-102230537D01*
X173280820Y-102289502D01*
X173400518Y-102325812D01*
X173525000Y-102338072D01*
X174075000Y-102338072D01*
X174199482Y-102325812D01*
X174200000Y-102325655D01*
X174200518Y-102325812D01*
X174325000Y-102338072D01*
X174875000Y-102338072D01*
X174999482Y-102325812D01*
X175000000Y-102325655D01*
X175000518Y-102325812D01*
X175125000Y-102338072D01*
X175675000Y-102338072D01*
X175799482Y-102325812D01*
X175800000Y-102325655D01*
X175800518Y-102325812D01*
X175925000Y-102338072D01*
X176040298Y-102338072D01*
X175837649Y-102540721D01*
X175808579Y-102564578D01*
X175784722Y-102593648D01*
X175784721Y-102593649D01*
X175713355Y-102680608D01*
X175691269Y-102721928D01*
X175300000Y-102721928D01*
X175175518Y-102734188D01*
X175055820Y-102770498D01*
X174945506Y-102829463D01*
X174848815Y-102908815D01*
X174769463Y-103005506D01*
X174710498Y-103115820D01*
X174674188Y-103235518D01*
X174661928Y-103360000D01*
X174661928Y-103610500D01*
X173970225Y-103610500D01*
X173933405Y-103541614D01*
X173822962Y-103407038D01*
X173688386Y-103296595D01*
X173534850Y-103214528D01*
X173368254Y-103163992D01*
X173195000Y-103146928D01*
X172245000Y-103146928D01*
X172071746Y-103163992D01*
X171905150Y-103214528D01*
X171751614Y-103296595D01*
X171617038Y-103407038D01*
X171506595Y-103541614D01*
X171424528Y-103695150D01*
X171373992Y-103861746D01*
X171356928Y-104035000D01*
X171356928Y-104710000D01*
X171373992Y-104883254D01*
X171424528Y-105049850D01*
X171506595Y-105203386D01*
X171617038Y-105337962D01*
X171623594Y-105343342D01*
X171543815Y-105408815D01*
X171464463Y-105505506D01*
X171405498Y-105615820D01*
X171369188Y-105735518D01*
X171356928Y-105860000D01*
X171360000Y-106161750D01*
X171518750Y-106320500D01*
X172593000Y-106320500D01*
X172593000Y-106300500D01*
X172847000Y-106300500D01*
X172847000Y-106320500D01*
X173921250Y-106320500D01*
X174080000Y-106161750D01*
X174083072Y-105860000D01*
X174070812Y-105735518D01*
X174034502Y-105615820D01*
X173975537Y-105505506D01*
X173896185Y-105408815D01*
X173816406Y-105343342D01*
X173822962Y-105337962D01*
X173933405Y-105203386D01*
X173970225Y-105134500D01*
X174661928Y-105134500D01*
X174661928Y-105160000D01*
X174674188Y-105284482D01*
X174710498Y-105404180D01*
X174713609Y-105410000D01*
X174710498Y-105415820D01*
X174674188Y-105535518D01*
X174661928Y-105660000D01*
X174665000Y-106274250D01*
X174823750Y-106433000D01*
X176223000Y-106433000D01*
X176223000Y-106413000D01*
X176477000Y-106413000D01*
X176477000Y-106433000D01*
X176497000Y-106433000D01*
X176497000Y-106687000D01*
X176477000Y-106687000D01*
X176477000Y-106707000D01*
X176223000Y-106707000D01*
X176223000Y-106687000D01*
X174823750Y-106687000D01*
X174665000Y-106845750D01*
X174661928Y-107460000D01*
X174674188Y-107584482D01*
X174710498Y-107704180D01*
X174769463Y-107814494D01*
X174848815Y-107911185D01*
X174945506Y-107990537D01*
X175055820Y-108049502D01*
X175175518Y-108085812D01*
X175182514Y-108086501D01*
X172858170Y-108086501D01*
X172437959Y-107666291D01*
X172593000Y-107511250D01*
X172593000Y-106574500D01*
X172847000Y-106574500D01*
X172847000Y-107511250D01*
X173005750Y-107670000D01*
X173445000Y-107673072D01*
X173569482Y-107660812D01*
X173689180Y-107624502D01*
X173799494Y-107565537D01*
X173896185Y-107486185D01*
X173975537Y-107389494D01*
X174034502Y-107279180D01*
X174070812Y-107159482D01*
X174083072Y-107035000D01*
X174080000Y-106733250D01*
X173921250Y-106574500D01*
X172847000Y-106574500D01*
X172593000Y-106574500D01*
X171518750Y-106574500D01*
X171432459Y-106660791D01*
X170307000Y-105535332D01*
X170307000Y-102108000D01*
X173038374Y-102108000D01*
X173073815Y-102151185D01*
G37*
G04 #@! TD.AperFunction*
D26*
X179432656Y-102192068D02*
X179433647Y-102195335D01*
X179510301Y-102338744D01*
X179530538Y-102363402D01*
X179613459Y-102464443D01*
X179644966Y-102490300D01*
X179878289Y-102723623D01*
X179535750Y-102725000D01*
X179377000Y-102883750D01*
X179377000Y-104133000D01*
X180776250Y-104133000D01*
X180935000Y-103974250D01*
X180935965Y-103781301D01*
X180960709Y-103806045D01*
X180986557Y-103837541D01*
X181018053Y-103863389D01*
X181018056Y-103863392D01*
X181112255Y-103940699D01*
X181255664Y-104017353D01*
X181411272Y-104064556D01*
X181519883Y-104075253D01*
X181520000Y-104086750D01*
X181678750Y-104245500D01*
X182753000Y-104245500D01*
X182753000Y-104225500D01*
X183007000Y-104225500D01*
X183007000Y-104245500D01*
X184081250Y-104245500D01*
X184240000Y-104086750D01*
X184240104Y-104076500D01*
X185226568Y-104076500D01*
X185293000Y-104142933D01*
X185293000Y-108086501D01*
X180417486Y-108086501D01*
X180424482Y-108085812D01*
X180544180Y-108049502D01*
X180654494Y-107990537D01*
X180751185Y-107911185D01*
X180830537Y-107814494D01*
X180889502Y-107704180D01*
X180925812Y-107584482D01*
X180938072Y-107460000D01*
X180938072Y-107209500D01*
X181629775Y-107209500D01*
X181666595Y-107278386D01*
X181777038Y-107412962D01*
X181911614Y-107523405D01*
X182065150Y-107605472D01*
X182231746Y-107656008D01*
X182405000Y-107673072D01*
X183355000Y-107673072D01*
X183528254Y-107656008D01*
X183694850Y-107605472D01*
X183848386Y-107523405D01*
X183982962Y-107412962D01*
X184093405Y-107278386D01*
X184175472Y-107124850D01*
X184226008Y-106958254D01*
X184243072Y-106785000D01*
X184243072Y-106110000D01*
X184226008Y-105936746D01*
X184175472Y-105770150D01*
X184093405Y-105616614D01*
X183982962Y-105482038D01*
X183976406Y-105476658D01*
X184056185Y-105411185D01*
X184135537Y-105314494D01*
X184194502Y-105204180D01*
X184230812Y-105084482D01*
X184243072Y-104960000D01*
X184240000Y-104658250D01*
X184081250Y-104499500D01*
X183007000Y-104499500D01*
X183007000Y-104519500D01*
X182753000Y-104519500D01*
X182753000Y-104499500D01*
X181678750Y-104499500D01*
X181520000Y-104658250D01*
X181516928Y-104960000D01*
X181529188Y-105084482D01*
X181565498Y-105204180D01*
X181624463Y-105314494D01*
X181703815Y-105411185D01*
X181783594Y-105476658D01*
X181777038Y-105482038D01*
X181666595Y-105616614D01*
X181629775Y-105685500D01*
X180938072Y-105685500D01*
X180938072Y-105660000D01*
X180925812Y-105535518D01*
X180889502Y-105415820D01*
X180886391Y-105410000D01*
X180889502Y-105404180D01*
X180925812Y-105284482D01*
X180938072Y-105160000D01*
X180935000Y-104545750D01*
X180776250Y-104387000D01*
X179377000Y-104387000D01*
X179377000Y-104407000D01*
X179123000Y-104407000D01*
X179123000Y-104387000D01*
X179103000Y-104387000D01*
X179103000Y-104133000D01*
X179123000Y-104133000D01*
X179123000Y-102883750D01*
X178964250Y-102725000D01*
X178895905Y-102724725D01*
X179112347Y-102508283D01*
X179141422Y-102484422D01*
X179204982Y-102406974D01*
X179236645Y-102368393D01*
X179307401Y-102236016D01*
X179307402Y-102236015D01*
X179337210Y-102137751D01*
X179361626Y-102108000D01*
X179407154Y-102108000D01*
X179432656Y-102192068D01*
G04 #@! TA.AperFunction,Conductor*
D28*
G36*
X179432656Y-102192068D02*
G01*
X179433647Y-102195335D01*
X179510301Y-102338744D01*
X179530538Y-102363402D01*
X179613459Y-102464443D01*
X179644966Y-102490300D01*
X179878289Y-102723623D01*
X179535750Y-102725000D01*
X179377000Y-102883750D01*
X179377000Y-104133000D01*
X180776250Y-104133000D01*
X180935000Y-103974250D01*
X180935965Y-103781301D01*
X180960709Y-103806045D01*
X180986557Y-103837541D01*
X181018053Y-103863389D01*
X181018056Y-103863392D01*
X181112255Y-103940699D01*
X181255664Y-104017353D01*
X181411272Y-104064556D01*
X181519883Y-104075253D01*
X181520000Y-104086750D01*
X181678750Y-104245500D01*
X182753000Y-104245500D01*
X182753000Y-104225500D01*
X183007000Y-104225500D01*
X183007000Y-104245500D01*
X184081250Y-104245500D01*
X184240000Y-104086750D01*
X184240104Y-104076500D01*
X185226568Y-104076500D01*
X185293000Y-104142933D01*
X185293000Y-108086501D01*
X180417486Y-108086501D01*
X180424482Y-108085812D01*
X180544180Y-108049502D01*
X180654494Y-107990537D01*
X180751185Y-107911185D01*
X180830537Y-107814494D01*
X180889502Y-107704180D01*
X180925812Y-107584482D01*
X180938072Y-107460000D01*
X180938072Y-107209500D01*
X181629775Y-107209500D01*
X181666595Y-107278386D01*
X181777038Y-107412962D01*
X181911614Y-107523405D01*
X182065150Y-107605472D01*
X182231746Y-107656008D01*
X182405000Y-107673072D01*
X183355000Y-107673072D01*
X183528254Y-107656008D01*
X183694850Y-107605472D01*
X183848386Y-107523405D01*
X183982962Y-107412962D01*
X184093405Y-107278386D01*
X184175472Y-107124850D01*
X184226008Y-106958254D01*
X184243072Y-106785000D01*
X184243072Y-106110000D01*
X184226008Y-105936746D01*
X184175472Y-105770150D01*
X184093405Y-105616614D01*
X183982962Y-105482038D01*
X183976406Y-105476658D01*
X184056185Y-105411185D01*
X184135537Y-105314494D01*
X184194502Y-105204180D01*
X184230812Y-105084482D01*
X184243072Y-104960000D01*
X184240000Y-104658250D01*
X184081250Y-104499500D01*
X183007000Y-104499500D01*
X183007000Y-104519500D01*
X182753000Y-104519500D01*
X182753000Y-104499500D01*
X181678750Y-104499500D01*
X181520000Y-104658250D01*
X181516928Y-104960000D01*
X181529188Y-105084482D01*
X181565498Y-105204180D01*
X181624463Y-105314494D01*
X181703815Y-105411185D01*
X181783594Y-105476658D01*
X181777038Y-105482038D01*
X181666595Y-105616614D01*
X181629775Y-105685500D01*
X180938072Y-105685500D01*
X180938072Y-105660000D01*
X180925812Y-105535518D01*
X180889502Y-105415820D01*
X180886391Y-105410000D01*
X180889502Y-105404180D01*
X180925812Y-105284482D01*
X180938072Y-105160000D01*
X180935000Y-104545750D01*
X180776250Y-104387000D01*
X179377000Y-104387000D01*
X179377000Y-104407000D01*
X179123000Y-104407000D01*
X179123000Y-104387000D01*
X179103000Y-104387000D01*
X179103000Y-104133000D01*
X179123000Y-104133000D01*
X179123000Y-102883750D01*
X178964250Y-102725000D01*
X178895905Y-102724725D01*
X179112347Y-102508283D01*
X179141422Y-102484422D01*
X179204982Y-102406974D01*
X179236645Y-102368393D01*
X179307401Y-102236016D01*
X179307402Y-102236015D01*
X179337210Y-102137751D01*
X179361626Y-102108000D01*
X179407154Y-102108000D01*
X179432656Y-102192068D01*
G37*
G04 #@! TD.AperFunction*
M02*
