G04 #@! TF.GenerationSoftware,KiCad,Pcbnew,(5.1.9)-1*
G04 #@! TF.CreationDate,2021-03-29T17:21:37+03:00*
G04 #@! TF.ProjectId,hotshot_keyboard,686f7473-686f-4745-9f6b-6579626f6172,rev?*
G04 #@! TF.SameCoordinates,Original*
G04 #@! TF.FileFunction,Soldermask,Bot*
G04 #@! TF.FilePolarity,Negative*
%FSLAX46Y46*%
G04 Gerber Fmt 4.6, Leading zero omitted, Abs format (unit mm)*
G04 Created by KiCad (PCBNEW (5.1.9)-1) date 2021-03-29 17:21:37*
%MOMM*%
%LPD*%
G01*
G04 APERTURE LIST*
%ADD10C,1.750000*%
%ADD11C,2.250000*%
%ADD12C,3.987800*%
%ADD13C,3.048000*%
%ADD14R,1.200000X0.900000*%
%ADD15R,0.700000X0.600000*%
%ADD16R,0.700000X1.000000*%
%ADD17R,2.100000X1.800000*%
%ADD18R,0.550000X1.500000*%
%ADD19R,1.500000X0.550000*%
%ADD20R,1.800000X1.100000*%
%ADD21R,0.600000X1.450000*%
%ADD22R,0.300000X1.450000*%
%ADD23O,1.000000X2.100000*%
%ADD24C,0.650000*%
%ADD25O,1.000000X1.600000*%
%ADD26R,1.700000X1.700000*%
%ADD27C,1.700000*%
G04 APERTURE END LIST*
D10*
X176530000Y-61912500D03*
X166370000Y-61912500D03*
D11*
X168950000Y-57912500D03*
D12*
X171450000Y-61912500D03*
G36*
G01*
X166888688Y-60209850D02*
X166888683Y-60209845D01*
G75*
G02*
X166802655Y-58621183I751317J837345D01*
G01*
X168112657Y-57161183D01*
G75*
G02*
X169701319Y-57075155I837345J-751317D01*
G01*
X169701319Y-57075155D01*
G75*
G02*
X169787347Y-58663817I-751317J-837345D01*
G01*
X168477345Y-60123817D01*
G75*
G02*
X166888683Y-60209845I-837345J751317D01*
G01*
G37*
D11*
X173990000Y-56832500D03*
G36*
G01*
X173873483Y-58534895D02*
X173872597Y-58534834D01*
G75*
G02*
X172827666Y-57335097I77403J1122334D01*
G01*
X172867666Y-56755097D01*
G75*
G02*
X174067403Y-55710166I1122334J-77403D01*
G01*
X174067403Y-55710166D01*
G75*
G02*
X175112334Y-56909903I-77403J-1122334D01*
G01*
X175072334Y-57489903D01*
G75*
G02*
X173872597Y-58534834I-1122334J77403D01*
G01*
G37*
D10*
X214630000Y-61912500D03*
X204470000Y-61912500D03*
D11*
X207050000Y-57912500D03*
D12*
X209550000Y-61912500D03*
G36*
G01*
X204988688Y-60209850D02*
X204988683Y-60209845D01*
G75*
G02*
X204902655Y-58621183I751317J837345D01*
G01*
X206212657Y-57161183D01*
G75*
G02*
X207801319Y-57075155I837345J-751317D01*
G01*
X207801319Y-57075155D01*
G75*
G02*
X207887347Y-58663817I-751317J-837345D01*
G01*
X206577345Y-60123817D01*
G75*
G02*
X204988683Y-60209845I-837345J751317D01*
G01*
G37*
D11*
X212090000Y-56832500D03*
G36*
G01*
X211973483Y-58534895D02*
X211972597Y-58534834D01*
G75*
G02*
X210927666Y-57335097I77403J1122334D01*
G01*
X210967666Y-56755097D01*
G75*
G02*
X212167403Y-55710166I1122334J-77403D01*
G01*
X212167403Y-55710166D01*
G75*
G02*
X213212334Y-56909903I-77403J-1122334D01*
G01*
X213172334Y-57489903D01*
G75*
G02*
X211972597Y-58534834I-1122334J77403D01*
G01*
G37*
D12*
X195256150Y-91757500D03*
X95256350Y-91757500D03*
D13*
X195256150Y-106997500D03*
X95256350Y-106997500D03*
D10*
X150336250Y-100012500D03*
X140176250Y-100012500D03*
D11*
X142756250Y-96012500D03*
D12*
X145256250Y-100012500D03*
G36*
G01*
X140694938Y-98309850D02*
X140694933Y-98309845D01*
G75*
G02*
X140608905Y-96721183I751317J837345D01*
G01*
X141918907Y-95261183D01*
G75*
G02*
X143507569Y-95175155I837345J-751317D01*
G01*
X143507569Y-95175155D01*
G75*
G02*
X143593597Y-96763817I-751317J-837345D01*
G01*
X142283595Y-98223817D01*
G75*
G02*
X140694933Y-98309845I-837345J751317D01*
G01*
G37*
D11*
X147796250Y-94932500D03*
G36*
G01*
X147679733Y-96634895D02*
X147678847Y-96634834D01*
G75*
G02*
X146633916Y-95435097I77403J1122334D01*
G01*
X146673916Y-94855097D01*
G75*
G02*
X147873653Y-93810166I1122334J-77403D01*
G01*
X147873653Y-93810166D01*
G75*
G02*
X148918584Y-95009903I-77403J-1122334D01*
G01*
X148878584Y-95589903D01*
G75*
G02*
X147678847Y-96634834I-1122334J77403D01*
G01*
G37*
G36*
G01*
X235725000Y-33645000D02*
X235725000Y-32395000D01*
G75*
G02*
X235975000Y-32145000I250000J0D01*
G01*
X236900000Y-32145000D01*
G75*
G02*
X237150000Y-32395000I0J-250000D01*
G01*
X237150000Y-33645000D01*
G75*
G02*
X236900000Y-33895000I-250000J0D01*
G01*
X235975000Y-33895000D01*
G75*
G02*
X235725000Y-33645000I0J250000D01*
G01*
G37*
G36*
G01*
X232750000Y-33645000D02*
X232750000Y-32395000D01*
G75*
G02*
X233000000Y-32145000I250000J0D01*
G01*
X233925000Y-32145000D01*
G75*
G02*
X234175000Y-32395000I0J-250000D01*
G01*
X234175000Y-33645000D01*
G75*
G02*
X233925000Y-33895000I-250000J0D01*
G01*
X233000000Y-33895000D01*
G75*
G02*
X232750000Y-33645000I0J250000D01*
G01*
G37*
D10*
X267017500Y-42862500D03*
X256857500Y-42862500D03*
D11*
X259437500Y-38862500D03*
D12*
X261937500Y-42862500D03*
G36*
G01*
X257376188Y-41159850D02*
X257376183Y-41159845D01*
G75*
G02*
X257290155Y-39571183I751317J837345D01*
G01*
X258600157Y-38111183D01*
G75*
G02*
X260188819Y-38025155I837345J-751317D01*
G01*
X260188819Y-38025155D01*
G75*
G02*
X260274847Y-39613817I-751317J-837345D01*
G01*
X258964845Y-41073817D01*
G75*
G02*
X257376183Y-41159845I-837345J751317D01*
G01*
G37*
D11*
X264477500Y-37782500D03*
G36*
G01*
X264360983Y-39484895D02*
X264360097Y-39484834D01*
G75*
G02*
X263315166Y-38285097I77403J1122334D01*
G01*
X263355166Y-37705097D01*
G75*
G02*
X264554903Y-36660166I1122334J-77403D01*
G01*
X264554903Y-36660166D01*
G75*
G02*
X265599834Y-37859903I-77403J-1122334D01*
G01*
X265559834Y-38439903D01*
G75*
G02*
X264360097Y-39484834I-1122334J77403D01*
G01*
G37*
D10*
X224155000Y-80962500D03*
X213995000Y-80962500D03*
D11*
X216575000Y-76962500D03*
D12*
X219075000Y-80962500D03*
G36*
G01*
X214513688Y-79259850D02*
X214513683Y-79259845D01*
G75*
G02*
X214427655Y-77671183I751317J837345D01*
G01*
X215737657Y-76211183D01*
G75*
G02*
X217326319Y-76125155I837345J-751317D01*
G01*
X217326319Y-76125155D01*
G75*
G02*
X217412347Y-77713817I-751317J-837345D01*
G01*
X216102345Y-79173817D01*
G75*
G02*
X214513683Y-79259845I-837345J751317D01*
G01*
G37*
D11*
X221615000Y-75882500D03*
G36*
G01*
X221498483Y-77584895D02*
X221497597Y-77584834D01*
G75*
G02*
X220452666Y-76385097I77403J1122334D01*
G01*
X220492666Y-75805097D01*
G75*
G02*
X221692403Y-74760166I1122334J-77403D01*
G01*
X221692403Y-74760166D01*
G75*
G02*
X222737334Y-75959903I-77403J-1122334D01*
G01*
X222697334Y-76539903D01*
G75*
G02*
X221497597Y-77584834I-1122334J77403D01*
G01*
G37*
D10*
X62230000Y-61912500D03*
X52070000Y-61912500D03*
D11*
X54650000Y-57912500D03*
D12*
X57150000Y-61912500D03*
G36*
G01*
X52588688Y-60209850D02*
X52588683Y-60209845D01*
G75*
G02*
X52502655Y-58621183I751317J837345D01*
G01*
X53812657Y-57161183D01*
G75*
G02*
X55401319Y-57075155I837345J-751317D01*
G01*
X55401319Y-57075155D01*
G75*
G02*
X55487347Y-58663817I-751317J-837345D01*
G01*
X54177345Y-60123817D01*
G75*
G02*
X52588683Y-60209845I-837345J751317D01*
G01*
G37*
D11*
X59690000Y-56832500D03*
G36*
G01*
X59573483Y-58534895D02*
X59572597Y-58534834D01*
G75*
G02*
X58527666Y-57335097I77403J1122334D01*
G01*
X58567666Y-56755097D01*
G75*
G02*
X59767403Y-55710166I1122334J-77403D01*
G01*
X59767403Y-55710166D01*
G75*
G02*
X60812334Y-56909903I-77403J-1122334D01*
G01*
X60772334Y-57489903D01*
G75*
G02*
X59572597Y-58534834I-1122334J77403D01*
G01*
G37*
D10*
X247967500Y-42862500D03*
X237807500Y-42862500D03*
D11*
X240387500Y-38862500D03*
D12*
X242887500Y-42862500D03*
G36*
G01*
X238326188Y-41159850D02*
X238326183Y-41159845D01*
G75*
G02*
X238240155Y-39571183I751317J837345D01*
G01*
X239550157Y-38111183D01*
G75*
G02*
X241138819Y-38025155I837345J-751317D01*
G01*
X241138819Y-38025155D01*
G75*
G02*
X241224847Y-39613817I-751317J-837345D01*
G01*
X239914845Y-41073817D01*
G75*
G02*
X238326183Y-41159845I-837345J751317D01*
G01*
G37*
D11*
X245427500Y-37782500D03*
G36*
G01*
X245310983Y-39484895D02*
X245310097Y-39484834D01*
G75*
G02*
X244265166Y-38285097I77403J1122334D01*
G01*
X244305166Y-37705097D01*
G75*
G02*
X245504903Y-36660166I1122334J-77403D01*
G01*
X245504903Y-36660166D01*
G75*
G02*
X246549834Y-37859903I-77403J-1122334D01*
G01*
X246509834Y-38439903D01*
G75*
G02*
X245310097Y-39484834I-1122334J77403D01*
G01*
G37*
D10*
X57467500Y-42862500D03*
X47307500Y-42862500D03*
D11*
X49887500Y-38862500D03*
D12*
X52387500Y-42862500D03*
G36*
G01*
X47826188Y-41159850D02*
X47826183Y-41159845D01*
G75*
G02*
X47740155Y-39571183I751317J837345D01*
G01*
X49050157Y-38111183D01*
G75*
G02*
X50638819Y-38025155I837345J-751317D01*
G01*
X50638819Y-38025155D01*
G75*
G02*
X50724847Y-39613817I-751317J-837345D01*
G01*
X49414845Y-41073817D01*
G75*
G02*
X47826183Y-41159845I-837345J751317D01*
G01*
G37*
D11*
X54927500Y-37782500D03*
G36*
G01*
X54810983Y-39484895D02*
X54810097Y-39484834D01*
G75*
G02*
X53765166Y-38285097I77403J1122334D01*
G01*
X53805166Y-37705097D01*
G75*
G02*
X55004903Y-36660166I1122334J-77403D01*
G01*
X55004903Y-36660166D01*
G75*
G02*
X56049834Y-37859903I-77403J-1122334D01*
G01*
X56009834Y-38439903D01*
G75*
G02*
X54810097Y-39484834I-1122334J77403D01*
G01*
G37*
D10*
X162242500Y-23812500D03*
X152082500Y-23812500D03*
D11*
X154662500Y-19812500D03*
D12*
X157162500Y-23812500D03*
G36*
G01*
X152601188Y-22109850D02*
X152601183Y-22109845D01*
G75*
G02*
X152515155Y-20521183I751317J837345D01*
G01*
X153825157Y-19061183D01*
G75*
G02*
X155413819Y-18975155I837345J-751317D01*
G01*
X155413819Y-18975155D01*
G75*
G02*
X155499847Y-20563817I-751317J-837345D01*
G01*
X154189845Y-22023817D01*
G75*
G02*
X152601183Y-22109845I-837345J751317D01*
G01*
G37*
D11*
X159702500Y-18732500D03*
G36*
G01*
X159585983Y-20434895D02*
X159585097Y-20434834D01*
G75*
G02*
X158540166Y-19235097I77403J1122334D01*
G01*
X158580166Y-18655097D01*
G75*
G02*
X159779903Y-17610166I1122334J-77403D01*
G01*
X159779903Y-17610166D01*
G75*
G02*
X160824834Y-18809903I-77403J-1122334D01*
G01*
X160784834Y-19389903D01*
G75*
G02*
X159585097Y-20434834I-1122334J77403D01*
G01*
G37*
D10*
X143192500Y-23812500D03*
X133032500Y-23812500D03*
D11*
X135612500Y-19812500D03*
D12*
X138112500Y-23812500D03*
G36*
G01*
X133551188Y-22109850D02*
X133551183Y-22109845D01*
G75*
G02*
X133465155Y-20521183I751317J837345D01*
G01*
X134775157Y-19061183D01*
G75*
G02*
X136363819Y-18975155I837345J-751317D01*
G01*
X136363819Y-18975155D01*
G75*
G02*
X136449847Y-20563817I-751317J-837345D01*
G01*
X135139845Y-22023817D01*
G75*
G02*
X133551183Y-22109845I-837345J751317D01*
G01*
G37*
D11*
X140652500Y-18732500D03*
G36*
G01*
X140535983Y-20434895D02*
X140535097Y-20434834D01*
G75*
G02*
X139490166Y-19235097I77403J1122334D01*
G01*
X139530166Y-18655097D01*
G75*
G02*
X140729903Y-17610166I1122334J-77403D01*
G01*
X140729903Y-17610166D01*
G75*
G02*
X141774834Y-18809903I-77403J-1122334D01*
G01*
X141734834Y-19389903D01*
G75*
G02*
X140535097Y-20434834I-1122334J77403D01*
G01*
G37*
D10*
X86042500Y-23812500D03*
X75882500Y-23812500D03*
D11*
X78462500Y-19812500D03*
D12*
X80962500Y-23812500D03*
G36*
G01*
X76401188Y-22109850D02*
X76401183Y-22109845D01*
G75*
G02*
X76315155Y-20521183I751317J837345D01*
G01*
X77625157Y-19061183D01*
G75*
G02*
X79213819Y-18975155I837345J-751317D01*
G01*
X79213819Y-18975155D01*
G75*
G02*
X79299847Y-20563817I-751317J-837345D01*
G01*
X77989845Y-22023817D01*
G75*
G02*
X76401183Y-22109845I-837345J751317D01*
G01*
G37*
D11*
X83502500Y-18732500D03*
G36*
G01*
X83385983Y-20434895D02*
X83385097Y-20434834D01*
G75*
G02*
X82340166Y-19235097I77403J1122334D01*
G01*
X82380166Y-18655097D01*
G75*
G02*
X83579903Y-17610166I1122334J-77403D01*
G01*
X83579903Y-17610166D01*
G75*
G02*
X84624834Y-18809903I-77403J-1122334D01*
G01*
X84584834Y-19389903D01*
G75*
G02*
X83385097Y-20434834I-1122334J77403D01*
G01*
G37*
D14*
X238918750Y-26131250D03*
X238918750Y-29431250D03*
D10*
X124142500Y-23812500D03*
X113982500Y-23812500D03*
D11*
X116562500Y-19812500D03*
D12*
X119062500Y-23812500D03*
G36*
G01*
X114501188Y-22109850D02*
X114501183Y-22109845D01*
G75*
G02*
X114415155Y-20521183I751317J837345D01*
G01*
X115725157Y-19061183D01*
G75*
G02*
X117313819Y-18975155I837345J-751317D01*
G01*
X117313819Y-18975155D01*
G75*
G02*
X117399847Y-20563817I-751317J-837345D01*
G01*
X116089845Y-22023817D01*
G75*
G02*
X114501183Y-22109845I-837345J751317D01*
G01*
G37*
D11*
X121602500Y-18732500D03*
G36*
G01*
X121485983Y-20434895D02*
X121485097Y-20434834D01*
G75*
G02*
X120440166Y-19235097I77403J1122334D01*
G01*
X120480166Y-18655097D01*
G75*
G02*
X121679903Y-17610166I1122334J-77403D01*
G01*
X121679903Y-17610166D01*
G75*
G02*
X122724834Y-18809903I-77403J-1122334D01*
G01*
X122684834Y-19389903D01*
G75*
G02*
X121485097Y-20434834I-1122334J77403D01*
G01*
G37*
D10*
X28892500Y-23812500D03*
X18732500Y-23812500D03*
D11*
X21312500Y-19812500D03*
D12*
X23812500Y-23812500D03*
G36*
G01*
X19251188Y-22109850D02*
X19251183Y-22109845D01*
G75*
G02*
X19165155Y-20521183I751317J837345D01*
G01*
X20475157Y-19061183D01*
G75*
G02*
X22063819Y-18975155I837345J-751317D01*
G01*
X22063819Y-18975155D01*
G75*
G02*
X22149847Y-20563817I-751317J-837345D01*
G01*
X20839845Y-22023817D01*
G75*
G02*
X19251183Y-22109845I-837345J751317D01*
G01*
G37*
D11*
X26352500Y-18732500D03*
G36*
G01*
X26235983Y-20434895D02*
X26235097Y-20434834D01*
G75*
G02*
X25190166Y-19235097I77403J1122334D01*
G01*
X25230166Y-18655097D01*
G75*
G02*
X26429903Y-17610166I1122334J-77403D01*
G01*
X26429903Y-17610166D01*
G75*
G02*
X27474834Y-18809903I-77403J-1122334D01*
G01*
X27434834Y-19389903D01*
G75*
G02*
X26235097Y-20434834I-1122334J77403D01*
G01*
G37*
D10*
X233680000Y-61912500D03*
X223520000Y-61912500D03*
D11*
X226100000Y-57912500D03*
D12*
X228600000Y-61912500D03*
G36*
G01*
X224038688Y-60209850D02*
X224038683Y-60209845D01*
G75*
G02*
X223952655Y-58621183I751317J837345D01*
G01*
X225262657Y-57161183D01*
G75*
G02*
X226851319Y-57075155I837345J-751317D01*
G01*
X226851319Y-57075155D01*
G75*
G02*
X226937347Y-58663817I-751317J-837345D01*
G01*
X225627345Y-60123817D01*
G75*
G02*
X224038683Y-60209845I-837345J751317D01*
G01*
G37*
D11*
X231140000Y-56832500D03*
G36*
G01*
X231023483Y-58534895D02*
X231022597Y-58534834D01*
G75*
G02*
X229977666Y-57335097I77403J1122334D01*
G01*
X230017666Y-56755097D01*
G75*
G02*
X231217403Y-55710166I1122334J-77403D01*
G01*
X231217403Y-55710166D01*
G75*
G02*
X232262334Y-56909903I-77403J-1122334D01*
G01*
X232222334Y-57489903D01*
G75*
G02*
X231022597Y-58534834I-1122334J77403D01*
G01*
G37*
D10*
X205105000Y-80962500D03*
X194945000Y-80962500D03*
D11*
X197525000Y-76962500D03*
D12*
X200025000Y-80962500D03*
G36*
G01*
X195463688Y-79259850D02*
X195463683Y-79259845D01*
G75*
G02*
X195377655Y-77671183I751317J837345D01*
G01*
X196687657Y-76211183D01*
G75*
G02*
X198276319Y-76125155I837345J-751317D01*
G01*
X198276319Y-76125155D01*
G75*
G02*
X198362347Y-77713817I-751317J-837345D01*
G01*
X197052345Y-79173817D01*
G75*
G02*
X195463683Y-79259845I-837345J751317D01*
G01*
G37*
D11*
X202565000Y-75882500D03*
G36*
G01*
X202448483Y-77584895D02*
X202447597Y-77584834D01*
G75*
G02*
X201402666Y-76385097I77403J1122334D01*
G01*
X201442666Y-75805097D01*
G75*
G02*
X202642403Y-74760166I1122334J-77403D01*
G01*
X202642403Y-74760166D01*
G75*
G02*
X203687334Y-75959903I-77403J-1122334D01*
G01*
X203647334Y-76539903D01*
G75*
G02*
X202447597Y-77584834I-1122334J77403D01*
G01*
G37*
G36*
G01*
X186215000Y-105860000D02*
X187165000Y-105860000D01*
G75*
G02*
X187415000Y-106110000I0J-250000D01*
G01*
X187415000Y-106785000D01*
G75*
G02*
X187165000Y-107035000I-250000J0D01*
G01*
X186215000Y-107035000D01*
G75*
G02*
X185965000Y-106785000I0J250000D01*
G01*
X185965000Y-106110000D01*
G75*
G02*
X186215000Y-105860000I250000J0D01*
G01*
G37*
G36*
G01*
X186215000Y-103785000D02*
X187165000Y-103785000D01*
G75*
G02*
X187415000Y-104035000I0J-250000D01*
G01*
X187415000Y-104710000D01*
G75*
G02*
X187165000Y-104960000I-250000J0D01*
G01*
X186215000Y-104960000D01*
G75*
G02*
X185965000Y-104710000I0J250000D01*
G01*
X185965000Y-104035000D01*
G75*
G02*
X186215000Y-103785000I250000J0D01*
G01*
G37*
D10*
X257492500Y-23812500D03*
X247332500Y-23812500D03*
D11*
X249912500Y-19812500D03*
D12*
X252412500Y-23812500D03*
G36*
G01*
X247851188Y-22109850D02*
X247851183Y-22109845D01*
G75*
G02*
X247765155Y-20521183I751317J837345D01*
G01*
X249075157Y-19061183D01*
G75*
G02*
X250663819Y-18975155I837345J-751317D01*
G01*
X250663819Y-18975155D01*
G75*
G02*
X250749847Y-20563817I-751317J-837345D01*
G01*
X249439845Y-22023817D01*
G75*
G02*
X247851183Y-22109845I-837345J751317D01*
G01*
G37*
D11*
X254952500Y-18732500D03*
G36*
G01*
X254835983Y-20434895D02*
X254835097Y-20434834D01*
G75*
G02*
X253790166Y-19235097I77403J1122334D01*
G01*
X253830166Y-18655097D01*
G75*
G02*
X255029903Y-17610166I1122334J-77403D01*
G01*
X255029903Y-17610166D01*
G75*
G02*
X256074834Y-18809903I-77403J-1122334D01*
G01*
X256034834Y-19389903D01*
G75*
G02*
X254835097Y-20434834I-1122334J77403D01*
G01*
G37*
D10*
X293211250Y-100012500D03*
X283051250Y-100012500D03*
D11*
X285631250Y-96012500D03*
D12*
X288131250Y-100012500D03*
G36*
G01*
X283569938Y-98309850D02*
X283569933Y-98309845D01*
G75*
G02*
X283483905Y-96721183I751317J837345D01*
G01*
X284793907Y-95261183D01*
G75*
G02*
X286382569Y-95175155I837345J-751317D01*
G01*
X286382569Y-95175155D01*
G75*
G02*
X286468597Y-96763817I-751317J-837345D01*
G01*
X285158595Y-98223817D01*
G75*
G02*
X283569933Y-98309845I-837345J751317D01*
G01*
G37*
D11*
X290671250Y-94932500D03*
G36*
G01*
X290554733Y-96634895D02*
X290553847Y-96634834D01*
G75*
G02*
X289508916Y-95435097I77403J1122334D01*
G01*
X289548916Y-94855097D01*
G75*
G02*
X290748653Y-93810166I1122334J-77403D01*
G01*
X290748653Y-93810166D01*
G75*
G02*
X291793584Y-95009903I-77403J-1122334D01*
G01*
X291753584Y-95589903D01*
G75*
G02*
X290553847Y-96634834I-1122334J77403D01*
G01*
G37*
D15*
X241570000Y-26350000D03*
X243570000Y-26350000D03*
X241570000Y-24450000D03*
D16*
X243570000Y-24650000D03*
D12*
X285781750Y-89217500D03*
X261905750Y-89217500D03*
D13*
X285781750Y-73977500D03*
X261905750Y-73977500D03*
D10*
X278923750Y-80962500D03*
X268763750Y-80962500D03*
D11*
X271343750Y-76962500D03*
D12*
X273843750Y-80962500D03*
G36*
G01*
X269282438Y-79259850D02*
X269282433Y-79259845D01*
G75*
G02*
X269196405Y-77671183I751317J837345D01*
G01*
X270506407Y-76211183D01*
G75*
G02*
X272095069Y-76125155I837345J-751317D01*
G01*
X272095069Y-76125155D01*
G75*
G02*
X272181097Y-77713817I-751317J-837345D01*
G01*
X270871095Y-79173817D01*
G75*
G02*
X269282433Y-79259845I-837345J751317D01*
G01*
G37*
D11*
X276383750Y-75882500D03*
G36*
G01*
X276267233Y-77584895D02*
X276266347Y-77584834D01*
G75*
G02*
X275221416Y-76385097I77403J1122334D01*
G01*
X275261416Y-75805097D01*
G75*
G02*
X276461153Y-74760166I1122334J-77403D01*
G01*
X276461153Y-74760166D01*
G75*
G02*
X277506084Y-75959903I-77403J-1122334D01*
G01*
X277466084Y-76539903D01*
G75*
G02*
X276266347Y-77584834I-1122334J77403D01*
G01*
G37*
D17*
X176350000Y-106560000D03*
X179250000Y-106560000D03*
X179250000Y-104260000D03*
X176350000Y-104260000D03*
D18*
X181800000Y-89550000D03*
X181000000Y-89550000D03*
X180200000Y-89550000D03*
X179400000Y-89550000D03*
X178600000Y-89550000D03*
X177800000Y-89550000D03*
X177000000Y-89550000D03*
X176200000Y-89550000D03*
X175400000Y-89550000D03*
X174600000Y-89550000D03*
X173800000Y-89550000D03*
D19*
X172100000Y-91250000D03*
X172100000Y-92050000D03*
X172100000Y-92850000D03*
X172100000Y-93650000D03*
X172100000Y-94450000D03*
X172100000Y-95250000D03*
X172100000Y-96050000D03*
X172100000Y-96850000D03*
X172100000Y-97650000D03*
X172100000Y-98450000D03*
X172100000Y-99250000D03*
D18*
X173800000Y-100950000D03*
X174600000Y-100950000D03*
X175400000Y-100950000D03*
X176200000Y-100950000D03*
X177000000Y-100950000D03*
X177800000Y-100950000D03*
X178600000Y-100950000D03*
X179400000Y-100950000D03*
X180200000Y-100950000D03*
X181000000Y-100950000D03*
X181800000Y-100950000D03*
D19*
X183500000Y-99250000D03*
X183500000Y-98450000D03*
X183500000Y-97650000D03*
X183500000Y-96850000D03*
X183500000Y-96050000D03*
X183500000Y-95250000D03*
X183500000Y-94450000D03*
X183500000Y-93650000D03*
X183500000Y-92850000D03*
X183500000Y-92050000D03*
X183500000Y-91250000D03*
D20*
X206450000Y-107260000D03*
X212650000Y-107260000D03*
X206450000Y-103560000D03*
X212650000Y-103560000D03*
G36*
G01*
X244659999Y-18704000D02*
X245560001Y-18704000D01*
G75*
G02*
X245810000Y-18953999I0J-249999D01*
G01*
X245810000Y-19654001D01*
G75*
G02*
X245560001Y-19904000I-249999J0D01*
G01*
X244659999Y-19904000D01*
G75*
G02*
X244410000Y-19654001I0J249999D01*
G01*
X244410000Y-18953999D01*
G75*
G02*
X244659999Y-18704000I249999J0D01*
G01*
G37*
G36*
G01*
X244659999Y-20704000D02*
X245560001Y-20704000D01*
G75*
G02*
X245810000Y-20953999I0J-249999D01*
G01*
X245810000Y-21654001D01*
G75*
G02*
X245560001Y-21904000I-249999J0D01*
G01*
X244659999Y-21904000D01*
G75*
G02*
X244410000Y-21654001I0J249999D01*
G01*
X244410000Y-20953999D01*
G75*
G02*
X244659999Y-20704000I249999J0D01*
G01*
G37*
G36*
G01*
X239630000Y-21139999D02*
X239630000Y-22040001D01*
G75*
G02*
X239380001Y-22290000I-249999J0D01*
G01*
X238679999Y-22290000D01*
G75*
G02*
X238430000Y-22040001I0J249999D01*
G01*
X238430000Y-21139999D01*
G75*
G02*
X238679999Y-20890000I249999J0D01*
G01*
X239380001Y-20890000D01*
G75*
G02*
X239630000Y-21139999I0J-249999D01*
G01*
G37*
G36*
G01*
X241630000Y-21139999D02*
X241630000Y-22040001D01*
G75*
G02*
X241380001Y-22290000I-249999J0D01*
G01*
X240679999Y-22290000D01*
G75*
G02*
X240430000Y-22040001I0J249999D01*
G01*
X240430000Y-21139999D01*
G75*
G02*
X240679999Y-20890000I249999J0D01*
G01*
X241380001Y-20890000D01*
G75*
G02*
X241630000Y-21139999I0J-249999D01*
G01*
G37*
G36*
G01*
X192220001Y-88500000D02*
X191319999Y-88500000D01*
G75*
G02*
X191070000Y-88250001I0J249999D01*
G01*
X191070000Y-87549999D01*
G75*
G02*
X191319999Y-87300000I249999J0D01*
G01*
X192220001Y-87300000D01*
G75*
G02*
X192470000Y-87549999I0J-249999D01*
G01*
X192470000Y-88250001D01*
G75*
G02*
X192220001Y-88500000I-249999J0D01*
G01*
G37*
G36*
G01*
X192220001Y-90500000D02*
X191319999Y-90500000D01*
G75*
G02*
X191070000Y-90250001I0J249999D01*
G01*
X191070000Y-89549999D01*
G75*
G02*
X191319999Y-89300000I249999J0D01*
G01*
X192220001Y-89300000D01*
G75*
G02*
X192470000Y-89549999I0J-249999D01*
G01*
X192470000Y-90250001D01*
G75*
G02*
X192220001Y-90500000I-249999J0D01*
G01*
G37*
G36*
G01*
X189680001Y-88500000D02*
X188779999Y-88500000D01*
G75*
G02*
X188530000Y-88250001I0J249999D01*
G01*
X188530000Y-87549999D01*
G75*
G02*
X188779999Y-87300000I249999J0D01*
G01*
X189680001Y-87300000D01*
G75*
G02*
X189930000Y-87549999I0J-249999D01*
G01*
X189930000Y-88250001D01*
G75*
G02*
X189680001Y-88500000I-249999J0D01*
G01*
G37*
G36*
G01*
X189680001Y-90500000D02*
X188779999Y-90500000D01*
G75*
G02*
X188530000Y-90250001I0J249999D01*
G01*
X188530000Y-89549999D01*
G75*
G02*
X188779999Y-89300000I249999J0D01*
G01*
X189680001Y-89300000D01*
G75*
G02*
X189930000Y-89549999I0J-249999D01*
G01*
X189930000Y-90250001D01*
G75*
G02*
X189680001Y-90500000I-249999J0D01*
G01*
G37*
G36*
G01*
X169360001Y-89770000D02*
X168459999Y-89770000D01*
G75*
G02*
X168210000Y-89520001I0J249999D01*
G01*
X168210000Y-88819999D01*
G75*
G02*
X168459999Y-88570000I249999J0D01*
G01*
X169360001Y-88570000D01*
G75*
G02*
X169610000Y-88819999I0J-249999D01*
G01*
X169610000Y-89520001D01*
G75*
G02*
X169360001Y-89770000I-249999J0D01*
G01*
G37*
G36*
G01*
X169360001Y-91770000D02*
X168459999Y-91770000D01*
G75*
G02*
X168210000Y-91520001I0J249999D01*
G01*
X168210000Y-90819999D01*
G75*
G02*
X168459999Y-90570000I249999J0D01*
G01*
X169360001Y-90570000D01*
G75*
G02*
X169610000Y-90819999I0J-249999D01*
G01*
X169610000Y-91520001D01*
G75*
G02*
X169360001Y-91770000I-249999J0D01*
G01*
G37*
G36*
G01*
X202749999Y-105810000D02*
X203650001Y-105810000D01*
G75*
G02*
X203900000Y-106059999I0J-249999D01*
G01*
X203900000Y-106760001D01*
G75*
G02*
X203650001Y-107010000I-249999J0D01*
G01*
X202749999Y-107010000D01*
G75*
G02*
X202500000Y-106760001I0J249999D01*
G01*
X202500000Y-106059999D01*
G75*
G02*
X202749999Y-105810000I249999J0D01*
G01*
G37*
G36*
G01*
X202749999Y-103810000D02*
X203650001Y-103810000D01*
G75*
G02*
X203900000Y-104059999I0J-249999D01*
G01*
X203900000Y-104760001D01*
G75*
G02*
X203650001Y-105010000I-249999J0D01*
G01*
X202749999Y-105010000D01*
G75*
G02*
X202500000Y-104760001I0J249999D01*
G01*
X202500000Y-104059999D01*
G75*
G02*
X202749999Y-103810000I249999J0D01*
G01*
G37*
D10*
X269398750Y-100012500D03*
X259238750Y-100012500D03*
D11*
X261818750Y-96012500D03*
D12*
X264318750Y-100012500D03*
G36*
G01*
X259757438Y-98309850D02*
X259757433Y-98309845D01*
G75*
G02*
X259671405Y-96721183I751317J837345D01*
G01*
X260981407Y-95261183D01*
G75*
G02*
X262570069Y-95175155I837345J-751317D01*
G01*
X262570069Y-95175155D01*
G75*
G02*
X262656097Y-96763817I-751317J-837345D01*
G01*
X261346095Y-98223817D01*
G75*
G02*
X259757433Y-98309845I-837345J751317D01*
G01*
G37*
D11*
X266858750Y-94932500D03*
G36*
G01*
X266742233Y-96634895D02*
X266741347Y-96634834D01*
G75*
G02*
X265696416Y-95435097I77403J1122334D01*
G01*
X265736416Y-94855097D01*
G75*
G02*
X266936153Y-93810166I1122334J-77403D01*
G01*
X266936153Y-93810166D01*
G75*
G02*
X267981084Y-95009903I-77403J-1122334D01*
G01*
X267941084Y-95589903D01*
G75*
G02*
X266741347Y-96634834I-1122334J77403D01*
G01*
G37*
D10*
X245586250Y-100012500D03*
X235426250Y-100012500D03*
D11*
X238006250Y-96012500D03*
D12*
X240506250Y-100012500D03*
G36*
G01*
X235944938Y-98309850D02*
X235944933Y-98309845D01*
G75*
G02*
X235858905Y-96721183I751317J837345D01*
G01*
X237168907Y-95261183D01*
G75*
G02*
X238757569Y-95175155I837345J-751317D01*
G01*
X238757569Y-95175155D01*
G75*
G02*
X238843597Y-96763817I-751317J-837345D01*
G01*
X237533595Y-98223817D01*
G75*
G02*
X235944933Y-98309845I-837345J751317D01*
G01*
G37*
D11*
X243046250Y-94932500D03*
G36*
G01*
X242929733Y-96634895D02*
X242928847Y-96634834D01*
G75*
G02*
X241883916Y-95435097I77403J1122334D01*
G01*
X241923916Y-94855097D01*
G75*
G02*
X243123653Y-93810166I1122334J-77403D01*
G01*
X243123653Y-93810166D01*
G75*
G02*
X244168584Y-95009903I-77403J-1122334D01*
G01*
X244128584Y-95589903D01*
G75*
G02*
X242928847Y-96634834I-1122334J77403D01*
G01*
G37*
D10*
X221773750Y-100012500D03*
X211613750Y-100012500D03*
D11*
X214193750Y-96012500D03*
D12*
X216693750Y-100012500D03*
G36*
G01*
X212132438Y-98309850D02*
X212132433Y-98309845D01*
G75*
G02*
X212046405Y-96721183I751317J837345D01*
G01*
X213356407Y-95261183D01*
G75*
G02*
X214945069Y-95175155I837345J-751317D01*
G01*
X214945069Y-95175155D01*
G75*
G02*
X215031097Y-96763817I-751317J-837345D01*
G01*
X213721095Y-98223817D01*
G75*
G02*
X212132433Y-98309845I-837345J751317D01*
G01*
G37*
D11*
X219233750Y-94932500D03*
G36*
G01*
X219117233Y-96634895D02*
X219116347Y-96634834D01*
G75*
G02*
X218071416Y-95435097I77403J1122334D01*
G01*
X218111416Y-94855097D01*
G75*
G02*
X219311153Y-93810166I1122334J-77403D01*
G01*
X219311153Y-93810166D01*
G75*
G02*
X220356084Y-95009903I-77403J-1122334D01*
G01*
X220316084Y-95589903D01*
G75*
G02*
X219116347Y-96634834I-1122334J77403D01*
G01*
G37*
D10*
X78898750Y-100012500D03*
X68738750Y-100012500D03*
D11*
X71318750Y-96012500D03*
D12*
X73818750Y-100012500D03*
G36*
G01*
X69257438Y-98309850D02*
X69257433Y-98309845D01*
G75*
G02*
X69171405Y-96721183I751317J837345D01*
G01*
X70481407Y-95261183D01*
G75*
G02*
X72070069Y-95175155I837345J-751317D01*
G01*
X72070069Y-95175155D01*
G75*
G02*
X72156097Y-96763817I-751317J-837345D01*
G01*
X70846095Y-98223817D01*
G75*
G02*
X69257433Y-98309845I-837345J751317D01*
G01*
G37*
D11*
X76358750Y-94932500D03*
G36*
G01*
X76242233Y-96634895D02*
X76241347Y-96634834D01*
G75*
G02*
X75196416Y-95435097I77403J1122334D01*
G01*
X75236416Y-94855097D01*
G75*
G02*
X76436153Y-93810166I1122334J-77403D01*
G01*
X76436153Y-93810166D01*
G75*
G02*
X77481084Y-95009903I-77403J-1122334D01*
G01*
X77441084Y-95589903D01*
G75*
G02*
X76241347Y-96634834I-1122334J77403D01*
G01*
G37*
D10*
X55086250Y-100012500D03*
X44926250Y-100012500D03*
D11*
X47506250Y-96012500D03*
D12*
X50006250Y-100012500D03*
G36*
G01*
X45444938Y-98309850D02*
X45444933Y-98309845D01*
G75*
G02*
X45358905Y-96721183I751317J837345D01*
G01*
X46668907Y-95261183D01*
G75*
G02*
X48257569Y-95175155I837345J-751317D01*
G01*
X48257569Y-95175155D01*
G75*
G02*
X48343597Y-96763817I-751317J-837345D01*
G01*
X47033595Y-98223817D01*
G75*
G02*
X45444933Y-98309845I-837345J751317D01*
G01*
G37*
D11*
X52546250Y-94932500D03*
G36*
G01*
X52429733Y-96634895D02*
X52428847Y-96634834D01*
G75*
G02*
X51383916Y-95435097I77403J1122334D01*
G01*
X51423916Y-94855097D01*
G75*
G02*
X52623653Y-93810166I1122334J-77403D01*
G01*
X52623653Y-93810166D01*
G75*
G02*
X53668584Y-95009903I-77403J-1122334D01*
G01*
X53628584Y-95589903D01*
G75*
G02*
X52428847Y-96634834I-1122334J77403D01*
G01*
G37*
D10*
X31273750Y-100012500D03*
X21113750Y-100012500D03*
D11*
X23693750Y-96012500D03*
D12*
X26193750Y-100012500D03*
G36*
G01*
X21632438Y-98309850D02*
X21632433Y-98309845D01*
G75*
G02*
X21546405Y-96721183I751317J837345D01*
G01*
X22856407Y-95261183D01*
G75*
G02*
X24445069Y-95175155I837345J-751317D01*
G01*
X24445069Y-95175155D01*
G75*
G02*
X24531097Y-96763817I-751317J-837345D01*
G01*
X23221095Y-98223817D01*
G75*
G02*
X21632433Y-98309845I-837345J751317D01*
G01*
G37*
D11*
X28733750Y-94932500D03*
G36*
G01*
X28617233Y-96634895D02*
X28616347Y-96634834D01*
G75*
G02*
X27571416Y-95435097I77403J1122334D01*
G01*
X27611416Y-94855097D01*
G75*
G02*
X28811153Y-93810166I1122334J-77403D01*
G01*
X28811153Y-93810166D01*
G75*
G02*
X29856084Y-95009903I-77403J-1122334D01*
G01*
X29816084Y-95589903D01*
G75*
G02*
X28616347Y-96634834I-1122334J77403D01*
G01*
G37*
D10*
X243205000Y-80962500D03*
X233045000Y-80962500D03*
D11*
X235625000Y-76962500D03*
D12*
X238125000Y-80962500D03*
G36*
G01*
X233563688Y-79259850D02*
X233563683Y-79259845D01*
G75*
G02*
X233477655Y-77671183I751317J837345D01*
G01*
X234787657Y-76211183D01*
G75*
G02*
X236376319Y-76125155I837345J-751317D01*
G01*
X236376319Y-76125155D01*
G75*
G02*
X236462347Y-77713817I-751317J-837345D01*
G01*
X235152345Y-79173817D01*
G75*
G02*
X233563683Y-79259845I-837345J751317D01*
G01*
G37*
D11*
X240665000Y-75882500D03*
G36*
G01*
X240548483Y-77584895D02*
X240547597Y-77584834D01*
G75*
G02*
X239502666Y-76385097I77403J1122334D01*
G01*
X239542666Y-75805097D01*
G75*
G02*
X240742403Y-74760166I1122334J-77403D01*
G01*
X240742403Y-74760166D01*
G75*
G02*
X241787334Y-75959903I-77403J-1122334D01*
G01*
X241747334Y-76539903D01*
G75*
G02*
X240547597Y-77584834I-1122334J77403D01*
G01*
G37*
D10*
X186055000Y-80962500D03*
X175895000Y-80962500D03*
D11*
X178475000Y-76962500D03*
D12*
X180975000Y-80962500D03*
G36*
G01*
X176413688Y-79259850D02*
X176413683Y-79259845D01*
G75*
G02*
X176327655Y-77671183I751317J837345D01*
G01*
X177637657Y-76211183D01*
G75*
G02*
X179226319Y-76125155I837345J-751317D01*
G01*
X179226319Y-76125155D01*
G75*
G02*
X179312347Y-77713817I-751317J-837345D01*
G01*
X178002345Y-79173817D01*
G75*
G02*
X176413683Y-79259845I-837345J751317D01*
G01*
G37*
D11*
X183515000Y-75882500D03*
G36*
G01*
X183398483Y-77584895D02*
X183397597Y-77584834D01*
G75*
G02*
X182352666Y-76385097I77403J1122334D01*
G01*
X182392666Y-75805097D01*
G75*
G02*
X183592403Y-74760166I1122334J-77403D01*
G01*
X183592403Y-74760166D01*
G75*
G02*
X184637334Y-75959903I-77403J-1122334D01*
G01*
X184597334Y-76539903D01*
G75*
G02*
X183397597Y-77584834I-1122334J77403D01*
G01*
G37*
D10*
X167005000Y-80962500D03*
X156845000Y-80962500D03*
D11*
X159425000Y-76962500D03*
D12*
X161925000Y-80962500D03*
G36*
G01*
X157363688Y-79259850D02*
X157363683Y-79259845D01*
G75*
G02*
X157277655Y-77671183I751317J837345D01*
G01*
X158587657Y-76211183D01*
G75*
G02*
X160176319Y-76125155I837345J-751317D01*
G01*
X160176319Y-76125155D01*
G75*
G02*
X160262347Y-77713817I-751317J-837345D01*
G01*
X158952345Y-79173817D01*
G75*
G02*
X157363683Y-79259845I-837345J751317D01*
G01*
G37*
D11*
X164465000Y-75882500D03*
G36*
G01*
X164348483Y-77584895D02*
X164347597Y-77584834D01*
G75*
G02*
X163302666Y-76385097I77403J1122334D01*
G01*
X163342666Y-75805097D01*
G75*
G02*
X164542403Y-74760166I1122334J-77403D01*
G01*
X164542403Y-74760166D01*
G75*
G02*
X165587334Y-75959903I-77403J-1122334D01*
G01*
X165547334Y-76539903D01*
G75*
G02*
X164347597Y-77584834I-1122334J77403D01*
G01*
G37*
D10*
X147955000Y-80962500D03*
X137795000Y-80962500D03*
D11*
X140375000Y-76962500D03*
D12*
X142875000Y-80962500D03*
G36*
G01*
X138313688Y-79259850D02*
X138313683Y-79259845D01*
G75*
G02*
X138227655Y-77671183I751317J837345D01*
G01*
X139537657Y-76211183D01*
G75*
G02*
X141126319Y-76125155I837345J-751317D01*
G01*
X141126319Y-76125155D01*
G75*
G02*
X141212347Y-77713817I-751317J-837345D01*
G01*
X139902345Y-79173817D01*
G75*
G02*
X138313683Y-79259845I-837345J751317D01*
G01*
G37*
D11*
X145415000Y-75882500D03*
G36*
G01*
X145298483Y-77584895D02*
X145297597Y-77584834D01*
G75*
G02*
X144252666Y-76385097I77403J1122334D01*
G01*
X144292666Y-75805097D01*
G75*
G02*
X145492403Y-74760166I1122334J-77403D01*
G01*
X145492403Y-74760166D01*
G75*
G02*
X146537334Y-75959903I-77403J-1122334D01*
G01*
X146497334Y-76539903D01*
G75*
G02*
X145297597Y-77584834I-1122334J77403D01*
G01*
G37*
D10*
X128905000Y-80962500D03*
X118745000Y-80962500D03*
D11*
X121325000Y-76962500D03*
D12*
X123825000Y-80962500D03*
G36*
G01*
X119263688Y-79259850D02*
X119263683Y-79259845D01*
G75*
G02*
X119177655Y-77671183I751317J837345D01*
G01*
X120487657Y-76211183D01*
G75*
G02*
X122076319Y-76125155I837345J-751317D01*
G01*
X122076319Y-76125155D01*
G75*
G02*
X122162347Y-77713817I-751317J-837345D01*
G01*
X120852345Y-79173817D01*
G75*
G02*
X119263683Y-79259845I-837345J751317D01*
G01*
G37*
D11*
X126365000Y-75882500D03*
G36*
G01*
X126248483Y-77584895D02*
X126247597Y-77584834D01*
G75*
G02*
X125202666Y-76385097I77403J1122334D01*
G01*
X125242666Y-75805097D01*
G75*
G02*
X126442403Y-74760166I1122334J-77403D01*
G01*
X126442403Y-74760166D01*
G75*
G02*
X127487334Y-75959903I-77403J-1122334D01*
G01*
X127447334Y-76539903D01*
G75*
G02*
X126247597Y-77584834I-1122334J77403D01*
G01*
G37*
D10*
X109855000Y-80962500D03*
X99695000Y-80962500D03*
D11*
X102275000Y-76962500D03*
D12*
X104775000Y-80962500D03*
G36*
G01*
X100213688Y-79259850D02*
X100213683Y-79259845D01*
G75*
G02*
X100127655Y-77671183I751317J837345D01*
G01*
X101437657Y-76211183D01*
G75*
G02*
X103026319Y-76125155I837345J-751317D01*
G01*
X103026319Y-76125155D01*
G75*
G02*
X103112347Y-77713817I-751317J-837345D01*
G01*
X101802345Y-79173817D01*
G75*
G02*
X100213683Y-79259845I-837345J751317D01*
G01*
G37*
D11*
X107315000Y-75882500D03*
G36*
G01*
X107198483Y-77584895D02*
X107197597Y-77584834D01*
G75*
G02*
X106152666Y-76385097I77403J1122334D01*
G01*
X106192666Y-75805097D01*
G75*
G02*
X107392403Y-74760166I1122334J-77403D01*
G01*
X107392403Y-74760166D01*
G75*
G02*
X108437334Y-75959903I-77403J-1122334D01*
G01*
X108397334Y-76539903D01*
G75*
G02*
X107197597Y-77584834I-1122334J77403D01*
G01*
G37*
D10*
X90805000Y-80962500D03*
X80645000Y-80962500D03*
D11*
X83225000Y-76962500D03*
D12*
X85725000Y-80962500D03*
G36*
G01*
X81163688Y-79259850D02*
X81163683Y-79259845D01*
G75*
G02*
X81077655Y-77671183I751317J837345D01*
G01*
X82387657Y-76211183D01*
G75*
G02*
X83976319Y-76125155I837345J-751317D01*
G01*
X83976319Y-76125155D01*
G75*
G02*
X84062347Y-77713817I-751317J-837345D01*
G01*
X82752345Y-79173817D01*
G75*
G02*
X81163683Y-79259845I-837345J751317D01*
G01*
G37*
D11*
X88265000Y-75882500D03*
G36*
G01*
X88148483Y-77584895D02*
X88147597Y-77584834D01*
G75*
G02*
X87102666Y-76385097I77403J1122334D01*
G01*
X87142666Y-75805097D01*
G75*
G02*
X88342403Y-74760166I1122334J-77403D01*
G01*
X88342403Y-74760166D01*
G75*
G02*
X89387334Y-75959903I-77403J-1122334D01*
G01*
X89347334Y-76539903D01*
G75*
G02*
X88147597Y-77584834I-1122334J77403D01*
G01*
G37*
D10*
X71755000Y-80962500D03*
X61595000Y-80962500D03*
D11*
X64175000Y-76962500D03*
D12*
X66675000Y-80962500D03*
G36*
G01*
X62113688Y-79259850D02*
X62113683Y-79259845D01*
G75*
G02*
X62027655Y-77671183I751317J837345D01*
G01*
X63337657Y-76211183D01*
G75*
G02*
X64926319Y-76125155I837345J-751317D01*
G01*
X64926319Y-76125155D01*
G75*
G02*
X65012347Y-77713817I-751317J-837345D01*
G01*
X63702345Y-79173817D01*
G75*
G02*
X62113683Y-79259845I-837345J751317D01*
G01*
G37*
D11*
X69215000Y-75882500D03*
G36*
G01*
X69098483Y-77584895D02*
X69097597Y-77584834D01*
G75*
G02*
X68052666Y-76385097I77403J1122334D01*
G01*
X68092666Y-75805097D01*
G75*
G02*
X69292403Y-74760166I1122334J-77403D01*
G01*
X69292403Y-74760166D01*
G75*
G02*
X70337334Y-75959903I-77403J-1122334D01*
G01*
X70297334Y-76539903D01*
G75*
G02*
X69097597Y-77584834I-1122334J77403D01*
G01*
G37*
D12*
X47656750Y-89217500D03*
X23780750Y-89217500D03*
D13*
X47656750Y-73977500D03*
X23780750Y-73977500D03*
D10*
X40798750Y-80962500D03*
X30638750Y-80962500D03*
D11*
X33218750Y-76962500D03*
D12*
X35718750Y-80962500D03*
G36*
G01*
X31157438Y-79259850D02*
X31157433Y-79259845D01*
G75*
G02*
X31071405Y-77671183I751317J837345D01*
G01*
X32381407Y-76211183D01*
G75*
G02*
X33970069Y-76125155I837345J-751317D01*
G01*
X33970069Y-76125155D01*
G75*
G02*
X34056097Y-77713817I-751317J-837345D01*
G01*
X32746095Y-79173817D01*
G75*
G02*
X31157433Y-79259845I-837345J751317D01*
G01*
G37*
D11*
X38258750Y-75882500D03*
G36*
G01*
X38142233Y-77584895D02*
X38141347Y-77584834D01*
G75*
G02*
X37096416Y-76385097I77403J1122334D01*
G01*
X37136416Y-75805097D01*
G75*
G02*
X38336153Y-74760166I1122334J-77403D01*
G01*
X38336153Y-74760166D01*
G75*
G02*
X39381084Y-75959903I-77403J-1122334D01*
G01*
X39341084Y-76539903D01*
G75*
G02*
X38141347Y-77584834I-1122334J77403D01*
G01*
G37*
D12*
X290544250Y-70167500D03*
X266668250Y-70167500D03*
D13*
X290544250Y-54927500D03*
X266668250Y-54927500D03*
D10*
X283686250Y-61912500D03*
X273526250Y-61912500D03*
D11*
X276106250Y-57912500D03*
D12*
X278606250Y-61912500D03*
G36*
G01*
X274044938Y-60209850D02*
X274044933Y-60209845D01*
G75*
G02*
X273958905Y-58621183I751317J837345D01*
G01*
X275268907Y-57161183D01*
G75*
G02*
X276857569Y-57075155I837345J-751317D01*
G01*
X276857569Y-57075155D01*
G75*
G02*
X276943597Y-58663817I-751317J-837345D01*
G01*
X275633595Y-60123817D01*
G75*
G02*
X274044933Y-60209845I-837345J751317D01*
G01*
G37*
D11*
X281146250Y-56832500D03*
G36*
G01*
X281029733Y-58534895D02*
X281028847Y-58534834D01*
G75*
G02*
X279983916Y-57335097I77403J1122334D01*
G01*
X280023916Y-56755097D01*
G75*
G02*
X281223653Y-55710166I1122334J-77403D01*
G01*
X281223653Y-55710166D01*
G75*
G02*
X282268584Y-56909903I-77403J-1122334D01*
G01*
X282228584Y-57489903D01*
G75*
G02*
X281028847Y-58534834I-1122334J77403D01*
G01*
G37*
D10*
X252730000Y-61912500D03*
X242570000Y-61912500D03*
D11*
X245150000Y-57912500D03*
D12*
X247650000Y-61912500D03*
G36*
G01*
X243088688Y-60209850D02*
X243088683Y-60209845D01*
G75*
G02*
X243002655Y-58621183I751317J837345D01*
G01*
X244312657Y-57161183D01*
G75*
G02*
X245901319Y-57075155I837345J-751317D01*
G01*
X245901319Y-57075155D01*
G75*
G02*
X245987347Y-58663817I-751317J-837345D01*
G01*
X244677345Y-60123817D01*
G75*
G02*
X243088683Y-60209845I-837345J751317D01*
G01*
G37*
D11*
X250190000Y-56832500D03*
G36*
G01*
X250073483Y-58534895D02*
X250072597Y-58534834D01*
G75*
G02*
X249027666Y-57335097I77403J1122334D01*
G01*
X249067666Y-56755097D01*
G75*
G02*
X250267403Y-55710166I1122334J-77403D01*
G01*
X250267403Y-55710166D01*
G75*
G02*
X251312334Y-56909903I-77403J-1122334D01*
G01*
X251272334Y-57489903D01*
G75*
G02*
X250072597Y-58534834I-1122334J77403D01*
G01*
G37*
D10*
X195580000Y-61912500D03*
X185420000Y-61912500D03*
D11*
X188000000Y-57912500D03*
D12*
X190500000Y-61912500D03*
G36*
G01*
X185938688Y-60209850D02*
X185938683Y-60209845D01*
G75*
G02*
X185852655Y-58621183I751317J837345D01*
G01*
X187162657Y-57161183D01*
G75*
G02*
X188751319Y-57075155I837345J-751317D01*
G01*
X188751319Y-57075155D01*
G75*
G02*
X188837347Y-58663817I-751317J-837345D01*
G01*
X187527345Y-60123817D01*
G75*
G02*
X185938683Y-60209845I-837345J751317D01*
G01*
G37*
D11*
X193040000Y-56832500D03*
G36*
G01*
X192923483Y-58534895D02*
X192922597Y-58534834D01*
G75*
G02*
X191877666Y-57335097I77403J1122334D01*
G01*
X191917666Y-56755097D01*
G75*
G02*
X193117403Y-55710166I1122334J-77403D01*
G01*
X193117403Y-55710166D01*
G75*
G02*
X194162334Y-56909903I-77403J-1122334D01*
G01*
X194122334Y-57489903D01*
G75*
G02*
X192922597Y-58534834I-1122334J77403D01*
G01*
G37*
D10*
X157480000Y-61912500D03*
X147320000Y-61912500D03*
D11*
X149900000Y-57912500D03*
D12*
X152400000Y-61912500D03*
G36*
G01*
X147838688Y-60209850D02*
X147838683Y-60209845D01*
G75*
G02*
X147752655Y-58621183I751317J837345D01*
G01*
X149062657Y-57161183D01*
G75*
G02*
X150651319Y-57075155I837345J-751317D01*
G01*
X150651319Y-57075155D01*
G75*
G02*
X150737347Y-58663817I-751317J-837345D01*
G01*
X149427345Y-60123817D01*
G75*
G02*
X147838683Y-60209845I-837345J751317D01*
G01*
G37*
D11*
X154940000Y-56832500D03*
G36*
G01*
X154823483Y-58534895D02*
X154822597Y-58534834D01*
G75*
G02*
X153777666Y-57335097I77403J1122334D01*
G01*
X153817666Y-56755097D01*
G75*
G02*
X155017403Y-55710166I1122334J-77403D01*
G01*
X155017403Y-55710166D01*
G75*
G02*
X156062334Y-56909903I-77403J-1122334D01*
G01*
X156022334Y-57489903D01*
G75*
G02*
X154822597Y-58534834I-1122334J77403D01*
G01*
G37*
D10*
X138430000Y-61912500D03*
X128270000Y-61912500D03*
D11*
X130850000Y-57912500D03*
D12*
X133350000Y-61912500D03*
G36*
G01*
X128788688Y-60209850D02*
X128788683Y-60209845D01*
G75*
G02*
X128702655Y-58621183I751317J837345D01*
G01*
X130012657Y-57161183D01*
G75*
G02*
X131601319Y-57075155I837345J-751317D01*
G01*
X131601319Y-57075155D01*
G75*
G02*
X131687347Y-58663817I-751317J-837345D01*
G01*
X130377345Y-60123817D01*
G75*
G02*
X128788683Y-60209845I-837345J751317D01*
G01*
G37*
D11*
X135890000Y-56832500D03*
G36*
G01*
X135773483Y-58534895D02*
X135772597Y-58534834D01*
G75*
G02*
X134727666Y-57335097I77403J1122334D01*
G01*
X134767666Y-56755097D01*
G75*
G02*
X135967403Y-55710166I1122334J-77403D01*
G01*
X135967403Y-55710166D01*
G75*
G02*
X137012334Y-56909903I-77403J-1122334D01*
G01*
X136972334Y-57489903D01*
G75*
G02*
X135772597Y-58534834I-1122334J77403D01*
G01*
G37*
D10*
X119380000Y-61912500D03*
X109220000Y-61912500D03*
D11*
X111800000Y-57912500D03*
D12*
X114300000Y-61912500D03*
G36*
G01*
X109738688Y-60209850D02*
X109738683Y-60209845D01*
G75*
G02*
X109652655Y-58621183I751317J837345D01*
G01*
X110962657Y-57161183D01*
G75*
G02*
X112551319Y-57075155I837345J-751317D01*
G01*
X112551319Y-57075155D01*
G75*
G02*
X112637347Y-58663817I-751317J-837345D01*
G01*
X111327345Y-60123817D01*
G75*
G02*
X109738683Y-60209845I-837345J751317D01*
G01*
G37*
D11*
X116840000Y-56832500D03*
G36*
G01*
X116723483Y-58534895D02*
X116722597Y-58534834D01*
G75*
G02*
X115677666Y-57335097I77403J1122334D01*
G01*
X115717666Y-56755097D01*
G75*
G02*
X116917403Y-55710166I1122334J-77403D01*
G01*
X116917403Y-55710166D01*
G75*
G02*
X117962334Y-56909903I-77403J-1122334D01*
G01*
X117922334Y-57489903D01*
G75*
G02*
X116722597Y-58534834I-1122334J77403D01*
G01*
G37*
D10*
X100330000Y-61912500D03*
X90170000Y-61912500D03*
D11*
X92750000Y-57912500D03*
D12*
X95250000Y-61912500D03*
G36*
G01*
X90688688Y-60209850D02*
X90688683Y-60209845D01*
G75*
G02*
X90602655Y-58621183I751317J837345D01*
G01*
X91912657Y-57161183D01*
G75*
G02*
X93501319Y-57075155I837345J-751317D01*
G01*
X93501319Y-57075155D01*
G75*
G02*
X93587347Y-58663817I-751317J-837345D01*
G01*
X92277345Y-60123817D01*
G75*
G02*
X90688683Y-60209845I-837345J751317D01*
G01*
G37*
D11*
X97790000Y-56832500D03*
G36*
G01*
X97673483Y-58534895D02*
X97672597Y-58534834D01*
G75*
G02*
X96627666Y-57335097I77403J1122334D01*
G01*
X96667666Y-56755097D01*
G75*
G02*
X97867403Y-55710166I1122334J-77403D01*
G01*
X97867403Y-55710166D01*
G75*
G02*
X98912334Y-56909903I-77403J-1122334D01*
G01*
X98872334Y-57489903D01*
G75*
G02*
X97672597Y-58534834I-1122334J77403D01*
G01*
G37*
D10*
X81280000Y-61912500D03*
X71120000Y-61912500D03*
D11*
X73700000Y-57912500D03*
D12*
X76200000Y-61912500D03*
G36*
G01*
X71638688Y-60209850D02*
X71638683Y-60209845D01*
G75*
G02*
X71552655Y-58621183I751317J837345D01*
G01*
X72862657Y-57161183D01*
G75*
G02*
X74451319Y-57075155I837345J-751317D01*
G01*
X74451319Y-57075155D01*
G75*
G02*
X74537347Y-58663817I-751317J-837345D01*
G01*
X73227345Y-60123817D01*
G75*
G02*
X71638683Y-60209845I-837345J751317D01*
G01*
G37*
D11*
X78740000Y-56832500D03*
G36*
G01*
X78623483Y-58534895D02*
X78622597Y-58534834D01*
G75*
G02*
X77577666Y-57335097I77403J1122334D01*
G01*
X77617666Y-56755097D01*
G75*
G02*
X78817403Y-55710166I1122334J-77403D01*
G01*
X78817403Y-55710166D01*
G75*
G02*
X79862334Y-56909903I-77403J-1122334D01*
G01*
X79822334Y-57489903D01*
G75*
G02*
X78622597Y-58534834I-1122334J77403D01*
G01*
G37*
D10*
X36036250Y-61912500D03*
X25876250Y-61912500D03*
D11*
X28456250Y-57912500D03*
D12*
X30956250Y-61912500D03*
G36*
G01*
X26394938Y-60209850D02*
X26394933Y-60209845D01*
G75*
G02*
X26308905Y-58621183I751317J837345D01*
G01*
X27618907Y-57161183D01*
G75*
G02*
X29207569Y-57075155I837345J-751317D01*
G01*
X29207569Y-57075155D01*
G75*
G02*
X29293597Y-58663817I-751317J-837345D01*
G01*
X27983595Y-60123817D01*
G75*
G02*
X26394933Y-60209845I-837345J751317D01*
G01*
G37*
D11*
X33496250Y-56832500D03*
G36*
G01*
X33379733Y-58534895D02*
X33378847Y-58534834D01*
G75*
G02*
X32333916Y-57335097I77403J1122334D01*
G01*
X32373916Y-56755097D01*
G75*
G02*
X33573653Y-55710166I1122334J-77403D01*
G01*
X33573653Y-55710166D01*
G75*
G02*
X34618584Y-56909903I-77403J-1122334D01*
G01*
X34578584Y-57489903D01*
G75*
G02*
X33378847Y-58534834I-1122334J77403D01*
G01*
G37*
D10*
X290830000Y-42862500D03*
X280670000Y-42862500D03*
D11*
X283250000Y-38862500D03*
D12*
X285750000Y-42862500D03*
G36*
G01*
X281188688Y-41159850D02*
X281188683Y-41159845D01*
G75*
G02*
X281102655Y-39571183I751317J837345D01*
G01*
X282412657Y-38111183D01*
G75*
G02*
X284001319Y-38025155I837345J-751317D01*
G01*
X284001319Y-38025155D01*
G75*
G02*
X284087347Y-39613817I-751317J-837345D01*
G01*
X282777345Y-41073817D01*
G75*
G02*
X281188683Y-41159845I-837345J751317D01*
G01*
G37*
D11*
X288290000Y-37782500D03*
G36*
G01*
X288173483Y-39484895D02*
X288172597Y-39484834D01*
G75*
G02*
X287127666Y-38285097I77403J1122334D01*
G01*
X287167666Y-37705097D01*
G75*
G02*
X288367403Y-36660166I1122334J-77403D01*
G01*
X288367403Y-36660166D01*
G75*
G02*
X289412334Y-37859903I-77403J-1122334D01*
G01*
X289372334Y-38439903D01*
G75*
G02*
X288172597Y-39484834I-1122334J77403D01*
G01*
G37*
D10*
X228917500Y-42862500D03*
X218757500Y-42862500D03*
D11*
X221337500Y-38862500D03*
D12*
X223837500Y-42862500D03*
G36*
G01*
X219276188Y-41159850D02*
X219276183Y-41159845D01*
G75*
G02*
X219190155Y-39571183I751317J837345D01*
G01*
X220500157Y-38111183D01*
G75*
G02*
X222088819Y-38025155I837345J-751317D01*
G01*
X222088819Y-38025155D01*
G75*
G02*
X222174847Y-39613817I-751317J-837345D01*
G01*
X220864845Y-41073817D01*
G75*
G02*
X219276183Y-41159845I-837345J751317D01*
G01*
G37*
D11*
X226377500Y-37782500D03*
G36*
G01*
X226260983Y-39484895D02*
X226260097Y-39484834D01*
G75*
G02*
X225215166Y-38285097I77403J1122334D01*
G01*
X225255166Y-37705097D01*
G75*
G02*
X226454903Y-36660166I1122334J-77403D01*
G01*
X226454903Y-36660166D01*
G75*
G02*
X227499834Y-37859903I-77403J-1122334D01*
G01*
X227459834Y-38439903D01*
G75*
G02*
X226260097Y-39484834I-1122334J77403D01*
G01*
G37*
D10*
X209867500Y-42862500D03*
X199707500Y-42862500D03*
D11*
X202287500Y-38862500D03*
D12*
X204787500Y-42862500D03*
G36*
G01*
X200226188Y-41159850D02*
X200226183Y-41159845D01*
G75*
G02*
X200140155Y-39571183I751317J837345D01*
G01*
X201450157Y-38111183D01*
G75*
G02*
X203038819Y-38025155I837345J-751317D01*
G01*
X203038819Y-38025155D01*
G75*
G02*
X203124847Y-39613817I-751317J-837345D01*
G01*
X201814845Y-41073817D01*
G75*
G02*
X200226183Y-41159845I-837345J751317D01*
G01*
G37*
D11*
X207327500Y-37782500D03*
G36*
G01*
X207210983Y-39484895D02*
X207210097Y-39484834D01*
G75*
G02*
X206165166Y-38285097I77403J1122334D01*
G01*
X206205166Y-37705097D01*
G75*
G02*
X207404903Y-36660166I1122334J-77403D01*
G01*
X207404903Y-36660166D01*
G75*
G02*
X208449834Y-37859903I-77403J-1122334D01*
G01*
X208409834Y-38439903D01*
G75*
G02*
X207210097Y-39484834I-1122334J77403D01*
G01*
G37*
D10*
X190817500Y-42862500D03*
X180657500Y-42862500D03*
D11*
X183237500Y-38862500D03*
D12*
X185737500Y-42862500D03*
G36*
G01*
X181176188Y-41159850D02*
X181176183Y-41159845D01*
G75*
G02*
X181090155Y-39571183I751317J837345D01*
G01*
X182400157Y-38111183D01*
G75*
G02*
X183988819Y-38025155I837345J-751317D01*
G01*
X183988819Y-38025155D01*
G75*
G02*
X184074847Y-39613817I-751317J-837345D01*
G01*
X182764845Y-41073817D01*
G75*
G02*
X181176183Y-41159845I-837345J751317D01*
G01*
G37*
D11*
X188277500Y-37782500D03*
G36*
G01*
X188160983Y-39484895D02*
X188160097Y-39484834D01*
G75*
G02*
X187115166Y-38285097I77403J1122334D01*
G01*
X187155166Y-37705097D01*
G75*
G02*
X188354903Y-36660166I1122334J-77403D01*
G01*
X188354903Y-36660166D01*
G75*
G02*
X189399834Y-37859903I-77403J-1122334D01*
G01*
X189359834Y-38439903D01*
G75*
G02*
X188160097Y-39484834I-1122334J77403D01*
G01*
G37*
D10*
X171767500Y-42862500D03*
X161607500Y-42862500D03*
D11*
X164187500Y-38862500D03*
D12*
X166687500Y-42862500D03*
G36*
G01*
X162126188Y-41159850D02*
X162126183Y-41159845D01*
G75*
G02*
X162040155Y-39571183I751317J837345D01*
G01*
X163350157Y-38111183D01*
G75*
G02*
X164938819Y-38025155I837345J-751317D01*
G01*
X164938819Y-38025155D01*
G75*
G02*
X165024847Y-39613817I-751317J-837345D01*
G01*
X163714845Y-41073817D01*
G75*
G02*
X162126183Y-41159845I-837345J751317D01*
G01*
G37*
D11*
X169227500Y-37782500D03*
G36*
G01*
X169110983Y-39484895D02*
X169110097Y-39484834D01*
G75*
G02*
X168065166Y-38285097I77403J1122334D01*
G01*
X168105166Y-37705097D01*
G75*
G02*
X169304903Y-36660166I1122334J-77403D01*
G01*
X169304903Y-36660166D01*
G75*
G02*
X170349834Y-37859903I-77403J-1122334D01*
G01*
X170309834Y-38439903D01*
G75*
G02*
X169110097Y-39484834I-1122334J77403D01*
G01*
G37*
D10*
X152717500Y-42862500D03*
X142557500Y-42862500D03*
D11*
X145137500Y-38862500D03*
D12*
X147637500Y-42862500D03*
G36*
G01*
X143076188Y-41159850D02*
X143076183Y-41159845D01*
G75*
G02*
X142990155Y-39571183I751317J837345D01*
G01*
X144300157Y-38111183D01*
G75*
G02*
X145888819Y-38025155I837345J-751317D01*
G01*
X145888819Y-38025155D01*
G75*
G02*
X145974847Y-39613817I-751317J-837345D01*
G01*
X144664845Y-41073817D01*
G75*
G02*
X143076183Y-41159845I-837345J751317D01*
G01*
G37*
D11*
X150177500Y-37782500D03*
G36*
G01*
X150060983Y-39484895D02*
X150060097Y-39484834D01*
G75*
G02*
X149015166Y-38285097I77403J1122334D01*
G01*
X149055166Y-37705097D01*
G75*
G02*
X150254903Y-36660166I1122334J-77403D01*
G01*
X150254903Y-36660166D01*
G75*
G02*
X151299834Y-37859903I-77403J-1122334D01*
G01*
X151259834Y-38439903D01*
G75*
G02*
X150060097Y-39484834I-1122334J77403D01*
G01*
G37*
D10*
X133667500Y-42862500D03*
X123507500Y-42862500D03*
D11*
X126087500Y-38862500D03*
D12*
X128587500Y-42862500D03*
G36*
G01*
X124026188Y-41159850D02*
X124026183Y-41159845D01*
G75*
G02*
X123940155Y-39571183I751317J837345D01*
G01*
X125250157Y-38111183D01*
G75*
G02*
X126838819Y-38025155I837345J-751317D01*
G01*
X126838819Y-38025155D01*
G75*
G02*
X126924847Y-39613817I-751317J-837345D01*
G01*
X125614845Y-41073817D01*
G75*
G02*
X124026183Y-41159845I-837345J751317D01*
G01*
G37*
D11*
X131127500Y-37782500D03*
G36*
G01*
X131010983Y-39484895D02*
X131010097Y-39484834D01*
G75*
G02*
X129965166Y-38285097I77403J1122334D01*
G01*
X130005166Y-37705097D01*
G75*
G02*
X131204903Y-36660166I1122334J-77403D01*
G01*
X131204903Y-36660166D01*
G75*
G02*
X132249834Y-37859903I-77403J-1122334D01*
G01*
X132209834Y-38439903D01*
G75*
G02*
X131010097Y-39484834I-1122334J77403D01*
G01*
G37*
D10*
X114617500Y-42862500D03*
X104457500Y-42862500D03*
D11*
X107037500Y-38862500D03*
D12*
X109537500Y-42862500D03*
G36*
G01*
X104976188Y-41159850D02*
X104976183Y-41159845D01*
G75*
G02*
X104890155Y-39571183I751317J837345D01*
G01*
X106200157Y-38111183D01*
G75*
G02*
X107788819Y-38025155I837345J-751317D01*
G01*
X107788819Y-38025155D01*
G75*
G02*
X107874847Y-39613817I-751317J-837345D01*
G01*
X106564845Y-41073817D01*
G75*
G02*
X104976183Y-41159845I-837345J751317D01*
G01*
G37*
D11*
X112077500Y-37782500D03*
G36*
G01*
X111960983Y-39484895D02*
X111960097Y-39484834D01*
G75*
G02*
X110915166Y-38285097I77403J1122334D01*
G01*
X110955166Y-37705097D01*
G75*
G02*
X112154903Y-36660166I1122334J-77403D01*
G01*
X112154903Y-36660166D01*
G75*
G02*
X113199834Y-37859903I-77403J-1122334D01*
G01*
X113159834Y-38439903D01*
G75*
G02*
X111960097Y-39484834I-1122334J77403D01*
G01*
G37*
D10*
X95567500Y-42862500D03*
X85407500Y-42862500D03*
D11*
X87987500Y-38862500D03*
D12*
X90487500Y-42862500D03*
G36*
G01*
X85926188Y-41159850D02*
X85926183Y-41159845D01*
G75*
G02*
X85840155Y-39571183I751317J837345D01*
G01*
X87150157Y-38111183D01*
G75*
G02*
X88738819Y-38025155I837345J-751317D01*
G01*
X88738819Y-38025155D01*
G75*
G02*
X88824847Y-39613817I-751317J-837345D01*
G01*
X87514845Y-41073817D01*
G75*
G02*
X85926183Y-41159845I-837345J751317D01*
G01*
G37*
D11*
X93027500Y-37782500D03*
G36*
G01*
X92910983Y-39484895D02*
X92910097Y-39484834D01*
G75*
G02*
X91865166Y-38285097I77403J1122334D01*
G01*
X91905166Y-37705097D01*
G75*
G02*
X93104903Y-36660166I1122334J-77403D01*
G01*
X93104903Y-36660166D01*
G75*
G02*
X94149834Y-37859903I-77403J-1122334D01*
G01*
X94109834Y-38439903D01*
G75*
G02*
X92910097Y-39484834I-1122334J77403D01*
G01*
G37*
D10*
X76517500Y-42862500D03*
X66357500Y-42862500D03*
D11*
X68937500Y-38862500D03*
D12*
X71437500Y-42862500D03*
G36*
G01*
X66876188Y-41159850D02*
X66876183Y-41159845D01*
G75*
G02*
X66790155Y-39571183I751317J837345D01*
G01*
X68100157Y-38111183D01*
G75*
G02*
X69688819Y-38025155I837345J-751317D01*
G01*
X69688819Y-38025155D01*
G75*
G02*
X69774847Y-39613817I-751317J-837345D01*
G01*
X68464845Y-41073817D01*
G75*
G02*
X66876183Y-41159845I-837345J751317D01*
G01*
G37*
D11*
X73977500Y-37782500D03*
G36*
G01*
X73860983Y-39484895D02*
X73860097Y-39484834D01*
G75*
G02*
X72815166Y-38285097I77403J1122334D01*
G01*
X72855166Y-37705097D01*
G75*
G02*
X74054903Y-36660166I1122334J-77403D01*
G01*
X74054903Y-36660166D01*
G75*
G02*
X75099834Y-37859903I-77403J-1122334D01*
G01*
X75059834Y-38439903D01*
G75*
G02*
X73860097Y-39484834I-1122334J77403D01*
G01*
G37*
D10*
X33655000Y-42862500D03*
X23495000Y-42862500D03*
D11*
X26075000Y-38862500D03*
D12*
X28575000Y-42862500D03*
G36*
G01*
X24013688Y-41159850D02*
X24013683Y-41159845D01*
G75*
G02*
X23927655Y-39571183I751317J837345D01*
G01*
X25237657Y-38111183D01*
G75*
G02*
X26826319Y-38025155I837345J-751317D01*
G01*
X26826319Y-38025155D01*
G75*
G02*
X26912347Y-39613817I-751317J-837345D01*
G01*
X25602345Y-41073817D01*
G75*
G02*
X24013683Y-41159845I-837345J751317D01*
G01*
G37*
D11*
X31115000Y-37782500D03*
G36*
G01*
X30998483Y-39484895D02*
X30997597Y-39484834D01*
G75*
G02*
X29952666Y-38285097I77403J1122334D01*
G01*
X29992666Y-37705097D01*
G75*
G02*
X31192403Y-36660166I1122334J-77403D01*
G01*
X31192403Y-36660166D01*
G75*
G02*
X32237334Y-37859903I-77403J-1122334D01*
G01*
X32197334Y-38439903D01*
G75*
G02*
X30997597Y-39484834I-1122334J77403D01*
G01*
G37*
D12*
X292925500Y-32067500D03*
X269049500Y-32067500D03*
D13*
X292925500Y-16827500D03*
X269049500Y-16827500D03*
D10*
X286067500Y-23812500D03*
X275907500Y-23812500D03*
D11*
X278487500Y-19812500D03*
D12*
X280987500Y-23812500D03*
G36*
G01*
X276426188Y-22109850D02*
X276426183Y-22109845D01*
G75*
G02*
X276340155Y-20521183I751317J837345D01*
G01*
X277650157Y-19061183D01*
G75*
G02*
X279238819Y-18975155I837345J-751317D01*
G01*
X279238819Y-18975155D01*
G75*
G02*
X279324847Y-20563817I-751317J-837345D01*
G01*
X278014845Y-22023817D01*
G75*
G02*
X276426183Y-22109845I-837345J751317D01*
G01*
G37*
D11*
X283527500Y-18732500D03*
G36*
G01*
X283410983Y-20434895D02*
X283410097Y-20434834D01*
G75*
G02*
X282365166Y-19235097I77403J1122334D01*
G01*
X282405166Y-18655097D01*
G75*
G02*
X283604903Y-17610166I1122334J-77403D01*
G01*
X283604903Y-17610166D01*
G75*
G02*
X284649834Y-18809903I-77403J-1122334D01*
G01*
X284609834Y-19389903D01*
G75*
G02*
X283410097Y-20434834I-1122334J77403D01*
G01*
G37*
D10*
X238442500Y-23812500D03*
X228282500Y-23812500D03*
D11*
X230862500Y-19812500D03*
D12*
X233362500Y-23812500D03*
G36*
G01*
X228801188Y-22109850D02*
X228801183Y-22109845D01*
G75*
G02*
X228715155Y-20521183I751317J837345D01*
G01*
X230025157Y-19061183D01*
G75*
G02*
X231613819Y-18975155I837345J-751317D01*
G01*
X231613819Y-18975155D01*
G75*
G02*
X231699847Y-20563817I-751317J-837345D01*
G01*
X230389845Y-22023817D01*
G75*
G02*
X228801183Y-22109845I-837345J751317D01*
G01*
G37*
D11*
X235902500Y-18732500D03*
G36*
G01*
X235785983Y-20434895D02*
X235785097Y-20434834D01*
G75*
G02*
X234740166Y-19235097I77403J1122334D01*
G01*
X234780166Y-18655097D01*
G75*
G02*
X235979903Y-17610166I1122334J-77403D01*
G01*
X235979903Y-17610166D01*
G75*
G02*
X237024834Y-18809903I-77403J-1122334D01*
G01*
X236984834Y-19389903D01*
G75*
G02*
X235785097Y-20434834I-1122334J77403D01*
G01*
G37*
D10*
X219392500Y-23812500D03*
X209232500Y-23812500D03*
D11*
X211812500Y-19812500D03*
D12*
X214312500Y-23812500D03*
G36*
G01*
X209751188Y-22109850D02*
X209751183Y-22109845D01*
G75*
G02*
X209665155Y-20521183I751317J837345D01*
G01*
X210975157Y-19061183D01*
G75*
G02*
X212563819Y-18975155I837345J-751317D01*
G01*
X212563819Y-18975155D01*
G75*
G02*
X212649847Y-20563817I-751317J-837345D01*
G01*
X211339845Y-22023817D01*
G75*
G02*
X209751183Y-22109845I-837345J751317D01*
G01*
G37*
D11*
X216852500Y-18732500D03*
G36*
G01*
X216735983Y-20434895D02*
X216735097Y-20434834D01*
G75*
G02*
X215690166Y-19235097I77403J1122334D01*
G01*
X215730166Y-18655097D01*
G75*
G02*
X216929903Y-17610166I1122334J-77403D01*
G01*
X216929903Y-17610166D01*
G75*
G02*
X217974834Y-18809903I-77403J-1122334D01*
G01*
X217934834Y-19389903D01*
G75*
G02*
X216735097Y-20434834I-1122334J77403D01*
G01*
G37*
D10*
X200342500Y-23812500D03*
X190182500Y-23812500D03*
D11*
X192762500Y-19812500D03*
D12*
X195262500Y-23812500D03*
G36*
G01*
X190701188Y-22109850D02*
X190701183Y-22109845D01*
G75*
G02*
X190615155Y-20521183I751317J837345D01*
G01*
X191925157Y-19061183D01*
G75*
G02*
X193513819Y-18975155I837345J-751317D01*
G01*
X193513819Y-18975155D01*
G75*
G02*
X193599847Y-20563817I-751317J-837345D01*
G01*
X192289845Y-22023817D01*
G75*
G02*
X190701183Y-22109845I-837345J751317D01*
G01*
G37*
D11*
X197802500Y-18732500D03*
G36*
G01*
X197685983Y-20434895D02*
X197685097Y-20434834D01*
G75*
G02*
X196640166Y-19235097I77403J1122334D01*
G01*
X196680166Y-18655097D01*
G75*
G02*
X197879903Y-17610166I1122334J-77403D01*
G01*
X197879903Y-17610166D01*
G75*
G02*
X198924834Y-18809903I-77403J-1122334D01*
G01*
X198884834Y-19389903D01*
G75*
G02*
X197685097Y-20434834I-1122334J77403D01*
G01*
G37*
D10*
X181292500Y-23812500D03*
X171132500Y-23812500D03*
D11*
X173712500Y-19812500D03*
D12*
X176212500Y-23812500D03*
G36*
G01*
X171651188Y-22109850D02*
X171651183Y-22109845D01*
G75*
G02*
X171565155Y-20521183I751317J837345D01*
G01*
X172875157Y-19061183D01*
G75*
G02*
X174463819Y-18975155I837345J-751317D01*
G01*
X174463819Y-18975155D01*
G75*
G02*
X174549847Y-20563817I-751317J-837345D01*
G01*
X173239845Y-22023817D01*
G75*
G02*
X171651183Y-22109845I-837345J751317D01*
G01*
G37*
D11*
X178752500Y-18732500D03*
G36*
G01*
X178635983Y-20434895D02*
X178635097Y-20434834D01*
G75*
G02*
X177590166Y-19235097I77403J1122334D01*
G01*
X177630166Y-18655097D01*
G75*
G02*
X178829903Y-17610166I1122334J-77403D01*
G01*
X178829903Y-17610166D01*
G75*
G02*
X179874834Y-18809903I-77403J-1122334D01*
G01*
X179834834Y-19389903D01*
G75*
G02*
X178635097Y-20434834I-1122334J77403D01*
G01*
G37*
D10*
X105092500Y-23812500D03*
X94932500Y-23812500D03*
D11*
X97512500Y-19812500D03*
D12*
X100012500Y-23812500D03*
G36*
G01*
X95451188Y-22109850D02*
X95451183Y-22109845D01*
G75*
G02*
X95365155Y-20521183I751317J837345D01*
G01*
X96675157Y-19061183D01*
G75*
G02*
X98263819Y-18975155I837345J-751317D01*
G01*
X98263819Y-18975155D01*
G75*
G02*
X98349847Y-20563817I-751317J-837345D01*
G01*
X97039845Y-22023817D01*
G75*
G02*
X95451183Y-22109845I-837345J751317D01*
G01*
G37*
D11*
X102552500Y-18732500D03*
G36*
G01*
X102435983Y-20434895D02*
X102435097Y-20434834D01*
G75*
G02*
X101390166Y-19235097I77403J1122334D01*
G01*
X101430166Y-18655097D01*
G75*
G02*
X102629903Y-17610166I1122334J-77403D01*
G01*
X102629903Y-17610166D01*
G75*
G02*
X103674834Y-18809903I-77403J-1122334D01*
G01*
X103634834Y-19389903D01*
G75*
G02*
X102435097Y-20434834I-1122334J77403D01*
G01*
G37*
D10*
X66992500Y-23812500D03*
X56832500Y-23812500D03*
D11*
X59412500Y-19812500D03*
D12*
X61912500Y-23812500D03*
G36*
G01*
X57351188Y-22109850D02*
X57351183Y-22109845D01*
G75*
G02*
X57265155Y-20521183I751317J837345D01*
G01*
X58575157Y-19061183D01*
G75*
G02*
X60163819Y-18975155I837345J-751317D01*
G01*
X60163819Y-18975155D01*
G75*
G02*
X60249847Y-20563817I-751317J-837345D01*
G01*
X58939845Y-22023817D01*
G75*
G02*
X57351183Y-22109845I-837345J751317D01*
G01*
G37*
D11*
X64452500Y-18732500D03*
G36*
G01*
X64335983Y-20434895D02*
X64335097Y-20434834D01*
G75*
G02*
X63290166Y-19235097I77403J1122334D01*
G01*
X63330166Y-18655097D01*
G75*
G02*
X64529903Y-17610166I1122334J-77403D01*
G01*
X64529903Y-17610166D01*
G75*
G02*
X65574834Y-18809903I-77403J-1122334D01*
G01*
X65534834Y-19389903D01*
G75*
G02*
X64335097Y-20434834I-1122334J77403D01*
G01*
G37*
D10*
X47942500Y-23812500D03*
X37782500Y-23812500D03*
D11*
X40362500Y-19812500D03*
D12*
X42862500Y-23812500D03*
G36*
G01*
X38301188Y-22109850D02*
X38301183Y-22109845D01*
G75*
G02*
X38215155Y-20521183I751317J837345D01*
G01*
X39525157Y-19061183D01*
G75*
G02*
X41113819Y-18975155I837345J-751317D01*
G01*
X41113819Y-18975155D01*
G75*
G02*
X41199847Y-20563817I-751317J-837345D01*
G01*
X39889845Y-22023817D01*
G75*
G02*
X38301183Y-22109845I-837345J751317D01*
G01*
G37*
D11*
X45402500Y-18732500D03*
G36*
G01*
X45285983Y-20434895D02*
X45285097Y-20434834D01*
G75*
G02*
X44240166Y-19235097I77403J1122334D01*
G01*
X44280166Y-18655097D01*
G75*
G02*
X45479903Y-17610166I1122334J-77403D01*
G01*
X45479903Y-17610166D01*
G75*
G02*
X46524834Y-18809903I-77403J-1122334D01*
G01*
X46484834Y-19389903D01*
G75*
G02*
X45285097Y-20434834I-1122334J77403D01*
G01*
G37*
D21*
X246137500Y-16745000D03*
X245337500Y-16745000D03*
X240437500Y-16745000D03*
X239637500Y-16745000D03*
X239637500Y-16745000D03*
X240437500Y-16745000D03*
X245337500Y-16745000D03*
X246137500Y-16745000D03*
D22*
X241137500Y-16745000D03*
X241637500Y-16745000D03*
X242137500Y-16745000D03*
X243137500Y-16745000D03*
X243637500Y-16745000D03*
X244137500Y-16745000D03*
X244637500Y-16745000D03*
X242637500Y-16745000D03*
D23*
X247207500Y-15830000D03*
X238567500Y-15830000D03*
D24*
X239997500Y-15300000D03*
D25*
X238567500Y-11650000D03*
D24*
X245777500Y-15300000D03*
D25*
X247207500Y-11650000D03*
D26*
X209550000Y-90170000D03*
D27*
X207010000Y-90170000D03*
X209550000Y-92710000D03*
X207010000Y-92710000D03*
X209550000Y-95250000D03*
X207010000Y-95250000D03*
D14*
X293687500Y-102331250D03*
X293687500Y-105631250D03*
X269875000Y-102331250D03*
X269875000Y-105631250D03*
X246062500Y-102331250D03*
X246062500Y-105631250D03*
X222250000Y-102331250D03*
X222250000Y-105631250D03*
X150812500Y-102331250D03*
X150812500Y-105631250D03*
X79375000Y-102331250D03*
X79375000Y-105631250D03*
X55562500Y-102331250D03*
X55562500Y-105631250D03*
X31750000Y-102331250D03*
X31750000Y-105631250D03*
X279400000Y-83281250D03*
X279400000Y-86581250D03*
X243681250Y-83281250D03*
X243681250Y-86581250D03*
X224631250Y-83281250D03*
X224631250Y-86581250D03*
X205581250Y-83281250D03*
X205581250Y-86581250D03*
X186531250Y-83281250D03*
X186531250Y-86581250D03*
X167481250Y-83281250D03*
X167481250Y-86581250D03*
X148431250Y-83281250D03*
X148431250Y-86581250D03*
X129381250Y-83281250D03*
X129381250Y-86581250D03*
X110331250Y-83281250D03*
X110331250Y-86581250D03*
X91281250Y-83281250D03*
X91281250Y-86581250D03*
X72231250Y-83281250D03*
X72231250Y-86581250D03*
X41275000Y-83281250D03*
X41275000Y-86581250D03*
X284162500Y-64231250D03*
X284162500Y-67531250D03*
X253206250Y-64231250D03*
X253206250Y-67531250D03*
X234156250Y-64231250D03*
X234156250Y-67531250D03*
X215106250Y-64231250D03*
X215106250Y-67531250D03*
X196056250Y-64231250D03*
X196056250Y-67531250D03*
X177006250Y-64231250D03*
X177006250Y-67531250D03*
X157956250Y-64231250D03*
X157956250Y-67531250D03*
X138906250Y-64231250D03*
X138906250Y-67531250D03*
X119856250Y-64231250D03*
X119856250Y-67531250D03*
X100806250Y-64231250D03*
X100806250Y-67531250D03*
X81756250Y-64231250D03*
X81756250Y-67531250D03*
X62706250Y-64231250D03*
X62706250Y-67531250D03*
X36512500Y-64231250D03*
X36512500Y-67531250D03*
X291306250Y-45181250D03*
X291306250Y-48481250D03*
X267493750Y-45181250D03*
X267493750Y-48481250D03*
X248443750Y-45181250D03*
X248443750Y-48481250D03*
X229393750Y-45181250D03*
X229393750Y-48481250D03*
X210343750Y-45181250D03*
X210343750Y-48481250D03*
X191293750Y-45181250D03*
X191293750Y-48481250D03*
X172243750Y-45181250D03*
X172243750Y-48481250D03*
X153193750Y-45181250D03*
X153193750Y-48481250D03*
X134143750Y-45181250D03*
X134143750Y-48481250D03*
X115093750Y-45181250D03*
X115093750Y-48481250D03*
X96043750Y-45181250D03*
X96043750Y-48481250D03*
X76993750Y-45181250D03*
X76993750Y-48481250D03*
X57943750Y-45181250D03*
X57943750Y-48481250D03*
X34131250Y-45181250D03*
X34131250Y-48481250D03*
X286543750Y-26131250D03*
X286543750Y-29431250D03*
X257968750Y-26131250D03*
X257968750Y-29431250D03*
X219868750Y-26131250D03*
X219868750Y-29431250D03*
X200818750Y-26131250D03*
X200818750Y-29431250D03*
X181768750Y-26131250D03*
X181768750Y-29431250D03*
X162718750Y-26131250D03*
X162718750Y-29431250D03*
X143668750Y-26131250D03*
X143668750Y-29431250D03*
X124618750Y-26131250D03*
X124618750Y-29431250D03*
X105568750Y-26131250D03*
X105568750Y-29431250D03*
X86518750Y-26131250D03*
X86518750Y-29431250D03*
X67468750Y-26131250D03*
X67468750Y-29431250D03*
X48418750Y-26131250D03*
X48418750Y-29431250D03*
X29368750Y-26131250D03*
X29368750Y-29431250D03*
G36*
G01*
X188410000Y-99535000D02*
X188410000Y-98585000D01*
G75*
G02*
X188660000Y-98335000I250000J0D01*
G01*
X189335000Y-98335000D01*
G75*
G02*
X189585000Y-98585000I0J-250000D01*
G01*
X189585000Y-99535000D01*
G75*
G02*
X189335000Y-99785000I-250000J0D01*
G01*
X188660000Y-99785000D01*
G75*
G02*
X188410000Y-99535000I0J250000D01*
G01*
G37*
G36*
G01*
X186335000Y-99535000D02*
X186335000Y-98585000D01*
G75*
G02*
X186585000Y-98335000I250000J0D01*
G01*
X187260000Y-98335000D01*
G75*
G02*
X187510000Y-98585000I0J-250000D01*
G01*
X187510000Y-99535000D01*
G75*
G02*
X187260000Y-99785000I-250000J0D01*
G01*
X186585000Y-99785000D01*
G75*
G02*
X186335000Y-99535000I0J250000D01*
G01*
G37*
G36*
G01*
X181160000Y-85885000D02*
X181160000Y-86835000D01*
G75*
G02*
X180910000Y-87085000I-250000J0D01*
G01*
X180235000Y-87085000D01*
G75*
G02*
X179985000Y-86835000I0J250000D01*
G01*
X179985000Y-85885000D01*
G75*
G02*
X180235000Y-85635000I250000J0D01*
G01*
X180910000Y-85635000D01*
G75*
G02*
X181160000Y-85885000I0J-250000D01*
G01*
G37*
G36*
G01*
X183235000Y-85885000D02*
X183235000Y-86835000D01*
G75*
G02*
X182985000Y-87085000I-250000J0D01*
G01*
X182310000Y-87085000D01*
G75*
G02*
X182060000Y-86835000I0J250000D01*
G01*
X182060000Y-85885000D01*
G75*
G02*
X182310000Y-85635000I250000J0D01*
G01*
X182985000Y-85635000D01*
G75*
G02*
X183235000Y-85885000I0J-250000D01*
G01*
G37*
G36*
G01*
X174418500Y-86835000D02*
X174418500Y-85885000D01*
G75*
G02*
X174668500Y-85635000I250000J0D01*
G01*
X175343500Y-85635000D01*
G75*
G02*
X175593500Y-85885000I0J-250000D01*
G01*
X175593500Y-86835000D01*
G75*
G02*
X175343500Y-87085000I-250000J0D01*
G01*
X174668500Y-87085000D01*
G75*
G02*
X174418500Y-86835000I0J250000D01*
G01*
G37*
G36*
G01*
X172343500Y-86835000D02*
X172343500Y-85885000D01*
G75*
G02*
X172593500Y-85635000I250000J0D01*
G01*
X173268500Y-85635000D01*
G75*
G02*
X173518500Y-85885000I0J-250000D01*
G01*
X173518500Y-86835000D01*
G75*
G02*
X173268500Y-87085000I-250000J0D01*
G01*
X172593500Y-87085000D01*
G75*
G02*
X172343500Y-86835000I0J250000D01*
G01*
G37*
G36*
G01*
X168435000Y-99510000D02*
X169385000Y-99510000D01*
G75*
G02*
X169635000Y-99760000I0J-250000D01*
G01*
X169635000Y-100435000D01*
G75*
G02*
X169385000Y-100685000I-250000J0D01*
G01*
X168435000Y-100685000D01*
G75*
G02*
X168185000Y-100435000I0J250000D01*
G01*
X168185000Y-99760000D01*
G75*
G02*
X168435000Y-99510000I250000J0D01*
G01*
G37*
G36*
G01*
X168435000Y-97435000D02*
X169385000Y-97435000D01*
G75*
G02*
X169635000Y-97685000I0J-250000D01*
G01*
X169635000Y-98360000D01*
G75*
G02*
X169385000Y-98610000I-250000J0D01*
G01*
X168435000Y-98610000D01*
G75*
G02*
X168185000Y-98360000I0J250000D01*
G01*
X168185000Y-97685000D01*
G75*
G02*
X168435000Y-97435000I250000J0D01*
G01*
G37*
G36*
G01*
X187165000Y-94800000D02*
X186215000Y-94800000D01*
G75*
G02*
X185965000Y-94550000I0J250000D01*
G01*
X185965000Y-93875000D01*
G75*
G02*
X186215000Y-93625000I250000J0D01*
G01*
X187165000Y-93625000D01*
G75*
G02*
X187415000Y-93875000I0J-250000D01*
G01*
X187415000Y-94550000D01*
G75*
G02*
X187165000Y-94800000I-250000J0D01*
G01*
G37*
G36*
G01*
X187165000Y-96875000D02*
X186215000Y-96875000D01*
G75*
G02*
X185965000Y-96625000I0J250000D01*
G01*
X185965000Y-95950000D01*
G75*
G02*
X186215000Y-95700000I250000J0D01*
G01*
X187165000Y-95700000D01*
G75*
G02*
X187415000Y-95950000I0J-250000D01*
G01*
X187415000Y-96625000D01*
G75*
G02*
X187165000Y-96875000I-250000J0D01*
G01*
G37*
G36*
G01*
X183355000Y-104960000D02*
X182405000Y-104960000D01*
G75*
G02*
X182155000Y-104710000I0J250000D01*
G01*
X182155000Y-104035000D01*
G75*
G02*
X182405000Y-103785000I250000J0D01*
G01*
X183355000Y-103785000D01*
G75*
G02*
X183605000Y-104035000I0J-250000D01*
G01*
X183605000Y-104710000D01*
G75*
G02*
X183355000Y-104960000I-250000J0D01*
G01*
G37*
G36*
G01*
X183355000Y-107035000D02*
X182405000Y-107035000D01*
G75*
G02*
X182155000Y-106785000I0J250000D01*
G01*
X182155000Y-106110000D01*
G75*
G02*
X182405000Y-105860000I250000J0D01*
G01*
X183355000Y-105860000D01*
G75*
G02*
X183605000Y-106110000I0J-250000D01*
G01*
X183605000Y-106785000D01*
G75*
G02*
X183355000Y-107035000I-250000J0D01*
G01*
G37*
G36*
G01*
X172245000Y-105860000D02*
X173195000Y-105860000D01*
G75*
G02*
X173445000Y-106110000I0J-250000D01*
G01*
X173445000Y-106785000D01*
G75*
G02*
X173195000Y-107035000I-250000J0D01*
G01*
X172245000Y-107035000D01*
G75*
G02*
X171995000Y-106785000I0J250000D01*
G01*
X171995000Y-106110000D01*
G75*
G02*
X172245000Y-105860000I250000J0D01*
G01*
G37*
G36*
G01*
X172245000Y-103785000D02*
X173195000Y-103785000D01*
G75*
G02*
X173445000Y-104035000I0J-250000D01*
G01*
X173445000Y-104710000D01*
G75*
G02*
X173195000Y-104960000I-250000J0D01*
G01*
X172245000Y-104960000D01*
G75*
G02*
X171995000Y-104710000I0J250000D01*
G01*
X171995000Y-104035000D01*
G75*
G02*
X172245000Y-103785000I250000J0D01*
G01*
G37*
M02*
